<?xml version="1.0" encoding="utf-8" standalone="no"?>
<!DOCTYPE svg PUBLIC "-//W3C//DTD SVG 1.1//EN"
  "http://www.w3.org/Graphics/SVG/1.1/DTD/svg11.dtd">
<svg xmlns:xlink="http://www.w3.org/1999/xlink" width="250.56pt" height="216pt" viewBox="0 0 250.56 216" xmlns="http://www.w3.org/2000/svg" version="1.1">
 <metadata>
  <rdf:RDF xmlns:dc="http://purl.org/dc/elements/1.1/" xmlns:cc="http://creativecommons.org/ns#" xmlns:rdf="http://www.w3.org/1999/02/22-rdf-syntax-ns#">
   <cc:Work>
    <dc:type rdf:resource="http://purl.org/dc/dcmitype/StillImage"/>
    <dc:date>2026-06-12T01:08:16.091201</dc:date>
    <dc:format>image/svg+xml</dc:format>
    <dc:creator>
     <cc:Agent>
      <dc:title>Matplotlib v3.10.8, https://matplotlib.org/</dc:title>
     </cc:Agent>
    </dc:creator>
   </cc:Work>
  </rdf:RDF>
 </metadata>
 <defs>
  <style type="text/css">*{stroke-linejoin: round; stroke-linecap: butt}</style>
 </defs>
 <g id="figure_1">
  <g id="patch_1">
   <path d="M 0 216 
L 250.56 216 
L 250.56 0 
L 0 0 
z
" style="fill: #ffffff"/>
  </g>
  <g id="axes_1">
   <g id="patch_2">
    <path d="M 44.04 177.72 
L 240.56 177.72 
L 240.56 27.2 
L 44.04 27.2 
z
" style="fill: #ffffff"/>
   </g>
   <g id="FillBetweenPolyCollection_1">
    <defs>
     <path id="m090f7b75a9" d="M 52.972727 -85.499242 
L 52.972727 -45.121818 
L 53.570234 -45.173884 
L 54.167741 -45.226554 
L 54.765248 -45.279835 
L 55.362755 -45.333735 
L 55.960261 -45.38826 
L 56.557768 -45.443418 
L 57.155275 -45.499216 
L 57.752782 -45.555661 
L 58.350289 -45.612762 
L 58.947796 -45.670525 
L 59.545303 -45.728959 
L 60.142809 -45.78807 
L 60.740316 -45.847868 
L 61.337823 -45.90836 
L 61.93533 -45.969554 
L 62.532837 -46.031458 
L 63.130344 -46.09408 
L 63.72785 -46.157429 
L 64.325357 -46.221513 
L 64.922864 -46.286341 
L 65.520371 -46.351922 
L 66.117878 -46.418263 
L 66.715385 -46.485375 
L 67.312891 -46.553265 
L 67.910398 -46.621943 
L 68.507905 -46.691418 
L 69.105412 -46.761699 
L 69.702919 -46.832796 
L 70.300426 -46.904718 
L 70.897933 -46.977475 
L 71.495439 -47.051076 
L 72.092946 -47.125532 
L 72.690453 -47.200851 
L 73.28796 -47.277045 
L 73.885467 -47.354122 
L 74.482974 -47.432095 
L 75.08048 -47.510972 
L 75.677987 -47.590764 
L 76.275494 -47.671483 
L 76.873001 -47.753138 
L 77.470508 -47.835741 
L 78.068015 -47.919303 
L 78.665521 -48.003834 
L 79.263028 -48.089346 
L 79.860535 -48.175851 
L 80.458042 -48.26336 
L 81.055549 -48.351884 
L 81.653056 -48.441436 
L 82.250562 -48.532026 
L 82.848069 -48.623669 
L 83.445576 -48.716374 
L 84.043083 -48.810156 
L 84.64059 -48.905026 
L 85.238097 -49.000997 
L 85.835604 -49.098081 
L 86.43311 -49.196293 
L 87.030617 -49.295644 
L 87.628124 -49.396148 
L 88.225631 -49.497819 
L 88.823138 -49.600669 
L 89.420645 -49.704713 
L 90.018151 -49.809965 
L 90.615658 -49.916438 
L 91.213165 -50.024147 
L 91.810672 -50.133105 
L 92.408179 -50.243328 
L 93.005686 -50.354831 
L 93.603192 -50.467627 
L 94.200699 -50.581732 
L 94.798206 -50.697162 
L 95.395713 -50.813931 
L 95.99322 -50.932056 
L 96.590727 -51.051551 
L 97.188234 -51.172433 
L 97.78574 -51.294718 
L 98.383247 -51.418422 
L 98.980754 -51.543561 
L 99.578261 -51.670153 
L 100.175768 -51.798214 
L 100.773275 -51.927761 
L 101.370781 -52.058812 
L 101.968288 -52.191383 
L 102.565795 -52.325494 
L 103.163302 -52.46116 
L 103.760809 -52.598401 
L 104.358316 -52.737234 
L 104.955822 -52.877679 
L 105.553329 -53.019754 
L 106.150836 -53.163478 
L 106.748343 -53.308869 
L 107.34585 -53.455948 
L 107.943357 -53.604734 
L 108.540863 -53.755246 
L 109.13837 -53.907505 
L 109.735877 -54.061531 
L 110.333384 -54.217345 
L 110.930891 -54.374967 
L 111.528398 -54.534418 
L 112.125905 -54.69572 
L 112.723411 -54.858893 
L 113.320918 -55.02396 
L 113.918425 -55.190943 
L 114.515932 -55.359864 
L 115.113439 -55.530745 
L 115.710946 -55.70361 
L 116.308452 -55.87848 
L 116.905959 -56.05538 
L 117.503466 -56.234333 
L 118.100973 -56.415362 
L 118.69848 -56.598493 
L 119.295987 -56.783749 
L 119.893493 -56.971155 
L 120.491 -57.160735 
L 121.088507 -57.352516 
L 121.686014 -57.546523 
L 122.283521 -57.742781 
L 122.881028 -57.941316 
L 123.478535 -58.142156 
L 124.076041 -58.345326 
L 124.673548 -58.550855 
L 125.271055 -58.758768 
L 125.868562 -58.969095 
L 126.466069 -59.181862 
L 127.063576 -59.397099 
L 127.661082 -59.614833 
L 128.258589 -59.835094 
L 128.856096 -60.057912 
L 129.453603 -60.283315 
L 130.05111 -60.511334 
L 130.648617 -60.742 
L 131.246123 -60.975342 
L 131.84363 -61.211393 
L 132.441137 -61.450183 
L 133.038644 -61.691744 
L 133.636151 -61.936108 
L 134.233658 -62.183309 
L 134.831164 -62.433378 
L 135.428671 -62.686349 
L 136.026178 -62.942256 
L 136.623685 -63.201133 
L 137.221192 -63.463015 
L 137.818699 -63.727935 
L 138.416206 -63.99593 
L 139.013712 -64.267035 
L 139.611219 -64.541287 
L 140.208726 -64.818721 
L 140.806233 -65.099375 
L 141.40374 -65.383286 
L 142.001247 -65.670492 
L 142.598753 -65.961031 
L 143.19626 -66.254942 
L 143.793767 -66.552263 
L 144.391274 -66.853035 
L 144.988781 -67.157298 
L 145.586288 -67.465092 
L 146.183794 -67.776458 
L 146.781301 -68.091437 
L 147.378808 -68.410072 
L 147.976315 -68.732404 
L 148.573822 -69.058478 
L 149.171329 -69.388335 
L 149.768836 -69.722021 
L 150.366342 -70.059579 
L 150.963849 -70.401055 
L 151.561356 -70.746493 
L 152.158863 -71.095941 
L 152.75637 -71.449443 
L 153.353877 -71.807049 
L 153.951383 -72.168804 
L 154.54889 -72.534758 
L 155.146397 -72.904959 
L 155.743904 -73.279456 
L 156.341411 -73.658299 
L 156.938918 -74.041539 
L 157.536424 -74.429226 
L 158.133931 -74.821413 
L 158.731438 -75.218151 
L 159.328945 -75.619493 
L 159.926452 -76.025493 
L 160.523959 -76.436205 
L 161.121465 -76.851683 
L 161.718972 -77.271983 
L 162.316479 -77.69716 
L 162.913986 -78.127272 
L 163.511493 -78.562376 
L 164.109 -79.002529 
L 164.706507 -79.44779 
L 165.304013 -79.898218 
L 165.90152 -80.353874 
L 166.499027 -80.814818 
L 167.096534 -81.281111 
L 167.694041 -81.752816 
L 168.291548 -82.229995 
L 168.889054 -82.712711 
L 169.486561 -83.20103 
L 170.084068 -83.695016 
L 170.681575 -84.194735 
L 171.279082 -84.700253 
L 171.876589 -85.211638 
L 171.876589 -85.499242 
L 171.876589 -85.499242 
L 171.279082 -85.499242 
L 170.681575 -85.499242 
L 170.084068 -85.499242 
L 169.486561 -85.499242 
L 168.889054 -85.499242 
L 168.291548 -85.499242 
L 167.694041 -85.499242 
L 167.096534 -85.499242 
L 166.499027 -85.499242 
L 165.90152 -85.499242 
L 165.304013 -85.499242 
L 164.706507 -85.499242 
L 164.109 -85.499242 
L 163.511493 -85.499242 
L 162.913986 -85.499242 
L 162.316479 -85.499242 
L 161.718972 -85.499242 
L 161.121465 -85.499242 
L 160.523959 -85.499242 
L 159.926452 -85.499242 
L 159.328945 -85.499242 
L 158.731438 -85.499242 
L 158.133931 -85.499242 
L 157.536424 -85.499242 
L 156.938918 -85.499242 
L 156.341411 -85.499242 
L 155.743904 -85.499242 
L 155.146397 -85.499242 
L 154.54889 -85.499242 
L 153.951383 -85.499242 
L 153.353877 -85.499242 
L 152.75637 -85.499242 
L 152.158863 -85.499242 
L 151.561356 -85.499242 
L 150.963849 -85.499242 
L 150.366342 -85.499242 
L 149.768836 -85.499242 
L 149.171329 -85.499242 
L 148.573822 -85.499242 
L 147.976315 -85.499242 
L 147.378808 -85.499242 
L 146.781301 -85.499242 
L 146.183794 -85.499242 
L 145.586288 -85.499242 
L 144.988781 -85.499242 
L 144.391274 -85.499242 
L 143.793767 -85.499242 
L 143.19626 -85.499242 
L 142.598753 -85.499242 
L 142.001247 -85.499242 
L 141.40374 -85.499242 
L 140.806233 -85.499242 
L 140.208726 -85.499242 
L 139.611219 -85.499242 
L 139.013712 -85.499242 
L 138.416206 -85.499242 
L 137.818699 -85.499242 
L 137.221192 -85.499242 
L 136.623685 -85.499242 
L 136.026178 -85.499242 
L 135.428671 -85.499242 
L 134.831164 -85.499242 
L 134.233658 -85.499242 
L 133.636151 -85.499242 
L 133.038644 -85.499242 
L 132.441137 -85.499242 
L 131.84363 -85.499242 
L 131.246123 -85.499242 
L 130.648617 -85.499242 
L 130.05111 -85.499242 
L 129.453603 -85.499242 
L 128.856096 -85.499242 
L 128.258589 -85.499242 
L 127.661082 -85.499242 
L 127.063576 -85.499242 
L 126.466069 -85.499242 
L 125.868562 -85.499242 
L 125.271055 -85.499242 
L 124.673548 -85.499242 
L 124.076041 -85.499242 
L 123.478535 -85.499242 
L 122.881028 -85.499242 
L 122.283521 -85.499242 
L 121.686014 -85.499242 
L 121.088507 -85.499242 
L 120.491 -85.499242 
L 119.893493 -85.499242 
L 119.295987 -85.499242 
L 118.69848 -85.499242 
L 118.100973 -85.499242 
L 117.503466 -85.499242 
L 116.905959 -85.499242 
L 116.308452 -85.499242 
L 115.710946 -85.499242 
L 115.113439 -85.499242 
L 114.515932 -85.499242 
L 113.918425 -85.499242 
L 113.320918 -85.499242 
L 112.723411 -85.499242 
L 112.125905 -85.499242 
L 111.528398 -85.499242 
L 110.930891 -85.499242 
L 110.333384 -85.499242 
L 109.735877 -85.499242 
L 109.13837 -85.499242 
L 108.540863 -85.499242 
L 107.943357 -85.499242 
L 107.34585 -85.499242 
L 106.748343 -85.499242 
L 106.150836 -85.499242 
L 105.553329 -85.499242 
L 104.955822 -85.499242 
L 104.358316 -85.499242 
L 103.760809 -85.499242 
L 103.163302 -85.499242 
L 102.565795 -85.499242 
L 101.968288 -85.499242 
L 101.370781 -85.499242 
L 100.773275 -85.499242 
L 100.175768 -85.499242 
L 99.578261 -85.499242 
L 98.980754 -85.499242 
L 98.383247 -85.499242 
L 97.78574 -85.499242 
L 97.188234 -85.499242 
L 96.590727 -85.499242 
L 95.99322 -85.499242 
L 95.395713 -85.499242 
L 94.798206 -85.499242 
L 94.200699 -85.499242 
L 93.603192 -85.499242 
L 93.005686 -85.499242 
L 92.408179 -85.499242 
L 91.810672 -85.499242 
L 91.213165 -85.499242 
L 90.615658 -85.499242 
L 90.018151 -85.499242 
L 89.420645 -85.499242 
L 88.823138 -85.499242 
L 88.225631 -85.499242 
L 87.628124 -85.499242 
L 87.030617 -85.499242 
L 86.43311 -85.499242 
L 85.835604 -85.499242 
L 85.238097 -85.499242 
L 84.64059 -85.499242 
L 84.043083 -85.499242 
L 83.445576 -85.499242 
L 82.848069 -85.499242 
L 82.250562 -85.499242 
L 81.653056 -85.499242 
L 81.055549 -85.499242 
L 80.458042 -85.499242 
L 79.860535 -85.499242 
L 79.263028 -85.499242 
L 78.665521 -85.499242 
L 78.068015 -85.499242 
L 77.470508 -85.499242 
L 76.873001 -85.499242 
L 76.275494 -85.499242 
L 75.677987 -85.499242 
L 75.08048 -85.499242 
L 74.482974 -85.499242 
L 73.885467 -85.499242 
L 73.28796 -85.499242 
L 72.690453 -85.499242 
L 72.092946 -85.499242 
L 71.495439 -85.499242 
L 70.897933 -85.499242 
L 70.300426 -85.499242 
L 69.702919 -85.499242 
L 69.105412 -85.499242 
L 68.507905 -85.499242 
L 67.910398 -85.499242 
L 67.312891 -85.499242 
L 66.715385 -85.499242 
L 66.117878 -85.499242 
L 65.520371 -85.499242 
L 64.922864 -85.499242 
L 64.325357 -85.499242 
L 63.72785 -85.499242 
L 63.130344 -85.499242 
L 62.532837 -85.499242 
L 61.93533 -85.499242 
L 61.337823 -85.499242 
L 60.740316 -85.499242 
L 60.142809 -85.499242 
L 59.545303 -85.499242 
L 58.947796 -85.499242 
L 58.350289 -85.499242 
L 57.752782 -85.499242 
L 57.155275 -85.499242 
L 56.557768 -85.499242 
L 55.960261 -85.499242 
L 55.362755 -85.499242 
L 54.765248 -85.499242 
L 54.167741 -85.499242 
L 53.570234 -85.499242 
L 52.972727 -85.499242 
z
" style="stroke: #008000; stroke-opacity: 0.1"/>
    </defs>
    <g clip-path="url(#p7404b4b680)">
     <use xlink:href="#m090f7b75a9" x="0" y="216" style="fill: #008000; fill-opacity: 0.1; stroke: #008000; stroke-opacity: 0.1"/>
    </g>
   </g>
   <g id="FillBetweenPolyCollection_2">
    <defs>
     <path id="m09cb9949c3" d="M 172.474095 -85.499242 
L 172.474095 -85.728957 
L 173.071602 -86.252281 
L 173.669109 -86.781677 
L 174.266616 -87.317217 
L 174.864123 -87.858973 
L 175.46163 -88.407015 
L 176.059137 -88.961418 
L 176.656643 -89.522255 
L 177.25415 -90.089601 
L 177.851657 -90.66353 
L 178.449164 -91.244121 
L 179.046671 -91.831449 
L 179.644178 -92.425593 
L 180.241684 -93.026633 
L 180.839191 -93.634648 
L 181.436698 -94.249719 
L 182.034205 -94.871928 
L 182.631712 -95.501358 
L 183.229219 -96.138093 
L 183.826725 -96.782217 
L 184.424232 -97.433816 
L 185.021739 -98.092978 
L 185.619246 -98.759789 
L 186.216753 -99.434339 
L 186.81426 -100.116717 
L 187.411766 -100.807014 
L 188.009273 -101.505322 
L 188.60678 -102.211735 
L 189.204287 -102.926345 
L 189.801794 -103.649249 
L 190.399301 -104.380543 
L 190.996808 -105.120323 
L 191.594314 -105.868688 
L 192.191821 -106.625739 
L 192.789328 -107.391575 
L 193.386835 -108.166299 
L 193.984342 -108.950014 
L 194.581849 -109.742824 
L 195.179355 -110.544835 
L 195.776862 -111.356154 
L 196.374369 -112.176888 
L 196.971876 -113.007147 
L 197.569383 -113.847042 
L 198.16689 -114.696683 
L 198.764396 -115.556185 
L 199.361903 -116.425662 
L 199.95941 -117.305229 
L 200.556917 -118.195004 
L 201.154424 -119.095105 
L 201.751931 -120.005652 
L 202.349438 -120.926766 
L 202.946944 -121.85857 
L 203.544451 -122.801188 
L 204.141958 -123.754745 
L 204.739465 -124.719368 
L 205.336972 -125.695186 
L 205.934479 -126.682329 
L 206.531985 -127.680928 
L 207.129492 -128.691116 
L 207.726999 -129.713027 
L 208.324506 -130.746798 
L 208.922013 -131.792566 
L 209.51952 -132.850471 
L 210.117026 -133.920652 
L 210.714533 -135.003254 
L 211.31204 -136.09842 
L 211.909547 -137.206295 
L 212.507054 -138.327027 
L 213.104561 -139.460766 
L 213.702067 -140.607662 
L 214.299574 -141.767869 
L 214.897081 -142.941539 
L 215.494588 -144.128831 
L 216.092095 -145.329902 
L 216.689602 -146.544911 
L 217.287109 -147.774021 
L 217.884615 -149.017394 
L 218.482122 -150.275198 
L 219.079629 -151.547599 
L 219.677136 -152.834766 
L 220.274643 -154.136872 
L 220.87215 -155.454088 
L 221.469656 -156.786592 
L 222.067163 -158.134559 
L 222.66467 -159.49817 
L 223.262177 -160.877606 
L 223.859684 -162.273051 
L 224.457191 -163.68469 
L 225.054697 -165.112712 
L 225.652204 -166.557306 
L 226.249711 -168.018666 
L 226.847218 -169.496985 
L 227.444725 -170.99246 
L 228.042232 -172.50529 
L 228.639739 -174.035678 
L 229.237245 -175.583826 
L 229.834752 -177.14994 
L 230.432259 -178.73423 
L 231.029766 -180.336906 
L 231.627273 -181.958182 
L 231.627273 -85.499242 
L 231.627273 -85.499242 
L 231.029766 -85.499242 
L 230.432259 -85.499242 
L 229.834752 -85.499242 
L 229.237245 -85.499242 
L 228.639739 -85.499242 
L 228.042232 -85.499242 
L 227.444725 -85.499242 
L 226.847218 -85.499242 
L 226.249711 -85.499242 
L 225.652204 -85.499242 
L 225.054697 -85.499242 
L 224.457191 -85.499242 
L 223.859684 -85.499242 
L 223.262177 -85.499242 
L 222.66467 -85.499242 
L 222.067163 -85.499242 
L 221.469656 -85.499242 
L 220.87215 -85.499242 
L 220.274643 -85.499242 
L 219.677136 -85.499242 
L 219.079629 -85.499242 
L 218.482122 -85.499242 
L 217.884615 -85.499242 
L 217.287109 -85.499242 
L 216.689602 -85.499242 
L 216.092095 -85.499242 
L 215.494588 -85.499242 
L 214.897081 -85.499242 
L 214.299574 -85.499242 
L 213.702067 -85.499242 
L 213.104561 -85.499242 
L 212.507054 -85.499242 
L 211.909547 -85.499242 
L 211.31204 -85.499242 
L 210.714533 -85.499242 
L 210.117026 -85.499242 
L 209.51952 -85.499242 
L 208.922013 -85.499242 
L 208.324506 -85.499242 
L 207.726999 -85.499242 
L 207.129492 -85.499242 
L 206.531985 -85.499242 
L 205.934479 -85.499242 
L 205.336972 -85.499242 
L 204.739465 -85.499242 
L 204.141958 -85.499242 
L 203.544451 -85.499242 
L 202.946944 -85.499242 
L 202.349438 -85.499242 
L 201.751931 -85.499242 
L 201.154424 -85.499242 
L 200.556917 -85.499242 
L 199.95941 -85.499242 
L 199.361903 -85.499242 
L 198.764396 -85.499242 
L 198.16689 -85.499242 
L 197.569383 -85.499242 
L 196.971876 -85.499242 
L 196.374369 -85.499242 
L 195.776862 -85.499242 
L 195.179355 -85.499242 
L 194.581849 -85.499242 
L 193.984342 -85.499242 
L 193.386835 -85.499242 
L 192.789328 -85.499242 
L 192.191821 -85.499242 
L 191.594314 -85.499242 
L 190.996808 -85.499242 
L 190.399301 -85.499242 
L 189.801794 -85.499242 
L 189.204287 -85.499242 
L 188.60678 -85.499242 
L 188.009273 -85.499242 
L 187.411766 -85.499242 
L 186.81426 -85.499242 
L 186.216753 -85.499242 
L 185.619246 -85.499242 
L 185.021739 -85.499242 
L 184.424232 -85.499242 
L 183.826725 -85.499242 
L 183.229219 -85.499242 
L 182.631712 -85.499242 
L 182.034205 -85.499242 
L 181.436698 -85.499242 
L 180.839191 -85.499242 
L 180.241684 -85.499242 
L 179.644178 -85.499242 
L 179.046671 -85.499242 
L 178.449164 -85.499242 
L 177.851657 -85.499242 
L 177.25415 -85.499242 
L 176.656643 -85.499242 
L 176.059137 -85.499242 
L 175.46163 -85.499242 
L 174.864123 -85.499242 
L 174.266616 -85.499242 
L 173.669109 -85.499242 
L 173.071602 -85.499242 
L 172.474095 -85.499242 
z
" style="stroke: #ff0000; stroke-opacity: 0.1"/>
    </defs>
    <g clip-path="url(#p7404b4b680)">
     <use xlink:href="#m09cb9949c3" x="0" y="216" style="fill: #ff0000; fill-opacity: 0.1; stroke: #ff0000; stroke-opacity: 0.1"/>
    </g>
   </g>
   <g id="matplotlib.axis_1">
    <g id="xtick_1">
     <g id="line2d_1">
      <path d="M 52.972727 177.72 
L 52.972727 27.2 
" clip-path="url(#p7404b4b680)" style="fill: none; stroke-dasharray: 0.8,1.32; stroke-dashoffset: 0; stroke: #b0b0b0; stroke-opacity: 0.6; stroke-width: 0.8"/>
     </g>
     <g id="line2d_2">
      <defs>
       <path id="md4ae584995" d="M 0 0 
L 0 3.5 
" style="stroke: #000000; stroke-width: 0.8"/>
      </defs>
      <g>
       <use xlink:href="#md4ae584995" x="52.972727" y="177.72" style="stroke: #000000; stroke-width: 0.8"/>
      </g>
     </g>
     <g id="text_1">
      <!-- 15 -->
      <g transform="translate(46.610227 192.318437) scale(0.1 -0.1)">
       <defs>
        <path id="DejaVuSans-31" d="M 794 531 
L 1825 531 
L 1825 4091 
L 703 3866 
L 703 4441 
L 1819 4666 
L 2450 4666 
L 2450 531 
L 3481 531 
L 3481 0 
L 794 0 
L 794 531 
z
" transform="scale(0.015625)"/>
        <path id="DejaVuSans-35" d="M 691 4666 
L 3169 4666 
L 3169 4134 
L 1269 4134 
L 1269 2991 
Q 1406 3038 1543 3061 
Q 1681 3084 1819 3084 
Q 2600 3084 3056 2656 
Q 3513 2228 3513 1497 
Q 3513 744 3044 326 
Q 2575 -91 1722 -91 
Q 1428 -91 1123 -41 
Q 819 9 494 109 
L 494 744 
Q 775 591 1075 516 
Q 1375 441 1709 441 
Q 2250 441 2565 725 
Q 2881 1009 2881 1497 
Q 2881 1984 2565 2268 
Q 2250 2553 1709 2553 
Q 1456 2553 1204 2497 
Q 953 2441 691 2322 
L 691 4666 
z
" transform="scale(0.015625)"/>
       </defs>
       <use xlink:href="#DejaVuSans-31"/>
       <use xlink:href="#DejaVuSans-35" transform="translate(63.623047 0)"/>
      </g>
     </g>
    </g>
    <g id="xtick_2">
     <g id="line2d_3">
      <path d="M 112.524242 177.72 
L 112.524242 27.2 
" clip-path="url(#p7404b4b680)" style="fill: none; stroke-dasharray: 0.8,1.32; stroke-dashoffset: 0; stroke: #b0b0b0; stroke-opacity: 0.6; stroke-width: 0.8"/>
     </g>
     <g id="line2d_4">
      <g>
       <use xlink:href="#md4ae584995" x="112.524242" y="177.72" style="stroke: #000000; stroke-width: 0.8"/>
      </g>
     </g>
     <g id="text_2">
      <!-- 20 -->
      <g transform="translate(106.161742 192.318437) scale(0.1 -0.1)">
       <defs>
        <path id="DejaVuSans-32" d="M 1228 531 
L 3431 531 
L 3431 0 
L 469 0 
L 469 531 
Q 828 903 1448 1529 
Q 2069 2156 2228 2338 
Q 2531 2678 2651 2914 
Q 2772 3150 2772 3378 
Q 2772 3750 2511 3984 
Q 2250 4219 1831 4219 
Q 1534 4219 1204 4116 
Q 875 4013 500 3803 
L 500 4441 
Q 881 4594 1212 4672 
Q 1544 4750 1819 4750 
Q 2544 4750 2975 4387 
Q 3406 4025 3406 3419 
Q 3406 3131 3298 2873 
Q 3191 2616 2906 2266 
Q 2828 2175 2409 1742 
Q 1991 1309 1228 531 
z
" transform="scale(0.015625)"/>
        <path id="DejaVuSans-30" d="M 2034 4250 
Q 1547 4250 1301 3770 
Q 1056 3291 1056 2328 
Q 1056 1369 1301 889 
Q 1547 409 2034 409 
Q 2525 409 2770 889 
Q 3016 1369 3016 2328 
Q 3016 3291 2770 3770 
Q 2525 4250 2034 4250 
z
M 2034 4750 
Q 2819 4750 3233 4129 
Q 3647 3509 3647 2328 
Q 3647 1150 3233 529 
Q 2819 -91 2034 -91 
Q 1250 -91 836 529 
Q 422 1150 422 2328 
Q 422 3509 836 4129 
Q 1250 4750 2034 4750 
z
" transform="scale(0.015625)"/>
       </defs>
       <use xlink:href="#DejaVuSans-32"/>
       <use xlink:href="#DejaVuSans-30" transform="translate(63.623047 0)"/>
      </g>
     </g>
    </g>
    <g id="xtick_3">
     <g id="line2d_5">
      <path d="M 172.075758 177.72 
L 172.075758 27.2 
" clip-path="url(#p7404b4b680)" style="fill: none; stroke-dasharray: 0.8,1.32; stroke-dashoffset: 0; stroke: #b0b0b0; stroke-opacity: 0.6; stroke-width: 0.8"/>
     </g>
     <g id="line2d_6">
      <g>
       <use xlink:href="#md4ae584995" x="172.075758" y="177.72" style="stroke: #000000; stroke-width: 0.8"/>
      </g>
     </g>
     <g id="text_3">
      <!-- 25 -->
      <g transform="translate(165.713258 192.318437) scale(0.1 -0.1)">
       <use xlink:href="#DejaVuSans-32"/>
       <use xlink:href="#DejaVuSans-35" transform="translate(63.623047 0)"/>
      </g>
     </g>
    </g>
    <g id="xtick_4">
     <g id="line2d_7">
      <path d="M 231.627273 177.72 
L 231.627273 27.2 
" clip-path="url(#p7404b4b680)" style="fill: none; stroke-dasharray: 0.8,1.32; stroke-dashoffset: 0; stroke: #b0b0b0; stroke-opacity: 0.6; stroke-width: 0.8"/>
     </g>
     <g id="line2d_8">
      <g>
       <use xlink:href="#md4ae584995" x="231.627273" y="177.72" style="stroke: #000000; stroke-width: 0.8"/>
      </g>
     </g>
     <g id="text_4">
      <!-- 30 -->
      <g transform="translate(225.264773 192.318437) scale(0.1 -0.1)">
       <defs>
        <path id="DejaVuSans-33" d="M 2597 2516 
Q 3050 2419 3304 2112 
Q 3559 1806 3559 1356 
Q 3559 666 3084 287 
Q 2609 -91 1734 -91 
Q 1441 -91 1130 -33 
Q 819 25 488 141 
L 488 750 
Q 750 597 1062 519 
Q 1375 441 1716 441 
Q 2309 441 2620 675 
Q 2931 909 2931 1356 
Q 2931 1769 2642 2001 
Q 2353 2234 1838 2234 
L 1294 2234 
L 1294 2753 
L 1863 2753 
Q 2328 2753 2575 2939 
Q 2822 3125 2822 3475 
Q 2822 3834 2567 4026 
Q 2313 4219 1838 4219 
Q 1578 4219 1281 4162 
Q 984 4106 628 3988 
L 628 4550 
Q 988 4650 1302 4700 
Q 1616 4750 1894 4750 
Q 2613 4750 3031 4423 
Q 3450 4097 3450 3541 
Q 3450 3153 3228 2886 
Q 3006 2619 2597 2516 
z
" transform="scale(0.015625)"/>
       </defs>
       <use xlink:href="#DejaVuSans-33"/>
       <use xlink:href="#DejaVuSans-30" transform="translate(63.623047 0)"/>
      </g>
     </g>
    </g>
    <g id="text_5">
     <!-- Service Duration (Years) -->
     <g transform="translate(93.925625 204.476875) scale(0.08 -0.08)">
      <defs>
       <path id="DejaVuSans-53" d="M 3425 4513 
L 3425 3897 
Q 3066 4069 2747 4153 
Q 2428 4238 2131 4238 
Q 1616 4238 1336 4038 
Q 1056 3838 1056 3469 
Q 1056 3159 1242 3001 
Q 1428 2844 1947 2747 
L 2328 2669 
Q 3034 2534 3370 2195 
Q 3706 1856 3706 1288 
Q 3706 609 3251 259 
Q 2797 -91 1919 -91 
Q 1588 -91 1214 -16 
Q 841 59 441 206 
L 441 856 
Q 825 641 1194 531 
Q 1563 422 1919 422 
Q 2459 422 2753 634 
Q 3047 847 3047 1241 
Q 3047 1584 2836 1778 
Q 2625 1972 2144 2069 
L 1759 2144 
Q 1053 2284 737 2584 
Q 422 2884 422 3419 
Q 422 4038 858 4394 
Q 1294 4750 2059 4750 
Q 2388 4750 2728 4690 
Q 3069 4631 3425 4513 
z
" transform="scale(0.015625)"/>
       <path id="DejaVuSans-65" d="M 3597 1894 
L 3597 1613 
L 953 1613 
Q 991 1019 1311 708 
Q 1631 397 2203 397 
Q 2534 397 2845 478 
Q 3156 559 3463 722 
L 3463 178 
Q 3153 47 2828 -22 
Q 2503 -91 2169 -91 
Q 1331 -91 842 396 
Q 353 884 353 1716 
Q 353 2575 817 3079 
Q 1281 3584 2069 3584 
Q 2775 3584 3186 3129 
Q 3597 2675 3597 1894 
z
M 3022 2063 
Q 3016 2534 2758 2815 
Q 2500 3097 2075 3097 
Q 1594 3097 1305 2825 
Q 1016 2553 972 2059 
L 3022 2063 
z
" transform="scale(0.015625)"/>
       <path id="DejaVuSans-72" d="M 2631 2963 
Q 2534 3019 2420 3045 
Q 2306 3072 2169 3072 
Q 1681 3072 1420 2755 
Q 1159 2438 1159 1844 
L 1159 0 
L 581 0 
L 581 3500 
L 1159 3500 
L 1159 2956 
Q 1341 3275 1631 3429 
Q 1922 3584 2338 3584 
Q 2397 3584 2469 3576 
Q 2541 3569 2628 3553 
L 2631 2963 
z
" transform="scale(0.015625)"/>
       <path id="DejaVuSans-76" d="M 191 3500 
L 800 3500 
L 1894 563 
L 2988 3500 
L 3597 3500 
L 2284 0 
L 1503 0 
L 191 3500 
z
" transform="scale(0.015625)"/>
       <path id="DejaVuSans-69" d="M 603 3500 
L 1178 3500 
L 1178 0 
L 603 0 
L 603 3500 
z
M 603 4863 
L 1178 4863 
L 1178 4134 
L 603 4134 
L 603 4863 
z
" transform="scale(0.015625)"/>
       <path id="DejaVuSans-63" d="M 3122 3366 
L 3122 2828 
Q 2878 2963 2633 3030 
Q 2388 3097 2138 3097 
Q 1578 3097 1268 2742 
Q 959 2388 959 1747 
Q 959 1106 1268 751 
Q 1578 397 2138 397 
Q 2388 397 2633 464 
Q 2878 531 3122 666 
L 3122 134 
Q 2881 22 2623 -34 
Q 2366 -91 2075 -91 
Q 1284 -91 818 406 
Q 353 903 353 1747 
Q 353 2603 823 3093 
Q 1294 3584 2113 3584 
Q 2378 3584 2631 3529 
Q 2884 3475 3122 3366 
z
" transform="scale(0.015625)"/>
       <path id="DejaVuSans-20" transform="scale(0.015625)"/>
       <path id="DejaVuSans-44" d="M 1259 4147 
L 1259 519 
L 2022 519 
Q 2988 519 3436 956 
Q 3884 1394 3884 2338 
Q 3884 3275 3436 3711 
Q 2988 4147 2022 4147 
L 1259 4147 
z
M 628 4666 
L 1925 4666 
Q 3281 4666 3915 4102 
Q 4550 3538 4550 2338 
Q 4550 1131 3912 565 
Q 3275 0 1925 0 
L 628 0 
L 628 4666 
z
" transform="scale(0.015625)"/>
       <path id="DejaVuSans-75" d="M 544 1381 
L 544 3500 
L 1119 3500 
L 1119 1403 
Q 1119 906 1312 657 
Q 1506 409 1894 409 
Q 2359 409 2629 706 
Q 2900 1003 2900 1516 
L 2900 3500 
L 3475 3500 
L 3475 0 
L 2900 0 
L 2900 538 
Q 2691 219 2414 64 
Q 2138 -91 1772 -91 
Q 1169 -91 856 284 
Q 544 659 544 1381 
z
M 1991 3584 
L 1991 3584 
z
" transform="scale(0.015625)"/>
       <path id="DejaVuSans-61" d="M 2194 1759 
Q 1497 1759 1228 1600 
Q 959 1441 959 1056 
Q 959 750 1161 570 
Q 1363 391 1709 391 
Q 2188 391 2477 730 
Q 2766 1069 2766 1631 
L 2766 1759 
L 2194 1759 
z
M 3341 1997 
L 3341 0 
L 2766 0 
L 2766 531 
Q 2569 213 2275 61 
Q 1981 -91 1556 -91 
Q 1019 -91 701 211 
Q 384 513 384 1019 
Q 384 1609 779 1909 
Q 1175 2209 1959 2209 
L 2766 2209 
L 2766 2266 
Q 2766 2663 2505 2880 
Q 2244 3097 1772 3097 
Q 1472 3097 1187 3025 
Q 903 2953 641 2809 
L 641 3341 
Q 956 3463 1253 3523 
Q 1550 3584 1831 3584 
Q 2591 3584 2966 3190 
Q 3341 2797 3341 1997 
z
" transform="scale(0.015625)"/>
       <path id="DejaVuSans-74" d="M 1172 4494 
L 1172 3500 
L 2356 3500 
L 2356 3053 
L 1172 3053 
L 1172 1153 
Q 1172 725 1289 603 
Q 1406 481 1766 481 
L 2356 481 
L 2356 0 
L 1766 0 
Q 1100 0 847 248 
Q 594 497 594 1153 
L 594 3053 
L 172 3053 
L 172 3500 
L 594 3500 
L 594 4494 
L 1172 4494 
z
" transform="scale(0.015625)"/>
       <path id="DejaVuSans-6f" d="M 1959 3097 
Q 1497 3097 1228 2736 
Q 959 2375 959 1747 
Q 959 1119 1226 758 
Q 1494 397 1959 397 
Q 2419 397 2687 759 
Q 2956 1122 2956 1747 
Q 2956 2369 2687 2733 
Q 2419 3097 1959 3097 
z
M 1959 3584 
Q 2709 3584 3137 3096 
Q 3566 2609 3566 1747 
Q 3566 888 3137 398 
Q 2709 -91 1959 -91 
Q 1206 -91 779 398 
Q 353 888 353 1747 
Q 353 2609 779 3096 
Q 1206 3584 1959 3584 
z
" transform="scale(0.015625)"/>
       <path id="DejaVuSans-6e" d="M 3513 2113 
L 3513 0 
L 2938 0 
L 2938 2094 
Q 2938 2591 2744 2837 
Q 2550 3084 2163 3084 
Q 1697 3084 1428 2787 
Q 1159 2491 1159 1978 
L 1159 0 
L 581 0 
L 581 3500 
L 1159 3500 
L 1159 2956 
Q 1366 3272 1645 3428 
Q 1925 3584 2291 3584 
Q 2894 3584 3203 3211 
Q 3513 2838 3513 2113 
z
" transform="scale(0.015625)"/>
       <path id="DejaVuSans-28" d="M 1984 4856 
Q 1566 4138 1362 3434 
Q 1159 2731 1159 2009 
Q 1159 1288 1364 580 
Q 1569 -128 1984 -844 
L 1484 -844 
Q 1016 -109 783 600 
Q 550 1309 550 2009 
Q 550 2706 781 3412 
Q 1013 4119 1484 4856 
L 1984 4856 
z
" transform="scale(0.015625)"/>
       <path id="DejaVuSans-59" d="M -13 4666 
L 666 4666 
L 1959 2747 
L 3244 4666 
L 3922 4666 
L 2272 2222 
L 2272 0 
L 1638 0 
L 1638 2222 
L -13 4666 
z
" transform="scale(0.015625)"/>
       <path id="DejaVuSans-73" d="M 2834 3397 
L 2834 2853 
Q 2591 2978 2328 3040 
Q 2066 3103 1784 3103 
Q 1356 3103 1142 2972 
Q 928 2841 928 2578 
Q 928 2378 1081 2264 
Q 1234 2150 1697 2047 
L 1894 2003 
Q 2506 1872 2764 1633 
Q 3022 1394 3022 966 
Q 3022 478 2636 193 
Q 2250 -91 1575 -91 
Q 1294 -91 989 -36 
Q 684 19 347 128 
L 347 722 
Q 666 556 975 473 
Q 1284 391 1588 391 
Q 1994 391 2212 530 
Q 2431 669 2431 922 
Q 2431 1156 2273 1281 
Q 2116 1406 1581 1522 
L 1381 1569 
Q 847 1681 609 1914 
Q 372 2147 372 2553 
Q 372 3047 722 3315 
Q 1072 3584 1716 3584 
Q 2034 3584 2315 3537 
Q 2597 3491 2834 3397 
z
" transform="scale(0.015625)"/>
       <path id="DejaVuSans-29" d="M 513 4856 
L 1013 4856 
Q 1481 4119 1714 3412 
Q 1947 2706 1947 2009 
Q 1947 1309 1714 600 
Q 1481 -109 1013 -844 
L 513 -844 
Q 928 -128 1133 580 
Q 1338 1288 1338 2009 
Q 1338 2731 1133 3434 
Q 928 4138 513 4856 
z
" transform="scale(0.015625)"/>
      </defs>
      <use xlink:href="#DejaVuSans-53"/>
      <use xlink:href="#DejaVuSans-65" transform="translate(63.476562 0)"/>
      <use xlink:href="#DejaVuSans-72" transform="translate(125 0)"/>
      <use xlink:href="#DejaVuSans-76" transform="translate(166.113281 0)"/>
      <use xlink:href="#DejaVuSans-69" transform="translate(225.292969 0)"/>
      <use xlink:href="#DejaVuSans-63" transform="translate(253.076172 0)"/>
      <use xlink:href="#DejaVuSans-65" transform="translate(308.056641 0)"/>
      <use xlink:href="#DejaVuSans-20" transform="translate(369.580078 0)"/>
      <use xlink:href="#DejaVuSans-44" transform="translate(401.367188 0)"/>
      <use xlink:href="#DejaVuSans-75" transform="translate(478.369141 0)"/>
      <use xlink:href="#DejaVuSans-72" transform="translate(541.748047 0)"/>
      <use xlink:href="#DejaVuSans-61" transform="translate(582.861328 0)"/>
      <use xlink:href="#DejaVuSans-74" transform="translate(644.140625 0)"/>
      <use xlink:href="#DejaVuSans-69" transform="translate(683.349609 0)"/>
      <use xlink:href="#DejaVuSans-6f" transform="translate(711.132812 0)"/>
      <use xlink:href="#DejaVuSans-6e" transform="translate(772.314453 0)"/>
      <use xlink:href="#DejaVuSans-20" transform="translate(835.693359 0)"/>
      <use xlink:href="#DejaVuSans-28" transform="translate(867.480469 0)"/>
      <use xlink:href="#DejaVuSans-59" transform="translate(906.494141 0)"/>
      <use xlink:href="#DejaVuSans-65" transform="translate(954.328125 0)"/>
      <use xlink:href="#DejaVuSans-61" transform="translate(1015.851562 0)"/>
      <use xlink:href="#DejaVuSans-72" transform="translate(1077.130859 0)"/>
      <use xlink:href="#DejaVuSans-73" transform="translate(1118.244141 0)"/>
      <use xlink:href="#DejaVuSans-29" transform="translate(1170.34375 0)"/>
     </g>
    </g>
   </g>
   <g id="matplotlib.axis_2">
    <g id="ytick_1">
     <g id="line2d_9">
      <path d="M 44.04 175.364562 
L 240.56 175.364562 
" clip-path="url(#p7404b4b680)" style="fill: none; stroke-dasharray: 0.8,1.32; stroke-dashoffset: 0; stroke: #b0b0b0; stroke-opacity: 0.6; stroke-width: 0.8"/>
     </g>
     <g id="line2d_10">
      <defs>
       <path id="m555057a6cb" d="M 0 0 
L -3.5 0 
" style="stroke: #000000; stroke-width: 0.8"/>
      </defs>
      <g>
       <use xlink:href="#m555057a6cb" x="44.04" y="175.364562" style="stroke: #000000; stroke-width: 0.8"/>
      </g>
     </g>
     <g id="text_6">
      <!-- 0.0 -->
      <g transform="translate(21.136875 179.163781) scale(0.1 -0.1)">
       <defs>
        <path id="DejaVuSans-2e" d="M 684 794 
L 1344 794 
L 1344 0 
L 684 0 
L 684 794 
z
" transform="scale(0.015625)"/>
       </defs>
       <use xlink:href="#DejaVuSans-30"/>
       <use xlink:href="#DejaVuSans-2e" transform="translate(63.623047 0)"/>
       <use xlink:href="#DejaVuSans-30" transform="translate(95.410156 0)"/>
      </g>
     </g>
    </g>
    <g id="ytick_2">
     <g id="line2d_11">
      <path d="M 44.04 152.93266 
L 240.56 152.93266 
" clip-path="url(#p7404b4b680)" style="fill: none; stroke-dasharray: 0.8,1.32; stroke-dashoffset: 0; stroke: #b0b0b0; stroke-opacity: 0.6; stroke-width: 0.8"/>
     </g>
     <g id="line2d_12">
      <g>
       <use xlink:href="#m555057a6cb" x="44.04" y="152.93266" style="stroke: #000000; stroke-width: 0.8"/>
      </g>
     </g>
     <g id="text_7">
      <!-- 0.5 -->
      <g transform="translate(21.136875 156.731879) scale(0.1 -0.1)">
       <use xlink:href="#DejaVuSans-30"/>
       <use xlink:href="#DejaVuSans-2e" transform="translate(63.623047 0)"/>
       <use xlink:href="#DejaVuSans-35" transform="translate(95.410156 0)"/>
      </g>
     </g>
    </g>
    <g id="ytick_3">
     <g id="line2d_13">
      <path d="M 44.04 130.500758 
L 240.56 130.500758 
" clip-path="url(#p7404b4b680)" style="fill: none; stroke-dasharray: 0.8,1.32; stroke-dashoffset: 0; stroke: #b0b0b0; stroke-opacity: 0.6; stroke-width: 0.8"/>
     </g>
     <g id="line2d_14">
      <g>
       <use xlink:href="#m555057a6cb" x="44.04" y="130.500758" style="stroke: #000000; stroke-width: 0.8"/>
      </g>
     </g>
     <g id="text_8">
      <!-- 1.0 -->
      <g transform="translate(21.136875 134.299977) scale(0.1 -0.1)">
       <use xlink:href="#DejaVuSans-31"/>
       <use xlink:href="#DejaVuSans-2e" transform="translate(63.623047 0)"/>
       <use xlink:href="#DejaVuSans-30" transform="translate(95.410156 0)"/>
      </g>
     </g>
    </g>
    <g id="ytick_4">
     <g id="line2d_15">
      <path d="M 44.04 108.068856 
L 240.56 108.068856 
" clip-path="url(#p7404b4b680)" style="fill: none; stroke-dasharray: 0.8,1.32; stroke-dashoffset: 0; stroke: #b0b0b0; stroke-opacity: 0.6; stroke-width: 0.8"/>
     </g>
     <g id="line2d_16">
      <g>
       <use xlink:href="#m555057a6cb" x="44.04" y="108.068856" style="stroke: #000000; stroke-width: 0.8"/>
      </g>
     </g>
     <g id="text_9">
      <!-- 1.5 -->
      <g transform="translate(21.136875 111.868074) scale(0.1 -0.1)">
       <use xlink:href="#DejaVuSans-31"/>
       <use xlink:href="#DejaVuSans-2e" transform="translate(63.623047 0)"/>
       <use xlink:href="#DejaVuSans-35" transform="translate(95.410156 0)"/>
      </g>
     </g>
    </g>
    <g id="ytick_5">
     <g id="line2d_17">
      <path d="M 44.04 85.636953 
L 240.56 85.636953 
" clip-path="url(#p7404b4b680)" style="fill: none; stroke-dasharray: 0.8,1.32; stroke-dashoffset: 0; stroke: #b0b0b0; stroke-opacity: 0.6; stroke-width: 0.8"/>
     </g>
     <g id="line2d_18">
      <g>
       <use xlink:href="#m555057a6cb" x="44.04" y="85.636953" style="stroke: #000000; stroke-width: 0.8"/>
      </g>
     </g>
     <g id="text_10">
      <!-- 2.0 -->
      <g transform="translate(21.136875 89.436172) scale(0.1 -0.1)">
       <use xlink:href="#DejaVuSans-32"/>
       <use xlink:href="#DejaVuSans-2e" transform="translate(63.623047 0)"/>
       <use xlink:href="#DejaVuSans-30" transform="translate(95.410156 0)"/>
      </g>
     </g>
    </g>
    <g id="ytick_6">
     <g id="line2d_19">
      <path d="M 44.04 63.205051 
L 240.56 63.205051 
" clip-path="url(#p7404b4b680)" style="fill: none; stroke-dasharray: 0.8,1.32; stroke-dashoffset: 0; stroke: #b0b0b0; stroke-opacity: 0.6; stroke-width: 0.8"/>
     </g>
     <g id="line2d_20">
      <g>
       <use xlink:href="#m555057a6cb" x="44.04" y="63.205051" style="stroke: #000000; stroke-width: 0.8"/>
      </g>
     </g>
     <g id="text_11">
      <!-- 2.5 -->
      <g transform="translate(21.136875 67.00427) scale(0.1 -0.1)">
       <use xlink:href="#DejaVuSans-32"/>
       <use xlink:href="#DejaVuSans-2e" transform="translate(63.623047 0)"/>
       <use xlink:href="#DejaVuSans-35" transform="translate(95.410156 0)"/>
      </g>
     </g>
    </g>
    <g id="ytick_7">
     <g id="line2d_21">
      <path d="M 44.04 40.773149 
L 240.56 40.773149 
" clip-path="url(#p7404b4b680)" style="fill: none; stroke-dasharray: 0.8,1.32; stroke-dashoffset: 0; stroke: #b0b0b0; stroke-opacity: 0.6; stroke-width: 0.8"/>
     </g>
     <g id="line2d_22">
      <g>
       <use xlink:href="#m555057a6cb" x="44.04" y="40.773149" style="stroke: #000000; stroke-width: 0.8"/>
      </g>
     </g>
     <g id="text_12">
      <!-- 3.0 -->
      <g transform="translate(21.136875 44.572368) scale(0.1 -0.1)">
       <use xlink:href="#DejaVuSans-33"/>
       <use xlink:href="#DejaVuSans-2e" transform="translate(63.623047 0)"/>
       <use xlink:href="#DejaVuSans-30" transform="translate(95.410156 0)"/>
      </g>
     </g>
    </g>
    <g id="text_13">
     <!-- Marginal Cost Ratio -->
     <g transform="translate(15.473125 141.3875) rotate(-90) scale(0.08 -0.08)">
      <defs>
       <path id="DejaVuSans-4d" d="M 628 4666 
L 1569 4666 
L 2759 1491 
L 3956 4666 
L 4897 4666 
L 4897 0 
L 4281 0 
L 4281 4097 
L 3078 897 
L 2444 897 
L 1241 4097 
L 1241 0 
L 628 0 
L 628 4666 
z
" transform="scale(0.015625)"/>
       <path id="DejaVuSans-67" d="M 2906 1791 
Q 2906 2416 2648 2759 
Q 2391 3103 1925 3103 
Q 1463 3103 1205 2759 
Q 947 2416 947 1791 
Q 947 1169 1205 825 
Q 1463 481 1925 481 
Q 2391 481 2648 825 
Q 2906 1169 2906 1791 
z
M 3481 434 
Q 3481 -459 3084 -895 
Q 2688 -1331 1869 -1331 
Q 1566 -1331 1297 -1286 
Q 1028 -1241 775 -1147 
L 775 -588 
Q 1028 -725 1275 -790 
Q 1522 -856 1778 -856 
Q 2344 -856 2625 -561 
Q 2906 -266 2906 331 
L 2906 616 
Q 2728 306 2450 153 
Q 2172 0 1784 0 
Q 1141 0 747 490 
Q 353 981 353 1791 
Q 353 2603 747 3093 
Q 1141 3584 1784 3584 
Q 2172 3584 2450 3431 
Q 2728 3278 2906 2969 
L 2906 3500 
L 3481 3500 
L 3481 434 
z
" transform="scale(0.015625)"/>
       <path id="DejaVuSans-6c" d="M 603 4863 
L 1178 4863 
L 1178 0 
L 603 0 
L 603 4863 
z
" transform="scale(0.015625)"/>
       <path id="DejaVuSans-43" d="M 4122 4306 
L 4122 3641 
Q 3803 3938 3442 4084 
Q 3081 4231 2675 4231 
Q 1875 4231 1450 3742 
Q 1025 3253 1025 2328 
Q 1025 1406 1450 917 
Q 1875 428 2675 428 
Q 3081 428 3442 575 
Q 3803 722 4122 1019 
L 4122 359 
Q 3791 134 3420 21 
Q 3050 -91 2638 -91 
Q 1578 -91 968 557 
Q 359 1206 359 2328 
Q 359 3453 968 4101 
Q 1578 4750 2638 4750 
Q 3056 4750 3426 4639 
Q 3797 4528 4122 4306 
z
" transform="scale(0.015625)"/>
       <path id="DejaVuSans-52" d="M 2841 2188 
Q 3044 2119 3236 1894 
Q 3428 1669 3622 1275 
L 4263 0 
L 3584 0 
L 2988 1197 
Q 2756 1666 2539 1819 
Q 2322 1972 1947 1972 
L 1259 1972 
L 1259 0 
L 628 0 
L 628 4666 
L 2053 4666 
Q 2853 4666 3247 4331 
Q 3641 3997 3641 3322 
Q 3641 2881 3436 2590 
Q 3231 2300 2841 2188 
z
M 1259 4147 
L 1259 2491 
L 2053 2491 
Q 2509 2491 2742 2702 
Q 2975 2913 2975 3322 
Q 2975 3731 2742 3939 
Q 2509 4147 2053 4147 
L 1259 4147 
z
" transform="scale(0.015625)"/>
      </defs>
      <use xlink:href="#DejaVuSans-4d"/>
      <use xlink:href="#DejaVuSans-61" transform="translate(86.279297 0)"/>
      <use xlink:href="#DejaVuSans-72" transform="translate(147.558594 0)"/>
      <use xlink:href="#DejaVuSans-67" transform="translate(186.921875 0)"/>
      <use xlink:href="#DejaVuSans-69" transform="translate(250.398438 0)"/>
      <use xlink:href="#DejaVuSans-6e" transform="translate(278.181641 0)"/>
      <use xlink:href="#DejaVuSans-61" transform="translate(341.560547 0)"/>
      <use xlink:href="#DejaVuSans-6c" transform="translate(402.839844 0)"/>
      <use xlink:href="#DejaVuSans-20" transform="translate(430.623047 0)"/>
      <use xlink:href="#DejaVuSans-43" transform="translate(462.410156 0)"/>
      <use xlink:href="#DejaVuSans-6f" transform="translate(532.234375 0)"/>
      <use xlink:href="#DejaVuSans-73" transform="translate(593.416016 0)"/>
      <use xlink:href="#DejaVuSans-74" transform="translate(645.515625 0)"/>
      <use xlink:href="#DejaVuSans-20" transform="translate(684.724609 0)"/>
      <use xlink:href="#DejaVuSans-52" transform="translate(716.511719 0)"/>
      <use xlink:href="#DejaVuSans-61" transform="translate(783.744141 0)"/>
      <use xlink:href="#DejaVuSans-74" transform="translate(845.023438 0)"/>
      <use xlink:href="#DejaVuSans-69" transform="translate(884.232422 0)"/>
      <use xlink:href="#DejaVuSans-6f" transform="translate(912.015625 0)"/>
     </g>
    </g>
   </g>
   <g id="line2d_23">
    <path d="M 52.972727 130.500758 
L 231.627273 130.500758 
L 231.627273 130.500758 
" clip-path="url(#p7404b4b680)" style="fill: none; stroke: #0000ff; stroke-width: 2; stroke-linecap: square"/>
   </g>
   <g id="line2d_24">
    <path d="M 52.972727 170.878182 
L 64.325357 169.778487 
L 74.482974 168.567905 
L 83.445576 167.283626 
L 91.810672 165.866895 
L 99.578261 164.329847 
L 106.748343 162.691131 
L 113.320918 160.97604 
L 119.893493 159.028845 
L 125.868562 157.030905 
L 131.84363 154.788607 
L 137.221192 152.536985 
L 142.598753 150.038969 
L 147.378808 147.589928 
L 152.158863 144.904059 
L 156.938918 141.958461 
L 161.718972 138.728017 
L 165.90152 135.646126 
L 170.084068 132.304984 
L 174.266616 128.682783 
L 178.449164 124.755879 
L 182.631712 120.498642 
L 186.81426 115.883283 
L 190.399301 111.619457 
L 193.984342 107.049986 
L 197.569383 102.152958 
L 201.154424 96.904895 
L 204.739465 91.280632 
L 208.324506 85.253202 
L 211.909547 78.793705 
L 215.494588 71.871169 
L 219.079629 64.452401 
L 222.66467 56.50183 
L 226.249711 47.981334 
L 229.834752 38.85006 
L 231.627273 34.041818 
L 231.627273 34.041818 
" clip-path="url(#p7404b4b680)" style="fill: none; stroke: #ff0000; stroke-width: 2; stroke-linecap: square"/>
   </g>
   <g id="line2d_25">
    <path d="M 172.474095 177.72 
L 172.474095 27.2 
" clip-path="url(#p7404b4b680)" style="fill: none; stroke-dasharray: 5.55,2.4; stroke-dashoffset: 0; stroke: #000000; stroke-opacity: 0.7; stroke-width: 1.5"/>
   </g>
   <g id="patch_3">
    <path d="M 44.04 177.72 
L 44.04 27.2 
" style="fill: none; stroke: #000000; stroke-width: 0.8; stroke-linejoin: miter; stroke-linecap: square"/>
   </g>
   <g id="patch_4">
    <path d="M 240.56 177.72 
L 240.56 27.2 
" style="fill: none; stroke: #000000; stroke-width: 0.8; stroke-linejoin: miter; stroke-linecap: square"/>
   </g>
   <g id="patch_5">
    <path d="M 44.04 177.72 
L 240.56 177.72 
" style="fill: none; stroke: #000000; stroke-width: 0.8; stroke-linejoin: miter; stroke-linecap: square"/>
   </g>
   <g id="patch_6">
    <path d="M 44.04 27.2 
L 240.56 27.2 
" style="fill: none; stroke: #000000; stroke-width: 0.8; stroke-linejoin: miter; stroke-linecap: square"/>
   </g>
   <g id="patch_7">
    <path d="M 161.962547 100.252322 
Q 166.890477 114.433123 171.45141 127.557839 
" style="fill: none; stroke: #000000; stroke-linecap: round"/>
    <path d="M 171.912348 124.009947 
L 171.45141 127.557839 
L 168.88966 125.060353 
" style="fill: none; stroke: #000000; stroke-linecap: round"/>
   </g>
   <g id="text_14">
    <!-- Optimal Stopping $\tau^*$ -->
    <g transform="translate(112.92258 94.609714) scale(0.08 -0.08)">
     <defs>
      <path id="DejaVuSans-Bold-4f" d="M 2719 3878 
Q 2169 3878 1866 3472 
Q 1563 3066 1563 2328 
Q 1563 1594 1866 1187 
Q 2169 781 2719 781 
Q 3272 781 3575 1187 
Q 3878 1594 3878 2328 
Q 3878 3066 3575 3472 
Q 3272 3878 2719 3878 
z
M 2719 4750 
Q 3844 4750 4481 4106 
Q 5119 3463 5119 2328 
Q 5119 1197 4481 553 
Q 3844 -91 2719 -91 
Q 1597 -91 958 553 
Q 319 1197 319 2328 
Q 319 3463 958 4106 
Q 1597 4750 2719 4750 
z
" transform="scale(0.015625)"/>
      <path id="DejaVuSans-Bold-70" d="M 1656 506 
L 1656 -1331 
L 538 -1331 
L 538 3500 
L 1656 3500 
L 1656 2988 
Q 1888 3294 2169 3439 
Q 2450 3584 2816 3584 
Q 3463 3584 3878 3070 
Q 4294 2556 4294 1747 
Q 4294 938 3878 423 
Q 3463 -91 2816 -91 
Q 2450 -91 2169 54 
Q 1888 200 1656 506 
z
M 2400 2772 
Q 2041 2772 1848 2508 
Q 1656 2244 1656 1747 
Q 1656 1250 1848 986 
Q 2041 722 2400 722 
Q 2759 722 2948 984 
Q 3138 1247 3138 1747 
Q 3138 2247 2948 2509 
Q 2759 2772 2400 2772 
z
" transform="scale(0.015625)"/>
      <path id="DejaVuSans-Bold-74" d="M 1759 4494 
L 1759 3500 
L 2913 3500 
L 2913 2700 
L 1759 2700 
L 1759 1216 
Q 1759 972 1856 886 
Q 1953 800 2241 800 
L 2816 800 
L 2816 0 
L 1856 0 
Q 1194 0 917 276 
Q 641 553 641 1216 
L 641 2700 
L 84 2700 
L 84 3500 
L 641 3500 
L 641 4494 
L 1759 4494 
z
" transform="scale(0.015625)"/>
      <path id="DejaVuSans-Bold-69" d="M 538 3500 
L 1656 3500 
L 1656 0 
L 538 0 
L 538 3500 
z
M 538 4863 
L 1656 4863 
L 1656 3950 
L 538 3950 
L 538 4863 
z
" transform="scale(0.015625)"/>
      <path id="DejaVuSans-Bold-6d" d="M 3781 2919 
Q 3994 3244 4286 3414 
Q 4578 3584 4928 3584 
Q 5531 3584 5847 3212 
Q 6163 2841 6163 2131 
L 6163 0 
L 5038 0 
L 5038 1825 
Q 5041 1866 5042 1909 
Q 5044 1953 5044 2034 
Q 5044 2406 4934 2573 
Q 4825 2741 4581 2741 
Q 4263 2741 4089 2478 
Q 3916 2216 3909 1719 
L 3909 0 
L 2784 0 
L 2784 1825 
Q 2784 2406 2684 2573 
Q 2584 2741 2328 2741 
Q 2006 2741 1831 2477 
Q 1656 2213 1656 1722 
L 1656 0 
L 531 0 
L 531 3500 
L 1656 3500 
L 1656 2988 
Q 1863 3284 2130 3434 
Q 2397 3584 2719 3584 
Q 3081 3584 3359 3409 
Q 3638 3234 3781 2919 
z
" transform="scale(0.015625)"/>
      <path id="DejaVuSans-Bold-61" d="M 2106 1575 
Q 1756 1575 1579 1456 
Q 1403 1338 1403 1106 
Q 1403 894 1545 773 
Q 1688 653 1941 653 
Q 2256 653 2472 879 
Q 2688 1106 2688 1447 
L 2688 1575 
L 2106 1575 
z
M 3816 1997 
L 3816 0 
L 2688 0 
L 2688 519 
Q 2463 200 2181 54 
Q 1900 -91 1497 -91 
Q 953 -91 614 226 
Q 275 544 275 1050 
Q 275 1666 698 1953 
Q 1122 2241 2028 2241 
L 2688 2241 
L 2688 2328 
Q 2688 2594 2478 2717 
Q 2269 2841 1825 2841 
Q 1466 2841 1156 2769 
Q 847 2697 581 2553 
L 581 3406 
Q 941 3494 1303 3539 
Q 1666 3584 2028 3584 
Q 2975 3584 3395 3211 
Q 3816 2838 3816 1997 
z
" transform="scale(0.015625)"/>
      <path id="DejaVuSans-Bold-6c" d="M 538 4863 
L 1656 4863 
L 1656 0 
L 538 0 
L 538 4863 
z
" transform="scale(0.015625)"/>
      <path id="DejaVuSans-Bold-20" transform="scale(0.015625)"/>
      <path id="DejaVuSans-Bold-53" d="M 3834 4519 
L 3834 3531 
Q 3450 3703 3084 3790 
Q 2719 3878 2394 3878 
Q 1963 3878 1756 3759 
Q 1550 3641 1550 3391 
Q 1550 3203 1689 3098 
Q 1828 2994 2194 2919 
L 2706 2816 
Q 3484 2659 3812 2340 
Q 4141 2022 4141 1434 
Q 4141 663 3683 286 
Q 3225 -91 2284 -91 
Q 1841 -91 1394 -6 
Q 947 78 500 244 
L 500 1259 
Q 947 1022 1364 901 
Q 1781 781 2169 781 
Q 2563 781 2772 912 
Q 2981 1044 2981 1288 
Q 2981 1506 2839 1625 
Q 2697 1744 2272 1838 
L 1806 1941 
Q 1106 2091 782 2419 
Q 459 2747 459 3303 
Q 459 4000 909 4375 
Q 1359 4750 2203 4750 
Q 2588 4750 2994 4692 
Q 3400 4634 3834 4519 
z
" transform="scale(0.015625)"/>
      <path id="DejaVuSans-Bold-6f" d="M 2203 2784 
Q 1831 2784 1636 2517 
Q 1441 2250 1441 1747 
Q 1441 1244 1636 976 
Q 1831 709 2203 709 
Q 2569 709 2762 976 
Q 2956 1244 2956 1747 
Q 2956 2250 2762 2517 
Q 2569 2784 2203 2784 
z
M 2203 3584 
Q 3106 3584 3614 3096 
Q 4122 2609 4122 1747 
Q 4122 884 3614 396 
Q 3106 -91 2203 -91 
Q 1297 -91 786 396 
Q 275 884 275 1747 
Q 275 2609 786 3096 
Q 1297 3584 2203 3584 
z
" transform="scale(0.015625)"/>
      <path id="DejaVuSans-Bold-6e" d="M 4056 2131 
L 4056 0 
L 2931 0 
L 2931 347 
L 2931 1631 
Q 2931 2084 2911 2256 
Q 2891 2428 2841 2509 
Q 2775 2619 2662 2680 
Q 2550 2741 2406 2741 
Q 2056 2741 1856 2470 
Q 1656 2200 1656 1722 
L 1656 0 
L 538 0 
L 538 3500 
L 1656 3500 
L 1656 2988 
Q 1909 3294 2193 3439 
Q 2478 3584 2822 3584 
Q 3428 3584 3742 3212 
Q 4056 2841 4056 2131 
z
" transform="scale(0.015625)"/>
      <path id="DejaVuSans-Bold-67" d="M 2919 594 
Q 2688 288 2409 144 
Q 2131 0 1766 0 
Q 1125 0 706 504 
Q 288 1009 288 1791 
Q 288 2575 706 3076 
Q 1125 3578 1766 3578 
Q 2131 3578 2409 3434 
Q 2688 3291 2919 2981 
L 2919 3500 
L 4044 3500 
L 4044 353 
Q 4044 -491 3511 -936 
Q 2978 -1381 1966 -1381 
Q 1638 -1381 1331 -1331 
Q 1025 -1281 716 -1178 
L 716 -306 
Q 1009 -475 1290 -558 
Q 1572 -641 1856 -641 
Q 2406 -641 2662 -400 
Q 2919 -159 2919 353 
L 2919 594 
z
M 2181 2772 
Q 1834 2772 1640 2515 
Q 1447 2259 1447 1791 
Q 1447 1309 1634 1061 
Q 1822 813 2181 813 
Q 2531 813 2725 1069 
Q 2919 1325 2919 1791 
Q 2919 2259 2725 2515 
Q 2531 2772 2181 2772 
z
" transform="scale(0.015625)"/>
      <path id="DejaVuSans-Oblique-3c4" d="M 2103 638 
Q 2188 488 2525 488 
L 2800 488 
L 2706 0 
L 2363 0 
Q 1800 0 1600 300 
Q 1403 606 1534 1269 
L 1856 2925 
L 541 2925 
L 653 3500 
L 3881 3500 
L 3769 2925 
L 2444 2925 
L 2113 1234 
Q 2025 781 2103 638 
z
" transform="scale(0.015625)"/>
      <path id="DejaVuSans-2a" d="M 3009 3897 
L 1888 3291 
L 3009 2681 
L 2828 2375 
L 1778 3009 
L 1778 1831 
L 1422 1831 
L 1422 3009 
L 372 2375 
L 191 2681 
L 1313 3291 
L 191 3897 
L 372 4206 
L 1422 3572 
L 1422 4750 
L 1778 4750 
L 1778 3572 
L 2828 4206 
L 3009 3897 
z
" transform="scale(0.015625)"/>
     </defs>
     <use xlink:href="#DejaVuSans-Bold-4f" transform="translate(0 0.765625)"/>
     <use xlink:href="#DejaVuSans-Bold-70" transform="translate(85.009766 0.765625)"/>
     <use xlink:href="#DejaVuSans-Bold-74" transform="translate(156.591797 0.765625)"/>
     <use xlink:href="#DejaVuSans-Bold-69" transform="translate(204.394531 0.765625)"/>
     <use xlink:href="#DejaVuSans-Bold-6d" transform="translate(238.671875 0.765625)"/>
     <use xlink:href="#DejaVuSans-Bold-61" transform="translate(342.871094 0.765625)"/>
     <use xlink:href="#DejaVuSans-Bold-6c" transform="translate(410.351562 0.765625)"/>
     <use xlink:href="#DejaVuSans-Bold-20" transform="translate(444.628906 0.765625)"/>
     <use xlink:href="#DejaVuSans-Bold-53" transform="translate(479.443359 0.765625)"/>
     <use xlink:href="#DejaVuSans-Bold-74" transform="translate(551.464844 0.765625)"/>
     <use xlink:href="#DejaVuSans-Bold-6f" transform="translate(599.267578 0.765625)"/>
     <use xlink:href="#DejaVuSans-Bold-70" transform="translate(667.96875 0.765625)"/>
     <use xlink:href="#DejaVuSans-Bold-70" transform="translate(739.550781 0.765625)"/>
     <use xlink:href="#DejaVuSans-Bold-69" transform="translate(811.132812 0.765625)"/>
     <use xlink:href="#DejaVuSans-Bold-6e" transform="translate(845.410156 0.765625)"/>
     <use xlink:href="#DejaVuSans-Bold-67" transform="translate(916.601562 0.765625)"/>
     <use xlink:href="#DejaVuSans-Bold-20" transform="translate(988.183594 0.765625)"/>
     <use xlink:href="#DejaVuSans-Oblique-3c4" transform="translate(1022.998047 0.765625)"/>
     <use xlink:href="#DejaVuSans-2a" transform="translate(1101.306966 39.046875) scale(0.7)"/>
    </g>
   </g>
   <g id="text_15">
    <!-- Safe Operation -->
    <g style="fill: #008000" transform="translate(50.509974 145.094191) scale(0.07 -0.07)">
     <defs>
      <path id="DejaVuSans-66" d="M 2375 4863 
L 2375 4384 
L 1825 4384 
Q 1516 4384 1395 4259 
Q 1275 4134 1275 3809 
L 1275 3500 
L 2222 3500 
L 2222 3053 
L 1275 3053 
L 1275 0 
L 697 0 
L 697 3053 
L 147 3053 
L 147 3500 
L 697 3500 
L 697 3744 
Q 697 4328 969 4595 
Q 1241 4863 1831 4863 
L 2375 4863 
z
" transform="scale(0.015625)"/>
      <path id="DejaVuSans-4f" d="M 2522 4238 
Q 1834 4238 1429 3725 
Q 1025 3213 1025 2328 
Q 1025 1447 1429 934 
Q 1834 422 2522 422 
Q 3209 422 3611 934 
Q 4013 1447 4013 2328 
Q 4013 3213 3611 3725 
Q 3209 4238 2522 4238 
z
M 2522 4750 
Q 3503 4750 4090 4092 
Q 4678 3434 4678 2328 
Q 4678 1225 4090 567 
Q 3503 -91 2522 -91 
Q 1538 -91 948 565 
Q 359 1222 359 2328 
Q 359 3434 948 4092 
Q 1538 4750 2522 4750 
z
" transform="scale(0.015625)"/>
      <path id="DejaVuSans-70" d="M 1159 525 
L 1159 -1331 
L 581 -1331 
L 581 3500 
L 1159 3500 
L 1159 2969 
Q 1341 3281 1617 3432 
Q 1894 3584 2278 3584 
Q 2916 3584 3314 3078 
Q 3713 2572 3713 1747 
Q 3713 922 3314 415 
Q 2916 -91 2278 -91 
Q 1894 -91 1617 61 
Q 1341 213 1159 525 
z
M 3116 1747 
Q 3116 2381 2855 2742 
Q 2594 3103 2138 3103 
Q 1681 3103 1420 2742 
Q 1159 2381 1159 1747 
Q 1159 1113 1420 752 
Q 1681 391 2138 391 
Q 2594 391 2855 752 
Q 3116 1113 3116 1747 
z
" transform="scale(0.015625)"/>
     </defs>
     <use xlink:href="#DejaVuSans-53"/>
     <use xlink:href="#DejaVuSans-61" transform="translate(63.476562 0)"/>
     <use xlink:href="#DejaVuSans-66" transform="translate(124.755859 0)"/>
     <use xlink:href="#DejaVuSans-65" transform="translate(159.960938 0)"/>
     <use xlink:href="#DejaVuSans-20" transform="translate(221.484375 0)"/>
     <use xlink:href="#DejaVuSans-4f" transform="translate(253.271484 0)"/>
     <use xlink:href="#DejaVuSans-70" transform="translate(331.982422 0)"/>
     <use xlink:href="#DejaVuSans-65" transform="translate(395.458984 0)"/>
     <use xlink:href="#DejaVuSans-72" transform="translate(456.982422 0)"/>
     <use xlink:href="#DejaVuSans-61" transform="translate(498.095703 0)"/>
     <use xlink:href="#DejaVuSans-74" transform="translate(559.375 0)"/>
     <use xlink:href="#DejaVuSans-69" transform="translate(598.583984 0)"/>
     <use xlink:href="#DejaVuSans-6f" transform="translate(626.367188 0)"/>
     <use xlink:href="#DejaVuSans-6e" transform="translate(687.548828 0)"/>
    </g>
    <!-- Zone -->
    <g style="fill: #008000" transform="translate(67.882552 152.93266) scale(0.07 -0.07)">
     <defs>
      <path id="DejaVuSans-5a" d="M 359 4666 
L 4025 4666 
L 4025 4184 
L 1075 531 
L 4097 531 
L 4097 0 
L 288 0 
L 288 481 
L 3238 4134 
L 359 4134 
L 359 4666 
z
" transform="scale(0.015625)"/>
     </defs>
     <use xlink:href="#DejaVuSans-5a"/>
     <use xlink:href="#DejaVuSans-6f" transform="translate(68.505859 0)"/>
     <use xlink:href="#DejaVuSans-6e" transform="translate(129.6875 0)"/>
     <use xlink:href="#DejaVuSans-65" transform="translate(193.066406 0)"/>
    </g>
   </g>
   <g id="text_16">
    <!-- High Risk Zone -->
    <g style="fill: #ff0000" transform="translate(169.462067 77.798485) scale(0.07 -0.07)">
     <defs>
      <path id="DejaVuSans-48" d="M 628 4666 
L 1259 4666 
L 1259 2753 
L 3553 2753 
L 3553 4666 
L 4184 4666 
L 4184 0 
L 3553 0 
L 3553 2222 
L 1259 2222 
L 1259 0 
L 628 0 
L 628 4666 
z
" transform="scale(0.015625)"/>
      <path id="DejaVuSans-68" d="M 3513 2113 
L 3513 0 
L 2938 0 
L 2938 2094 
Q 2938 2591 2744 2837 
Q 2550 3084 2163 3084 
Q 1697 3084 1428 2787 
Q 1159 2491 1159 1978 
L 1159 0 
L 581 0 
L 581 4863 
L 1159 4863 
L 1159 2956 
Q 1366 3272 1645 3428 
Q 1925 3584 2291 3584 
Q 2894 3584 3203 3211 
Q 3513 2838 3513 2113 
z
" transform="scale(0.015625)"/>
      <path id="DejaVuSans-6b" d="M 581 4863 
L 1159 4863 
L 1159 1991 
L 2875 3500 
L 3609 3500 
L 1753 1863 
L 3688 0 
L 2938 0 
L 1159 1709 
L 1159 0 
L 581 0 
L 581 4863 
z
" transform="scale(0.015625)"/>
     </defs>
     <use xlink:href="#DejaVuSans-48"/>
     <use xlink:href="#DejaVuSans-69" transform="translate(75.195312 0)"/>
     <use xlink:href="#DejaVuSans-67" transform="translate(102.978516 0)"/>
     <use xlink:href="#DejaVuSans-68" transform="translate(166.455078 0)"/>
     <use xlink:href="#DejaVuSans-20" transform="translate(229.833984 0)"/>
     <use xlink:href="#DejaVuSans-52" transform="translate(261.621094 0)"/>
     <use xlink:href="#DejaVuSans-69" transform="translate(331.103516 0)"/>
     <use xlink:href="#DejaVuSans-73" transform="translate(358.886719 0)"/>
     <use xlink:href="#DejaVuSans-6b" transform="translate(410.986328 0)"/>
     <use xlink:href="#DejaVuSans-20" transform="translate(468.896484 0)"/>
     <use xlink:href="#DejaVuSans-5a" transform="translate(500.683594 0)"/>
     <use xlink:href="#DejaVuSans-6f" transform="translate(569.189453 0)"/>
     <use xlink:href="#DejaVuSans-6e" transform="translate(630.371094 0)"/>
     <use xlink:href="#DejaVuSans-65" transform="translate(693.75 0)"/>
    </g>
    <!-- (Replace Now) -->
    <g style="fill: #ff0000" transform="translate(170.585348 85.636953) scale(0.07 -0.07)">
     <defs>
      <path id="DejaVuSans-4e" d="M 628 4666 
L 1478 4666 
L 3547 763 
L 3547 4666 
L 4159 4666 
L 4159 0 
L 3309 0 
L 1241 3903 
L 1241 0 
L 628 0 
L 628 4666 
z
" transform="scale(0.015625)"/>
      <path id="DejaVuSans-77" d="M 269 3500 
L 844 3500 
L 1563 769 
L 2278 3500 
L 2956 3500 
L 3675 769 
L 4391 3500 
L 4966 3500 
L 4050 0 
L 3372 0 
L 2619 2869 
L 1863 0 
L 1184 0 
L 269 3500 
z
" transform="scale(0.015625)"/>
     </defs>
     <use xlink:href="#DejaVuSans-28"/>
     <use xlink:href="#DejaVuSans-52" transform="translate(39.013672 0)"/>
     <use xlink:href="#DejaVuSans-65" transform="translate(103.996094 0)"/>
     <use xlink:href="#DejaVuSans-70" transform="translate(165.519531 0)"/>
     <use xlink:href="#DejaVuSans-6c" transform="translate(228.996094 0)"/>
     <use xlink:href="#DejaVuSans-61" transform="translate(256.779297 0)"/>
     <use xlink:href="#DejaVuSans-63" transform="translate(318.058594 0)"/>
     <use xlink:href="#DejaVuSans-65" transform="translate(373.039062 0)"/>
     <use xlink:href="#DejaVuSans-20" transform="translate(434.5625 0)"/>
     <use xlink:href="#DejaVuSans-4e" transform="translate(466.349609 0)"/>
     <use xlink:href="#DejaVuSans-6f" transform="translate(541.154297 0)"/>
     <use xlink:href="#DejaVuSans-77" transform="translate(602.335938 0)"/>
     <use xlink:href="#DejaVuSans-29" transform="translate(684.123047 0)"/>
    </g>
   </g>
   <g id="text_17">
    <!-- Value Maximization: Optimal Stopping Boundary -->
    <g transform="translate(33.255156 17.2) scale(0.09 -0.09)">
     <defs>
      <path id="DejaVuSans-56" d="M 1831 0 
L 50 4666 
L 709 4666 
L 2188 738 
L 3669 4666 
L 4325 4666 
L 2547 0 
L 1831 0 
z
" transform="scale(0.015625)"/>
      <path id="DejaVuSans-78" d="M 3513 3500 
L 2247 1797 
L 3578 0 
L 2900 0 
L 1881 1375 
L 863 0 
L 184 0 
L 1544 1831 
L 300 3500 
L 978 3500 
L 1906 2253 
L 2834 3500 
L 3513 3500 
z
" transform="scale(0.015625)"/>
      <path id="DejaVuSans-6d" d="M 3328 2828 
Q 3544 3216 3844 3400 
Q 4144 3584 4550 3584 
Q 5097 3584 5394 3201 
Q 5691 2819 5691 2113 
L 5691 0 
L 5113 0 
L 5113 2094 
Q 5113 2597 4934 2840 
Q 4756 3084 4391 3084 
Q 3944 3084 3684 2787 
Q 3425 2491 3425 1978 
L 3425 0 
L 2847 0 
L 2847 2094 
Q 2847 2600 2669 2842 
Q 2491 3084 2119 3084 
Q 1678 3084 1418 2786 
Q 1159 2488 1159 1978 
L 1159 0 
L 581 0 
L 581 3500 
L 1159 3500 
L 1159 2956 
Q 1356 3278 1631 3431 
Q 1906 3584 2284 3584 
Q 2666 3584 2933 3390 
Q 3200 3197 3328 2828 
z
" transform="scale(0.015625)"/>
      <path id="DejaVuSans-7a" d="M 353 3500 
L 3084 3500 
L 3084 2975 
L 922 459 
L 3084 459 
L 3084 0 
L 275 0 
L 275 525 
L 2438 3041 
L 353 3041 
L 353 3500 
z
" transform="scale(0.015625)"/>
      <path id="DejaVuSans-3a" d="M 750 794 
L 1409 794 
L 1409 0 
L 750 0 
L 750 794 
z
M 750 3309 
L 1409 3309 
L 1409 2516 
L 750 2516 
L 750 3309 
z
" transform="scale(0.015625)"/>
      <path id="DejaVuSans-42" d="M 1259 2228 
L 1259 519 
L 2272 519 
Q 2781 519 3026 730 
Q 3272 941 3272 1375 
Q 3272 1813 3026 2020 
Q 2781 2228 2272 2228 
L 1259 2228 
z
M 1259 4147 
L 1259 2741 
L 2194 2741 
Q 2656 2741 2882 2914 
Q 3109 3088 3109 3444 
Q 3109 3797 2882 3972 
Q 2656 4147 2194 4147 
L 1259 4147 
z
M 628 4666 
L 2241 4666 
Q 2963 4666 3353 4366 
Q 3744 4066 3744 3513 
Q 3744 3084 3544 2831 
Q 3344 2578 2956 2516 
Q 3422 2416 3680 2098 
Q 3938 1781 3938 1306 
Q 3938 681 3513 340 
Q 3088 0 2303 0 
L 628 0 
L 628 4666 
z
" transform="scale(0.015625)"/>
      <path id="DejaVuSans-64" d="M 2906 2969 
L 2906 4863 
L 3481 4863 
L 3481 0 
L 2906 0 
L 2906 525 
Q 2725 213 2448 61 
Q 2172 -91 1784 -91 
Q 1150 -91 751 415 
Q 353 922 353 1747 
Q 353 2572 751 3078 
Q 1150 3584 1784 3584 
Q 2172 3584 2448 3432 
Q 2725 3281 2906 2969 
z
M 947 1747 
Q 947 1113 1208 752 
Q 1469 391 1925 391 
Q 2381 391 2643 752 
Q 2906 1113 2906 1747 
Q 2906 2381 2643 2742 
Q 2381 3103 1925 3103 
Q 1469 3103 1208 2742 
Q 947 2381 947 1747 
z
" transform="scale(0.015625)"/>
      <path id="DejaVuSans-79" d="M 2059 -325 
Q 1816 -950 1584 -1140 
Q 1353 -1331 966 -1331 
L 506 -1331 
L 506 -850 
L 844 -850 
Q 1081 -850 1212 -737 
Q 1344 -625 1503 -206 
L 1606 56 
L 191 3500 
L 800 3500 
L 1894 763 
L 2988 3500 
L 3597 3500 
L 2059 -325 
z
" transform="scale(0.015625)"/>
     </defs>
     <use xlink:href="#DejaVuSans-56"/>
     <use xlink:href="#DejaVuSans-61" transform="translate(60.658203 0)"/>
     <use xlink:href="#DejaVuSans-6c" transform="translate(121.9375 0)"/>
     <use xlink:href="#DejaVuSans-75" transform="translate(149.720703 0)"/>
     <use xlink:href="#DejaVuSans-65" transform="translate(213.099609 0)"/>
     <use xlink:href="#DejaVuSans-20" transform="translate(274.623047 0)"/>
     <use xlink:href="#DejaVuSans-4d" transform="translate(306.410156 0)"/>
     <use xlink:href="#DejaVuSans-61" transform="translate(392.689453 0)"/>
     <use xlink:href="#DejaVuSans-78" transform="translate(453.96875 0)"/>
     <use xlink:href="#DejaVuSans-69" transform="translate(513.148438 0)"/>
     <use xlink:href="#DejaVuSans-6d" transform="translate(540.931641 0)"/>
     <use xlink:href="#DejaVuSans-69" transform="translate(638.34375 0)"/>
     <use xlink:href="#DejaVuSans-7a" transform="translate(666.126953 0)"/>
     <use xlink:href="#DejaVuSans-61" transform="translate(718.617188 0)"/>
     <use xlink:href="#DejaVuSans-74" transform="translate(779.896484 0)"/>
     <use xlink:href="#DejaVuSans-69" transform="translate(819.105469 0)"/>
     <use xlink:href="#DejaVuSans-6f" transform="translate(846.888672 0)"/>
     <use xlink:href="#DejaVuSans-6e" transform="translate(908.070312 0)"/>
     <use xlink:href="#DejaVuSans-3a" transform="translate(971.449219 0)"/>
     <use xlink:href="#DejaVuSans-20" transform="translate(1005.140625 0)"/>
     <use xlink:href="#DejaVuSans-4f" transform="translate(1036.927734 0)"/>
     <use xlink:href="#DejaVuSans-70" transform="translate(1115.638672 0)"/>
     <use xlink:href="#DejaVuSans-74" transform="translate(1179.115234 0)"/>
     <use xlink:href="#DejaVuSans-69" transform="translate(1218.324219 0)"/>
     <use xlink:href="#DejaVuSans-6d" transform="translate(1246.107422 0)"/>
     <use xlink:href="#DejaVuSans-61" transform="translate(1343.519531 0)"/>
     <use xlink:href="#DejaVuSans-6c" transform="translate(1404.798828 0)"/>
     <use xlink:href="#DejaVuSans-20" transform="translate(1432.582031 0)"/>
     <use xlink:href="#DejaVuSans-53" transform="translate(1464.369141 0)"/>
     <use xlink:href="#DejaVuSans-74" transform="translate(1527.845703 0)"/>
     <use xlink:href="#DejaVuSans-6f" transform="translate(1567.054688 0)"/>
     <use xlink:href="#DejaVuSans-70" transform="translate(1628.236328 0)"/>
     <use xlink:href="#DejaVuSans-70" transform="translate(1691.712891 0)"/>
     <use xlink:href="#DejaVuSans-69" transform="translate(1755.189453 0)"/>
     <use xlink:href="#DejaVuSans-6e" transform="translate(1782.972656 0)"/>
     <use xlink:href="#DejaVuSans-67" transform="translate(1846.351562 0)"/>
     <use xlink:href="#DejaVuSans-20" transform="translate(1909.828125 0)"/>
     <use xlink:href="#DejaVuSans-42" transform="translate(1941.615234 0)"/>
     <use xlink:href="#DejaVuSans-6f" transform="translate(2010.21875 0)"/>
     <use xlink:href="#DejaVuSans-75" transform="translate(2071.400391 0)"/>
     <use xlink:href="#DejaVuSans-6e" transform="translate(2134.779297 0)"/>
     <use xlink:href="#DejaVuSans-64" transform="translate(2198.158203 0)"/>
     <use xlink:href="#DejaVuSans-61" transform="translate(2261.634766 0)"/>
     <use xlink:href="#DejaVuSans-72" transform="translate(2322.914062 0)"/>
     <use xlink:href="#DejaVuSans-79" transform="translate(2364.027344 0)"/>
    </g>
   </g>
   <g id="line2d_26">
    <defs>
     <path id="m745af437ed" d="M 0 3 
C 0.795609 3 1.55874 2.683901 2.12132 2.12132 
C 2.683901 1.55874 3 0.795609 3 0 
C 3 -0.795609 2.683901 -1.55874 2.12132 -2.12132 
C 1.55874 -2.683901 0.795609 -3 0 -3 
C -0.795609 -3 -1.55874 -2.683901 -2.12132 -2.12132 
C -2.683901 -1.55874 -3 -0.795609 -3 0 
C -3 0.795609 -2.683901 1.55874 -2.12132 2.12132 
C -1.55874 2.683901 -0.795609 3 0 3 
z
" style="stroke: #000000"/>
    </defs>
    <g clip-path="url(#p7404b4b680)">
     <use xlink:href="#m745af437ed" x="172.474095" y="130.500758" style="stroke: #000000"/>
    </g>
   </g>
   <g id="legend_1">
    <g id="patch_8">
     <path d="M 48.24 55.22 
L 146.64 55.22 
Q 147.84 55.22 147.84 54.02 
L 147.84 31.4 
Q 147.84 30.2 146.64 30.2 
L 48.24 30.2 
Q 47.04 30.2 47.04 31.4 
L 47.04 54.02 
Q 47.04 55.22 48.24 55.22 
z
" style="fill: #ffffff; opacity: 0.8; stroke: #cccccc; stroke-linejoin: miter"/>
    </g>
    <g id="line2d_27">
     <path d="M 49.44 35.06 
L 55.44 35.06 
L 61.44 35.06 
" style="fill: none; stroke: #0000ff; stroke-width: 2; stroke-linecap: square"/>
    </g>
    <g id="text_18">
     <!-- Baseline Ratio = 1.0 ($C_{rep}$) -->
     <g transform="translate(66.24 37.16) scale(0.06 -0.06)">
      <defs>
       <path id="DejaVuSans-3d" d="M 678 2906 
L 4684 2906 
L 4684 2381 
L 678 2381 
L 678 2906 
z
M 678 1631 
L 4684 1631 
L 4684 1100 
L 678 1100 
L 678 1631 
z
" transform="scale(0.015625)"/>
       <path id="DejaVuSans-Oblique-43" d="M 4447 4306 
L 4319 3641 
Q 4019 3944 3683 4091 
Q 3347 4238 2956 4238 
Q 2422 4238 2017 3981 
Q 1613 3725 1319 3200 
Q 1131 2863 1032 2486 
Q 934 2109 934 1728 
Q 934 1091 1264 756 
Q 1594 422 2222 422 
Q 2656 422 3056 561 
Q 3456 700 3834 978 
L 3688 231 
Q 3316 72 2936 -9 
Q 2556 -91 2175 -91 
Q 1278 -91 773 396 
Q 269 884 269 1753 
Q 269 2309 461 2846 
Q 653 3384 1013 3828 
Q 1394 4300 1883 4525 
Q 2372 4750 3022 4750 
Q 3422 4750 3780 4639 
Q 4138 4528 4447 4306 
z
" transform="scale(0.015625)"/>
       <path id="DejaVuSans-Oblique-72" d="M 2853 2969 
Q 2766 3016 2653 3041 
Q 2541 3066 2413 3066 
Q 1953 3066 1609 2717 
Q 1266 2369 1153 1784 
L 800 0 
L 225 0 
L 909 3500 
L 1484 3500 
L 1375 2956 
Q 1603 3259 1920 3421 
Q 2238 3584 2597 3584 
Q 2691 3584 2781 3573 
Q 2872 3563 2963 3538 
L 2853 2969 
z
" transform="scale(0.015625)"/>
       <path id="DejaVuSans-Oblique-65" d="M 3078 2063 
Q 3088 2113 3092 2166 
Q 3097 2219 3097 2272 
Q 3097 2653 2873 2875 
Q 2650 3097 2266 3097 
Q 1838 3097 1509 2826 
Q 1181 2556 1013 2059 
L 3078 2063 
z
M 3578 1613 
L 903 1613 
Q 884 1494 878 1425 
Q 872 1356 872 1306 
Q 872 872 1139 634 
Q 1406 397 1894 397 
Q 2269 397 2603 481 
Q 2938 566 3225 728 
L 3116 159 
Q 2806 34 2476 -28 
Q 2147 -91 1806 -91 
Q 1078 -91 686 257 
Q 294 606 294 1247 
Q 294 1794 489 2264 
Q 684 2734 1063 3103 
Q 1306 3334 1642 3459 
Q 1978 3584 2356 3584 
Q 2950 3584 3301 3228 
Q 3653 2872 3653 2272 
Q 3653 2128 3634 1964 
Q 3616 1800 3578 1613 
z
" transform="scale(0.015625)"/>
       <path id="DejaVuSans-Oblique-70" d="M 3175 2156 
Q 3175 2616 2975 2859 
Q 2775 3103 2400 3103 
Q 2144 3103 1911 2972 
Q 1678 2841 1497 2591 
Q 1319 2344 1212 1994 
Q 1106 1644 1106 1300 
Q 1106 863 1306 627 
Q 1506 391 1875 391 
Q 2147 391 2380 519 
Q 2613 647 2778 891 
Q 2956 1147 3065 1494 
Q 3175 1841 3175 2156 
z
M 1394 2969 
Q 1625 3272 1939 3428 
Q 2253 3584 2638 3584 
Q 3175 3584 3472 3232 
Q 3769 2881 3769 2247 
Q 3769 1728 3584 1258 
Q 3400 788 3053 416 
Q 2822 169 2531 39 
Q 2241 -91 1919 -91 
Q 1547 -91 1294 64 
Q 1041 219 916 525 
L 556 -1331 
L -19 -1331 
L 922 3500 
L 1497 3500 
L 1394 2969 
z
" transform="scale(0.015625)"/>
      </defs>
      <use xlink:href="#DejaVuSans-42" transform="translate(0 0.015625)"/>
      <use xlink:href="#DejaVuSans-61" transform="translate(68.603516 0.015625)"/>
      <use xlink:href="#DejaVuSans-73" transform="translate(129.882812 0.015625)"/>
      <use xlink:href="#DejaVuSans-65" transform="translate(181.982422 0.015625)"/>
      <use xlink:href="#DejaVuSans-6c" transform="translate(243.505859 0.015625)"/>
      <use xlink:href="#DejaVuSans-69" transform="translate(271.289062 0.015625)"/>
      <use xlink:href="#DejaVuSans-6e" transform="translate(299.072266 0.015625)"/>
      <use xlink:href="#DejaVuSans-65" transform="translate(362.451172 0.015625)"/>
      <use xlink:href="#DejaVuSans-20" transform="translate(423.974609 0.015625)"/>
      <use xlink:href="#DejaVuSans-52" transform="translate(455.761719 0.015625)"/>
      <use xlink:href="#DejaVuSans-61" transform="translate(525.244141 0.015625)"/>
      <use xlink:href="#DejaVuSans-74" transform="translate(586.523438 0.015625)"/>
      <use xlink:href="#DejaVuSans-69" transform="translate(625.732422 0.015625)"/>
      <use xlink:href="#DejaVuSans-6f" transform="translate(653.515625 0.015625)"/>
      <use xlink:href="#DejaVuSans-20" transform="translate(714.697266 0.015625)"/>
      <use xlink:href="#DejaVuSans-3d" transform="translate(746.484375 0.015625)"/>
      <use xlink:href="#DejaVuSans-20" transform="translate(830.273438 0.015625)"/>
      <use xlink:href="#DejaVuSans-31" transform="translate(862.060547 0.015625)"/>
      <use xlink:href="#DejaVuSans-2e" transform="translate(925.683594 0.015625)"/>
      <use xlink:href="#DejaVuSans-30" transform="translate(957.470703 0.015625)"/>
      <use xlink:href="#DejaVuSans-20" transform="translate(1021.09375 0.015625)"/>
      <use xlink:href="#DejaVuSans-28" transform="translate(1052.880859 0.015625)"/>
      <use xlink:href="#DejaVuSans-Oblique-43" transform="translate(1091.894531 0.015625)"/>
      <use xlink:href="#DejaVuSans-Oblique-72" transform="translate(1161.71875 -16.390625) scale(0.7)"/>
      <use xlink:href="#DejaVuSans-Oblique-65" transform="translate(1190.498047 -16.390625) scale(0.7)"/>
      <use xlink:href="#DejaVuSans-Oblique-70" transform="translate(1233.564453 -16.390625) scale(0.7)"/>
      <use xlink:href="#DejaVuSans-29" transform="translate(1280.732422 0.015625)"/>
     </g>
    </g>
    <g id="line2d_28">
     <path d="M 49.44 47 
L 55.44 47 
L 61.44 47 
" style="fill: none; stroke: #ff0000; stroke-width: 2; stroke-linecap: square"/>
    </g>
    <g id="text_19">
     <!-- Risk Ratio ($h_i(t)dt \cdot \frac{C_{outage}}{C_{rep}}$) -->
     <g transform="translate(66.24 49.1) scale(0.06 -0.06)">
      <defs>
       <path id="DejaVuSans-Oblique-68" d="M 3566 2113 
L 3156 0 
L 2578 0 
L 2988 2091 
Q 3016 2238 3031 2350 
Q 3047 2463 3047 2528 
Q 3047 2791 2881 2937 
Q 2716 3084 2419 3084 
Q 1956 3084 1617 2771 
Q 1278 2459 1178 1941 
L 800 0 
L 225 0 
L 1172 4863 
L 1747 4863 
L 1375 2950 
Q 1594 3244 1934 3414 
Q 2275 3584 2650 3584 
Q 3113 3584 3367 3334 
Q 3622 3084 3622 2631 
Q 3622 2519 3608 2391 
Q 3594 2263 3566 2113 
z
" transform="scale(0.015625)"/>
       <path id="DejaVuSans-Oblique-69" d="M 1172 4863 
L 1747 4863 
L 1606 4134 
L 1031 4134 
L 1172 4863 
z
M 909 3500 
L 1484 3500 
L 800 0 
L 225 0 
L 909 3500 
z
" transform="scale(0.015625)"/>
       <path id="DejaVuSans-Oblique-74" d="M 2706 3500 
L 2619 3053 
L 1472 3053 
L 1100 1153 
Q 1081 1047 1072 975 
Q 1063 903 1063 863 
Q 1063 663 1183 572 
Q 1303 481 1569 481 
L 2150 481 
L 2053 0 
L 1503 0 
Q 991 0 739 200 
Q 488 400 488 806 
Q 488 878 497 964 
Q 506 1050 525 1153 
L 897 3053 
L 409 3053 
L 500 3500 
L 978 3500 
L 1172 4494 
L 1747 4494 
L 1556 3500 
L 2706 3500 
z
" transform="scale(0.015625)"/>
       <path id="DejaVuSans-Oblique-64" d="M 2675 525 
Q 2444 222 2128 65 
Q 1813 -91 1428 -91 
Q 903 -91 598 267 
Q 294 625 294 1247 
Q 294 1766 478 2236 
Q 663 2706 1013 3078 
Q 1244 3325 1534 3454 
Q 1825 3584 2144 3584 
Q 2481 3584 2739 3421 
Q 2997 3259 3138 2956 
L 3513 4863 
L 4091 4863 
L 3144 0 
L 2566 0 
L 2675 525 
z
M 891 1350 
Q 891 897 1095 644 
Q 1300 391 1663 391 
Q 1931 391 2161 520 
Q 2391 650 2566 903 
Q 2750 1166 2856 1509 
Q 2963 1853 2963 2188 
Q 2963 2622 2758 2865 
Q 2553 3109 2194 3109 
Q 1922 3109 1687 2981 
Q 1453 2853 1288 2613 
Q 1106 2353 998 2009 
Q 891 1666 891 1350 
z
" transform="scale(0.015625)"/>
       <path id="DejaVuSans-22c5" d="M 684 2619 
L 1344 2619 
L 1344 1825 
L 684 1825 
L 684 2619 
z
" transform="scale(0.015625)"/>
       <path id="DejaVuSans-Oblique-6f" d="M 1625 -91 
Q 1009 -91 651 289 
Q 294 669 294 1325 
Q 294 1706 417 2101 
Q 541 2497 738 2766 
Q 1047 3184 1428 3384 
Q 1809 3584 2291 3584 
Q 2888 3584 3255 3212 
Q 3622 2841 3622 2241 
Q 3622 1825 3500 1412 
Q 3378 1000 3181 728 
Q 2875 309 2494 109 
Q 2113 -91 1625 -91 
z
M 891 1344 
Q 891 869 1089 633 
Q 1288 397 1691 397 
Q 2269 397 2648 901 
Q 3028 1406 3028 2181 
Q 3028 2634 2825 2865 
Q 2622 3097 2228 3097 
Q 1903 3097 1650 2945 
Q 1397 2794 1197 2484 
Q 1050 2253 970 1956 
Q 891 1659 891 1344 
z
" transform="scale(0.015625)"/>
       <path id="DejaVuSans-Oblique-75" d="M 428 1388 
L 838 3500 
L 1416 3500 
L 1006 1409 
Q 975 1256 961 1147 
Q 947 1038 947 966 
Q 947 700 1109 554 
Q 1272 409 1569 409 
Q 2031 409 2368 721 
Q 2706 1034 2809 1563 
L 3194 3500 
L 3769 3500 
L 3091 0 
L 2516 0 
L 2631 550 
Q 2388 244 2052 76 
Q 1716 -91 1338 -91 
Q 878 -91 622 161 
Q 366 413 366 863 
Q 366 956 381 1097 
Q 397 1238 428 1388 
z
" transform="scale(0.015625)"/>
       <path id="DejaVuSans-Oblique-61" d="M 3438 1997 
L 3047 0 
L 2472 0 
L 2578 531 
Q 2325 219 2001 64 
Q 1678 -91 1281 -91 
Q 834 -91 548 182 
Q 263 456 263 884 
Q 263 1497 752 1853 
Q 1241 2209 2100 2209 
L 2900 2209 
L 2931 2363 
Q 2938 2388 2941 2417 
Q 2944 2447 2944 2509 
Q 2944 2788 2717 2942 
Q 2491 3097 2081 3097 
Q 1800 3097 1504 3025 
Q 1209 2953 897 2809 
L 997 3341 
Q 1322 3463 1633 3523 
Q 1944 3584 2234 3584 
Q 2853 3584 3176 3315 
Q 3500 3047 3500 2534 
Q 3500 2431 3484 2292 
Q 3469 2153 3438 1997 
z
M 2816 1759 
L 2241 1759 
Q 1534 1759 1195 1570 
Q 856 1381 856 984 
Q 856 709 1029 553 
Q 1203 397 1509 397 
Q 1978 397 2328 733 
Q 2678 1069 2791 1631 
L 2816 1759 
z
" transform="scale(0.015625)"/>
       <path id="DejaVuSans-Oblique-67" d="M 3816 3500 
L 3219 434 
Q 3047 -456 2561 -893 
Q 2075 -1331 1253 -1331 
Q 950 -1331 690 -1286 
Q 431 -1241 206 -1147 
L 313 -588 
Q 525 -725 762 -790 
Q 1000 -856 1269 -856 
Q 1816 -856 2167 -557 
Q 2519 -259 2631 300 
L 2681 563 
Q 2441 288 2122 144 
Q 1803 0 1434 0 
Q 903 0 598 351 
Q 294 703 294 1319 
Q 294 1803 478 2267 
Q 663 2731 997 3091 
Q 1219 3328 1514 3456 
Q 1809 3584 2131 3584 
Q 2484 3584 2746 3420 
Q 3009 3256 3138 2956 
L 3238 3500 
L 3816 3500 
z
M 2950 2216 
Q 2950 2641 2750 2872 
Q 2550 3103 2181 3103 
Q 1953 3103 1747 3012 
Q 1541 2922 1394 2759 
Q 1156 2491 1023 2127 
Q 891 1763 891 1375 
Q 891 944 1092 712 
Q 1294 481 1672 481 
Q 2219 481 2584 976 
Q 2950 1472 2950 2216 
z
" transform="scale(0.015625)"/>
      </defs>
      <use xlink:href="#DejaVuSans-52" transform="translate(0 0.575156)"/>
      <use xlink:href="#DejaVuSans-69" transform="translate(69.482422 0.575156)"/>
      <use xlink:href="#DejaVuSans-73" transform="translate(97.265625 0.575156)"/>
      <use xlink:href="#DejaVuSans-6b" transform="translate(149.365234 0.575156)"/>
      <use xlink:href="#DejaVuSans-20" transform="translate(207.275391 0.575156)"/>
      <use xlink:href="#DejaVuSans-52" transform="translate(239.0625 0.575156)"/>
      <use xlink:href="#DejaVuSans-61" transform="translate(308.544922 0.575156)"/>
      <use xlink:href="#DejaVuSans-74" transform="translate(369.824219 0.575156)"/>
      <use xlink:href="#DejaVuSans-69" transform="translate(409.033203 0.575156)"/>
      <use xlink:href="#DejaVuSans-6f" transform="translate(436.816406 0.575156)"/>
      <use xlink:href="#DejaVuSans-20" transform="translate(497.998047 0.575156)"/>
      <use xlink:href="#DejaVuSans-28" transform="translate(529.785156 0.575156)"/>
      <use xlink:href="#DejaVuSans-Oblique-68" transform="translate(568.798828 0.575156)"/>
      <use xlink:href="#DejaVuSans-Oblique-69" transform="translate(632.177734 -15.831094) scale(0.7)"/>
      <use xlink:href="#DejaVuSans-28" transform="translate(654.360352 0.575156)"/>
      <use xlink:href="#DejaVuSans-Oblique-74" transform="translate(693.374023 0.575156)"/>
      <use xlink:href="#DejaVuSans-29" transform="translate(732.583008 0.575156)"/>
      <use xlink:href="#DejaVuSans-Oblique-64" transform="translate(771.59668 0.575156)"/>
      <use xlink:href="#DejaVuSans-Oblique-74" transform="translate(835.073242 0.575156)"/>
      <use xlink:href="#DejaVuSans-22c5" transform="translate(893.764648 0.575156)"/>
      <use xlink:href="#DejaVuSans-Oblique-43" transform="translate(945.03418 66.046875) scale(0.7)"/>
      <use xlink:href="#DejaVuSans-Oblique-6f" transform="translate(993.911133 54.5625) scale(0.49)"/>
      <use xlink:href="#DejaVuSans-Oblique-75" transform="translate(1023.890137 54.5625) scale(0.49)"/>
      <use xlink:href="#DejaVuSans-Oblique-74" transform="translate(1054.945801 54.5625) scale(0.49)"/>
      <use xlink:href="#DejaVuSans-Oblique-61" transform="translate(1074.158203 54.5625) scale(0.49)"/>
      <use xlink:href="#DejaVuSans-Oblique-67" transform="translate(1104.185059 54.5625) scale(0.49)"/>
      <use xlink:href="#DejaVuSans-Oblique-65" transform="translate(1135.288574 54.5625) scale(0.49)"/>
      <use xlink:href="#DejaVuSans-Oblique-43" transform="translate(990.03418 -38.831094) scale(0.7)"/>
      <use xlink:href="#DejaVuSans-Oblique-72" transform="translate(1038.911133 -50.315469) scale(0.49)"/>
      <use xlink:href="#DejaVuSans-Oblique-65" transform="translate(1059.056641 -50.315469) scale(0.49)"/>
      <use xlink:href="#DejaVuSans-Oblique-70" transform="translate(1089.203125 -50.315469) scale(0.49)"/>
      <use xlink:href="#DejaVuSans-29" transform="translate(1179.849121 0.575156)"/>
      <path d="M 945.03418 19.372031 
L 945.03418 25.622031 
L 1167.349121 25.622031 
L 1167.349121 19.372031 
L 945.03418 19.372031 
z
"/>
     </g>
    </g>
   </g>
  </g>
 </g>
 <defs>
  <clipPath id="p7404b4b680">
   <rect x="44.04" y="27.2" width="196.52" height="150.52"/>
  </clipPath>
 </defs>
</svg>
