<?xml version="1.0" encoding="utf-8" standalone="no"?>
<!DOCTYPE svg PUBLIC "-//W3C//DTD SVG 1.1//EN"
  "http://www.w3.org/Graphics/SVG/1.1/DTD/svg11.dtd">
<svg xmlns:xlink="http://www.w3.org/1999/xlink" width="514.08pt" height="252pt" viewBox="0 0 514.08 252" xmlns="http://www.w3.org/2000/svg" version="1.1">
 <metadata>
  <rdf:RDF xmlns:dc="http://purl.org/dc/elements/1.1/" xmlns:cc="http://creativecommons.org/ns#" xmlns:rdf="http://www.w3.org/1999/02/22-rdf-syntax-ns#">
   <cc:Work>
    <dc:type rdf:resource="http://purl.org/dc/dcmitype/StillImage"/>
    <dc:date>2026-06-12T01:41:14.083560</dc:date>
    <dc:format>image/svg+xml</dc:format>
    <dc:creator>
     <cc:Agent>
      <dc:title>Matplotlib v3.10.8, https://matplotlib.org/</dc:title>
     </cc:Agent>
    </dc:creator>
   </cc:Work>
  </rdf:RDF>
 </metadata>
 <defs>
  <style type="text/css">*{stroke-linejoin: round; stroke-linecap: butt}</style>
 </defs>
 <g id="figure_1">
  <g id="patch_1">
   <path d="M 0 252 
L 514.08 252 
L 514.08 0 
L 0 0 
z
" style="fill: #ffffff"/>
  </g>
  <g id="axes_1">
   <g id="patch_2">
    <path d="M 98.45 210.84 
L 496.205 210.84 
L 496.205 38 
L 98.45 38 
z
" style="fill: #ffffff"/>
   </g>
   <g id="patch_3">
    <path d="M 98.45 210.84 
L 212.094286 210.84 
L 212.094286 38 
L 98.45 38 
z
" clip-path="url(#pe12e04cee9)" style="fill: #008000; opacity: 0.05; stroke: #008000; stroke-linejoin: miter"/>
   </g>
   <g id="patch_4">
    <path d="M 212.094286 210.84 
L 496.205 210.84 
L 496.205 38 
L 212.094286 38 
z
" clip-path="url(#pe12e04cee9)" style="fill: #ff0000; opacity: 0.05; stroke: #ff0000; stroke-linejoin: miter"/>
   </g>
   <g id="matplotlib.axis_1">
    <g id="xtick_1">
     <g id="line2d_1">
      <path d="M 98.45 210.84 
L 98.45 38 
" clip-path="url(#pe12e04cee9)" style="fill: none; stroke-dasharray: 0.8,1.32; stroke-dashoffset: 0; stroke: #b0b0b0; stroke-opacity: 0.6; stroke-width: 0.8"/>
     </g>
     <g id="line2d_2">
      <defs>
       <path id="made22107f6" d="M 0 0 
L 0 3.5 
" style="stroke: #000000; stroke-width: 0.8"/>
      </defs>
      <g>
       <use xlink:href="#made22107f6" x="98.45" y="210.84" style="stroke: #000000; stroke-width: 0.8"/>
      </g>
     </g>
     <g id="text_1">
      <!-- 0.0 -->
      <g transform="translate(90.498437 225.438438) scale(0.1 -0.1)">
       <defs>
        <path id="DejaVuSans-30" d="M 2034 4250 
Q 1547 4250 1301 3770 
Q 1056 3291 1056 2328 
Q 1056 1369 1301 889 
Q 1547 409 2034 409 
Q 2525 409 2770 889 
Q 3016 1369 3016 2328 
Q 3016 3291 2770 3770 
Q 2525 4250 2034 4250 
z
M 2034 4750 
Q 2819 4750 3233 4129 
Q 3647 3509 3647 2328 
Q 3647 1150 3233 529 
Q 2819 -91 2034 -91 
Q 1250 -91 836 529 
Q 422 1150 422 2328 
Q 422 3509 836 4129 
Q 1250 4750 2034 4750 
z
" transform="scale(0.015625)"/>
        <path id="DejaVuSans-2e" d="M 684 794 
L 1344 794 
L 1344 0 
L 684 0 
L 684 794 
z
" transform="scale(0.015625)"/>
       </defs>
       <use xlink:href="#DejaVuSans-30"/>
       <use xlink:href="#DejaVuSans-2e" transform="translate(63.623047 0)"/>
       <use xlink:href="#DejaVuSans-30" transform="translate(95.410156 0)"/>
      </g>
     </g>
    </g>
    <g id="xtick_2">
     <g id="line2d_3">
      <path d="M 155.272143 210.84 
L 155.272143 38 
" clip-path="url(#pe12e04cee9)" style="fill: none; stroke-dasharray: 0.8,1.32; stroke-dashoffset: 0; stroke: #b0b0b0; stroke-opacity: 0.6; stroke-width: 0.8"/>
     </g>
     <g id="line2d_4">
      <g>
       <use xlink:href="#made22107f6" x="155.272143" y="210.84" style="stroke: #000000; stroke-width: 0.8"/>
      </g>
     </g>
     <g id="text_2">
      <!-- 0.5 -->
      <g transform="translate(147.32058 225.438438) scale(0.1 -0.1)">
       <defs>
        <path id="DejaVuSans-35" d="M 691 4666 
L 3169 4666 
L 3169 4134 
L 1269 4134 
L 1269 2991 
Q 1406 3038 1543 3061 
Q 1681 3084 1819 3084 
Q 2600 3084 3056 2656 
Q 3513 2228 3513 1497 
Q 3513 744 3044 326 
Q 2575 -91 1722 -91 
Q 1428 -91 1123 -41 
Q 819 9 494 109 
L 494 744 
Q 775 591 1075 516 
Q 1375 441 1709 441 
Q 2250 441 2565 725 
Q 2881 1009 2881 1497 
Q 2881 1984 2565 2268 
Q 2250 2553 1709 2553 
Q 1456 2553 1204 2497 
Q 953 2441 691 2322 
L 691 4666 
z
" transform="scale(0.015625)"/>
       </defs>
       <use xlink:href="#DejaVuSans-30"/>
       <use xlink:href="#DejaVuSans-2e" transform="translate(63.623047 0)"/>
       <use xlink:href="#DejaVuSans-35" transform="translate(95.410156 0)"/>
      </g>
     </g>
    </g>
    <g id="xtick_3">
     <g id="line2d_5">
      <path d="M 212.094286 210.84 
L 212.094286 38 
" clip-path="url(#pe12e04cee9)" style="fill: none; stroke-dasharray: 0.8,1.32; stroke-dashoffset: 0; stroke: #b0b0b0; stroke-opacity: 0.6; stroke-width: 0.8"/>
     </g>
     <g id="line2d_6">
      <g>
       <use xlink:href="#made22107f6" x="212.094286" y="210.84" style="stroke: #000000; stroke-width: 0.8"/>
      </g>
     </g>
     <g id="text_3">
      <!-- 1.0 -->
      <g transform="translate(204.142723 225.438438) scale(0.1 -0.1)">
       <defs>
        <path id="DejaVuSans-31" d="M 794 531 
L 1825 531 
L 1825 4091 
L 703 3866 
L 703 4441 
L 1819 4666 
L 2450 4666 
L 2450 531 
L 3481 531 
L 3481 0 
L 794 0 
L 794 531 
z
" transform="scale(0.015625)"/>
       </defs>
       <use xlink:href="#DejaVuSans-31"/>
       <use xlink:href="#DejaVuSans-2e" transform="translate(63.623047 0)"/>
       <use xlink:href="#DejaVuSans-30" transform="translate(95.410156 0)"/>
      </g>
     </g>
    </g>
    <g id="xtick_4">
     <g id="line2d_7">
      <path d="M 268.916429 210.84 
L 268.916429 38 
" clip-path="url(#pe12e04cee9)" style="fill: none; stroke-dasharray: 0.8,1.32; stroke-dashoffset: 0; stroke: #b0b0b0; stroke-opacity: 0.6; stroke-width: 0.8"/>
     </g>
     <g id="line2d_8">
      <g>
       <use xlink:href="#made22107f6" x="268.916429" y="210.84" style="stroke: #000000; stroke-width: 0.8"/>
      </g>
     </g>
     <g id="text_4">
      <!-- 1.5 -->
      <g transform="translate(260.964866 225.438438) scale(0.1 -0.1)">
       <use xlink:href="#DejaVuSans-31"/>
       <use xlink:href="#DejaVuSans-2e" transform="translate(63.623047 0)"/>
       <use xlink:href="#DejaVuSans-35" transform="translate(95.410156 0)"/>
      </g>
     </g>
    </g>
    <g id="xtick_5">
     <g id="line2d_9">
      <path d="M 325.738571 210.84 
L 325.738571 38 
" clip-path="url(#pe12e04cee9)" style="fill: none; stroke-dasharray: 0.8,1.32; stroke-dashoffset: 0; stroke: #b0b0b0; stroke-opacity: 0.6; stroke-width: 0.8"/>
     </g>
     <g id="line2d_10">
      <g>
       <use xlink:href="#made22107f6" x="325.738571" y="210.84" style="stroke: #000000; stroke-width: 0.8"/>
      </g>
     </g>
     <g id="text_5">
      <!-- 2.0 -->
      <g transform="translate(317.787009 225.438438) scale(0.1 -0.1)">
       <defs>
        <path id="DejaVuSans-32" d="M 1228 531 
L 3431 531 
L 3431 0 
L 469 0 
L 469 531 
Q 828 903 1448 1529 
Q 2069 2156 2228 2338 
Q 2531 2678 2651 2914 
Q 2772 3150 2772 3378 
Q 2772 3750 2511 3984 
Q 2250 4219 1831 4219 
Q 1534 4219 1204 4116 
Q 875 4013 500 3803 
L 500 4441 
Q 881 4594 1212 4672 
Q 1544 4750 1819 4750 
Q 2544 4750 2975 4387 
Q 3406 4025 3406 3419 
Q 3406 3131 3298 2873 
Q 3191 2616 2906 2266 
Q 2828 2175 2409 1742 
Q 1991 1309 1228 531 
z
" transform="scale(0.015625)"/>
       </defs>
       <use xlink:href="#DejaVuSans-32"/>
       <use xlink:href="#DejaVuSans-2e" transform="translate(63.623047 0)"/>
       <use xlink:href="#DejaVuSans-30" transform="translate(95.410156 0)"/>
      </g>
     </g>
    </g>
    <g id="xtick_6">
     <g id="line2d_11">
      <path d="M 382.560714 210.84 
L 382.560714 38 
" clip-path="url(#pe12e04cee9)" style="fill: none; stroke-dasharray: 0.8,1.32; stroke-dashoffset: 0; stroke: #b0b0b0; stroke-opacity: 0.6; stroke-width: 0.8"/>
     </g>
     <g id="line2d_12">
      <g>
       <use xlink:href="#made22107f6" x="382.560714" y="210.84" style="stroke: #000000; stroke-width: 0.8"/>
      </g>
     </g>
     <g id="text_6">
      <!-- 2.5 -->
      <g transform="translate(374.609152 225.438438) scale(0.1 -0.1)">
       <use xlink:href="#DejaVuSans-32"/>
       <use xlink:href="#DejaVuSans-2e" transform="translate(63.623047 0)"/>
       <use xlink:href="#DejaVuSans-35" transform="translate(95.410156 0)"/>
      </g>
     </g>
    </g>
    <g id="xtick_7">
     <g id="line2d_13">
      <path d="M 439.382857 210.84 
L 439.382857 38 
" clip-path="url(#pe12e04cee9)" style="fill: none; stroke-dasharray: 0.8,1.32; stroke-dashoffset: 0; stroke: #b0b0b0; stroke-opacity: 0.6; stroke-width: 0.8"/>
     </g>
     <g id="line2d_14">
      <g>
       <use xlink:href="#made22107f6" x="439.382857" y="210.84" style="stroke: #000000; stroke-width: 0.8"/>
      </g>
     </g>
     <g id="text_7">
      <!-- 3.0 -->
      <g transform="translate(431.431295 225.438438) scale(0.1 -0.1)">
       <defs>
        <path id="DejaVuSans-33" d="M 2597 2516 
Q 3050 2419 3304 2112 
Q 3559 1806 3559 1356 
Q 3559 666 3084 287 
Q 2609 -91 1734 -91 
Q 1441 -91 1130 -33 
Q 819 25 488 141 
L 488 750 
Q 750 597 1062 519 
Q 1375 441 1716 441 
Q 2309 441 2620 675 
Q 2931 909 2931 1356 
Q 2931 1769 2642 2001 
Q 2353 2234 1838 2234 
L 1294 2234 
L 1294 2753 
L 1863 2753 
Q 2328 2753 2575 2939 
Q 2822 3125 2822 3475 
Q 2822 3834 2567 4026 
Q 2313 4219 1838 4219 
Q 1578 4219 1281 4162 
Q 984 4106 628 3988 
L 628 4550 
Q 988 4650 1302 4700 
Q 1616 4750 1894 4750 
Q 2613 4750 3031 4423 
Q 3450 4097 3450 3541 
Q 3450 3153 3228 2886 
Q 3006 2619 2597 2516 
z
" transform="scale(0.015625)"/>
       </defs>
       <use xlink:href="#DejaVuSans-33"/>
       <use xlink:href="#DejaVuSans-2e" transform="translate(63.623047 0)"/>
       <use xlink:href="#DejaVuSans-30" transform="translate(95.410156 0)"/>
      </g>
     </g>
    </g>
    <g id="xtick_8">
     <g id="line2d_15">
      <path d="M 496.205 210.84 
L 496.205 38 
" clip-path="url(#pe12e04cee9)" style="fill: none; stroke-dasharray: 0.8,1.32; stroke-dashoffset: 0; stroke: #b0b0b0; stroke-opacity: 0.6; stroke-width: 0.8"/>
     </g>
     <g id="line2d_16">
      <g>
       <use xlink:href="#made22107f6" x="496.205" y="210.84" style="stroke: #000000; stroke-width: 0.8"/>
      </g>
     </g>
     <g id="text_8">
      <!-- 3.5 -->
      <g transform="translate(488.253437 225.438438) scale(0.1 -0.1)">
       <use xlink:href="#DejaVuSans-33"/>
       <use xlink:href="#DejaVuSans-2e" transform="translate(63.623047 0)"/>
       <use xlink:href="#DejaVuSans-35" transform="translate(95.410156 0)"/>
      </g>
     </g>
    </g>
    <g id="text_9">
     <!-- Hazard Ratio $HR = \exp(\beta)$ -->
     <g transform="translate(246.4875 237.678125) scale(0.08 -0.08)">
      <defs>
       <path id="DejaVuSans-48" d="M 628 4666 
L 1259 4666 
L 1259 2753 
L 3553 2753 
L 3553 4666 
L 4184 4666 
L 4184 0 
L 3553 0 
L 3553 2222 
L 1259 2222 
L 1259 0 
L 628 0 
L 628 4666 
z
" transform="scale(0.015625)"/>
       <path id="DejaVuSans-61" d="M 2194 1759 
Q 1497 1759 1228 1600 
Q 959 1441 959 1056 
Q 959 750 1161 570 
Q 1363 391 1709 391 
Q 2188 391 2477 730 
Q 2766 1069 2766 1631 
L 2766 1759 
L 2194 1759 
z
M 3341 1997 
L 3341 0 
L 2766 0 
L 2766 531 
Q 2569 213 2275 61 
Q 1981 -91 1556 -91 
Q 1019 -91 701 211 
Q 384 513 384 1019 
Q 384 1609 779 1909 
Q 1175 2209 1959 2209 
L 2766 2209 
L 2766 2266 
Q 2766 2663 2505 2880 
Q 2244 3097 1772 3097 
Q 1472 3097 1187 3025 
Q 903 2953 641 2809 
L 641 3341 
Q 956 3463 1253 3523 
Q 1550 3584 1831 3584 
Q 2591 3584 2966 3190 
Q 3341 2797 3341 1997 
z
" transform="scale(0.015625)"/>
       <path id="DejaVuSans-7a" d="M 353 3500 
L 3084 3500 
L 3084 2975 
L 922 459 
L 3084 459 
L 3084 0 
L 275 0 
L 275 525 
L 2438 3041 
L 353 3041 
L 353 3500 
z
" transform="scale(0.015625)"/>
       <path id="DejaVuSans-72" d="M 2631 2963 
Q 2534 3019 2420 3045 
Q 2306 3072 2169 3072 
Q 1681 3072 1420 2755 
Q 1159 2438 1159 1844 
L 1159 0 
L 581 0 
L 581 3500 
L 1159 3500 
L 1159 2956 
Q 1341 3275 1631 3429 
Q 1922 3584 2338 3584 
Q 2397 3584 2469 3576 
Q 2541 3569 2628 3553 
L 2631 2963 
z
" transform="scale(0.015625)"/>
       <path id="DejaVuSans-64" d="M 2906 2969 
L 2906 4863 
L 3481 4863 
L 3481 0 
L 2906 0 
L 2906 525 
Q 2725 213 2448 61 
Q 2172 -91 1784 -91 
Q 1150 -91 751 415 
Q 353 922 353 1747 
Q 353 2572 751 3078 
Q 1150 3584 1784 3584 
Q 2172 3584 2448 3432 
Q 2725 3281 2906 2969 
z
M 947 1747 
Q 947 1113 1208 752 
Q 1469 391 1925 391 
Q 2381 391 2643 752 
Q 2906 1113 2906 1747 
Q 2906 2381 2643 2742 
Q 2381 3103 1925 3103 
Q 1469 3103 1208 2742 
Q 947 2381 947 1747 
z
" transform="scale(0.015625)"/>
       <path id="DejaVuSans-20" transform="scale(0.015625)"/>
       <path id="DejaVuSans-52" d="M 2841 2188 
Q 3044 2119 3236 1894 
Q 3428 1669 3622 1275 
L 4263 0 
L 3584 0 
L 2988 1197 
Q 2756 1666 2539 1819 
Q 2322 1972 1947 1972 
L 1259 1972 
L 1259 0 
L 628 0 
L 628 4666 
L 2053 4666 
Q 2853 4666 3247 4331 
Q 3641 3997 3641 3322 
Q 3641 2881 3436 2590 
Q 3231 2300 2841 2188 
z
M 1259 4147 
L 1259 2491 
L 2053 2491 
Q 2509 2491 2742 2702 
Q 2975 2913 2975 3322 
Q 2975 3731 2742 3939 
Q 2509 4147 2053 4147 
L 1259 4147 
z
" transform="scale(0.015625)"/>
       <path id="DejaVuSans-74" d="M 1172 4494 
L 1172 3500 
L 2356 3500 
L 2356 3053 
L 1172 3053 
L 1172 1153 
Q 1172 725 1289 603 
Q 1406 481 1766 481 
L 2356 481 
L 2356 0 
L 1766 0 
Q 1100 0 847 248 
Q 594 497 594 1153 
L 594 3053 
L 172 3053 
L 172 3500 
L 594 3500 
L 594 4494 
L 1172 4494 
z
" transform="scale(0.015625)"/>
       <path id="DejaVuSans-69" d="M 603 3500 
L 1178 3500 
L 1178 0 
L 603 0 
L 603 3500 
z
M 603 4863 
L 1178 4863 
L 1178 4134 
L 603 4134 
L 603 4863 
z
" transform="scale(0.015625)"/>
       <path id="DejaVuSans-6f" d="M 1959 3097 
Q 1497 3097 1228 2736 
Q 959 2375 959 1747 
Q 959 1119 1226 758 
Q 1494 397 1959 397 
Q 2419 397 2687 759 
Q 2956 1122 2956 1747 
Q 2956 2369 2687 2733 
Q 2419 3097 1959 3097 
z
M 1959 3584 
Q 2709 3584 3137 3096 
Q 3566 2609 3566 1747 
Q 3566 888 3137 398 
Q 2709 -91 1959 -91 
Q 1206 -91 779 398 
Q 353 888 353 1747 
Q 353 2609 779 3096 
Q 1206 3584 1959 3584 
z
" transform="scale(0.015625)"/>
       <path id="DejaVuSans-Oblique-48" d="M 1081 4666 
L 1716 4666 
L 1344 2753 
L 3634 2753 
L 4006 4666 
L 4641 4666 
L 3731 0 
L 3097 0 
L 3531 2222 
L 1241 2222 
L 806 0 
L 172 0 
L 1081 4666 
z
" transform="scale(0.015625)"/>
       <path id="DejaVuSans-Oblique-52" d="M 1613 4147 
L 1294 2491 
L 2106 2491 
Q 2584 2491 2879 2755 
Q 3175 3019 3175 3444 
Q 3175 3784 2976 3965 
Q 2778 4147 2406 4147 
L 1613 4147 
z
M 2772 2241 
Q 2972 2194 3105 2009 
Q 3238 1825 3413 1275 
L 3809 0 
L 3144 0 
L 2778 1197 
Q 2638 1659 2453 1815 
Q 2269 1972 1888 1972 
L 1191 1972 
L 806 0 
L 172 0 
L 1081 4666 
L 2503 4666 
Q 3150 4666 3495 4373 
Q 3841 4081 3841 3531 
Q 3841 3044 3547 2687 
Q 3253 2331 2772 2241 
z
" transform="scale(0.015625)"/>
       <path id="DejaVuSans-3d" d="M 678 2906 
L 4684 2906 
L 4684 2381 
L 678 2381 
L 678 2906 
z
M 678 1631 
L 4684 1631 
L 4684 1100 
L 678 1100 
L 678 1631 
z
" transform="scale(0.015625)"/>
       <path id="DejaVuSans-65" d="M 3597 1894 
L 3597 1613 
L 953 1613 
Q 991 1019 1311 708 
Q 1631 397 2203 397 
Q 2534 397 2845 478 
Q 3156 559 3463 722 
L 3463 178 
Q 3153 47 2828 -22 
Q 2503 -91 2169 -91 
Q 1331 -91 842 396 
Q 353 884 353 1716 
Q 353 2575 817 3079 
Q 1281 3584 2069 3584 
Q 2775 3584 3186 3129 
Q 3597 2675 3597 1894 
z
M 3022 2063 
Q 3016 2534 2758 2815 
Q 2500 3097 2075 3097 
Q 1594 3097 1305 2825 
Q 1016 2553 972 2059 
L 3022 2063 
z
" transform="scale(0.015625)"/>
       <path id="DejaVuSans-78" d="M 3513 3500 
L 2247 1797 
L 3578 0 
L 2900 0 
L 1881 1375 
L 863 0 
L 184 0 
L 1544 1831 
L 300 3500 
L 978 3500 
L 1906 2253 
L 2834 3500 
L 3513 3500 
z
" transform="scale(0.015625)"/>
       <path id="DejaVuSans-70" d="M 1159 525 
L 1159 -1331 
L 581 -1331 
L 581 3500 
L 1159 3500 
L 1159 2969 
Q 1341 3281 1617 3432 
Q 1894 3584 2278 3584 
Q 2916 3584 3314 3078 
Q 3713 2572 3713 1747 
Q 3713 922 3314 415 
Q 2916 -91 2278 -91 
Q 1894 -91 1617 61 
Q 1341 213 1159 525 
z
M 3116 1747 
Q 3116 2381 2855 2742 
Q 2594 3103 2138 3103 
Q 1681 3103 1420 2742 
Q 1159 2381 1159 1747 
Q 1159 1113 1420 752 
Q 1681 391 2138 391 
Q 2594 391 2855 752 
Q 3116 1113 3116 1747 
z
" transform="scale(0.015625)"/>
       <path id="DejaVuSans-28" d="M 1984 4856 
Q 1566 4138 1362 3434 
Q 1159 2731 1159 2009 
Q 1159 1288 1364 580 
Q 1569 -128 1984 -844 
L 1484 -844 
Q 1016 -109 783 600 
Q 550 1309 550 2009 
Q 550 2706 781 3412 
Q 1013 4119 1484 4856 
L 1984 4856 
z
" transform="scale(0.015625)"/>
       <path id="DejaVuSans-Oblique-3b2" d="M 872 216 
L 572 -1331 
L -6 -1331 
L 928 3478 
Q 1206 4903 2538 4903 
Q 3888 4903 3659 3700 
Q 3503 2844 2894 2531 
Q 3713 2250 3553 1416 
Q 3272 -69 1759 -66 
Q 1097 -63 872 216 
z
M 1019 966 
Q 1259 422 1875 425 
Q 2775 425 2966 1406 
Q 3138 2288 1675 2219 
L 1778 2750 
Q 2909 2731 3106 3750 
Q 3241 4438 2509 4434 
Q 1691 4434 1503 3459 
L 1019 966 
z
" transform="scale(0.015625)"/>
       <path id="DejaVuSans-29" d="M 513 4856 
L 1013 4856 
Q 1481 4119 1714 3412 
Q 1947 2706 1947 2009 
Q 1947 1309 1714 600 
Q 1481 -109 1013 -844 
L 513 -844 
Q 928 -128 1133 580 
Q 1338 1288 1338 2009 
Q 1338 2731 1133 3434 
Q 928 4138 513 4856 
z
" transform="scale(0.015625)"/>
      </defs>
      <use xlink:href="#DejaVuSans-48" transform="translate(0 0.390625)"/>
      <use xlink:href="#DejaVuSans-61" transform="translate(75.195312 0.390625)"/>
      <use xlink:href="#DejaVuSans-7a" transform="translate(136.474609 0.390625)"/>
      <use xlink:href="#DejaVuSans-61" transform="translate(188.964844 0.390625)"/>
      <use xlink:href="#DejaVuSans-72" transform="translate(250.244141 0.390625)"/>
      <use xlink:href="#DejaVuSans-64" transform="translate(291.357422 0.390625)"/>
      <use xlink:href="#DejaVuSans-20" transform="translate(354.833984 0.390625)"/>
      <use xlink:href="#DejaVuSans-52" transform="translate(386.621094 0.390625)"/>
      <use xlink:href="#DejaVuSans-61" transform="translate(456.103516 0.390625)"/>
      <use xlink:href="#DejaVuSans-74" transform="translate(517.382812 0.390625)"/>
      <use xlink:href="#DejaVuSans-69" transform="translate(556.591797 0.390625)"/>
      <use xlink:href="#DejaVuSans-6f" transform="translate(584.375 0.390625)"/>
      <use xlink:href="#DejaVuSans-20" transform="translate(645.556641 0.390625)"/>
      <use xlink:href="#DejaVuSans-Oblique-48" transform="translate(677.34375 0.390625)"/>
      <use xlink:href="#DejaVuSans-Oblique-52" transform="translate(752.539062 0.390625)"/>
      <use xlink:href="#DejaVuSans-3d" transform="translate(841.503906 0.390625)"/>
      <use xlink:href="#DejaVuSans-65" transform="translate(944.775391 0.390625)"/>
      <use xlink:href="#DejaVuSans-78" transform="translate(1006.298828 0.390625)"/>
      <use xlink:href="#DejaVuSans-70" transform="translate(1065.478516 0.390625)"/>
      <use xlink:href="#DejaVuSans-28" transform="translate(1128.955078 0.390625)"/>
      <use xlink:href="#DejaVuSans-Oblique-3b2" transform="translate(1167.96875 0.390625)"/>
      <use xlink:href="#DejaVuSans-29" transform="translate(1231.787109 0.390625)"/>
     </g>
    </g>
   </g>
   <g id="matplotlib.axis_2">
    <g id="ytick_1">
     <g id="line2d_17">
      <defs>
       <path id="mbfa5ffc75f" d="M 0 0 
L -3.5 0 
" style="stroke: #000000; stroke-width: 0.8"/>
      </defs>
      <g>
       <use xlink:href="#mbfa5ffc75f" x="98.45" y="45.856364" style="stroke: #000000; stroke-width: 0.8"/>
      </g>
     </g>
     <g id="text_10">
      <!-- Baseline Age -->
      <g transform="translate(39.515 45.024489) scale(0.08 -0.08)">
       <defs>
        <path id="DejaVuSans-42" d="M 1259 2228 
L 1259 519 
L 2272 519 
Q 2781 519 3026 730 
Q 3272 941 3272 1375 
Q 3272 1813 3026 2020 
Q 2781 2228 2272 2228 
L 1259 2228 
z
M 1259 4147 
L 1259 2741 
L 2194 2741 
Q 2656 2741 2882 2914 
Q 3109 3088 3109 3444 
Q 3109 3797 2882 3972 
Q 2656 4147 2194 4147 
L 1259 4147 
z
M 628 4666 
L 2241 4666 
Q 2963 4666 3353 4366 
Q 3744 4066 3744 3513 
Q 3744 3084 3544 2831 
Q 3344 2578 2956 2516 
Q 3422 2416 3680 2098 
Q 3938 1781 3938 1306 
Q 3938 681 3513 340 
Q 3088 0 2303 0 
L 628 0 
L 628 4666 
z
" transform="scale(0.015625)"/>
        <path id="DejaVuSans-73" d="M 2834 3397 
L 2834 2853 
Q 2591 2978 2328 3040 
Q 2066 3103 1784 3103 
Q 1356 3103 1142 2972 
Q 928 2841 928 2578 
Q 928 2378 1081 2264 
Q 1234 2150 1697 2047 
L 1894 2003 
Q 2506 1872 2764 1633 
Q 3022 1394 3022 966 
Q 3022 478 2636 193 
Q 2250 -91 1575 -91 
Q 1294 -91 989 -36 
Q 684 19 347 128 
L 347 722 
Q 666 556 975 473 
Q 1284 391 1588 391 
Q 1994 391 2212 530 
Q 2431 669 2431 922 
Q 2431 1156 2273 1281 
Q 2116 1406 1581 1522 
L 1381 1569 
Q 847 1681 609 1914 
Q 372 2147 372 2553 
Q 372 3047 722 3315 
Q 1072 3584 1716 3584 
Q 2034 3584 2315 3537 
Q 2597 3491 2834 3397 
z
" transform="scale(0.015625)"/>
        <path id="DejaVuSans-6c" d="M 603 4863 
L 1178 4863 
L 1178 0 
L 603 0 
L 603 4863 
z
" transform="scale(0.015625)"/>
        <path id="DejaVuSans-6e" d="M 3513 2113 
L 3513 0 
L 2938 0 
L 2938 2094 
Q 2938 2591 2744 2837 
Q 2550 3084 2163 3084 
Q 1697 3084 1428 2787 
Q 1159 2491 1159 1978 
L 1159 0 
L 581 0 
L 581 3500 
L 1159 3500 
L 1159 2956 
Q 1366 3272 1645 3428 
Q 1925 3584 2291 3584 
Q 2894 3584 3203 3211 
Q 3513 2838 3513 2113 
z
" transform="scale(0.015625)"/>
        <path id="DejaVuSans-41" d="M 2188 4044 
L 1331 1722 
L 3047 1722 
L 2188 4044 
z
M 1831 4666 
L 2547 4666 
L 4325 0 
L 3669 0 
L 3244 1197 
L 1141 1197 
L 716 0 
L 50 0 
L 1831 4666 
z
" transform="scale(0.015625)"/>
        <path id="DejaVuSans-67" d="M 2906 1791 
Q 2906 2416 2648 2759 
Q 2391 3103 1925 3103 
Q 1463 3103 1205 2759 
Q 947 2416 947 1791 
Q 947 1169 1205 825 
Q 1463 481 1925 481 
Q 2391 481 2648 825 
Q 2906 1169 2906 1791 
z
M 3481 434 
Q 3481 -459 3084 -895 
Q 2688 -1331 1869 -1331 
Q 1566 -1331 1297 -1286 
Q 1028 -1241 775 -1147 
L 775 -588 
Q 1028 -725 1275 -790 
Q 1522 -856 1778 -856 
Q 2344 -856 2625 -561 
Q 2906 -266 2906 331 
L 2906 616 
Q 2728 306 2450 153 
Q 2172 0 1784 0 
Q 1141 0 747 490 
Q 353 981 353 1791 
Q 353 2603 747 3093 
Q 1141 3584 1784 3584 
Q 2172 3584 2450 3431 
Q 2728 3278 2906 2969 
L 2906 3500 
L 3481 3500 
L 3481 434 
z
" transform="scale(0.015625)"/>
       </defs>
       <use xlink:href="#DejaVuSans-42"/>
       <use xlink:href="#DejaVuSans-61" transform="translate(68.603516 0)"/>
       <use xlink:href="#DejaVuSans-73" transform="translate(129.882812 0)"/>
       <use xlink:href="#DejaVuSans-65" transform="translate(181.982422 0)"/>
       <use xlink:href="#DejaVuSans-6c" transform="translate(243.505859 0)"/>
       <use xlink:href="#DejaVuSans-69" transform="translate(271.289062 0)"/>
       <use xlink:href="#DejaVuSans-6e" transform="translate(299.072266 0)"/>
       <use xlink:href="#DejaVuSans-65" transform="translate(362.451172 0)"/>
       <use xlink:href="#DejaVuSans-20" transform="translate(423.974609 0)"/>
       <use xlink:href="#DejaVuSans-41" transform="translate(455.761719 0)"/>
       <use xlink:href="#DejaVuSans-67" transform="translate(524.169922 0)"/>
       <use xlink:href="#DejaVuSans-65" transform="translate(587.646484 0)"/>
      </g>
      <!-- (Natural Decay) -->
      <g transform="translate(28.03875 53.982739) scale(0.08 -0.08)">
       <defs>
        <path id="DejaVuSans-4e" d="M 628 4666 
L 1478 4666 
L 3547 763 
L 3547 4666 
L 4159 4666 
L 4159 0 
L 3309 0 
L 1241 3903 
L 1241 0 
L 628 0 
L 628 4666 
z
" transform="scale(0.015625)"/>
        <path id="DejaVuSans-75" d="M 544 1381 
L 544 3500 
L 1119 3500 
L 1119 1403 
Q 1119 906 1312 657 
Q 1506 409 1894 409 
Q 2359 409 2629 706 
Q 2900 1003 2900 1516 
L 2900 3500 
L 3475 3500 
L 3475 0 
L 2900 0 
L 2900 538 
Q 2691 219 2414 64 
Q 2138 -91 1772 -91 
Q 1169 -91 856 284 
Q 544 659 544 1381 
z
M 1991 3584 
L 1991 3584 
z
" transform="scale(0.015625)"/>
        <path id="DejaVuSans-44" d="M 1259 4147 
L 1259 519 
L 2022 519 
Q 2988 519 3436 956 
Q 3884 1394 3884 2338 
Q 3884 3275 3436 3711 
Q 2988 4147 2022 4147 
L 1259 4147 
z
M 628 4666 
L 1925 4666 
Q 3281 4666 3915 4102 
Q 4550 3538 4550 2338 
Q 4550 1131 3912 565 
Q 3275 0 1925 0 
L 628 0 
L 628 4666 
z
" transform="scale(0.015625)"/>
        <path id="DejaVuSans-63" d="M 3122 3366 
L 3122 2828 
Q 2878 2963 2633 3030 
Q 2388 3097 2138 3097 
Q 1578 3097 1268 2742 
Q 959 2388 959 1747 
Q 959 1106 1268 751 
Q 1578 397 2138 397 
Q 2388 397 2633 464 
Q 2878 531 3122 666 
L 3122 134 
Q 2881 22 2623 -34 
Q 2366 -91 2075 -91 
Q 1284 -91 818 406 
Q 353 903 353 1747 
Q 353 2603 823 3093 
Q 1294 3584 2113 3584 
Q 2378 3584 2631 3529 
Q 2884 3475 3122 3366 
z
" transform="scale(0.015625)"/>
        <path id="DejaVuSans-79" d="M 2059 -325 
Q 1816 -950 1584 -1140 
Q 1353 -1331 966 -1331 
L 506 -1331 
L 506 -850 
L 844 -850 
Q 1081 -850 1212 -737 
Q 1344 -625 1503 -206 
L 1606 56 
L 191 3500 
L 800 3500 
L 1894 763 
L 2988 3500 
L 3597 3500 
L 2059 -325 
z
" transform="scale(0.015625)"/>
       </defs>
       <use xlink:href="#DejaVuSans-28"/>
       <use xlink:href="#DejaVuSans-4e" transform="translate(39.013672 0)"/>
       <use xlink:href="#DejaVuSans-61" transform="translate(113.818359 0)"/>
       <use xlink:href="#DejaVuSans-74" transform="translate(175.097656 0)"/>
       <use xlink:href="#DejaVuSans-75" transform="translate(214.306641 0)"/>
       <use xlink:href="#DejaVuSans-72" transform="translate(277.685547 0)"/>
       <use xlink:href="#DejaVuSans-61" transform="translate(318.798828 0)"/>
       <use xlink:href="#DejaVuSans-6c" transform="translate(380.078125 0)"/>
       <use xlink:href="#DejaVuSans-20" transform="translate(407.861328 0)"/>
       <use xlink:href="#DejaVuSans-44" transform="translate(439.648438 0)"/>
       <use xlink:href="#DejaVuSans-65" transform="translate(516.650391 0)"/>
       <use xlink:href="#DejaVuSans-63" transform="translate(578.173828 0)"/>
       <use xlink:href="#DejaVuSans-61" transform="translate(633.154297 0)"/>
       <use xlink:href="#DejaVuSans-79" transform="translate(694.433594 0)"/>
       <use xlink:href="#DejaVuSans-29" transform="translate(753.613281 0)"/>
      </g>
     </g>
    </g>
    <g id="ytick_2">
     <g id="line2d_18">
      <g>
       <use xlink:href="#mbfa5ffc75f" x="98.45" y="77.281818" style="stroke: #000000; stroke-width: 0.8"/>
      </g>
     </g>
     <g id="text_11">
      <!-- Core Temp Overload -->
      <g transform="translate(10.19 76.449943) scale(0.08 -0.08)">
       <defs>
        <path id="DejaVuSans-43" d="M 4122 4306 
L 4122 3641 
Q 3803 3938 3442 4084 
Q 3081 4231 2675 4231 
Q 1875 4231 1450 3742 
Q 1025 3253 1025 2328 
Q 1025 1406 1450 917 
Q 1875 428 2675 428 
Q 3081 428 3442 575 
Q 3803 722 4122 1019 
L 4122 359 
Q 3791 134 3420 21 
Q 3050 -91 2638 -91 
Q 1578 -91 968 557 
Q 359 1206 359 2328 
Q 359 3453 968 4101 
Q 1578 4750 2638 4750 
Q 3056 4750 3426 4639 
Q 3797 4528 4122 4306 
z
" transform="scale(0.015625)"/>
        <path id="DejaVuSans-54" d="M -19 4666 
L 3928 4666 
L 3928 4134 
L 2272 4134 
L 2272 0 
L 1638 0 
L 1638 4134 
L -19 4134 
L -19 4666 
z
" transform="scale(0.015625)"/>
        <path id="DejaVuSans-6d" d="M 3328 2828 
Q 3544 3216 3844 3400 
Q 4144 3584 4550 3584 
Q 5097 3584 5394 3201 
Q 5691 2819 5691 2113 
L 5691 0 
L 5113 0 
L 5113 2094 
Q 5113 2597 4934 2840 
Q 4756 3084 4391 3084 
Q 3944 3084 3684 2787 
Q 3425 2491 3425 1978 
L 3425 0 
L 2847 0 
L 2847 2094 
Q 2847 2600 2669 2842 
Q 2491 3084 2119 3084 
Q 1678 3084 1418 2786 
Q 1159 2488 1159 1978 
L 1159 0 
L 581 0 
L 581 3500 
L 1159 3500 
L 1159 2956 
Q 1356 3278 1631 3431 
Q 1906 3584 2284 3584 
Q 2666 3584 2933 3390 
Q 3200 3197 3328 2828 
z
" transform="scale(0.015625)"/>
        <path id="DejaVuSans-4f" d="M 2522 4238 
Q 1834 4238 1429 3725 
Q 1025 3213 1025 2328 
Q 1025 1447 1429 934 
Q 1834 422 2522 422 
Q 3209 422 3611 934 
Q 4013 1447 4013 2328 
Q 4013 3213 3611 3725 
Q 3209 4238 2522 4238 
z
M 2522 4750 
Q 3503 4750 4090 4092 
Q 4678 3434 4678 2328 
Q 4678 1225 4090 567 
Q 3503 -91 2522 -91 
Q 1538 -91 948 565 
Q 359 1222 359 2328 
Q 359 3434 948 4092 
Q 1538 4750 2522 4750 
z
" transform="scale(0.015625)"/>
        <path id="DejaVuSans-76" d="M 191 3500 
L 800 3500 
L 1894 563 
L 2988 3500 
L 3597 3500 
L 2284 0 
L 1503 0 
L 191 3500 
z
" transform="scale(0.015625)"/>
       </defs>
       <use xlink:href="#DejaVuSans-43"/>
       <use xlink:href="#DejaVuSans-6f" transform="translate(69.824219 0)"/>
       <use xlink:href="#DejaVuSans-72" transform="translate(131.005859 0)"/>
       <use xlink:href="#DejaVuSans-65" transform="translate(169.869141 0)"/>
       <use xlink:href="#DejaVuSans-20" transform="translate(231.392578 0)"/>
       <use xlink:href="#DejaVuSans-54" transform="translate(263.179688 0)"/>
       <use xlink:href="#DejaVuSans-65" transform="translate(307.263672 0)"/>
       <use xlink:href="#DejaVuSans-6d" transform="translate(368.787109 0)"/>
       <use xlink:href="#DejaVuSans-70" transform="translate(466.199219 0)"/>
       <use xlink:href="#DejaVuSans-20" transform="translate(529.675781 0)"/>
       <use xlink:href="#DejaVuSans-4f" transform="translate(561.462891 0)"/>
       <use xlink:href="#DejaVuSans-76" transform="translate(640.173828 0)"/>
       <use xlink:href="#DejaVuSans-65" transform="translate(699.353516 0)"/>
       <use xlink:href="#DejaVuSans-72" transform="translate(760.876953 0)"/>
       <use xlink:href="#DejaVuSans-6c" transform="translate(801.990234 0)"/>
       <use xlink:href="#DejaVuSans-6f" transform="translate(829.773438 0)"/>
       <use xlink:href="#DejaVuSans-61" transform="translate(890.955078 0)"/>
       <use xlink:href="#DejaVuSans-64" transform="translate(952.234375 0)"/>
      </g>
      <!-- ($T_{core} &gt; 90^\circ$C) -->
      <g transform="translate(36.25 85.408193) scale(0.08 -0.08)">
       <defs>
        <path id="DejaVuSans-Oblique-54" d="M 378 4666 
L 4325 4666 
L 4225 4134 
L 2559 4134 
L 1759 0 
L 1125 0 
L 1925 4134 
L 275 4134 
L 378 4666 
z
" transform="scale(0.015625)"/>
        <path id="DejaVuSans-Oblique-63" d="M 3431 3366 
L 3316 2797 
Q 3109 2947 2876 3022 
Q 2644 3097 2394 3097 
Q 2119 3097 1870 3000 
Q 1622 2903 1453 2725 
Q 1184 2453 1037 2087 
Q 891 1722 891 1331 
Q 891 859 1127 628 
Q 1363 397 1844 397 
Q 2081 397 2348 469 
Q 2616 541 2906 684 
L 2797 116 
Q 2547 13 2283 -39 
Q 2019 -91 1741 -91 
Q 1044 -91 669 257 
Q 294 606 294 1253 
Q 294 1797 489 2255 
Q 684 2713 1069 3078 
Q 1331 3328 1684 3456 
Q 2038 3584 2456 3584 
Q 2700 3584 2940 3529 
Q 3181 3475 3431 3366 
z
" transform="scale(0.015625)"/>
        <path id="DejaVuSans-Oblique-6f" d="M 1625 -91 
Q 1009 -91 651 289 
Q 294 669 294 1325 
Q 294 1706 417 2101 
Q 541 2497 738 2766 
Q 1047 3184 1428 3384 
Q 1809 3584 2291 3584 
Q 2888 3584 3255 3212 
Q 3622 2841 3622 2241 
Q 3622 1825 3500 1412 
Q 3378 1000 3181 728 
Q 2875 309 2494 109 
Q 2113 -91 1625 -91 
z
M 891 1344 
Q 891 869 1089 633 
Q 1288 397 1691 397 
Q 2269 397 2648 901 
Q 3028 1406 3028 2181 
Q 3028 2634 2825 2865 
Q 2622 3097 2228 3097 
Q 1903 3097 1650 2945 
Q 1397 2794 1197 2484 
Q 1050 2253 970 1956 
Q 891 1659 891 1344 
z
" transform="scale(0.015625)"/>
        <path id="DejaVuSans-Oblique-72" d="M 2853 2969 
Q 2766 3016 2653 3041 
Q 2541 3066 2413 3066 
Q 1953 3066 1609 2717 
Q 1266 2369 1153 1784 
L 800 0 
L 225 0 
L 909 3500 
L 1484 3500 
L 1375 2956 
Q 1603 3259 1920 3421 
Q 2238 3584 2597 3584 
Q 2691 3584 2781 3573 
Q 2872 3563 2963 3538 
L 2853 2969 
z
" transform="scale(0.015625)"/>
        <path id="DejaVuSans-Oblique-65" d="M 3078 2063 
Q 3088 2113 3092 2166 
Q 3097 2219 3097 2272 
Q 3097 2653 2873 2875 
Q 2650 3097 2266 3097 
Q 1838 3097 1509 2826 
Q 1181 2556 1013 2059 
L 3078 2063 
z
M 3578 1613 
L 903 1613 
Q 884 1494 878 1425 
Q 872 1356 872 1306 
Q 872 872 1139 634 
Q 1406 397 1894 397 
Q 2269 397 2603 481 
Q 2938 566 3225 728 
L 3116 159 
Q 2806 34 2476 -28 
Q 2147 -91 1806 -91 
Q 1078 -91 686 257 
Q 294 606 294 1247 
Q 294 1794 489 2264 
Q 684 2734 1063 3103 
Q 1306 3334 1642 3459 
Q 1978 3584 2356 3584 
Q 2950 3584 3301 3228 
Q 3653 2872 3653 2272 
Q 3653 2128 3634 1964 
Q 3616 1800 3578 1613 
z
" transform="scale(0.015625)"/>
        <path id="DejaVuSans-3e" d="M 678 3150 
L 678 3719 
L 4684 2266 
L 4684 1747 
L 678 294 
L 678 863 
L 3897 2003 
L 678 3150 
z
" transform="scale(0.015625)"/>
        <path id="DejaVuSans-39" d="M 703 97 
L 703 672 
Q 941 559 1184 500 
Q 1428 441 1663 441 
Q 2288 441 2617 861 
Q 2947 1281 2994 2138 
Q 2813 1869 2534 1725 
Q 2256 1581 1919 1581 
Q 1219 1581 811 2004 
Q 403 2428 403 3163 
Q 403 3881 828 4315 
Q 1253 4750 1959 4750 
Q 2769 4750 3195 4129 
Q 3622 3509 3622 2328 
Q 3622 1225 3098 567 
Q 2575 -91 1691 -91 
Q 1453 -91 1209 -44 
Q 966 3 703 97 
z
M 1959 2075 
Q 2384 2075 2632 2365 
Q 2881 2656 2881 3163 
Q 2881 3666 2632 3958 
Q 2384 4250 1959 4250 
Q 1534 4250 1286 3958 
Q 1038 3666 1038 3163 
Q 1038 2656 1286 2365 
Q 1534 2075 1959 2075 
z
" transform="scale(0.015625)"/>
        <path id="DejaVuSans-2218" d="M 2000 2619 
Q 1750 2619 1578 2445 
Q 1406 2272 1406 2022 
Q 1406 1775 1578 1605 
Q 1750 1435 2000 1435 
Q 2250 1435 2422 1605 
Q 2594 1775 2594 2022 
Q 2594 2269 2420 2444 
Q 2247 2619 2000 2619 
z
M 2000 3022 
Q 2200 3022 2384 2945 
Q 2569 2869 2703 2725 
Q 2847 2585 2919 2406 
Q 2991 2228 2991 2022 
Q 2991 1610 2702 1324 
Q 2413 1038 1994 1038 
Q 1572 1038 1290 1319 
Q 1009 1600 1009 2022 
Q 1009 2441 1296 2731 
Q 1584 3022 2000 3022 
z
" transform="scale(0.015625)"/>
       </defs>
       <use xlink:href="#DejaVuSans-28" transform="translate(0 0.125)"/>
       <use xlink:href="#DejaVuSans-Oblique-54" transform="translate(39.013672 0.125)"/>
       <use xlink:href="#DejaVuSans-Oblique-63" transform="translate(100.097656 -16.28125) scale(0.7)"/>
       <use xlink:href="#DejaVuSans-Oblique-6f" transform="translate(138.583984 -16.28125) scale(0.7)"/>
       <use xlink:href="#DejaVuSans-Oblique-72" transform="translate(181.411133 -16.28125) scale(0.7)"/>
       <use xlink:href="#DejaVuSans-Oblique-65" transform="translate(210.19043 -16.28125) scale(0.7)"/>
       <use xlink:href="#DejaVuSans-3e" transform="translate(275.473633 0.125)"/>
       <use xlink:href="#DejaVuSans-39" transform="translate(378.745117 0.125)"/>
       <use xlink:href="#DejaVuSans-30" transform="translate(442.368164 0.125)"/>
       <use xlink:href="#DejaVuSans-2218" transform="translate(520.585938 38.40625) scale(0.7)"/>
       <use xlink:href="#DejaVuSans-43" transform="translate(580.776367 0.125)"/>
       <use xlink:href="#DejaVuSans-29" transform="translate(650.600586 0.125)"/>
      </g>
     </g>
    </g>
    <g id="ytick_3">
     <g id="line2d_19">
      <g>
       <use xlink:href="#mbfa5ffc75f" x="98.45" y="108.707273" style="stroke: #000000; stroke-width: 0.8"/>
      </g>
     </g>
     <g id="text_12">
      <!-- Environmental -->
      <g transform="translate(33.2475 107.875398) scale(0.08 -0.08)">
       <defs>
        <path id="DejaVuSans-45" d="M 628 4666 
L 3578 4666 
L 3578 4134 
L 1259 4134 
L 1259 2753 
L 3481 2753 
L 3481 2222 
L 1259 2222 
L 1259 531 
L 3634 531 
L 3634 0 
L 628 0 
L 628 4666 
z
" transform="scale(0.015625)"/>
       </defs>
       <use xlink:href="#DejaVuSans-45"/>
       <use xlink:href="#DejaVuSans-6e" transform="translate(63.183594 0)"/>
       <use xlink:href="#DejaVuSans-76" transform="translate(126.5625 0)"/>
       <use xlink:href="#DejaVuSans-69" transform="translate(185.742188 0)"/>
       <use xlink:href="#DejaVuSans-72" transform="translate(213.525391 0)"/>
       <use xlink:href="#DejaVuSans-6f" transform="translate(252.388672 0)"/>
       <use xlink:href="#DejaVuSans-6e" transform="translate(313.570312 0)"/>
       <use xlink:href="#DejaVuSans-6d" transform="translate(376.949219 0)"/>
       <use xlink:href="#DejaVuSans-65" transform="translate(474.361328 0)"/>
       <use xlink:href="#DejaVuSans-6e" transform="translate(535.884766 0)"/>
       <use xlink:href="#DejaVuSans-74" transform="translate(599.263672 0)"/>
       <use xlink:href="#DejaVuSans-61" transform="translate(638.472656 0)"/>
       <use xlink:href="#DejaVuSans-6c" transform="translate(699.751953 0)"/>
      </g>
      <!-- Humidity (&gt;80%) -->
      <g transform="translate(21.90625 116.833648) scale(0.08 -0.08)">
       <defs>
        <path id="DejaVuSans-38" d="M 2034 2216 
Q 1584 2216 1326 1975 
Q 1069 1734 1069 1313 
Q 1069 891 1326 650 
Q 1584 409 2034 409 
Q 2484 409 2743 651 
Q 3003 894 3003 1313 
Q 3003 1734 2745 1975 
Q 2488 2216 2034 2216 
z
M 1403 2484 
Q 997 2584 770 2862 
Q 544 3141 544 3541 
Q 544 4100 942 4425 
Q 1341 4750 2034 4750 
Q 2731 4750 3128 4425 
Q 3525 4100 3525 3541 
Q 3525 3141 3298 2862 
Q 3072 2584 2669 2484 
Q 3125 2378 3379 2068 
Q 3634 1759 3634 1313 
Q 3634 634 3220 271 
Q 2806 -91 2034 -91 
Q 1263 -91 848 271 
Q 434 634 434 1313 
Q 434 1759 690 2068 
Q 947 2378 1403 2484 
z
M 1172 3481 
Q 1172 3119 1398 2916 
Q 1625 2713 2034 2713 
Q 2441 2713 2670 2916 
Q 2900 3119 2900 3481 
Q 2900 3844 2670 4047 
Q 2441 4250 2034 4250 
Q 1625 4250 1398 4047 
Q 1172 3844 1172 3481 
z
" transform="scale(0.015625)"/>
        <path id="DejaVuSans-25" d="M 4653 2053 
Q 4381 2053 4226 1822 
Q 4072 1591 4072 1178 
Q 4072 772 4226 539 
Q 4381 306 4653 306 
Q 4919 306 5073 539 
Q 5228 772 5228 1178 
Q 5228 1588 5073 1820 
Q 4919 2053 4653 2053 
z
M 4653 2450 
Q 5147 2450 5437 2106 
Q 5728 1763 5728 1178 
Q 5728 594 5436 251 
Q 5144 -91 4653 -91 
Q 4153 -91 3862 251 
Q 3572 594 3572 1178 
Q 3572 1766 3864 2108 
Q 4156 2450 4653 2450 
z
M 1428 4353 
Q 1159 4353 1004 4120 
Q 850 3888 850 3481 
Q 850 3069 1003 2837 
Q 1156 2606 1428 2606 
Q 1700 2606 1854 2837 
Q 2009 3069 2009 3481 
Q 2009 3884 1853 4118 
Q 1697 4353 1428 4353 
z
M 4250 4750 
L 4750 4750 
L 1831 -91 
L 1331 -91 
L 4250 4750 
z
M 1428 4750 
Q 1922 4750 2215 4408 
Q 2509 4066 2509 3481 
Q 2509 2891 2217 2550 
Q 1925 2209 1428 2209 
Q 931 2209 642 2551 
Q 353 2894 353 3481 
Q 353 4063 643 4406 
Q 934 4750 1428 4750 
z
" transform="scale(0.015625)"/>
       </defs>
       <use xlink:href="#DejaVuSans-48"/>
       <use xlink:href="#DejaVuSans-75" transform="translate(75.195312 0)"/>
       <use xlink:href="#DejaVuSans-6d" transform="translate(138.574219 0)"/>
       <use xlink:href="#DejaVuSans-69" transform="translate(235.986328 0)"/>
       <use xlink:href="#DejaVuSans-64" transform="translate(263.769531 0)"/>
       <use xlink:href="#DejaVuSans-69" transform="translate(327.246094 0)"/>
       <use xlink:href="#DejaVuSans-74" transform="translate(355.029297 0)"/>
       <use xlink:href="#DejaVuSans-79" transform="translate(394.238281 0)"/>
       <use xlink:href="#DejaVuSans-20" transform="translate(453.417969 0)"/>
       <use xlink:href="#DejaVuSans-28" transform="translate(485.205078 0)"/>
       <use xlink:href="#DejaVuSans-3e" transform="translate(524.21875 0)"/>
       <use xlink:href="#DejaVuSans-38" transform="translate(608.007812 0)"/>
       <use xlink:href="#DejaVuSans-30" transform="translate(671.630859 0)"/>
       <use xlink:href="#DejaVuSans-25" transform="translate(735.253906 0)"/>
       <use xlink:href="#DejaVuSans-29" transform="translate(830.273438 0)"/>
      </g>
     </g>
    </g>
    <g id="ytick_4">
     <g id="line2d_20">
      <g>
       <use xlink:href="#mbfa5ffc75f" x="98.45" y="140.132727" style="stroke: #000000; stroke-width: 0.8"/>
      </g>
     </g>
     <g id="text_13">
      <!-- Harmonic THD -->
      <g transform="translate(33.39875 139.300852) scale(0.08 -0.08)">
       <use xlink:href="#DejaVuSans-48"/>
       <use xlink:href="#DejaVuSans-61" transform="translate(75.195312 0)"/>
       <use xlink:href="#DejaVuSans-72" transform="translate(136.474609 0)"/>
       <use xlink:href="#DejaVuSans-6d" transform="translate(175.837891 0)"/>
       <use xlink:href="#DejaVuSans-6f" transform="translate(273.25 0)"/>
       <use xlink:href="#DejaVuSans-6e" transform="translate(334.431641 0)"/>
       <use xlink:href="#DejaVuSans-69" transform="translate(397.810547 0)"/>
       <use xlink:href="#DejaVuSans-63" transform="translate(425.59375 0)"/>
       <use xlink:href="#DejaVuSans-20" transform="translate(480.574219 0)"/>
       <use xlink:href="#DejaVuSans-54" transform="translate(512.361328 0)"/>
       <use xlink:href="#DejaVuSans-48" transform="translate(573.445312 0)"/>
       <use xlink:href="#DejaVuSans-44" transform="translate(648.640625 0)"/>
      </g>
      <!-- (&gt;5%) -->
      <g transform="translate(65.8125 148.259102) scale(0.08 -0.08)">
       <use xlink:href="#DejaVuSans-28"/>
       <use xlink:href="#DejaVuSans-3e" transform="translate(39.013672 0)"/>
       <use xlink:href="#DejaVuSans-35" transform="translate(122.802734 0)"/>
       <use xlink:href="#DejaVuSans-25" transform="translate(186.425781 0)"/>
       <use xlink:href="#DejaVuSans-29" transform="translate(281.445312 0)"/>
      </g>
     </g>
    </g>
    <g id="ytick_5">
     <g id="line2d_21">
      <g>
       <use xlink:href="#mbfa5ffc75f" x="98.45" y="171.558182" style="stroke: #000000; stroke-width: 0.8"/>
      </g>
     </g>
     <g id="text_14">
      <!-- Short-Circuit -->
      <g transform="translate(41.35 170.125682) scale(0.08 -0.08)">
       <defs>
        <path id="DejaVuSans-53" d="M 3425 4513 
L 3425 3897 
Q 3066 4069 2747 4153 
Q 2428 4238 2131 4238 
Q 1616 4238 1336 4038 
Q 1056 3838 1056 3469 
Q 1056 3159 1242 3001 
Q 1428 2844 1947 2747 
L 2328 2669 
Q 3034 2534 3370 2195 
Q 3706 1856 3706 1288 
Q 3706 609 3251 259 
Q 2797 -91 1919 -91 
Q 1588 -91 1214 -16 
Q 841 59 441 206 
L 441 856 
Q 825 641 1194 531 
Q 1563 422 1919 422 
Q 2459 422 2753 634 
Q 3047 847 3047 1241 
Q 3047 1584 2836 1778 
Q 2625 1972 2144 2069 
L 1759 2144 
Q 1053 2284 737 2584 
Q 422 2884 422 3419 
Q 422 4038 858 4394 
Q 1294 4750 2059 4750 
Q 2388 4750 2728 4690 
Q 3069 4631 3425 4513 
z
" transform="scale(0.015625)"/>
        <path id="DejaVuSans-68" d="M 3513 2113 
L 3513 0 
L 2938 0 
L 2938 2094 
Q 2938 2591 2744 2837 
Q 2550 3084 2163 3084 
Q 1697 3084 1428 2787 
Q 1159 2491 1159 1978 
L 1159 0 
L 581 0 
L 581 4863 
L 1159 4863 
L 1159 2956 
Q 1366 3272 1645 3428 
Q 1925 3584 2291 3584 
Q 2894 3584 3203 3211 
Q 3513 2838 3513 2113 
z
" transform="scale(0.015625)"/>
        <path id="DejaVuSans-2d" d="M 313 2009 
L 1997 2009 
L 1997 1497 
L 313 1497 
L 313 2009 
z
" transform="scale(0.015625)"/>
       </defs>
       <use xlink:href="#DejaVuSans-53"/>
       <use xlink:href="#DejaVuSans-68" transform="translate(63.476562 0)"/>
       <use xlink:href="#DejaVuSans-6f" transform="translate(126.855469 0)"/>
       <use xlink:href="#DejaVuSans-72" transform="translate(188.037109 0)"/>
       <use xlink:href="#DejaVuSans-74" transform="translate(229.150391 0)"/>
       <use xlink:href="#DejaVuSans-2d" transform="translate(268.359375 0)"/>
       <use xlink:href="#DejaVuSans-43" transform="translate(304.443359 0)"/>
       <use xlink:href="#DejaVuSans-69" transform="translate(374.267578 0)"/>
       <use xlink:href="#DejaVuSans-72" transform="translate(402.050781 0)"/>
       <use xlink:href="#DejaVuSans-63" transform="translate(440.914062 0)"/>
       <use xlink:href="#DejaVuSans-75" transform="translate(495.894531 0)"/>
       <use xlink:href="#DejaVuSans-69" transform="translate(559.273438 0)"/>
       <use xlink:href="#DejaVuSans-74" transform="translate(587.056641 0)"/>
      </g>
      <!-- Impact ($I^2t$) -->
      <g transform="translate(45.37 180.525432) scale(0.08 -0.08)">
       <defs>
        <path id="DejaVuSans-49" d="M 628 4666 
L 1259 4666 
L 1259 0 
L 628 0 
L 628 4666 
z
" transform="scale(0.015625)"/>
        <path id="DejaVuSans-Oblique-49" d="M 1081 4666 
L 1716 4666 
L 806 0 
L 172 0 
L 1081 4666 
z
" transform="scale(0.015625)"/>
        <path id="DejaVuSans-Oblique-74" d="M 2706 3500 
L 2619 3053 
L 1472 3053 
L 1100 1153 
Q 1081 1047 1072 975 
Q 1063 903 1063 863 
Q 1063 663 1183 572 
Q 1303 481 1569 481 
L 2150 481 
L 2053 0 
L 1503 0 
Q 991 0 739 200 
Q 488 400 488 806 
Q 488 878 497 964 
Q 506 1050 525 1153 
L 897 3053 
L 409 3053 
L 500 3500 
L 978 3500 
L 1172 4494 
L 1747 4494 
L 1556 3500 
L 2706 3500 
z
" transform="scale(0.015625)"/>
       </defs>
       <use xlink:href="#DejaVuSans-49" transform="translate(0 0.765625)"/>
       <use xlink:href="#DejaVuSans-6d" transform="translate(25.867188 0.765625)"/>
       <use xlink:href="#DejaVuSans-70" transform="translate(123.279297 0.765625)"/>
       <use xlink:href="#DejaVuSans-61" transform="translate(186.755859 0.765625)"/>
       <use xlink:href="#DejaVuSans-63" transform="translate(248.035156 0.765625)"/>
       <use xlink:href="#DejaVuSans-74" transform="translate(303.015625 0.765625)"/>
       <use xlink:href="#DejaVuSans-20" transform="translate(342.224609 0.765625)"/>
       <use xlink:href="#DejaVuSans-28" transform="translate(374.011719 0.765625)"/>
       <use xlink:href="#DejaVuSans-Oblique-49" transform="translate(413.025391 0.765625)"/>
       <use xlink:href="#DejaVuSans-32" transform="translate(449.534349 39.046875) scale(0.7)"/>
       <use xlink:href="#DejaVuSans-Oblique-74" transform="translate(496.804857 0.765625)"/>
       <use xlink:href="#DejaVuSans-29" transform="translate(536.013841 0.765625)"/>
      </g>
     </g>
    </g>
    <g id="ytick_6">
     <g id="line2d_22">
      <g>
       <use xlink:href="#mbfa5ffc75f" x="98.45" y="202.983636" style="stroke: #000000; stroke-width: 0.8"/>
      </g>
     </g>
     <g id="text_15">
      <!-- VLF Calibration -->
      <g transform="translate(30.84875 202.151761) scale(0.08 -0.08)">
       <defs>
        <path id="DejaVuSans-56" d="M 1831 0 
L 50 4666 
L 709 4666 
L 2188 738 
L 3669 4666 
L 4325 4666 
L 2547 0 
L 1831 0 
z
" transform="scale(0.015625)"/>
        <path id="DejaVuSans-4c" d="M 628 4666 
L 1259 4666 
L 1259 531 
L 3531 531 
L 3531 0 
L 628 0 
L 628 4666 
z
" transform="scale(0.015625)"/>
        <path id="DejaVuSans-46" d="M 628 4666 
L 3309 4666 
L 3309 4134 
L 1259 4134 
L 1259 2759 
L 3109 2759 
L 3109 2228 
L 1259 2228 
L 1259 0 
L 628 0 
L 628 4666 
z
" transform="scale(0.015625)"/>
        <path id="DejaVuSans-62" d="M 3116 1747 
Q 3116 2381 2855 2742 
Q 2594 3103 2138 3103 
Q 1681 3103 1420 2742 
Q 1159 2381 1159 1747 
Q 1159 1113 1420 752 
Q 1681 391 2138 391 
Q 2594 391 2855 752 
Q 3116 1113 3116 1747 
z
M 1159 2969 
Q 1341 3281 1617 3432 
Q 1894 3584 2278 3584 
Q 2916 3584 3314 3078 
Q 3713 2572 3713 1747 
Q 3713 922 3314 415 
Q 2916 -91 2278 -91 
Q 1894 -91 1617 61 
Q 1341 213 1159 525 
L 1159 0 
L 581 0 
L 581 4863 
L 1159 4863 
L 1159 2969 
z
" transform="scale(0.015625)"/>
       </defs>
       <use xlink:href="#DejaVuSans-56"/>
       <use xlink:href="#DejaVuSans-4c" transform="translate(68.408203 0)"/>
       <use xlink:href="#DejaVuSans-46" transform="translate(124.121094 0)"/>
       <use xlink:href="#DejaVuSans-20" transform="translate(181.640625 0)"/>
       <use xlink:href="#DejaVuSans-43" transform="translate(213.427734 0)"/>
       <use xlink:href="#DejaVuSans-61" transform="translate(283.251953 0)"/>
       <use xlink:href="#DejaVuSans-6c" transform="translate(344.53125 0)"/>
       <use xlink:href="#DejaVuSans-69" transform="translate(372.314453 0)"/>
       <use xlink:href="#DejaVuSans-62" transform="translate(400.097656 0)"/>
       <use xlink:href="#DejaVuSans-72" transform="translate(463.574219 0)"/>
       <use xlink:href="#DejaVuSans-61" transform="translate(504.6875 0)"/>
       <use xlink:href="#DejaVuSans-74" transform="translate(565.966797 0)"/>
       <use xlink:href="#DejaVuSans-69" transform="translate(605.175781 0)"/>
       <use xlink:href="#DejaVuSans-6f" transform="translate(632.958984 0)"/>
       <use xlink:href="#DejaVuSans-6e" transform="translate(694.140625 0)"/>
      </g>
      <!-- Feedback Update -->
      <g transform="translate(21.83625 211.110011) scale(0.08 -0.08)">
       <defs>
        <path id="DejaVuSans-6b" d="M 581 4863 
L 1159 4863 
L 1159 1991 
L 2875 3500 
L 3609 3500 
L 1753 1863 
L 3688 0 
L 2938 0 
L 1159 1709 
L 1159 0 
L 581 0 
L 581 4863 
z
" transform="scale(0.015625)"/>
        <path id="DejaVuSans-55" d="M 556 4666 
L 1191 4666 
L 1191 1831 
Q 1191 1081 1462 751 
Q 1734 422 2344 422 
Q 2950 422 3222 751 
Q 3494 1081 3494 1831 
L 3494 4666 
L 4128 4666 
L 4128 1753 
Q 4128 841 3676 375 
Q 3225 -91 2344 -91 
Q 1459 -91 1007 375 
Q 556 841 556 1753 
L 556 4666 
z
" transform="scale(0.015625)"/>
       </defs>
       <use xlink:href="#DejaVuSans-46"/>
       <use xlink:href="#DejaVuSans-65" transform="translate(52.019531 0)"/>
       <use xlink:href="#DejaVuSans-65" transform="translate(113.542969 0)"/>
       <use xlink:href="#DejaVuSans-64" transform="translate(175.066406 0)"/>
       <use xlink:href="#DejaVuSans-62" transform="translate(238.542969 0)"/>
       <use xlink:href="#DejaVuSans-61" transform="translate(302.019531 0)"/>
       <use xlink:href="#DejaVuSans-63" transform="translate(363.298828 0)"/>
       <use xlink:href="#DejaVuSans-6b" transform="translate(418.279297 0)"/>
       <use xlink:href="#DejaVuSans-20" transform="translate(476.189453 0)"/>
       <use xlink:href="#DejaVuSans-55" transform="translate(507.976562 0)"/>
       <use xlink:href="#DejaVuSans-70" transform="translate(581.169922 0)"/>
       <use xlink:href="#DejaVuSans-64" transform="translate(644.646484 0)"/>
       <use xlink:href="#DejaVuSans-61" transform="translate(708.123047 0)"/>
       <use xlink:href="#DejaVuSans-74" transform="translate(769.402344 0)"/>
       <use xlink:href="#DejaVuSans-65" transform="translate(808.611328 0)"/>
      </g>
     </g>
    </g>
   </g>
   <g id="LineCollection_1">
    <path d="M 214.367171 45.856364 
L 232.550257 45.856364 
" clip-path="url(#pe12e04cee9)" style="fill: none; stroke: #000000; stroke-width: 1.5"/>
    <path d="M 280.280857 77.281818 
L 337.103 77.281818 
" clip-path="url(#pe12e04cee9)" style="fill: none; stroke: #000000; stroke-width: 1.5"/>
    <path d="M 234.823143 108.707273 
L 291.645286 108.707273 
" clip-path="url(#pe12e04cee9)" style="fill: none; stroke: #000000; stroke-width: 1.5"/>
    <path d="M 217.7765 140.132727 
L 263.234214 140.132727 
" clip-path="url(#pe12e04cee9)" style="fill: none; stroke: #000000; stroke-width: 1.5"/>
    <path d="M 348.467429 171.558182 
L 439.382857 171.558182 
" clip-path="url(#pe12e04cee9)" style="fill: none; stroke: #000000; stroke-width: 1.5"/>
    <path d="M 138.2255 202.983636 
L 160.954357 202.983636 
" clip-path="url(#pe12e04cee9)" style="fill: none; stroke: #000000; stroke-width: 1.5"/>
   </g>
   <g id="line2d_23">
    <defs>
     <path id="m5cf76b337f" d="M 0 4 
L 0 -4 
" style="stroke: #000000"/>
    </defs>
    <g clip-path="url(#pe12e04cee9)">
     <use xlink:href="#m5cf76b337f" x="214.367171" y="45.856364" style="fill: #8b0000; stroke: #000000"/>
     <use xlink:href="#m5cf76b337f" x="280.280857" y="77.281818" style="fill: #8b0000; stroke: #000000"/>
     <use xlink:href="#m5cf76b337f" x="234.823143" y="108.707273" style="fill: #8b0000; stroke: #000000"/>
     <use xlink:href="#m5cf76b337f" x="217.7765" y="140.132727" style="fill: #8b0000; stroke: #000000"/>
     <use xlink:href="#m5cf76b337f" x="348.467429" y="171.558182" style="fill: #8b0000; stroke: #000000"/>
     <use xlink:href="#m5cf76b337f" x="138.2255" y="202.983636" style="fill: #8b0000; stroke: #000000"/>
    </g>
   </g>
   <g id="line2d_24">
    <g clip-path="url(#pe12e04cee9)">
     <use xlink:href="#m5cf76b337f" x="232.550257" y="45.856364" style="fill: #8b0000; stroke: #000000"/>
     <use xlink:href="#m5cf76b337f" x="337.103" y="77.281818" style="fill: #8b0000; stroke: #000000"/>
     <use xlink:href="#m5cf76b337f" x="291.645286" y="108.707273" style="fill: #8b0000; stroke: #000000"/>
     <use xlink:href="#m5cf76b337f" x="263.234214" y="140.132727" style="fill: #8b0000; stroke: #000000"/>
     <use xlink:href="#m5cf76b337f" x="439.382857" y="171.558182" style="fill: #8b0000; stroke: #000000"/>
     <use xlink:href="#m5cf76b337f" x="160.954357" y="202.983636" style="fill: #8b0000; stroke: #000000"/>
    </g>
   </g>
   <g id="line2d_25">
    <path d="M 212.094286 210.84 
L 212.094286 38 
" clip-path="url(#pe12e04cee9)" style="fill: none; stroke-dasharray: 4.44,1.92; stroke-dashoffset: 0; stroke: #0000ff; stroke-width: 1.2"/>
   </g>
   <g id="line2d_26">
    <defs>
     <path id="m2b84bd00d5" d="M 0 3 
C 0.795609 3 1.55874 2.683901 2.12132 2.12132 
C 2.683901 1.55874 3 0.795609 3 0 
C 3 -0.795609 2.683901 -1.55874 2.12132 -2.12132 
C 1.55874 -2.683901 0.795609 -3 0 -3 
C -0.795609 -3 -1.55874 -2.683901 -2.12132 -2.12132 
C -2.683901 -1.55874 -3 -0.795609 -3 0 
C -3 0.795609 -2.683901 1.55874 -2.12132 2.12132 
C -1.55874 2.683901 -0.795609 3 0 3 
z
" style="stroke: #8b0000"/>
    </defs>
    <g clip-path="url(#pe12e04cee9)">
     <use xlink:href="#m2b84bd00d5" x="223.458714" y="45.856364" style="fill: #8b0000; stroke: #8b0000"/>
     <use xlink:href="#m2b84bd00d5" x="308.691929" y="77.281818" style="fill: #8b0000; stroke: #8b0000"/>
     <use xlink:href="#m2b84bd00d5" x="263.234214" y="108.707273" style="fill: #8b0000; stroke: #8b0000"/>
     <use xlink:href="#m2b84bd00d5" x="240.505357" y="140.132727" style="fill: #8b0000; stroke: #8b0000"/>
     <use xlink:href="#m2b84bd00d5" x="393.925143" y="171.558182" style="fill: #8b0000; stroke: #8b0000"/>
     <use xlink:href="#m2b84bd00d5" x="149.589929" y="202.983636" style="fill: #8b0000; stroke: #8b0000"/>
    </g>
   </g>
   <g id="patch_5">
    <path d="M 98.45 210.84 
L 98.45 38 
" style="fill: none; stroke: #000000; stroke-width: 0.8; stroke-linejoin: miter; stroke-linecap: square"/>
   </g>
   <g id="patch_6">
    <path d="M 496.205 210.84 
L 496.205 38 
" style="fill: none; stroke: #000000; stroke-width: 0.8; stroke-linejoin: miter; stroke-linecap: square"/>
   </g>
   <g id="patch_7">
    <path d="M 98.45 210.84 
L 496.205 210.84 
" style="fill: none; stroke: #000000; stroke-width: 0.8; stroke-linejoin: miter; stroke-linecap: square"/>
   </g>
   <g id="patch_8">
    <path d="M 98.45 38 
L 496.205 38 
" style="fill: none; stroke: #000000; stroke-width: 0.8; stroke-linejoin: miter; stroke-linecap: square"/>
   </g>
   <g id="text_16">
    <!-- Neutral Risk -->
    <g style="fill: #0000ff" transform="translate(213.139029 191.334332) scale(0.09 -0.09)">
     <use xlink:href="#DejaVuSans-4e"/>
     <use xlink:href="#DejaVuSans-65" transform="translate(74.804688 0)"/>
     <use xlink:href="#DejaVuSans-75" transform="translate(136.328125 0)"/>
     <use xlink:href="#DejaVuSans-74" transform="translate(199.707031 0)"/>
     <use xlink:href="#DejaVuSans-72" transform="translate(238.916016 0)"/>
     <use xlink:href="#DejaVuSans-61" transform="translate(280.029297 0)"/>
     <use xlink:href="#DejaVuSans-6c" transform="translate(341.308594 0)"/>
     <use xlink:href="#DejaVuSans-20" transform="translate(369.091797 0)"/>
     <use xlink:href="#DejaVuSans-52" transform="translate(400.878906 0)"/>
     <use xlink:href="#DejaVuSans-69" transform="translate(470.361328 0)"/>
     <use xlink:href="#DejaVuSans-73" transform="translate(498.144531 0)"/>
     <use xlink:href="#DejaVuSans-6b" transform="translate(550.244141 0)"/>
    </g>
    <!-- (HR = 1.0) -->
    <g style="fill: #0000ff" transform="translate(216.695435 201.412364) scale(0.09 -0.09)">
     <use xlink:href="#DejaVuSans-28"/>
     <use xlink:href="#DejaVuSans-48" transform="translate(39.013672 0)"/>
     <use xlink:href="#DejaVuSans-52" transform="translate(114.208984 0)"/>
     <use xlink:href="#DejaVuSans-20" transform="translate(183.691406 0)"/>
     <use xlink:href="#DejaVuSans-3d" transform="translate(215.478516 0)"/>
     <use xlink:href="#DejaVuSans-20" transform="translate(299.267578 0)"/>
     <use xlink:href="#DejaVuSans-31" transform="translate(331.054688 0)"/>
     <use xlink:href="#DejaVuSans-2e" transform="translate(394.677734 0)"/>
     <use xlink:href="#DejaVuSans-30" transform="translate(426.464844 0)"/>
     <use xlink:href="#DejaVuSans-29" transform="translate(490.087891 0)"/>
    </g>
   </g>
   <g id="text_17">
    <!-- Risk Reduction -->
    <g style="fill: #008000; opacity: 0.8" transform="translate(122.019252 51.49106) scale(0.09 -0.09)">
     <use xlink:href="#DejaVuSans-52"/>
     <use xlink:href="#DejaVuSans-69" transform="translate(69.482422 0)"/>
     <use xlink:href="#DejaVuSans-73" transform="translate(97.265625 0)"/>
     <use xlink:href="#DejaVuSans-6b" transform="translate(149.365234 0)"/>
     <use xlink:href="#DejaVuSans-20" transform="translate(207.275391 0)"/>
     <use xlink:href="#DejaVuSans-52" transform="translate(239.0625 0)"/>
     <use xlink:href="#DejaVuSans-65" transform="translate(304.044922 0)"/>
     <use xlink:href="#DejaVuSans-64" transform="translate(365.568359 0)"/>
     <use xlink:href="#DejaVuSans-75" transform="translate(429.044922 0)"/>
     <use xlink:href="#DejaVuSans-63" transform="translate(492.423828 0)"/>
     <use xlink:href="#DejaVuSans-74" transform="translate(547.404297 0)"/>
     <use xlink:href="#DejaVuSans-69" transform="translate(586.613281 0)"/>
     <use xlink:href="#DejaVuSans-6f" transform="translate(614.396484 0)"/>
     <use xlink:href="#DejaVuSans-6e" transform="translate(675.578125 0)"/>
    </g>
    <!-- (Protective) -->
    <g style="fill: #008000; opacity: 0.8" transform="translate(129.170033 61.569091) scale(0.09 -0.09)">
     <defs>
      <path id="DejaVuSans-50" d="M 1259 4147 
L 1259 2394 
L 2053 2394 
Q 2494 2394 2734 2622 
Q 2975 2850 2975 3272 
Q 2975 3691 2734 3919 
Q 2494 4147 2053 4147 
L 1259 4147 
z
M 628 4666 
L 2053 4666 
Q 2838 4666 3239 4311 
Q 3641 3956 3641 3272 
Q 3641 2581 3239 2228 
Q 2838 1875 2053 1875 
L 1259 1875 
L 1259 0 
L 628 0 
L 628 4666 
z
" transform="scale(0.015625)"/>
     </defs>
     <use xlink:href="#DejaVuSans-28"/>
     <use xlink:href="#DejaVuSans-50" transform="translate(39.013672 0)"/>
     <use xlink:href="#DejaVuSans-72" transform="translate(97.566406 0)"/>
     <use xlink:href="#DejaVuSans-6f" transform="translate(136.429688 0)"/>
     <use xlink:href="#DejaVuSans-74" transform="translate(197.611328 0)"/>
     <use xlink:href="#DejaVuSans-65" transform="translate(236.820312 0)"/>
     <use xlink:href="#DejaVuSans-63" transform="translate(298.34375 0)"/>
     <use xlink:href="#DejaVuSans-74" transform="translate(353.324219 0)"/>
     <use xlink:href="#DejaVuSans-69" transform="translate(392.533203 0)"/>
     <use xlink:href="#DejaVuSans-76" transform="translate(420.316406 0)"/>
     <use xlink:href="#DejaVuSans-65" transform="translate(479.496094 0)"/>
     <use xlink:href="#DejaVuSans-29" transform="translate(541.019531 0)"/>
    </g>
   </g>
   <g id="text_18">
    <!-- Risk Acceleration -->
    <g style="fill: #8b0000; opacity: 0.8" transform="translate(315.429252 51.49106) scale(0.09 -0.09)">
     <use xlink:href="#DejaVuSans-52"/>
     <use xlink:href="#DejaVuSans-69" transform="translate(69.482422 0)"/>
     <use xlink:href="#DejaVuSans-73" transform="translate(97.265625 0)"/>
     <use xlink:href="#DejaVuSans-6b" transform="translate(149.365234 0)"/>
     <use xlink:href="#DejaVuSans-20" transform="translate(207.275391 0)"/>
     <use xlink:href="#DejaVuSans-41" transform="translate(239.0625 0)"/>
     <use xlink:href="#DejaVuSans-63" transform="translate(305.720703 0)"/>
     <use xlink:href="#DejaVuSans-63" transform="translate(360.701172 0)"/>
     <use xlink:href="#DejaVuSans-65" transform="translate(415.681641 0)"/>
     <use xlink:href="#DejaVuSans-6c" transform="translate(477.205078 0)"/>
     <use xlink:href="#DejaVuSans-65" transform="translate(504.988281 0)"/>
     <use xlink:href="#DejaVuSans-72" transform="translate(566.511719 0)"/>
     <use xlink:href="#DejaVuSans-61" transform="translate(607.625 0)"/>
     <use xlink:href="#DejaVuSans-74" transform="translate(668.904297 0)"/>
     <use xlink:href="#DejaVuSans-69" transform="translate(708.113281 0)"/>
     <use xlink:href="#DejaVuSans-6f" transform="translate(735.896484 0)"/>
     <use xlink:href="#DejaVuSans-6e" transform="translate(797.078125 0)"/>
    </g>
    <!-- (Deadly Stress) -->
    <g style="fill: #8b0000; opacity: 0.8" transform="translate(319.619174 61.569091) scale(0.09 -0.09)">
     <use xlink:href="#DejaVuSans-28"/>
     <use xlink:href="#DejaVuSans-44" transform="translate(39.013672 0)"/>
     <use xlink:href="#DejaVuSans-65" transform="translate(116.015625 0)"/>
     <use xlink:href="#DejaVuSans-61" transform="translate(177.539062 0)"/>
     <use xlink:href="#DejaVuSans-64" transform="translate(238.818359 0)"/>
     <use xlink:href="#DejaVuSans-6c" transform="translate(302.294922 0)"/>
     <use xlink:href="#DejaVuSans-79" transform="translate(330.078125 0)"/>
     <use xlink:href="#DejaVuSans-20" transform="translate(389.257812 0)"/>
     <use xlink:href="#DejaVuSans-53" transform="translate(421.044922 0)"/>
     <use xlink:href="#DejaVuSans-74" transform="translate(484.521484 0)"/>
     <use xlink:href="#DejaVuSans-72" transform="translate(523.730469 0)"/>
     <use xlink:href="#DejaVuSans-65" transform="translate(562.59375 0)"/>
     <use xlink:href="#DejaVuSans-73" transform="translate(624.117188 0)"/>
     <use xlink:href="#DejaVuSans-73" transform="translate(676.216797 0)"/>
     <use xlink:href="#DejaVuSans-29" transform="translate(728.316406 0)"/>
    </g>
   </g>
   <g id="text_19">
    <!-- Physics-Informed Feature Hazard Ratios -->
    <g transform="translate(207.689609 17.921969) scale(0.09 -0.09)">
     <defs>
      <path id="DejaVuSans-66" d="M 2375 4863 
L 2375 4384 
L 1825 4384 
Q 1516 4384 1395 4259 
Q 1275 4134 1275 3809 
L 1275 3500 
L 2222 3500 
L 2222 3053 
L 1275 3053 
L 1275 0 
L 697 0 
L 697 3053 
L 147 3053 
L 147 3500 
L 697 3500 
L 697 3744 
Q 697 4328 969 4595 
Q 1241 4863 1831 4863 
L 2375 4863 
z
" transform="scale(0.015625)"/>
     </defs>
     <use xlink:href="#DejaVuSans-50"/>
     <use xlink:href="#DejaVuSans-68" transform="translate(60.302734 0)"/>
     <use xlink:href="#DejaVuSans-79" transform="translate(123.681641 0)"/>
     <use xlink:href="#DejaVuSans-73" transform="translate(182.861328 0)"/>
     <use xlink:href="#DejaVuSans-69" transform="translate(234.960938 0)"/>
     <use xlink:href="#DejaVuSans-63" transform="translate(262.744141 0)"/>
     <use xlink:href="#DejaVuSans-73" transform="translate(317.724609 0)"/>
     <use xlink:href="#DejaVuSans-2d" transform="translate(369.824219 0)"/>
     <use xlink:href="#DejaVuSans-49" transform="translate(405.908203 0)"/>
     <use xlink:href="#DejaVuSans-6e" transform="translate(435.400391 0)"/>
     <use xlink:href="#DejaVuSans-66" transform="translate(498.779297 0)"/>
     <use xlink:href="#DejaVuSans-6f" transform="translate(533.984375 0)"/>
     <use xlink:href="#DejaVuSans-72" transform="translate(595.166016 0)"/>
     <use xlink:href="#DejaVuSans-6d" transform="translate(634.529297 0)"/>
     <use xlink:href="#DejaVuSans-65" transform="translate(731.941406 0)"/>
     <use xlink:href="#DejaVuSans-64" transform="translate(793.464844 0)"/>
     <use xlink:href="#DejaVuSans-20" transform="translate(856.941406 0)"/>
     <use xlink:href="#DejaVuSans-46" transform="translate(888.728516 0)"/>
     <use xlink:href="#DejaVuSans-65" transform="translate(940.748047 0)"/>
     <use xlink:href="#DejaVuSans-61" transform="translate(1002.271484 0)"/>
     <use xlink:href="#DejaVuSans-74" transform="translate(1063.550781 0)"/>
     <use xlink:href="#DejaVuSans-75" transform="translate(1102.759766 0)"/>
     <use xlink:href="#DejaVuSans-72" transform="translate(1166.138672 0)"/>
     <use xlink:href="#DejaVuSans-65" transform="translate(1205.001953 0)"/>
     <use xlink:href="#DejaVuSans-20" transform="translate(1266.525391 0)"/>
     <use xlink:href="#DejaVuSans-48" transform="translate(1298.3125 0)"/>
     <use xlink:href="#DejaVuSans-61" transform="translate(1373.507812 0)"/>
     <use xlink:href="#DejaVuSans-7a" transform="translate(1434.787109 0)"/>
     <use xlink:href="#DejaVuSans-61" transform="translate(1487.277344 0)"/>
     <use xlink:href="#DejaVuSans-72" transform="translate(1548.556641 0)"/>
     <use xlink:href="#DejaVuSans-64" transform="translate(1587.919922 0)"/>
     <use xlink:href="#DejaVuSans-20" transform="translate(1651.396484 0)"/>
     <use xlink:href="#DejaVuSans-52" transform="translate(1683.183594 0)"/>
     <use xlink:href="#DejaVuSans-61" transform="translate(1750.416016 0)"/>
     <use xlink:href="#DejaVuSans-74" transform="translate(1811.695312 0)"/>
     <use xlink:href="#DejaVuSans-69" transform="translate(1850.904297 0)"/>
     <use xlink:href="#DejaVuSans-6f" transform="translate(1878.6875 0)"/>
     <use xlink:href="#DejaVuSans-73" transform="translate(1939.869141 0)"/>
    </g>
    <!-- (Causal Auditing Output) -->
    <g transform="translate(241.460703 28) scale(0.09 -0.09)">
     <use xlink:href="#DejaVuSans-28"/>
     <use xlink:href="#DejaVuSans-43" transform="translate(39.013672 0)"/>
     <use xlink:href="#DejaVuSans-61" transform="translate(108.837891 0)"/>
     <use xlink:href="#DejaVuSans-75" transform="translate(170.117188 0)"/>
     <use xlink:href="#DejaVuSans-73" transform="translate(233.496094 0)"/>
     <use xlink:href="#DejaVuSans-61" transform="translate(285.595703 0)"/>
     <use xlink:href="#DejaVuSans-6c" transform="translate(346.875 0)"/>
     <use xlink:href="#DejaVuSans-20" transform="translate(374.658203 0)"/>
     <use xlink:href="#DejaVuSans-41" transform="translate(406.445312 0)"/>
     <use xlink:href="#DejaVuSans-75" transform="translate(474.853516 0)"/>
     <use xlink:href="#DejaVuSans-64" transform="translate(538.232422 0)"/>
     <use xlink:href="#DejaVuSans-69" transform="translate(601.708984 0)"/>
     <use xlink:href="#DejaVuSans-74" transform="translate(629.492188 0)"/>
     <use xlink:href="#DejaVuSans-69" transform="translate(668.701172 0)"/>
     <use xlink:href="#DejaVuSans-6e" transform="translate(696.484375 0)"/>
     <use xlink:href="#DejaVuSans-67" transform="translate(759.863281 0)"/>
     <use xlink:href="#DejaVuSans-20" transform="translate(823.339844 0)"/>
     <use xlink:href="#DejaVuSans-4f" transform="translate(855.126953 0)"/>
     <use xlink:href="#DejaVuSans-75" transform="translate(933.837891 0)"/>
     <use xlink:href="#DejaVuSans-74" transform="translate(997.216797 0)"/>
     <use xlink:href="#DejaVuSans-70" transform="translate(1036.425781 0)"/>
     <use xlink:href="#DejaVuSans-75" transform="translate(1099.902344 0)"/>
     <use xlink:href="#DejaVuSans-74" transform="translate(1163.28125 0)"/>
     <use xlink:href="#DejaVuSans-29" transform="translate(1202.490234 0)"/>
    </g>
   </g>
  </g>
 </g>
 <defs>
  <clipPath id="pe12e04cee9">
   <rect x="98.45" y="38" width="397.755" height="172.84"/>
  </clipPath>
 </defs>
</svg>
