<?xml version="1.0" encoding="utf-8" standalone="no"?>
<!DOCTYPE svg PUBLIC "-//W3C//DTD SVG 1.1//EN"
  "http://www.w3.org/Graphics/SVG/1.1/DTD/svg11.dtd">
<svg xmlns:xlink="http://www.w3.org/1999/xlink" width="250.56pt" height="252pt" viewBox="0 0 250.56 252" xmlns="http://www.w3.org/2000/svg" version="1.1">
 <metadata>
  <rdf:RDF xmlns:dc="http://purl.org/dc/elements/1.1/" xmlns:cc="http://creativecommons.org/ns#" xmlns:rdf="http://www.w3.org/1999/02/22-rdf-syntax-ns#">
   <cc:Work>
    <dc:type rdf:resource="http://purl.org/dc/dcmitype/StillImage"/>
    <dc:date>2026-06-20T04:18:34.872822</dc:date>
    <dc:format>image/svg+xml</dc:format>
    <dc:creator>
     <cc:Agent>
      <dc:title>Matplotlib v3.10.8, https://matplotlib.org/</dc:title>
     </cc:Agent>
    </dc:creator>
   </cc:Work>
  </rdf:RDF>
 </metadata>
 <defs>
  <style type="text/css">*{stroke-linejoin: round; stroke-linecap: butt}</style>
 </defs>
 <g id="figure_1">
  <g id="patch_1">
   <path d="M 0 252 
L 250.56 252 
L 250.56 0 
L 0 0 
z
" style="fill: #ffffff"/>
  </g>
  <g id="axes_1">
   <g id="patch_2">
    <path d="M 40.565 216.115 
L 239.76 216.115 
L 239.76 24 
L 40.565 24 
z
" style="fill: #ffffff"/>
   </g>
   <g id="FillBetweenPolyCollection_1">
    <defs>
     <path id="m010cb02d40" d="M 49.619318 -35.885 
L 49.619318 -35.885 
L 49.982217 -35.885 
L 50.345115 -35.885 
L 50.708014 -35.885 
L 51.070912 -35.885 
L 51.433811 -35.885 
L 51.796709 -35.885 
L 52.159608 -35.885 
L 52.522506 -35.885 
L 52.885405 -35.885 
L 53.248303 -35.885 
L 53.611202 -35.885 
L 53.9741 -35.885 
L 54.336999 -35.885 
L 54.699898 -35.885 
L 55.062796 -35.885 
L 55.425695 -35.885 
L 55.788593 -35.885 
L 56.151492 -35.885 
L 56.51439 -35.885 
L 56.877289 -35.885 
L 57.240187 -35.885 
L 57.603086 -35.885 
L 57.965984 -35.885 
L 58.328883 -35.885 
L 58.691781 -35.885 
L 59.05468 -35.885 
L 59.417578 -35.885 
L 59.780477 -35.885 
L 60.143375 -35.885 
L 60.506274 -35.885 
L 60.869172 -35.885 
L 61.232071 -35.885 
L 61.594969 -35.885 
L 61.957868 -35.885 
L 62.320767 -35.885 
L 62.683665 -35.885 
L 63.046564 -35.885 
L 63.409462 -35.885 
L 63.772361 -35.885 
L 64.135259 -35.885 
L 64.498158 -35.885 
L 64.861056 -35.885 
L 65.223955 -35.885 
L 65.586853 -35.885 
L 65.949752 -35.885 
L 66.31265 -35.885 
L 66.675549 -35.885 
L 67.038447 -35.885 
L 67.401346 -35.885 
L 67.764244 -35.885 
L 68.127143 -35.885 
L 68.490041 -35.885 
L 68.85294 -35.885 
L 69.215838 -35.885 
L 69.578737 -35.885 
L 69.941636 -35.885 
L 70.304534 -35.885 
L 70.667433 -35.885 
L 71.030331 -35.885 
L 71.39323 -35.885 
L 71.756128 -35.885 
L 72.119027 -35.885 
L 72.481925 -35.885 
L 72.844824 -35.885 
L 73.207722 -35.885 
L 73.570621 -35.885 
L 73.933519 -35.885 
L 74.296418 -35.885 
L 74.659316 -35.885 
L 75.022215 -35.885 
L 75.385113 -35.885 
L 75.748012 -35.885 
L 76.11091 -35.885 
L 76.473809 -35.885 
L 76.836708 -35.885 
L 77.199606 -35.885 
L 77.562505 -35.885 
L 77.925403 -35.885 
L 78.288302 -35.885 
L 78.6512 -35.885 
L 79.014099 -35.885 
L 79.376997 -35.885 
L 79.739896 -35.885 
L 80.102794 -35.885 
L 80.465693 -35.885 
L 80.828591 -35.885 
L 81.19149 -35.885 
L 81.554388 -35.885 
L 81.917287 -35.885 
L 82.280185 -35.885 
L 82.643084 -35.885 
L 83.005982 -35.885 
L 83.368881 -35.885 
L 83.731779 -35.885 
L 84.094678 -35.885 
L 84.457577 -35.885 
L 84.820475 -35.885 
L 85.183374 -35.885 
L 85.546272 -35.885 
L 85.909171 -35.885 
L 86.272069 -35.885 
L 86.634968 -35.885 
L 86.997866 -35.885 
L 87.360765 -35.885 
L 87.723663 -35.885 
L 88.086562 -35.885 
L 88.44946 -35.885 
L 88.812359 -35.885 
L 89.175257 -35.885 
L 89.538156 -35.885 
L 89.901054 -35.885 
L 90.263953 -35.885 
L 90.626851 -35.885 
L 90.98975 -35.885 
L 91.352648 -35.885 
L 91.715547 -35.885 
L 92.078446 -35.885 
L 92.441344 -35.885 
L 92.804243 -35.885 
L 93.167141 -35.885 
L 93.53004 -35.885 
L 93.892938 -35.885 
L 94.255837 -35.885 
L 94.618735 -35.885 
L 94.981634 -35.885 
L 95.344532 -35.885 
L 95.707431 -35.885 
L 96.070329 -35.885 
L 96.433228 -35.885 
L 96.796126 -35.885 
L 97.159025 -35.885 
L 97.521923 -35.885 
L 97.884822 -35.885 
L 98.24772 -35.885 
L 98.610619 -35.885 
L 98.973517 -35.885 
L 99.336416 -35.885 
L 99.699315 -35.885 
L 100.062213 -35.885 
L 100.425112 -35.885 
L 100.78801 -35.885 
L 101.150909 -35.885 
L 101.513807 -35.885 
L 101.876706 -35.885 
L 102.239604 -35.885 
L 102.602503 -35.885 
L 102.965401 -35.885 
L 103.3283 -35.885 
L 103.691198 -35.885 
L 104.054097 -35.885 
L 104.416995 -35.885 
L 104.779894 -35.885 
L 105.142792 -35.885 
L 105.505691 -35.885 
L 105.868589 -35.885 
L 106.231488 -35.885 
L 106.594387 -35.885 
L 106.957285 -35.885 
L 107.320184 -35.885 
L 107.683082 -35.885 
L 108.045981 -35.885 
L 108.408879 -35.885 
L 108.771778 -35.885 
L 109.134676 -35.885 
L 109.497575 -35.885 
L 109.860473 -35.885 
L 110.223372 -35.885 
L 110.58627 -35.885 
L 110.949169 -35.885 
L 111.312067 -35.885 
L 111.674966 -35.885 
L 112.037864 -35.885 
L 112.400763 -35.885 
L 112.763661 -35.885 
L 113.12656 -35.885 
L 113.489458 -35.885 
L 113.852357 -35.885 
L 114.215256 -35.885 
L 114.578154 -35.885 
L 114.941053 -35.885 
L 115.303951 -35.885 
L 115.66685 -35.885 
L 116.029748 -35.885 
L 116.392647 -35.885 
L 116.755545 -35.885 
L 117.118444 -35.885 
L 117.481342 -35.885 
L 117.844241 -35.885 
L 118.207139 -35.885 
L 118.570038 -35.885 
L 118.932936 -35.885 
L 119.295835 -35.885 
L 119.658733 -35.885 
L 120.021632 -35.885 
L 120.38453 -35.885 
L 120.747429 -35.885 
L 121.110327 -35.885 
L 121.473226 -35.885 
L 121.836125 -35.885 
L 122.199023 -35.885 
L 122.561922 -35.885 
L 122.92482 -35.885 
L 123.287719 -35.885 
L 123.650617 -35.885 
L 124.013516 -35.885 
L 124.376414 -35.885 
L 124.739313 -35.885 
L 125.102211 -35.885 
L 125.46511 -35.885 
L 125.828008 -35.885 
L 126.190907 -35.885 
L 126.553805 -35.885 
L 126.916704 -35.885 
L 127.279602 -35.885 
L 127.642501 -35.885 
L 128.005399 -35.885 
L 128.368298 -35.885 
L 128.731196 -35.885 
L 129.094095 -35.885 
L 129.456994 -35.885 
L 129.819892 -35.885 
L 130.182791 -35.885 
L 130.545689 -35.885 
L 130.908588 -35.885 
L 131.271486 -35.885 
L 131.634385 -35.885 
L 131.997283 -35.885 
L 132.360182 -35.885 
L 132.72308 -35.885 
L 133.085979 -35.885 
L 133.448877 -35.885 
L 133.811776 -35.885 
L 134.174674 -35.885 
L 134.537573 -35.885 
L 134.900471 -35.885 
L 135.26337 -35.885 
L 135.626268 -35.885 
L 135.989167 -35.885 
L 136.352065 -35.885 
L 136.714964 -35.885 
L 137.077863 -35.885 
L 137.440761 -35.885 
L 137.80366 -35.885 
L 138.166558 -35.885 
L 138.529457 -35.885 
L 138.892355 -35.885 
L 139.255254 -35.885 
L 139.618152 -35.885 
L 139.981051 -35.885 
L 140.343949 -35.885 
L 140.706848 -35.885 
L 141.069746 -35.885 
L 141.432645 -35.885 
L 141.795543 -35.885 
L 142.158442 -35.885 
L 142.52134 -35.885 
L 142.884239 -35.885 
L 143.247137 -35.885 
L 143.610036 -35.885 
L 143.972935 -35.885 
L 144.335833 -35.885 
L 144.698732 -35.885 
L 145.06163 -35.885 
L 145.424529 -35.885 
L 145.787427 -35.885 
L 146.150326 -35.885 
L 146.513224 -35.885 
L 146.876123 -35.885 
L 147.239021 -35.885 
L 147.60192 -35.885 
L 147.964818 -35.885 
L 148.327717 -35.885 
L 148.690615 -35.885 
L 149.053514 -35.885 
L 149.416412 -35.885 
L 149.779311 -35.885 
L 150.142209 -35.885 
L 150.505108 -35.885 
L 150.868006 -35.885 
L 151.230905 -35.885 
L 151.593804 -35.885 
L 151.956702 -35.885 
L 152.319601 -35.885 
L 152.682499 -35.885 
L 153.045398 -35.885 
L 153.408296 -35.885 
L 153.771195 -35.885 
L 154.134093 -35.885 
L 154.496992 -35.885 
L 154.85989 -35.885 
L 155.222789 -35.885 
L 155.585687 -35.885 
L 155.948586 -35.885 
L 156.311484 -35.885 
L 156.674383 -35.885 
L 157.037281 -35.885 
L 157.40018 -35.885 
L 157.763078 -35.885 
L 158.125977 -35.885 
L 158.488875 -35.885 
L 158.851774 -35.885 
L 159.214673 -35.885 
L 159.577571 -35.885 
L 159.94047 -35.885 
L 160.303368 -35.885 
L 160.666267 -35.885 
L 161.029165 -35.885 
L 161.392064 -35.885 
L 161.754962 -35.885 
L 162.117861 -35.885 
L 162.480759 -35.885 
L 162.843658 -35.885 
L 163.206556 -35.885 
L 163.569455 -35.885 
L 163.932353 -35.885 
L 164.295252 -35.885 
L 164.65815 -35.885 
L 165.021049 -35.885 
L 165.383947 -35.885 
L 165.746846 -35.885 
L 166.109744 -35.885 
L 166.472643 -35.885 
L 166.835542 -35.885 
L 167.19844 -35.885 
L 167.561339 -35.885 
L 167.924237 -35.885 
L 168.287136 -35.885 
L 168.650034 -35.885 
L 169.012933 -35.885 
L 169.375831 -35.885 
L 169.73873 -35.885 
L 170.101628 -35.885 
L 170.464527 -35.885 
L 170.827425 -35.885 
L 171.190324 -35.885 
L 171.553222 -35.885 
L 171.916121 -35.885 
L 172.279019 -35.885 
L 172.641918 -35.885 
L 173.004816 -35.885 
L 173.367715 -35.885 
L 173.730613 -35.885 
L 174.093512 -35.885 
L 174.456411 -35.885 
L 174.819309 -35.885 
L 175.182208 -35.885 
L 175.545106 -35.885 
L 175.908005 -35.885 
L 176.270903 -35.885 
L 176.633802 -35.885 
L 176.9967 -35.885 
L 177.359599 -35.885 
L 177.722497 -35.885 
L 178.085396 -35.885 
L 178.448294 -35.885 
L 178.811193 -35.885 
L 179.174091 -35.885 
L 179.53699 -35.885 
L 179.899888 -35.885 
L 180.262787 -35.885 
L 180.625685 -35.885 
L 180.988584 -35.885 
L 181.351483 -35.885 
L 181.714381 -35.885 
L 182.07728 -35.885 
L 182.440178 -35.885 
L 182.803077 -35.885 
L 183.165975 -35.885 
L 183.528874 -35.885 
L 183.891772 -35.885 
L 184.254671 -35.885 
L 184.617569 -35.885 
L 184.980468 -35.885 
L 185.343366 -35.885 
L 185.706265 -35.885 
L 186.069163 -35.885 
L 186.432062 -35.885 
L 186.79496 -35.885 
L 187.157859 -35.885 
L 187.520757 -35.885 
L 187.883656 -35.885 
L 188.246554 -35.885 
L 188.609453 -35.885 
L 188.972352 -35.885 
L 189.33525 -35.885 
L 189.698149 -35.885 
L 190.061047 -35.885 
L 190.423946 -35.885 
L 190.786844 -35.885 
L 191.149743 -35.885 
L 191.512641 -35.885 
L 191.87554 -35.885 
L 192.238438 -35.885 
L 192.601337 -35.885 
L 192.964235 -35.885 
L 193.327134 -35.885 
L 193.690032 -35.885 
L 194.052931 -35.885 
L 194.415829 -35.885 
L 194.778728 -35.885 
L 195.141626 -35.885 
L 195.504525 -35.885 
L 195.867423 -35.885 
L 196.230322 -35.885 
L 196.593221 -35.885 
L 196.956119 -35.885 
L 197.319018 -35.885 
L 197.681916 -35.885 
L 198.044815 -35.885 
L 198.407713 -35.885 
L 198.770612 -35.885 
L 199.13351 -35.885 
L 199.496409 -35.885 
L 199.859307 -35.885 
L 200.222206 -35.885 
L 200.585104 -35.885 
L 200.948003 -35.885 
L 201.310901 -35.885 
L 201.6738 -35.885 
L 202.036698 -35.885 
L 202.399597 -35.885 
L 202.762495 -35.885 
L 203.125394 -35.885 
L 203.488292 -35.885 
L 203.851191 -35.885 
L 204.21409 -35.885 
L 204.576988 -35.885 
L 204.939887 -35.885 
L 205.302785 -35.885 
L 205.665684 -35.885 
L 206.028582 -35.885 
L 206.391481 -35.885 
L 206.754379 -35.885 
L 207.117278 -35.885 
L 207.480176 -35.885 
L 207.843075 -35.885 
L 208.205973 -35.885 
L 208.568872 -35.885 
L 208.93177 -35.885 
L 209.294669 -35.885 
L 209.657567 -35.885 
L 210.020466 -35.885 
L 210.383364 -35.885 
L 210.746263 -35.885 
L 211.109162 -35.885 
L 211.47206 -35.885 
L 211.834959 -35.885 
L 212.197857 -35.885 
L 212.560756 -35.885 
L 212.923654 -35.885 
L 213.286553 -35.885 
L 213.649451 -35.885 
L 214.01235 -35.885 
L 214.375248 -35.885 
L 214.738147 -35.885 
L 215.101045 -35.885 
L 215.463944 -35.885 
L 215.826842 -35.885 
L 216.189741 -35.885 
L 216.552639 -35.885 
L 216.915538 -35.885 
L 217.278436 -35.885 
L 217.641335 -35.885 
L 218.004233 -35.885 
L 218.367132 -35.885 
L 218.730031 -35.885 
L 219.092929 -35.885 
L 219.455828 -35.885 
L 219.818726 -35.885 
L 220.181625 -35.885 
L 220.544523 -35.885 
L 220.907422 -35.885 
L 221.27032 -35.885 
L 221.633219 -35.885 
L 221.996117 -35.885 
L 222.359016 -35.885 
L 222.721914 -35.885 
L 223.084813 -35.885 
L 223.447711 -35.885 
L 223.81061 -35.885 
L 224.173508 -35.885 
L 224.536407 -35.885 
L 224.899305 -35.885 
L 225.262204 -35.885 
L 225.625102 -35.885 
L 225.988001 -35.885 
L 226.3509 -35.885 
L 226.713798 -35.885 
L 227.076697 -35.885 
L 227.439595 -35.885 
L 227.802494 -35.885 
L 228.165392 -35.885 
L 228.528291 -35.885 
L 228.891189 -35.885 
L 229.254088 -35.885 
L 229.616986 -35.885 
L 229.979885 -35.885 
L 230.342783 -35.885 
L 230.705682 -35.885 
L 230.705682 -35.885 
L 230.705682 -35.885 
L 230.342783 -35.885 
L 229.979885 -35.885 
L 229.616986 -35.885 
L 229.254088 -35.885 
L 228.891189 -35.885 
L 228.528291 -35.885 
L 228.165392 -35.885 
L 227.802494 -35.885 
L 227.439595 -35.885 
L 227.076697 -35.885 
L 226.713798 -35.885 
L 226.3509 -35.885 
L 225.988001 -35.885 
L 225.625102 -35.885 
L 225.262204 -35.885 
L 224.899305 -35.885 
L 224.536407 -35.885 
L 224.173508 -35.885 
L 223.81061 -35.885 
L 223.447711 -35.885 
L 223.084813 -35.885 
L 222.721914 -35.885 
L 222.359016 -35.885 
L 221.996117 -35.885 
L 221.633219 -35.885 
L 221.27032 -35.885 
L 220.907422 -35.885 
L 220.544523 -35.885 
L 220.181625 -35.885 
L 219.818726 -35.885 
L 219.455828 -35.885 
L 219.092929 -35.885 
L 218.730031 -35.885 
L 218.367132 -35.885 
L 218.004233 -35.885 
L 217.641335 -35.885 
L 217.278436 -35.885 
L 216.915538 -35.885 
L 216.552639 -35.885 
L 216.189741 -35.885 
L 215.826842 -35.885 
L 215.463944 -35.885 
L 215.101045 -35.885 
L 214.738147 -35.885 
L 214.375248 -35.885 
L 214.01235 -35.885 
L 213.649451 -35.885 
L 213.286553 -35.885 
L 212.923654 -35.885 
L 212.560756 -35.885 
L 212.197857 -35.885 
L 211.834959 -35.885 
L 211.47206 -35.885 
L 211.109162 -35.885 
L 210.746263 -35.885 
L 210.383364 -35.885 
L 210.020466 -35.885 
L 209.657567 -35.885 
L 209.294669 -35.885 
L 208.93177 -35.885 
L 208.568872 -35.885 
L 208.205973 -35.885 
L 207.843075 -35.885 
L 207.480176 -35.885 
L 207.117278 -35.885 
L 206.754379 -35.885 
L 206.391481 -35.885 
L 206.028582 -35.885 
L 205.665684 -35.885 
L 205.302785 -35.885 
L 204.939887 -35.885 
L 204.576988 -35.885 
L 204.21409 -35.885 
L 203.851191 -35.885 
L 203.488292 -35.885 
L 203.125394 -35.885 
L 202.762495 -35.885 
L 202.399597 -35.885 
L 202.036698 -35.885 
L 201.6738 -35.885 
L 201.310901 -35.885 
L 200.948003 -35.885 
L 200.585104 -35.885 
L 200.222206 -35.885 
L 199.859307 -35.885 
L 199.496409 -35.885 
L 199.13351 -35.885 
L 198.770612 -35.885 
L 198.407713 -35.885 
L 198.044815 -35.885 
L 197.681916 -35.885 
L 197.319018 -35.885 
L 196.956119 -35.885 
L 196.593221 -35.885 
L 196.230322 -35.885 
L 195.867423 -35.885 
L 195.504525 -35.885 
L 195.141626 -35.885 
L 194.778728 -35.885 
L 194.415829 -35.885 
L 194.052931 -35.885 
L 193.690032 -35.885 
L 193.327134 -35.885 
L 192.964235 -35.885 
L 192.601337 -35.885 
L 192.238438 -35.885 
L 191.87554 -35.885 
L 191.512641 -35.885 
L 191.149743 -35.885 
L 190.786844 -35.885 
L 190.423946 -35.885 
L 190.061047 -35.885 
L 189.698149 -35.885 
L 189.33525 -35.885 
L 188.972352 -35.885 
L 188.609453 -35.885 
L 188.246554 -35.885 
L 187.883656 -35.885001 
L 187.520757 -35.885001 
L 187.157859 -35.885001 
L 186.79496 -35.885001 
L 186.432062 -35.885001 
L 186.069163 -35.885002 
L 185.706265 -35.885002 
L 185.343366 -35.885003 
L 184.980468 -35.885004 
L 184.617569 -35.885005 
L 184.254671 -35.885006 
L 183.891772 -35.885008 
L 183.528874 -35.88501 
L 183.165975 -35.885012 
L 182.803077 -35.885016 
L 182.440178 -35.88502 
L 182.07728 -35.885024 
L 181.714381 -35.88503 
L 181.351483 -35.885038 
L 180.988584 -35.885047 
L 180.625685 -35.885059 
L 180.262787 -35.885073 
L 179.899888 -35.88509 
L 179.53699 -35.885112 
L 179.174091 -35.885138 
L 178.811193 -35.88517 
L 178.448294 -35.885209 
L 178.085396 -35.885257 
L 177.722497 -35.885315 
L 177.359599 -35.885386 
L 176.9967 -35.885473 
L 176.633802 -35.885577 
L 176.270903 -35.885703 
L 175.908005 -35.885856 
L 175.545106 -35.88604 
L 175.182208 -35.886262 
L 174.819309 -35.886528 
L 174.456411 -35.886848 
L 174.093512 -35.887231 
L 173.730613 -35.88769 
L 173.367715 -35.888237 
L 173.004816 -35.888889 
L 172.641918 -35.889666 
L 172.279019 -35.890588 
L 171.916121 -35.891682 
L 171.553222 -35.892977 
L 171.190324 -35.894508 
L 170.827425 -35.896314 
L 170.464527 -35.898443 
L 170.101628 -35.900945 
L 169.73873 -35.903884 
L 169.375831 -35.907328 
L 169.012933 -35.911357 
L 168.650034 -35.916064 
L 168.287136 -35.921553 
L 167.924237 -35.927943 
L 167.561339 -35.935369 
L 167.19844 -35.943984 
L 166.835542 -35.953961 
L 166.472643 -35.965497 
L 166.109744 -35.978812 
L 165.746846 -35.994153 
L 165.383947 -36.0118 
L 165.021049 -36.032063 
L 164.65815 -36.055291 
L 164.295252 -36.08187 
L 163.932353 -36.112233 
L 163.569455 -36.146858 
L 163.206556 -36.186274 
L 162.843658 -36.231068 
L 162.480759 -36.281882 
L 162.117861 -36.339428 
L 161.754962 -36.404483 
L 161.392064 -36.477897 
L 161.029165 -36.5606 
L 160.666267 -36.653603 
L 160.303368 -36.758006 
L 159.94047 -36.874998 
L 159.577571 -37.005867 
L 159.214673 -37.151999 
L 158.851774 -37.314884 
L 158.488875 -37.496119 
L 158.125977 -37.697411 
L 157.763078 -37.92058 
L 157.40018 -38.167558 
L 157.037281 -38.440395 
L 156.674383 -38.741252 
L 156.311484 -39.072405 
L 155.948586 -39.436243 
L 155.585687 -39.835262 
L 155.222789 -40.272062 
L 154.85989 -40.74934 
L 154.496992 -41.269885 
L 154.134093 -41.836566 
L 153.771195 -42.452325 
L 153.408296 -43.120158 
L 153.045398 -43.843109 
L 152.682499 -44.624249 
L 152.319601 -45.466658 
L 151.956702 -46.373408 
L 151.593804 -47.347539 
L 151.230905 -48.392036 
L 150.868006 -49.509806 
L 150.505108 -50.703648 
L 150.142209 -51.976228 
L 149.779311 -53.330047 
L 149.416412 -54.76741 
L 149.053514 -56.290397 
L 148.690615 -57.900828 
L 148.327717 -59.60023 
L 147.964818 -61.389804 
L 147.60192 -63.270393 
L 147.239021 -65.242449 
L 146.876123 -67.305999 
L 146.513224 -69.460617 
L 146.150326 -71.705394 
L 145.787427 -74.03891 
L 145.424529 -76.459212 
L 145.06163 -78.963788 
L 144.698732 -81.549551 
L 144.335833 -84.212826 
L 143.972935 -86.949332 
L 143.610036 -89.754184 
L 143.247137 -92.621884 
L 142.884239 -95.546327 
L 142.52134 -98.520807 
L 142.158442 -101.538031 
L 141.795543 -104.59014 
L 141.432645 -107.66873 
L 141.069746 -110.764882 
L 140.706848 -113.8692 
L 140.343949 -116.971851 
L 139.981051 -120.062609 
L 139.618152 -123.13091 
L 139.255254 -126.165907 
L 138.892355 -129.156528 
L 138.529457 -132.091542 
L 138.166558 -134.959631 
L 137.80366 -137.749454 
L 137.440761 -140.449726 
L 137.077863 -143.049288 
L 136.714964 -145.537189 
L 136.352065 -147.902756 
L 135.989167 -150.135675 
L 135.626268 -152.22606 
L 135.26337 -154.164534 
L 134.900471 -155.942288 
L 134.537573 -157.551159 
L 134.174674 -158.983683 
L 133.811776 -160.233158 
L 133.448877 -161.293694 
L 133.085979 -162.160262 
L 132.72308 -162.828729 
L 132.360182 -163.295895 
L 131.997283 -163.559516 
L 131.634385 -163.618324 
L 131.271486 -163.472037 
L 130.908588 -163.121358 
L 130.545689 -162.567973 
L 130.182791 -161.814537 
L 129.819892 -160.864651 
L 129.456994 -159.722835 
L 129.094095 -158.39449 
L 128.731196 -156.885859 
L 128.368298 -155.203977 
L 128.005399 -153.356611 
L 127.642501 -151.35221 
L 127.279602 -149.199832 
L 126.916704 -146.909081 
L 126.553805 -144.490034 
L 126.190907 -141.953168 
L 125.828008 -139.309283 
L 125.46511 -136.569429 
L 125.102211 -133.744827 
L 124.739313 -130.846796 
L 124.376414 -127.886675 
L 124.013516 -124.875755 
L 123.650617 -121.825205 
L 123.287719 -118.74601 
L 122.92482 -115.648904 
L 122.561922 -112.544313 
L 122.199023 -109.442301 
L 121.836125 -106.35252 
L 121.473226 -103.284167 
L 121.110327 -100.245945 
L 120.747429 -97.24603 
L 120.38453 -94.292041 
L 120.021632 -91.391023 
L 119.658733 -88.549427 
L 119.295835 -85.773098 
L 118.932936 -83.067275 
L 118.570038 -80.436584 
L 118.207139 -77.885046 
L 117.844241 -75.416083 
L 117.481342 -73.032536 
L 117.118444 -70.736674 
L 116.755545 -68.530222 
L 116.392647 -66.414377 
L 116.029748 -64.389839 
L 115.66685 -62.456838 
L 115.303951 -60.61516 
L 114.941053 -58.864185 
L 114.578154 -57.202911 
L 114.215256 -55.629994 
L 113.852357 -54.143778 
L 113.489458 -52.742328 
L 113.12656 -51.423466 
L 112.763661 -50.184797 
L 112.400763 -49.023746 
L 112.037864 -47.937589 
L 111.674966 -46.923475 
L 111.312067 -45.978463 
L 110.949169 -45.099539 
L 110.58627 -44.283648 
L 110.223372 -43.527712 
L 109.860473 -42.828652 
L 109.497575 -42.183407 
L 109.134676 -41.588952 
L 108.771778 -41.042311 
L 108.408879 -40.540573 
L 108.045981 -40.080902 
L 107.683082 -39.660547 
L 107.320184 -39.27685 
L 106.957285 -38.927257 
L 106.594387 -38.609315 
L 106.231488 -38.320686 
L 105.868589 -38.05914 
L 105.505691 -37.822564 
L 105.142792 -37.608959 
L 104.779894 -37.41644 
L 104.416995 -37.243237 
L 104.054097 -37.08769 
L 103.691198 -36.948246 
L 103.3283 -36.823461 
L 102.965401 -36.711992 
L 102.602503 -36.612593 
L 102.239604 -36.524114 
L 101.876706 -36.445493 
L 101.513807 -36.375755 
L 101.150909 -36.314004 
L 100.78801 -36.259421 
L 100.425112 -36.211258 
L 100.062213 -36.168834 
L 99.699315 -36.131531 
L 99.336416 -36.098786 
L 98.973517 -36.070093 
L 98.610619 -36.044994 
L 98.24772 -36.023076 
L 97.884822 -36.00397 
L 97.521923 -35.987343 
L 97.159025 -35.972898 
L 96.796126 -35.960371 
L 96.433228 -35.949525 
L 96.070329 -35.940152 
L 95.707431 -35.932064 
L 95.344532 -35.925098 
L 94.981634 -35.919108 
L 94.618735 -35.913967 
L 94.255837 -35.909561 
L 93.892938 -35.905791 
L 93.53004 -35.902572 
L 93.167141 -35.899828 
L 92.804243 -35.897492 
L 92.441344 -35.895507 
L 92.078446 -35.893823 
L 91.715547 -35.892398 
L 91.352648 -35.891192 
L 90.98975 -35.890175 
L 90.626851 -35.889318 
L 90.263953 -35.888597 
L 89.901054 -35.887992 
L 89.538156 -35.887484 
L 89.175257 -35.88706 
L 88.812359 -35.886705 
L 88.44946 -35.886409 
L 88.086562 -35.886162 
L 87.723663 -35.885957 
L 87.360765 -35.885787 
L 86.997866 -35.885646 
L 86.634968 -35.88553 
L 86.272069 -35.885434 
L 85.909171 -35.885354 
L 85.546272 -35.885289 
L 85.183374 -35.885236 
L 84.820475 -35.885192 
L 84.457577 -35.885156 
L 84.094678 -35.885126 
L 83.731779 -35.885102 
L 83.368881 -35.885082 
L 83.005982 -35.885066 
L 82.643084 -35.885054 
L 82.280185 -35.885043 
L 81.917287 -35.885035 
L 81.554388 -35.885028 
L 81.19149 -35.885022 
L 80.828591 -35.885018 
L 80.465693 -35.885014 
L 80.102794 -35.885011 
L 79.739896 -35.885009 
L 79.376997 -35.885007 
L 79.014099 -35.885006 
L 78.6512 -35.885004 
L 78.288302 -35.885004 
L 77.925403 -35.885003 
L 77.562505 -35.885002 
L 77.199606 -35.885002 
L 76.836708 -35.885001 
L 76.473809 -35.885001 
L 76.11091 -35.885001 
L 75.748012 -35.885001 
L 75.385113 -35.885001 
L 75.022215 -35.885 
L 74.659316 -35.885 
L 74.296418 -35.885 
L 73.933519 -35.885 
L 73.570621 -35.885 
L 73.207722 -35.885 
L 72.844824 -35.885 
L 72.481925 -35.885 
L 72.119027 -35.885 
L 71.756128 -35.885 
L 71.39323 -35.885 
L 71.030331 -35.885 
L 70.667433 -35.885 
L 70.304534 -35.885 
L 69.941636 -35.885 
L 69.578737 -35.885 
L 69.215838 -35.885 
L 68.85294 -35.885 
L 68.490041 -35.885 
L 68.127143 -35.885 
L 67.764244 -35.885 
L 67.401346 -35.885 
L 67.038447 -35.885 
L 66.675549 -35.885 
L 66.31265 -35.885 
L 65.949752 -35.885 
L 65.586853 -35.885 
L 65.223955 -35.885 
L 64.861056 -35.885 
L 64.498158 -35.885 
L 64.135259 -35.885 
L 63.772361 -35.885 
L 63.409462 -35.885 
L 63.046564 -35.885 
L 62.683665 -35.885 
L 62.320767 -35.885 
L 61.957868 -35.885 
L 61.594969 -35.885 
L 61.232071 -35.885 
L 60.869172 -35.885 
L 60.506274 -35.885 
L 60.143375 -35.885 
L 59.780477 -35.885 
L 59.417578 -35.885 
L 59.05468 -35.885 
L 58.691781 -35.885 
L 58.328883 -35.885 
L 57.965984 -35.885 
L 57.603086 -35.885 
L 57.240187 -35.885 
L 56.877289 -35.885 
L 56.51439 -35.885 
L 56.151492 -35.885 
L 55.788593 -35.885 
L 55.425695 -35.885 
L 55.062796 -35.885 
L 54.699898 -35.885 
L 54.336999 -35.885 
L 53.9741 -35.885 
L 53.611202 -35.885 
L 53.248303 -35.885 
L 52.885405 -35.885 
L 52.522506 -35.885 
L 52.159608 -35.885 
L 51.796709 -35.885 
L 51.433811 -35.885 
L 51.070912 -35.885 
L 50.708014 -35.885 
L 50.345115 -35.885 
L 49.982217 -35.885 
L 49.619318 -35.885 
z
" style="stroke: #d62728; stroke-opacity: 0.2"/>
    </defs>
    <g clip-path="url(#p78a78130e8)">
     <use xlink:href="#m010cb02d40" x="0" y="252" style="fill: #d62728; fill-opacity: 0.2; stroke: #d62728; stroke-opacity: 0.2"/>
    </g>
   </g>
   <g id="matplotlib.axis_1">
    <g id="xtick_1">
     <g id="line2d_1">
      <path d="M 61.691742 216.115 
L 61.691742 24 
" clip-path="url(#p78a78130e8)" style="fill: none; stroke-dasharray: 2.96,1.28; stroke-dashoffset: 0; stroke: #b0b0b0; stroke-opacity: 0.3; stroke-width: 0.8"/>
     </g>
     <g id="line2d_2">
      <defs>
       <path id="m2f98f9eb30" d="M 0 0 
L 0 3.5 
" style="stroke: #000000; stroke-width: 0.8"/>
      </defs>
      <g>
       <use xlink:href="#m2f98f9eb30" x="61.691742" y="216.115" style="stroke: #000000; stroke-width: 0.8"/>
      </g>
     </g>
     <g id="text_1">
      <!-- 6 -->
      <g transform="translate(59.464867 228.433906) scale(0.07 -0.07)">
       <defs>
        <path id="DejaVuSerif-36" d="M 2094 219 
Q 2534 219 2771 542 
Q 3009 866 3009 1472 
Q 3009 2078 2771 2401 
Q 2534 2725 2094 2725 
Q 1647 2725 1412 2412 
Q 1178 2100 1178 1509 
Q 1178 888 1415 553 
Q 1653 219 2094 219 
z
M 1075 2569 
Q 1288 2803 1556 2918 
Q 1825 3034 2163 3034 
Q 2859 3034 3264 2615 
Q 3669 2197 3669 1472 
Q 3669 763 3233 336 
Q 2797 -91 2069 -91 
Q 1278 -91 853 498 
Q 428 1088 428 2181 
Q 428 3406 931 4078 
Q 1434 4750 2350 4750 
Q 2597 4750 2869 4703 
Q 3141 4656 3425 4563 
L 3425 3794 
L 3072 3794 
Q 3034 4109 2831 4275 
Q 2628 4441 2284 4441 
Q 1678 4441 1381 3981 
Q 1084 3522 1075 2569 
z
" transform="scale(0.015625)"/>
       </defs>
       <use xlink:href="#DejaVuSerif-36"/>
      </g>
     </g>
    </g>
    <g id="xtick_2">
     <g id="line2d_3">
      <path d="M 85.836591 216.115 
L 85.836591 24 
" clip-path="url(#p78a78130e8)" style="fill: none; stroke-dasharray: 2.96,1.28; stroke-dashoffset: 0; stroke: #b0b0b0; stroke-opacity: 0.3; stroke-width: 0.8"/>
     </g>
     <g id="line2d_4">
      <g>
       <use xlink:href="#m2f98f9eb30" x="85.836591" y="216.115" style="stroke: #000000; stroke-width: 0.8"/>
      </g>
     </g>
     <g id="text_2">
      <!-- 8 -->
      <g transform="translate(83.609716 228.433906) scale(0.07 -0.07)">
       <defs>
        <path id="DejaVuSerif-38" d="M 2981 1275 
Q 2981 1775 2732 2051 
Q 2484 2328 2034 2328 
Q 1584 2328 1336 2051 
Q 1088 1775 1088 1275 
Q 1088 772 1336 495 
Q 1584 219 2034 219 
Q 2484 219 2732 495 
Q 2981 772 2981 1275 
z
M 2853 3541 
Q 2853 3966 2637 4203 
Q 2422 4441 2034 4441 
Q 1650 4441 1433 4203 
Q 1216 3966 1216 3541 
Q 1216 3113 1433 2875 
Q 1650 2638 2034 2638 
Q 2422 2638 2637 2875 
Q 2853 3113 2853 3541 
z
M 2516 2484 
Q 3047 2413 3344 2092 
Q 3641 1772 3641 1275 
Q 3641 619 3225 264 
Q 2809 -91 2034 -91 
Q 1263 -91 845 264 
Q 428 619 428 1275 
Q 428 1772 725 2092 
Q 1022 2413 1556 2484 
Q 1084 2569 832 2842 
Q 581 3116 581 3541 
Q 581 4103 968 4426 
Q 1356 4750 2034 4750 
Q 2713 4750 3100 4426 
Q 3488 4103 3488 3541 
Q 3488 3116 3236 2842 
Q 2984 2569 2516 2484 
z
" transform="scale(0.015625)"/>
       </defs>
       <use xlink:href="#DejaVuSerif-38"/>
      </g>
     </g>
    </g>
    <g id="xtick_3">
     <g id="line2d_5">
      <path d="M 109.981439 216.115 
L 109.981439 24 
" clip-path="url(#p78a78130e8)" style="fill: none; stroke-dasharray: 2.96,1.28; stroke-dashoffset: 0; stroke: #b0b0b0; stroke-opacity: 0.3; stroke-width: 0.8"/>
     </g>
     <g id="line2d_6">
      <g>
       <use xlink:href="#m2f98f9eb30" x="109.981439" y="216.115" style="stroke: #000000; stroke-width: 0.8"/>
      </g>
     </g>
     <g id="text_3">
      <!-- 10 -->
      <g transform="translate(105.527689 228.433906) scale(0.07 -0.07)">
       <defs>
        <path id="DejaVuSerif-31" d="M 909 0 
L 909 331 
L 1722 331 
L 1722 4213 
L 781 3603 
L 781 4013 
L 1919 4750 
L 2350 4750 
L 2350 331 
L 3163 331 
L 3163 0 
L 909 0 
z
" transform="scale(0.015625)"/>
        <path id="DejaVuSerif-30" d="M 2034 219 
Q 2513 219 2750 744 
Q 2988 1269 2988 2328 
Q 2988 3391 2750 3916 
Q 2513 4441 2034 4441 
Q 1556 4441 1318 3916 
Q 1081 3391 1081 2328 
Q 1081 1269 1318 744 
Q 1556 219 2034 219 
z
M 2034 -91 
Q 1275 -91 848 546 
Q 422 1184 422 2328 
Q 422 3475 848 4112 
Q 1275 4750 2034 4750 
Q 2797 4750 3222 4112 
Q 3647 3475 3647 2328 
Q 3647 1184 3222 546 
Q 2797 -91 2034 -91 
z
" transform="scale(0.015625)"/>
       </defs>
       <use xlink:href="#DejaVuSerif-31"/>
       <use xlink:href="#DejaVuSerif-30" transform="translate(63.623047 0)"/>
      </g>
     </g>
    </g>
    <g id="xtick_4">
     <g id="line2d_7">
      <path d="M 134.126288 216.115 
L 134.126288 24 
" clip-path="url(#p78a78130e8)" style="fill: none; stroke-dasharray: 2.96,1.28; stroke-dashoffset: 0; stroke: #b0b0b0; stroke-opacity: 0.3; stroke-width: 0.8"/>
     </g>
     <g id="line2d_8">
      <g>
       <use xlink:href="#m2f98f9eb30" x="134.126288" y="216.115" style="stroke: #000000; stroke-width: 0.8"/>
      </g>
     </g>
     <g id="text_4">
      <!-- 12 -->
      <g transform="translate(129.672538 228.433906) scale(0.07 -0.07)">
       <defs>
        <path id="DejaVuSerif-32" d="M 819 3553 
L 469 3553 
L 469 4384 
Q 803 4563 1142 4656 
Q 1481 4750 1806 4750 
Q 2534 4750 2956 4397 
Q 3378 4044 3378 3438 
Q 3378 2753 2422 1800 
Q 2347 1728 2309 1691 
L 1131 513 
L 3078 513 
L 3078 1088 
L 3444 1088 
L 3444 0 
L 434 0 
L 434 341 
L 1850 1753 
Q 2319 2222 2519 2614 
Q 2719 3006 2719 3438 
Q 2719 3909 2473 4175 
Q 2228 4441 1797 4441 
Q 1350 4441 1106 4219 
Q 863 3997 819 3553 
z
" transform="scale(0.015625)"/>
       </defs>
       <use xlink:href="#DejaVuSerif-31"/>
       <use xlink:href="#DejaVuSerif-32" transform="translate(63.623047 0)"/>
      </g>
     </g>
    </g>
    <g id="xtick_5">
     <g id="line2d_9">
      <path d="M 158.271136 216.115 
L 158.271136 24 
" clip-path="url(#p78a78130e8)" style="fill: none; stroke-dasharray: 2.96,1.28; stroke-dashoffset: 0; stroke: #b0b0b0; stroke-opacity: 0.3; stroke-width: 0.8"/>
     </g>
     <g id="line2d_10">
      <g>
       <use xlink:href="#m2f98f9eb30" x="158.271136" y="216.115" style="stroke: #000000; stroke-width: 0.8"/>
      </g>
     </g>
     <g id="text_5">
      <!-- 14 -->
      <g transform="translate(153.817386 228.433906) scale(0.07 -0.07)">
       <defs>
        <path id="DejaVuSerif-34" d="M 2234 1581 
L 2234 4063 
L 641 1581 
L 2234 1581 
z
M 3609 0 
L 1484 0 
L 1484 331 
L 2234 331 
L 2234 1247 
L 197 1247 
L 197 1588 
L 2241 4750 
L 2859 4750 
L 2859 1581 
L 3750 1581 
L 3750 1247 
L 2859 1247 
L 2859 331 
L 3609 331 
L 3609 0 
z
" transform="scale(0.015625)"/>
       </defs>
       <use xlink:href="#DejaVuSerif-31"/>
       <use xlink:href="#DejaVuSerif-34" transform="translate(63.623047 0)"/>
      </g>
     </g>
    </g>
    <g id="xtick_6">
     <g id="line2d_11">
      <path d="M 182.415985 216.115 
L 182.415985 24 
" clip-path="url(#p78a78130e8)" style="fill: none; stroke-dasharray: 2.96,1.28; stroke-dashoffset: 0; stroke: #b0b0b0; stroke-opacity: 0.3; stroke-width: 0.8"/>
     </g>
     <g id="line2d_12">
      <g>
       <use xlink:href="#m2f98f9eb30" x="182.415985" y="216.115" style="stroke: #000000; stroke-width: 0.8"/>
      </g>
     </g>
     <g id="text_6">
      <!-- 16 -->
      <g transform="translate(177.962235 228.433906) scale(0.07 -0.07)">
       <use xlink:href="#DejaVuSerif-31"/>
       <use xlink:href="#DejaVuSerif-36" transform="translate(63.623047 0)"/>
      </g>
     </g>
    </g>
    <g id="xtick_7">
     <g id="line2d_13">
      <path d="M 206.560833 216.115 
L 206.560833 24 
" clip-path="url(#p78a78130e8)" style="fill: none; stroke-dasharray: 2.96,1.28; stroke-dashoffset: 0; stroke: #b0b0b0; stroke-opacity: 0.3; stroke-width: 0.8"/>
     </g>
     <g id="line2d_14">
      <g>
       <use xlink:href="#m2f98f9eb30" x="206.560833" y="216.115" style="stroke: #000000; stroke-width: 0.8"/>
      </g>
     </g>
     <g id="text_7">
      <!-- 18 -->
      <g transform="translate(202.107083 228.433906) scale(0.07 -0.07)">
       <use xlink:href="#DejaVuSerif-31"/>
       <use xlink:href="#DejaVuSerif-38" transform="translate(63.623047 0)"/>
      </g>
     </g>
    </g>
    <g id="xtick_8">
     <g id="line2d_15">
      <path d="M 230.705682 216.115 
L 230.705682 24 
" clip-path="url(#p78a78130e8)" style="fill: none; stroke-dasharray: 2.96,1.28; stroke-dashoffset: 0; stroke: #b0b0b0; stroke-opacity: 0.3; stroke-width: 0.8"/>
     </g>
     <g id="line2d_16">
      <g>
       <use xlink:href="#m2f98f9eb30" x="230.705682" y="216.115" style="stroke: #000000; stroke-width: 0.8"/>
      </g>
     </g>
     <g id="text_8">
      <!-- 20 -->
      <g transform="translate(226.251932 228.433906) scale(0.07 -0.07)">
       <use xlink:href="#DejaVuSerif-32"/>
       <use xlink:href="#DejaVuSerif-30" transform="translate(63.623047 0)"/>
      </g>
     </g>
    </g>
    <g id="text_9">
     <!-- Predicted Remaining Useful Life (Years) -->
     <g transform="translate(58.621875 239.968437) scale(0.08 -0.08)">
      <defs>
       <path id="DejaVuSerif-50" d="M 1581 2375 
L 2406 2375 
Q 2872 2375 3115 2626 
Q 3359 2878 3359 3353 
Q 3359 3831 3115 4081 
Q 2872 4331 2406 4331 
L 1581 4331 
L 1581 2375 
z
M 353 0 
L 353 331 
L 947 331 
L 947 4331 
L 353 4331 
L 353 4666 
L 2559 4666 
Q 3259 4666 3668 4311 
Q 4078 3956 4078 3353 
Q 4078 2753 3668 2397 
Q 3259 2041 2559 2041 
L 1581 2041 
L 1581 331 
L 2303 331 
L 2303 0 
L 353 0 
z
" transform="scale(0.015625)"/>
       <path id="DejaVuSerif-72" d="M 3059 3328 
L 3059 2497 
L 2728 2497 
Q 2713 2744 2591 2866 
Q 2469 2988 2234 2988 
Q 1809 2988 1582 2694 
Q 1356 2400 1356 1850 
L 1356 331 
L 2022 331 
L 2022 0 
L 263 0 
L 263 331 
L 781 331 
L 781 2994 
L 231 2994 
L 231 3322 
L 1356 3322 
L 1356 2731 
Q 1525 3078 1790 3245 
Q 2056 3413 2438 3413 
Q 2578 3413 2733 3391 
Q 2888 3369 3059 3328 
z
" transform="scale(0.015625)"/>
       <path id="DejaVuSerif-65" d="M 3469 1600 
L 991 1600 
L 991 1575 
Q 991 903 1244 561 
Q 1497 219 1991 219 
Q 2369 219 2611 417 
Q 2853 616 2950 1006 
L 3413 1006 
Q 3275 459 2904 184 
Q 2534 -91 1931 -91 
Q 1203 -91 761 389 
Q 319 869 319 1663 
Q 319 2450 753 2931 
Q 1188 3413 1894 3413 
Q 2647 3413 3050 2948 
Q 3453 2484 3469 1600 
z
M 2791 1931 
Q 2772 2513 2545 2808 
Q 2319 3103 1894 3103 
Q 1497 3103 1269 2806 
Q 1041 2509 991 1931 
L 2791 1931 
z
" transform="scale(0.015625)"/>
       <path id="DejaVuSerif-64" d="M 3359 331 
L 3909 331 
L 3909 0 
L 2784 0 
L 2784 519 
Q 2616 206 2355 57 
Q 2094 -91 1709 -91 
Q 1097 -91 708 395 
Q 319 881 319 1663 
Q 319 2444 706 2928 
Q 1094 3413 1709 3413 
Q 2094 3413 2355 3264 
Q 2616 3116 2784 2803 
L 2784 4531 
L 2241 4531 
L 2241 4863 
L 3359 4863 
L 3359 331 
z
M 2784 1497 
L 2784 1825 
Q 2784 2422 2554 2737 
Q 2325 3053 1888 3053 
Q 1444 3053 1217 2703 
Q 991 2353 991 1663 
Q 991 975 1217 622 
Q 1444 269 1888 269 
Q 2325 269 2554 583 
Q 2784 897 2784 1497 
z
" transform="scale(0.015625)"/>
       <path id="DejaVuSerif-69" d="M 622 4353 
Q 622 4497 726 4603 
Q 831 4709 978 4709 
Q 1122 4709 1226 4603 
Q 1331 4497 1331 4353 
Q 1331 4206 1228 4103 
Q 1125 4000 978 4000 
Q 831 4000 726 4103 
Q 622 4206 622 4353 
z
M 1356 331 
L 1900 331 
L 1900 0 
L 231 0 
L 231 331 
L 781 331 
L 781 2988 
L 231 2988 
L 231 3322 
L 1356 3322 
L 1356 331 
z
" transform="scale(0.015625)"/>
       <path id="DejaVuSerif-63" d="M 3291 997 
Q 3169 466 2822 187 
Q 2475 -91 1925 -91 
Q 1200 -91 759 389 
Q 319 869 319 1663 
Q 319 2459 759 2936 
Q 1200 3413 1925 3413 
Q 2241 3413 2553 3339 
Q 2866 3266 3181 3116 
L 3181 2266 
L 2847 2266 
Q 2781 2703 2561 2903 
Q 2341 3103 1931 3103 
Q 1466 3103 1228 2742 
Q 991 2381 991 1663 
Q 991 944 1227 581 
Q 1463 219 1931 219 
Q 2303 219 2525 412 
Q 2747 606 2828 997 
L 3291 997 
z
" transform="scale(0.015625)"/>
       <path id="DejaVuSerif-74" d="M 691 2988 
L 184 2988 
L 184 3322 
L 691 3322 
L 691 4353 
L 1269 4353 
L 1269 3322 
L 2350 3322 
L 2350 2988 
L 1269 2988 
L 1269 878 
Q 1269 456 1350 337 
Q 1431 219 1650 219 
Q 1875 219 1978 351 
Q 2081 484 2088 781 
L 2522 781 
Q 2497 328 2275 118 
Q 2053 -91 1600 -91 
Q 1103 -91 897 129 
Q 691 350 691 878 
L 691 2988 
z
" transform="scale(0.015625)"/>
       <path id="DejaVuSerif-20" transform="scale(0.015625)"/>
       <path id="DejaVuSerif-52" d="M 3066 2316 
Q 3284 2256 3442 2114 
Q 3600 1972 3725 1716 
L 4403 331 
L 4972 331 
L 4972 0 
L 3872 0 
L 3144 1484 
Q 2934 1916 2759 2042 
Q 2584 2169 2278 2169 
L 1581 2169 
L 1581 331 
L 2241 331 
L 2241 0 
L 353 0 
L 353 331 
L 947 331 
L 947 4331 
L 353 4331 
L 353 4666 
L 2719 4666 
Q 3400 4666 3770 4341 
Q 4141 4016 4141 3419 
Q 4141 2938 3870 2661 
Q 3600 2384 3066 2316 
z
M 1581 2503 
L 2503 2503 
Q 2975 2503 3200 2726 
Q 3425 2950 3425 3419 
Q 3425 3888 3200 4109 
Q 2975 4331 2503 4331 
L 1581 4331 
L 1581 2503 
z
" transform="scale(0.015625)"/>
       <path id="DejaVuSerif-6d" d="M 3316 2675 
Q 3481 3041 3739 3227 
Q 3997 3413 4341 3413 
Q 4863 3413 5119 3089 
Q 5375 2766 5375 2113 
L 5375 331 
L 5894 331 
L 5894 0 
L 4300 0 
L 4300 331 
L 4800 331 
L 4800 2047 
Q 4800 2556 4650 2772 
Q 4500 2988 4153 2988 
Q 3769 2988 3567 2697 
Q 3366 2406 3366 1850 
L 3366 331 
L 3866 331 
L 3866 0 
L 2291 0 
L 2291 331 
L 2791 331 
L 2791 2069 
Q 2791 2566 2641 2777 
Q 2491 2988 2144 2988 
Q 1759 2988 1557 2697 
Q 1356 2406 1356 1850 
L 1356 331 
L 1856 331 
L 1856 0 
L 263 0 
L 263 331 
L 781 331 
L 781 2994 
L 231 2994 
L 231 3322 
L 1356 3322 
L 1356 2731 
Q 1516 3063 1762 3238 
Q 2009 3413 2322 3413 
Q 2709 3413 2968 3220 
Q 3228 3028 3316 2675 
z
" transform="scale(0.015625)"/>
       <path id="DejaVuSerif-61" d="M 2547 1044 
L 2547 1747 
L 1806 1747 
Q 1378 1747 1168 1562 
Q 959 1378 959 997 
Q 959 650 1171 447 
Q 1384 244 1747 244 
Q 2106 244 2326 466 
Q 2547 688 2547 1044 
z
M 3122 2075 
L 3122 331 
L 3634 331 
L 3634 0 
L 2547 0 
L 2547 359 
Q 2356 128 2106 18 
Q 1856 -91 1522 -91 
Q 969 -91 644 203 
Q 319 497 319 997 
Q 319 1513 691 1797 
Q 1063 2081 1741 2081 
L 2547 2081 
L 2547 2309 
Q 2547 2688 2317 2895 
Q 2088 3103 1672 3103 
Q 1328 3103 1125 2947 
Q 922 2791 872 2484 
L 575 2484 
L 575 3156 
Q 875 3284 1158 3348 
Q 1441 3413 1709 3413 
Q 2400 3413 2761 3070 
Q 3122 2728 3122 2075 
z
" transform="scale(0.015625)"/>
       <path id="DejaVuSerif-6e" d="M 263 0 
L 263 331 
L 781 331 
L 781 2988 
L 231 2988 
L 231 3322 
L 1356 3322 
L 1356 2731 
Q 1516 3069 1770 3241 
Q 2025 3413 2363 3413 
Q 2913 3413 3172 3097 
Q 3431 2781 3431 2113 
L 3431 331 
L 3944 331 
L 3944 0 
L 2356 0 
L 2356 331 
L 2853 331 
L 2853 1931 
Q 2853 2541 2703 2767 
Q 2553 2994 2175 2994 
Q 1775 2994 1565 2701 
Q 1356 2409 1356 1850 
L 1356 331 
L 1856 331 
L 1856 0 
L 263 0 
z
" transform="scale(0.015625)"/>
       <path id="DejaVuSerif-67" d="M 3359 2988 
L 3359 72 
Q 3359 -644 2965 -1033 
Q 2572 -1422 1844 -1422 
Q 1516 -1422 1216 -1362 
Q 916 -1303 641 -1184 
L 641 -488 
L 941 -488 
Q 997 -813 1206 -963 
Q 1416 -1113 1806 -1113 
Q 2313 -1113 2548 -827 
Q 2784 -541 2784 72 
L 2784 519 
Q 2616 206 2355 57 
Q 2094 -91 1709 -91 
Q 1097 -91 708 395 
Q 319 881 319 1663 
Q 319 2444 706 2928 
Q 1094 3413 1709 3413 
Q 2094 3413 2355 3264 
Q 2616 3116 2784 2803 
L 2784 3322 
L 3909 3322 
L 3909 2988 
L 3359 2988 
z
M 2784 1825 
Q 2784 2422 2554 2737 
Q 2325 3053 1888 3053 
Q 1444 3053 1217 2703 
Q 991 2353 991 1663 
Q 991 975 1217 622 
Q 1444 269 1888 269 
Q 2325 269 2554 583 
Q 2784 897 2784 1497 
L 2784 1825 
z
" transform="scale(0.015625)"/>
       <path id="DejaVuSerif-55" d="M 897 4331 
L 300 4331 
L 300 4666 
L 2125 4666 
L 2125 4331 
L 1528 4331 
L 1528 1919 
Q 1528 1025 1820 672 
Q 2113 319 2828 319 
Q 3544 319 3836 672 
Q 4128 1025 4128 1919 
L 4128 4331 
L 3531 4331 
L 3531 4666 
L 5106 4666 
L 5106 4331 
L 4513 4331 
L 4513 1856 
Q 4513 791 4103 350 
Q 3694 -91 2713 -91 
Q 1731 -91 1314 353 
Q 897 797 897 1856 
L 897 4331 
z
" transform="scale(0.015625)"/>
       <path id="DejaVuSerif-73" d="M 359 184 
L 359 959 
L 691 959 
Q 703 588 923 403 
Q 1144 219 1575 219 
Q 1963 219 2166 364 
Q 2369 509 2369 788 
Q 2369 1006 2220 1140 
Q 2072 1275 1594 1428 
L 1178 1569 
Q 750 1706 558 1912 
Q 366 2119 366 2438 
Q 366 2894 700 3153 
Q 1034 3413 1625 3413 
Q 1888 3413 2178 3344 
Q 2469 3275 2778 3144 
L 2778 2419 
L 2447 2419 
Q 2434 2741 2221 2922 
Q 2009 3103 1644 3103 
Q 1281 3103 1095 2975 
Q 909 2847 909 2591 
Q 909 2381 1050 2254 
Q 1191 2128 1613 1997 
L 2069 1856 
Q 2541 1709 2748 1489 
Q 2956 1269 2956 922 
Q 2956 450 2595 179 
Q 2234 -91 1600 -91 
Q 1278 -91 972 -22 
Q 666 47 359 184 
z
" transform="scale(0.015625)"/>
       <path id="DejaVuSerif-66" d="M 2753 4078 
L 2450 4078 
Q 2447 4313 2317 4434 
Q 2188 4556 1941 4556 
Q 1619 4556 1487 4379 
Q 1356 4203 1356 3750 
L 1356 3322 
L 2284 3322 
L 2284 2988 
L 1356 2988 
L 1356 331 
L 2094 331 
L 2094 0 
L 231 0 
L 231 331 
L 781 331 
L 781 2988 
L 231 2988 
L 231 3322 
L 781 3322 
L 781 3738 
Q 781 4294 1070 4578 
Q 1359 4863 1919 4863 
Q 2128 4863 2337 4825 
Q 2547 4788 2753 4709 
L 2753 4078 
z
" transform="scale(0.015625)"/>
       <path id="DejaVuSerif-75" d="M 2266 3322 
L 3341 3322 
L 3341 331 
L 3884 331 
L 3884 0 
L 2766 0 
L 2766 588 
Q 2606 256 2353 82 
Q 2100 -91 1766 -91 
Q 1213 -91 952 223 
Q 691 538 691 1209 
L 691 2988 
L 172 2988 
L 172 3322 
L 1269 3322 
L 1269 1388 
Q 1269 781 1417 556 
Q 1566 331 1947 331 
Q 2347 331 2556 625 
Q 2766 919 2766 1478 
L 2766 2988 
L 2266 2988 
L 2266 3322 
z
" transform="scale(0.015625)"/>
       <path id="DejaVuSerif-6c" d="M 1313 331 
L 1856 331 
L 1856 0 
L 184 0 
L 184 331 
L 738 331 
L 738 4531 
L 184 4531 
L 184 4863 
L 1313 4863 
L 1313 331 
z
" transform="scale(0.015625)"/>
       <path id="DejaVuSerif-4c" d="M 353 0 
L 353 331 
L 947 331 
L 947 4331 
L 353 4331 
L 353 4666 
L 2175 4666 
L 2175 4331 
L 1581 4331 
L 1581 384 
L 3713 384 
L 3713 1166 
L 4097 1166 
L 4097 0 
L 353 0 
z
" transform="scale(0.015625)"/>
       <path id="DejaVuSerif-28" d="M 2041 -997 
Q 1281 -656 893 83 
Q 506 822 506 1931 
Q 506 3044 893 3783 
Q 1281 4522 2041 4863 
L 2041 4556 
Q 1559 4225 1350 3623 
Q 1141 3022 1141 1931 
Q 1141 844 1350 242 
Q 1559 -359 2041 -691 
L 2041 -997 
z
" transform="scale(0.015625)"/>
       <path id="DejaVuSerif-59" d="M 1209 0 
L 1209 331 
L 1806 331 
L 1806 2009 
L 366 4331 
L -72 4331 
L -72 4666 
L 1663 4666 
L 1663 4331 
L 1119 4331 
L 2284 2444 
L 3450 4331 
L 2925 4331 
L 2925 4666 
L 4281 4666 
L 4281 4331 
L 3841 4331 
L 2438 2069 
L 2438 331 
L 3034 331 
L 3034 0 
L 1209 0 
z
" transform="scale(0.015625)"/>
       <path id="DejaVuSerif-29" d="M 453 -997 
L 453 -691 
Q 934 -359 1145 242 
Q 1356 844 1356 1931 
Q 1356 3022 1145 3623 
Q 934 4225 453 4556 
L 453 4863 
Q 1216 4522 1603 3783 
Q 1991 3044 1991 1931 
Q 1991 822 1603 83 
Q 1216 -656 453 -997 
z
" transform="scale(0.015625)"/>
      </defs>
      <use xlink:href="#DejaVuSerif-50"/>
      <use xlink:href="#DejaVuSerif-72" transform="translate(67.285156 0)"/>
      <use xlink:href="#DejaVuSerif-65" transform="translate(115.087891 0)"/>
      <use xlink:href="#DejaVuSerif-64" transform="translate(174.267578 0)"/>
      <use xlink:href="#DejaVuSerif-69" transform="translate(238.28125 0)"/>
      <use xlink:href="#DejaVuSerif-63" transform="translate(270.263672 0)"/>
      <use xlink:href="#DejaVuSerif-74" transform="translate(326.269531 0)"/>
      <use xlink:href="#DejaVuSerif-65" transform="translate(366.455078 0)"/>
      <use xlink:href="#DejaVuSerif-64" transform="translate(425.634766 0)"/>
      <use xlink:href="#DejaVuSerif-20" transform="translate(489.648438 0)"/>
      <use xlink:href="#DejaVuSerif-52" transform="translate(521.435547 0)"/>
      <use xlink:href="#DejaVuSerif-65" transform="translate(596.728516 0)"/>
      <use xlink:href="#DejaVuSerif-6d" transform="translate(655.908203 0)"/>
      <use xlink:href="#DejaVuSerif-61" transform="translate(750.732422 0)"/>
      <use xlink:href="#DejaVuSerif-69" transform="translate(810.351562 0)"/>
      <use xlink:href="#DejaVuSerif-6e" transform="translate(842.333984 0)"/>
      <use xlink:href="#DejaVuSerif-69" transform="translate(906.738281 0)"/>
      <use xlink:href="#DejaVuSerif-6e" transform="translate(938.720703 0)"/>
      <use xlink:href="#DejaVuSerif-67" transform="translate(1003.125 0)"/>
      <use xlink:href="#DejaVuSerif-20" transform="translate(1067.138672 0)"/>
      <use xlink:href="#DejaVuSerif-55" transform="translate(1098.925781 0)"/>
      <use xlink:href="#DejaVuSerif-73" transform="translate(1183.203125 0)"/>
      <use xlink:href="#DejaVuSerif-65" transform="translate(1234.521484 0)"/>
      <use xlink:href="#DejaVuSerif-66" transform="translate(1293.701172 0)"/>
      <use xlink:href="#DejaVuSerif-75" transform="translate(1330.712891 0)"/>
      <use xlink:href="#DejaVuSerif-6c" transform="translate(1395.117188 0)"/>
      <use xlink:href="#DejaVuSerif-20" transform="translate(1427.099609 0)"/>
      <use xlink:href="#DejaVuSerif-4c" transform="translate(1458.886719 0)"/>
      <use xlink:href="#DejaVuSerif-69" transform="translate(1525.292969 0)"/>
      <use xlink:href="#DejaVuSerif-66" transform="translate(1557.275391 0)"/>
      <use xlink:href="#DejaVuSerif-65" transform="translate(1594.287109 0)"/>
      <use xlink:href="#DejaVuSerif-20" transform="translate(1653.466797 0)"/>
      <use xlink:href="#DejaVuSerif-28" transform="translate(1685.253906 0)"/>
      <use xlink:href="#DejaVuSerif-59" transform="translate(1724.267578 0)"/>
      <use xlink:href="#DejaVuSerif-65" transform="translate(1781.533203 0)"/>
      <use xlink:href="#DejaVuSerif-61" transform="translate(1840.712891 0)"/>
      <use xlink:href="#DejaVuSerif-72" transform="translate(1900.332031 0)"/>
      <use xlink:href="#DejaVuSerif-73" transform="translate(1948.134766 0)"/>
      <use xlink:href="#DejaVuSerif-29" transform="translate(1999.453125 0)"/>
     </g>
    </g>
   </g>
   <g id="matplotlib.axis_2">
    <g id="ytick_1">
     <g id="line2d_17">
      <path d="M 40.565 216.115 
L 239.76 216.115 
" clip-path="url(#p78a78130e8)" style="fill: none; stroke-dasharray: 2.96,1.28; stroke-dashoffset: 0; stroke: #b0b0b0; stroke-opacity: 0.3; stroke-width: 0.8"/>
     </g>
     <g id="line2d_18">
      <defs>
       <path id="m897950a5a7" d="M 0 0 
L -3.5 0 
" style="stroke: #000000; stroke-width: 0.8"/>
      </defs>
      <g>
       <use xlink:href="#m897950a5a7" x="40.565" y="216.115" style="stroke: #000000; stroke-width: 0.8"/>
      </g>
     </g>
     <g id="text_10">
      <!-- 0.0 -->
      <g transform="translate(22.432813 218.774453) scale(0.07 -0.07)">
       <defs>
        <path id="DejaVuSerif-2e" d="M 603 325 
Q 603 500 722 622 
Q 841 744 1019 744 
Q 1191 744 1312 622 
Q 1434 500 1434 325 
Q 1434 153 1312 31 
Q 1191 -91 1019 -91 
Q 841 -91 722 29 
Q 603 150 603 325 
z
" transform="scale(0.015625)"/>
       </defs>
       <use xlink:href="#DejaVuSerif-30"/>
       <use xlink:href="#DejaVuSerif-2e" transform="translate(63.623047 0)"/>
       <use xlink:href="#DejaVuSerif-30" transform="translate(95.410156 0)"/>
      </g>
     </g>
    </g>
    <g id="ytick_2">
     <g id="line2d_19">
      <path d="M 40.565 192.100625 
L 239.76 192.100625 
" clip-path="url(#p78a78130e8)" style="fill: none; stroke-dasharray: 2.96,1.28; stroke-dashoffset: 0; stroke: #b0b0b0; stroke-opacity: 0.3; stroke-width: 0.8"/>
     </g>
     <g id="line2d_20">
      <g>
       <use xlink:href="#m897950a5a7" x="40.565" y="192.100625" style="stroke: #000000; stroke-width: 0.8"/>
      </g>
     </g>
     <g id="text_11">
      <!-- 0.1 -->
      <g transform="translate(22.432813 194.760078) scale(0.07 -0.07)">
       <use xlink:href="#DejaVuSerif-30"/>
       <use xlink:href="#DejaVuSerif-2e" transform="translate(63.623047 0)"/>
       <use xlink:href="#DejaVuSerif-31" transform="translate(95.410156 0)"/>
      </g>
     </g>
    </g>
    <g id="ytick_3">
     <g id="line2d_21">
      <path d="M 40.565 168.08625 
L 239.76 168.08625 
" clip-path="url(#p78a78130e8)" style="fill: none; stroke-dasharray: 2.96,1.28; stroke-dashoffset: 0; stroke: #b0b0b0; stroke-opacity: 0.3; stroke-width: 0.8"/>
     </g>
     <g id="line2d_22">
      <g>
       <use xlink:href="#m897950a5a7" x="40.565" y="168.08625" style="stroke: #000000; stroke-width: 0.8"/>
      </g>
     </g>
     <g id="text_12">
      <!-- 0.2 -->
      <g transform="translate(22.432813 170.745703) scale(0.07 -0.07)">
       <use xlink:href="#DejaVuSerif-30"/>
       <use xlink:href="#DejaVuSerif-2e" transform="translate(63.623047 0)"/>
       <use xlink:href="#DejaVuSerif-32" transform="translate(95.410156 0)"/>
      </g>
     </g>
    </g>
    <g id="ytick_4">
     <g id="line2d_23">
      <path d="M 40.565 144.071875 
L 239.76 144.071875 
" clip-path="url(#p78a78130e8)" style="fill: none; stroke-dasharray: 2.96,1.28; stroke-dashoffset: 0; stroke: #b0b0b0; stroke-opacity: 0.3; stroke-width: 0.8"/>
     </g>
     <g id="line2d_24">
      <g>
       <use xlink:href="#m897950a5a7" x="40.565" y="144.071875" style="stroke: #000000; stroke-width: 0.8"/>
      </g>
     </g>
     <g id="text_13">
      <!-- 0.3 -->
      <g transform="translate(22.432813 146.731328) scale(0.07 -0.07)">
       <defs>
        <path id="DejaVuSerif-33" d="M 622 4469 
Q 988 4606 1323 4678 
Q 1659 4750 1953 4750 
Q 2638 4750 3022 4454 
Q 3406 4159 3406 3634 
Q 3406 3213 3140 2930 
Q 2875 2647 2388 2547 
Q 2963 2466 3280 2130 
Q 3597 1794 3597 1259 
Q 3597 606 3158 257 
Q 2719 -91 1894 -91 
Q 1528 -91 1179 -12 
Q 831 66 488 225 
L 488 1131 
L 838 1131 
Q 869 681 1141 450 
Q 1413 219 1906 219 
Q 2384 219 2661 495 
Q 2938 772 2938 1253 
Q 2938 1803 2653 2086 
Q 2369 2369 1819 2369 
L 1522 2369 
L 1522 2688 
L 1678 2688 
Q 2225 2688 2498 2914 
Q 2772 3141 2772 3597 
Q 2772 4006 2547 4223 
Q 2322 4441 1900 4441 
Q 1478 4441 1245 4241 
Q 1013 4041 972 3647 
L 622 3647 
L 622 4469 
z
" transform="scale(0.015625)"/>
       </defs>
       <use xlink:href="#DejaVuSerif-30"/>
       <use xlink:href="#DejaVuSerif-2e" transform="translate(63.623047 0)"/>
       <use xlink:href="#DejaVuSerif-33" transform="translate(95.410156 0)"/>
      </g>
     </g>
    </g>
    <g id="ytick_5">
     <g id="line2d_25">
      <path d="M 40.565 120.0575 
L 239.76 120.0575 
" clip-path="url(#p78a78130e8)" style="fill: none; stroke-dasharray: 2.96,1.28; stroke-dashoffset: 0; stroke: #b0b0b0; stroke-opacity: 0.3; stroke-width: 0.8"/>
     </g>
     <g id="line2d_26">
      <g>
       <use xlink:href="#m897950a5a7" x="40.565" y="120.0575" style="stroke: #000000; stroke-width: 0.8"/>
      </g>
     </g>
     <g id="text_14">
      <!-- 0.4 -->
      <g transform="translate(22.432813 122.716953) scale(0.07 -0.07)">
       <use xlink:href="#DejaVuSerif-30"/>
       <use xlink:href="#DejaVuSerif-2e" transform="translate(63.623047 0)"/>
       <use xlink:href="#DejaVuSerif-34" transform="translate(95.410156 0)"/>
      </g>
     </g>
    </g>
    <g id="ytick_6">
     <g id="line2d_27">
      <path d="M 40.565 96.043125 
L 239.76 96.043125 
" clip-path="url(#p78a78130e8)" style="fill: none; stroke-dasharray: 2.96,1.28; stroke-dashoffset: 0; stroke: #b0b0b0; stroke-opacity: 0.3; stroke-width: 0.8"/>
     </g>
     <g id="line2d_28">
      <g>
       <use xlink:href="#m897950a5a7" x="40.565" y="96.043125" style="stroke: #000000; stroke-width: 0.8"/>
      </g>
     </g>
     <g id="text_15">
      <!-- 0.5 -->
      <g transform="translate(22.432813 98.702578) scale(0.07 -0.07)">
       <defs>
        <path id="DejaVuSerif-35" d="M 3219 4666 
L 3219 4153 
L 1081 4153 
L 1081 2816 
Q 1244 2928 1461 2984 
Q 1678 3041 1947 3041 
Q 2703 3041 3140 2622 
Q 3578 2203 3578 1478 
Q 3578 738 3136 323 
Q 2694 -91 1894 -91 
Q 1572 -91 1234 -12 
Q 897 66 544 225 
L 544 1131 
L 897 1131 
Q 925 688 1179 453 
Q 1434 219 1894 219 
Q 2388 219 2653 544 
Q 2919 869 2919 1478 
Q 2919 2084 2655 2407 
Q 2391 2731 1894 2731 
Q 1613 2731 1398 2631 
Q 1184 2531 1019 2322 
L 750 2322 
L 750 4666 
L 3219 4666 
z
" transform="scale(0.015625)"/>
       </defs>
       <use xlink:href="#DejaVuSerif-30"/>
       <use xlink:href="#DejaVuSerif-2e" transform="translate(63.623047 0)"/>
       <use xlink:href="#DejaVuSerif-35" transform="translate(95.410156 0)"/>
      </g>
     </g>
    </g>
    <g id="ytick_7">
     <g id="line2d_29">
      <path d="M 40.565 72.02875 
L 239.76 72.02875 
" clip-path="url(#p78a78130e8)" style="fill: none; stroke-dasharray: 2.96,1.28; stroke-dashoffset: 0; stroke: #b0b0b0; stroke-opacity: 0.3; stroke-width: 0.8"/>
     </g>
     <g id="line2d_30">
      <g>
       <use xlink:href="#m897950a5a7" x="40.565" y="72.02875" style="stroke: #000000; stroke-width: 0.8"/>
      </g>
     </g>
     <g id="text_16">
      <!-- 0.6 -->
      <g transform="translate(22.432813 74.688203) scale(0.07 -0.07)">
       <use xlink:href="#DejaVuSerif-30"/>
       <use xlink:href="#DejaVuSerif-2e" transform="translate(63.623047 0)"/>
       <use xlink:href="#DejaVuSerif-36" transform="translate(95.410156 0)"/>
      </g>
     </g>
    </g>
    <g id="ytick_8">
     <g id="line2d_31">
      <path d="M 40.565 48.014375 
L 239.76 48.014375 
" clip-path="url(#p78a78130e8)" style="fill: none; stroke-dasharray: 2.96,1.28; stroke-dashoffset: 0; stroke: #b0b0b0; stroke-opacity: 0.3; stroke-width: 0.8"/>
     </g>
     <g id="line2d_32">
      <g>
       <use xlink:href="#m897950a5a7" x="40.565" y="48.014375" style="stroke: #000000; stroke-width: 0.8"/>
      </g>
     </g>
     <g id="text_17">
      <!-- 0.7 -->
      <g transform="translate(22.432813 50.673828) scale(0.07 -0.07)">
       <defs>
        <path id="DejaVuSerif-37" d="M 3609 4347 
L 1784 0 
L 1319 0 
L 3059 4153 
L 903 4153 
L 903 3578 
L 538 3578 
L 538 4666 
L 3609 4666 
L 3609 4347 
z
" transform="scale(0.015625)"/>
       </defs>
       <use xlink:href="#DejaVuSerif-30"/>
       <use xlink:href="#DejaVuSerif-2e" transform="translate(63.623047 0)"/>
       <use xlink:href="#DejaVuSerif-37" transform="translate(95.410156 0)"/>
      </g>
     </g>
    </g>
    <g id="ytick_9">
     <g id="line2d_33">
      <path d="M 40.565 24 
L 239.76 24 
" clip-path="url(#p78a78130e8)" style="fill: none; stroke-dasharray: 2.96,1.28; stroke-dashoffset: 0; stroke: #b0b0b0; stroke-opacity: 0.3; stroke-width: 0.8"/>
     </g>
     <g id="line2d_34">
      <g>
       <use xlink:href="#m897950a5a7" x="40.565" y="24" style="stroke: #000000; stroke-width: 0.8"/>
      </g>
     </g>
     <g id="text_18">
      <!-- 0.8 -->
      <g transform="translate(22.432813 26.659453) scale(0.07 -0.07)">
       <use xlink:href="#DejaVuSerif-30"/>
       <use xlink:href="#DejaVuSerif-2e" transform="translate(63.623047 0)"/>
       <use xlink:href="#DejaVuSerif-38" transform="translate(95.410156 0)"/>
      </g>
     </g>
    </g>
    <g id="text_19">
     <!-- Probability Density Function (PDF) -->
     <g transform="translate(16.655313 191.27875) rotate(-90) scale(0.08 -0.08)">
      <defs>
       <path id="DejaVuSerif-6f" d="M 1925 219 
Q 2388 219 2623 584 
Q 2859 950 2859 1663 
Q 2859 2375 2623 2739 
Q 2388 3103 1925 3103 
Q 1463 3103 1227 2739 
Q 991 2375 991 1663 
Q 991 950 1228 584 
Q 1466 219 1925 219 
z
M 1925 -91 
Q 1200 -91 759 389 
Q 319 869 319 1663 
Q 319 2456 758 2934 
Q 1197 3413 1925 3413 
Q 2653 3413 3092 2934 
Q 3531 2456 3531 1663 
Q 3531 869 3092 389 
Q 2653 -91 1925 -91 
z
" transform="scale(0.015625)"/>
       <path id="DejaVuSerif-62" d="M 738 331 
L 738 4531 
L 184 4531 
L 184 4863 
L 1313 4863 
L 1313 2803 
Q 1481 3116 1742 3264 
Q 2003 3413 2388 3413 
Q 3000 3413 3387 2928 
Q 3775 2444 3775 1663 
Q 3775 881 3387 395 
Q 3000 -91 2388 -91 
Q 2003 -91 1742 57 
Q 1481 206 1313 519 
L 1313 0 
L 184 0 
L 184 331 
L 738 331 
z
M 1313 1497 
Q 1313 897 1542 583 
Q 1772 269 2209 269 
Q 2650 269 2876 622 
Q 3103 975 3103 1663 
Q 3103 2353 2876 2703 
Q 2650 3053 2209 3053 
Q 1772 3053 1542 2737 
Q 1313 2422 1313 1825 
L 1313 1497 
z
" transform="scale(0.015625)"/>
       <path id="DejaVuSerif-79" d="M 1381 -609 
L 1600 -56 
L 359 2988 
L -19 2988 
L -19 3322 
L 1509 3322 
L 1509 2988 
L 978 2988 
L 1913 703 
L 2847 2988 
L 2350 2988 
L 2350 3322 
L 3597 3322 
L 3597 2988 
L 3225 2988 
L 1703 -750 
Q 1547 -1138 1356 -1280 
Q 1166 -1422 819 -1422 
Q 672 -1422 517 -1397 
Q 363 -1372 206 -1325 
L 206 -691 
L 500 -691 
Q 519 -903 608 -995 
Q 697 -1088 884 -1088 
Q 1056 -1088 1161 -992 
Q 1266 -897 1381 -609 
z
" transform="scale(0.015625)"/>
       <path id="DejaVuSerif-44" d="M 1581 331 
L 2163 331 
Q 3072 331 3558 850 
Q 4044 1369 4044 2338 
Q 4044 3306 3559 3818 
Q 3075 4331 2163 4331 
L 1581 4331 
L 1581 331 
z
M 353 0 
L 353 331 
L 947 331 
L 947 4331 
L 353 4331 
L 353 4666 
L 2209 4666 
Q 3416 4666 4089 4050 
Q 4763 3434 4763 2338 
Q 4763 1238 4088 619 
Q 3413 0 2209 0 
L 353 0 
z
" transform="scale(0.015625)"/>
       <path id="DejaVuSerif-46" d="M 353 0 
L 353 331 
L 947 331 
L 947 4331 
L 353 4331 
L 353 4666 
L 4172 4666 
L 4172 3628 
L 3788 3628 
L 3788 4281 
L 1581 4281 
L 1581 2719 
L 3175 2719 
L 3175 3303 
L 3559 3303 
L 3559 1753 
L 3175 1753 
L 3175 2338 
L 1581 2338 
L 1581 331 
L 2328 331 
L 2328 0 
L 353 0 
z
" transform="scale(0.015625)"/>
      </defs>
      <use xlink:href="#DejaVuSerif-50"/>
      <use xlink:href="#DejaVuSerif-72" transform="translate(67.285156 0)"/>
      <use xlink:href="#DejaVuSerif-6f" transform="translate(115.087891 0)"/>
      <use xlink:href="#DejaVuSerif-62" transform="translate(175.292969 0)"/>
      <use xlink:href="#DejaVuSerif-61" transform="translate(239.306641 0)"/>
      <use xlink:href="#DejaVuSerif-62" transform="translate(298.925781 0)"/>
      <use xlink:href="#DejaVuSerif-69" transform="translate(362.939453 0)"/>
      <use xlink:href="#DejaVuSerif-6c" transform="translate(394.921875 0)"/>
      <use xlink:href="#DejaVuSerif-69" transform="translate(426.904297 0)"/>
      <use xlink:href="#DejaVuSerif-74" transform="translate(458.886719 0)"/>
      <use xlink:href="#DejaVuSerif-79" transform="translate(499.072266 0)"/>
      <use xlink:href="#DejaVuSerif-20" transform="translate(555.566406 0)"/>
      <use xlink:href="#DejaVuSerif-44" transform="translate(587.353516 0)"/>
      <use xlink:href="#DejaVuSerif-65" transform="translate(667.529297 0)"/>
      <use xlink:href="#DejaVuSerif-6e" transform="translate(726.708984 0)"/>
      <use xlink:href="#DejaVuSerif-73" transform="translate(791.113281 0)"/>
      <use xlink:href="#DejaVuSerif-69" transform="translate(842.431641 0)"/>
      <use xlink:href="#DejaVuSerif-74" transform="translate(874.414062 0)"/>
      <use xlink:href="#DejaVuSerif-79" transform="translate(914.599609 0)"/>
      <use xlink:href="#DejaVuSerif-20" transform="translate(971.09375 0)"/>
      <use xlink:href="#DejaVuSerif-46" transform="translate(1002.880859 0)"/>
      <use xlink:href="#DejaVuSerif-75" transform="translate(1072.265625 0)"/>
      <use xlink:href="#DejaVuSerif-6e" transform="translate(1136.669922 0)"/>
      <use xlink:href="#DejaVuSerif-63" transform="translate(1201.074219 0)"/>
      <use xlink:href="#DejaVuSerif-74" transform="translate(1257.080078 0)"/>
      <use xlink:href="#DejaVuSerif-69" transform="translate(1297.265625 0)"/>
      <use xlink:href="#DejaVuSerif-6f" transform="translate(1329.248047 0)"/>
      <use xlink:href="#DejaVuSerif-6e" transform="translate(1389.453125 0)"/>
      <use xlink:href="#DejaVuSerif-20" transform="translate(1453.857422 0)"/>
      <use xlink:href="#DejaVuSerif-28" transform="translate(1485.644531 0)"/>
      <use xlink:href="#DejaVuSerif-50" transform="translate(1524.658203 0)"/>
      <use xlink:href="#DejaVuSerif-44" transform="translate(1591.943359 0)"/>
      <use xlink:href="#DejaVuSerif-46" transform="translate(1672.119141 0)"/>
      <use xlink:href="#DejaVuSerif-29" transform="translate(1741.503906 0)"/>
     </g>
    </g>
   </g>
   <g id="line2d_35">
    <path d="M 49.619318 215.11158 
L 57.603086 214.512712 
L 64.498158 213.782596 
L 71.030331 212.866993 
L 77.199606 211.770799 
L 83.005982 210.513342 
L 88.812359 209.027025 
L 94.618735 207.314106 
L 100.78801 205.265226 
L 108.045981 202.60978 
L 121.110327 197.521731 
L 129.094095 194.548858 
L 134.900471 192.625043 
L 139.618152 191.283941 
L 143.972935 190.265741 
L 147.964818 189.544845 
L 151.956702 189.046525 
L 155.948586 188.783893 
L 159.94047 188.763927 
L 163.932353 188.987158 
L 167.924237 189.447651 
L 171.916121 190.133265 
L 176.270903 191.116886 
L 180.988584 192.426156 
L 186.069163 194.069061 
L 192.238438 196.300503 
L 202.762495 200.391277 
L 212.923654 204.256588 
L 219.818726 206.640023 
L 225.988001 208.536475 
L 230.705682 209.817527 
L 230.705682 209.817527 
" clip-path="url(#p78a78130e8)" style="fill: none; stroke-dasharray: 2,3.3; stroke-dashoffset: 0; stroke: #7f7f7f; stroke-width: 2"/>
   </g>
   <g id="line2d_36">
    <path d="M 49.619318 216.10596 
L 65.586853 215.96756 
L 72.481925 215.698445 
L 77.199606 215.314989 
L 81.19149 214.775544 
L 84.457577 214.123579 
L 87.360765 213.335132 
L 90.263953 212.30317 
L 92.804243 211.163402 
L 95.344532 209.770137 
L 97.884822 208.095188 
L 100.425112 206.115664 
L 102.965401 203.816753 
L 105.505691 201.194605 
L 108.045981 198.25907 
L 110.949169 194.554416 
L 114.215256 190.022991 
L 119.658733 182.012672 
L 124.013516 175.733396 
L 126.916704 171.91453 
L 129.094095 169.366005 
L 131.271486 167.164481 
L 133.085979 165.639498 
L 134.900471 164.428638 
L 136.352065 163.702843 
L 137.80366 163.203489 
L 139.255254 162.937203 
L 140.706848 162.907533 
L 142.158442 163.114876 
L 143.610036 163.556465 
L 145.06163 164.226434 
L 146.513224 165.115944 
L 148.327717 166.518617 
L 150.142209 168.217832 
L 152.319601 170.60104 
L 154.85989 173.772724 
L 157.763078 177.774745 
L 162.843658 185.244498 
L 167.924237 192.58117 
L 171.190324 196.910847 
L 174.093512 200.387045 
L 176.633802 203.100399 
L 179.174091 205.491821 
L 181.714381 207.561513 
L 184.254671 209.321447 
L 186.79496 210.792499 
L 189.33525 212.001612 
L 191.87554 212.979198 
L 194.778728 213.853512 
L 198.044815 214.582396 
L 201.6738 215.146309 
L 206.028582 215.576602 
L 211.47206 215.870812 
L 219.092929 216.042354 
L 230.705682 216.10596 
L 230.705682 216.10596 
" clip-path="url(#p78a78130e8)" style="fill: none; stroke-dasharray: 7.4,3.2; stroke-dashoffset: 0; stroke: #1f77b4; stroke-width: 2"/>
   </g>
   <g id="line2d_37">
    <path d="M 49.619318 216.115 
L 97.521923 216.012657 
L 100.425112 215.788742 
L 102.239604 215.475886 
L 103.691198 215.051754 
L 105.142792 214.391041 
L 106.231488 213.679314 
L 107.320184 212.72315 
L 108.408879 211.459427 
L 109.497575 209.816593 
L 110.58627 207.716352 
L 111.674966 205.076525 
L 112.763661 201.815203 
L 113.852357 197.856222 
L 114.941053 193.135815 
L 116.392647 185.585623 
L 117.844241 176.583917 
L 119.295835 166.226902 
L 121.473226 148.715833 
L 125.828008 112.690717 
L 127.279602 102.800168 
L 128.368298 96.796023 
L 129.456994 92.277165 
L 130.182791 90.185463 
L 130.908588 88.878642 
L 131.271486 88.527963 
L 131.634385 88.381676 
L 131.997283 88.440484 
L 132.360182 88.704105 
L 132.72308 89.171271 
L 133.448877 90.706306 
L 134.174674 93.016317 
L 134.900471 96.057712 
L 135.989167 101.864325 
L 137.077863 108.950712 
L 138.529457 119.908458 
L 141.069746 141.235118 
L 143.972935 165.050668 
L 145.787427 177.96109 
L 147.239021 186.757551 
L 148.690615 194.099172 
L 149.779311 198.669953 
L 150.868006 202.490194 
L 151.956702 205.626592 
L 153.045398 208.156891 
L 154.134093 210.163434 
L 155.222789 211.727938 
L 156.311484 212.927595 
L 157.40018 213.832442 
L 158.488875 214.503881 
L 159.94047 215.125002 
L 161.754962 215.595517 
L 163.932353 215.887767 
L 167.19844 216.056016 
L 174.093512 216.112769 
L 230.705682 216.115 
L 230.705682 216.115 
" clip-path="url(#p78a78130e8)" style="fill: none; stroke: #d62728; stroke-width: 2.5; stroke-linecap: square"/>
   </g>
   <g id="line2d_38">
    <path d="M 131.711803 216.115 
L 131.711803 24 
" clip-path="url(#p78a78130e8)" style="fill: none; stroke-dasharray: 9.6,2.4,1.5,2.4; stroke-dashoffset: 0; stroke: #000000; stroke-opacity: 0.5; stroke-width: 1.5"/>
   </g>
   <g id="patch_3">
    <path d="M 40.565 216.115 
L 40.565 24 
" style="fill: none; stroke: #000000; stroke-width: 0.8; stroke-linejoin: miter; stroke-linecap: square"/>
   </g>
   <g id="patch_4">
    <path d="M 239.76 216.115 
L 239.76 24 
" style="fill: none; stroke: #000000; stroke-width: 0.8; stroke-linejoin: miter; stroke-linecap: square"/>
   </g>
   <g id="patch_5">
    <path d="M 40.565 216.115 
L 239.76 216.115 
" style="fill: none; stroke: #000000; stroke-width: 0.8; stroke-linejoin: miter; stroke-linecap: square"/>
   </g>
   <g id="patch_6">
    <path d="M 40.565 24 
L 239.76 24 
" style="fill: none; stroke: #000000; stroke-width: 0.8; stroke-linejoin: miter; stroke-linecap: square"/>
   </g>
   <g id="patch_7">
    <path d="M 118.477476 97.926231 
Q 124.104326 97.125589 128.624292 96.482445 
" style="fill: none; stroke: #000000; stroke-linecap: round"/>
    <path d="M 125.654995 95.490844 
L 128.624292 96.482445 
L 126.049433 98.262922 
" style="fill: none; stroke: #000000; stroke-linecap: round"/>
   </g>
   <g id="text_20">
    <!-- Economic RUL -->
    <g transform="translate(61.691742 100.211844) scale(0.07 -0.07)">
     <defs>
      <path id="DejaVuSerif-45" d="M 353 0 
L 353 331 
L 947 331 
L 947 4331 
L 353 4331 
L 353 4666 
L 4109 4666 
L 4109 3628 
L 3725 3628 
L 3725 4281 
L 1581 4281 
L 1581 2719 
L 3109 2719 
L 3109 3303 
L 3494 3303 
L 3494 1753 
L 3109 1753 
L 3109 2338 
L 1581 2338 
L 1581 384 
L 3775 384 
L 3775 1038 
L 4159 1038 
L 4159 0 
L 353 0 
z
" transform="scale(0.015625)"/>
     </defs>
     <use xlink:href="#DejaVuSerif-45"/>
     <use xlink:href="#DejaVuSerif-63" transform="translate(72.998047 0)"/>
     <use xlink:href="#DejaVuSerif-6f" transform="translate(129.003906 0)"/>
     <use xlink:href="#DejaVuSerif-6e" transform="translate(189.208984 0)"/>
     <use xlink:href="#DejaVuSerif-6f" transform="translate(253.613281 0)"/>
     <use xlink:href="#DejaVuSerif-6d" transform="translate(313.818359 0)"/>
     <use xlink:href="#DejaVuSerif-69" transform="translate(408.642578 0)"/>
     <use xlink:href="#DejaVuSerif-63" transform="translate(440.625 0)"/>
     <use xlink:href="#DejaVuSerif-20" transform="translate(496.630859 0)"/>
     <use xlink:href="#DejaVuSerif-52" transform="translate(528.417969 0)"/>
     <use xlink:href="#DejaVuSerif-55" transform="translate(603.710938 0)"/>
     <use xlink:href="#DejaVuSerif-4c" transform="translate(687.988281 0)"/>
    </g>
    <!-- Trigger Point -->
    <g transform="translate(61.691742 108.050312) scale(0.07 -0.07)">
     <defs>
      <path id="DejaVuSerif-54" d="M 1222 0 
L 1222 331 
L 1819 331 
L 1819 4294 
L 447 4294 
L 447 3566 
L 63 3566 
L 63 4666 
L 4206 4666 
L 4206 3566 
L 3822 3566 
L 3822 4294 
L 2450 4294 
L 2450 331 
L 3047 331 
L 3047 0 
L 1222 0 
z
" transform="scale(0.015625)"/>
     </defs>
     <use xlink:href="#DejaVuSerif-54"/>
     <use xlink:href="#DejaVuSerif-72" transform="translate(66.699219 0)"/>
     <use xlink:href="#DejaVuSerif-69" transform="translate(114.501953 0)"/>
     <use xlink:href="#DejaVuSerif-67" transform="translate(146.484375 0)"/>
     <use xlink:href="#DejaVuSerif-67" transform="translate(210.498047 0)"/>
     <use xlink:href="#DejaVuSerif-65" transform="translate(274.511719 0)"/>
     <use xlink:href="#DejaVuSerif-72" transform="translate(333.691406 0)"/>
     <use xlink:href="#DejaVuSerif-20" transform="translate(381.494141 0)"/>
     <use xlink:href="#DejaVuSerif-50" transform="translate(413.28125 0)"/>
     <use xlink:href="#DejaVuSerif-6f" transform="translate(476.566406 0)"/>
     <use xlink:href="#DejaVuSerif-69" transform="translate(536.771484 0)"/>
     <use xlink:href="#DejaVuSerif-6e" transform="translate(568.753906 0)"/>
     <use xlink:href="#DejaVuSerif-74" transform="translate(633.158203 0)"/>
    </g>
   </g>
   <g id="text_21">
    <!-- Bayesian Nested Monte Carlo Convergence Funnel -->
    <g transform="translate(23.157578 18) scale(0.09 -0.09)">
     <defs>
      <path id="DejaVuSerif-42" d="M 1581 331 
L 2516 331 
Q 3078 331 3337 575 
Q 3597 819 3597 1350 
Q 3597 1878 3339 2120 
Q 3081 2363 2516 2363 
L 1581 2363 
L 1581 331 
z
M 1581 2694 
L 2375 2694 
Q 2888 2694 3123 2891 
Q 3359 3088 3359 3513 
Q 3359 3941 3123 4136 
Q 2888 4331 2375 4331 
L 1581 4331 
L 1581 2694 
z
M 353 0 
L 353 331 
L 947 331 
L 947 4331 
L 353 4331 
L 353 4666 
L 2656 4666 
Q 3363 4666 3720 4377 
Q 4078 4088 4078 3513 
Q 4078 3097 3829 2850 
Q 3581 2603 3103 2547 
Q 3697 2472 4005 2167 
Q 4313 1863 4313 1350 
Q 4313 656 3875 328 
Q 3438 0 2509 0 
L 353 0 
z
" transform="scale(0.015625)"/>
      <path id="DejaVuSerif-4e" d="M 313 0 
L 313 331 
L 941 331 
L 941 4331 
L 313 4331 
L 313 4666 
L 1509 4666 
L 4306 984 
L 4306 4331 
L 3681 4331 
L 3681 4666 
L 5319 4666 
L 5319 4331 
L 4691 4331 
L 4691 -91 
L 4313 -91 
L 1325 3841 
L 1325 331 
L 1953 331 
L 1953 0 
L 313 0 
z
" transform="scale(0.015625)"/>
      <path id="DejaVuSerif-4d" d="M 353 0 
L 353 331 
L 947 331 
L 947 4331 
L 319 4331 
L 319 4666 
L 1678 4666 
L 3316 1344 
L 4953 4666 
L 6228 4666 
L 6228 4331 
L 5606 4331 
L 5606 331 
L 6203 331 
L 6203 0 
L 4378 0 
L 4378 331 
L 4972 331 
L 4972 3938 
L 3372 684 
L 2931 684 
L 1331 3938 
L 1331 331 
L 1925 331 
L 1925 0 
L 353 0 
z
" transform="scale(0.015625)"/>
      <path id="DejaVuSerif-43" d="M 4513 1234 
Q 4306 581 3820 245 
Q 3334 -91 2591 -91 
Q 2134 -91 1743 65 
Q 1353 222 1050 525 
Q 700 875 529 1320 
Q 359 1766 359 2328 
Q 359 3416 987 4083 
Q 1616 4750 2644 4750 
Q 3025 4750 3456 4650 
Q 3888 4550 4384 4347 
L 4384 3272 
L 4031 3272 
Q 3916 3859 3567 4137 
Q 3219 4416 2591 4416 
Q 1844 4416 1459 3886 
Q 1075 3356 1075 2328 
Q 1075 1303 1459 773 
Q 1844 244 2591 244 
Q 3113 244 3450 492 
Q 3788 741 3938 1234 
L 4513 1234 
z
" transform="scale(0.015625)"/>
      <path id="DejaVuSerif-76" d="M 1581 0 
L 359 2988 
L -19 2988 
L -19 3322 
L 1509 3322 
L 1509 2988 
L 978 2988 
L 1913 703 
L 2847 2988 
L 2350 2988 
L 2350 3322 
L 3597 3322 
L 3597 2988 
L 3225 2988 
L 2003 0 
L 1581 0 
z
" transform="scale(0.015625)"/>
     </defs>
     <use xlink:href="#DejaVuSerif-42"/>
     <use xlink:href="#DejaVuSerif-61" transform="translate(73.486328 0)"/>
     <use xlink:href="#DejaVuSerif-79" transform="translate(133.105469 0)"/>
     <use xlink:href="#DejaVuSerif-65" transform="translate(189.599609 0)"/>
     <use xlink:href="#DejaVuSerif-73" transform="translate(248.779297 0)"/>
     <use xlink:href="#DejaVuSerif-69" transform="translate(300.097656 0)"/>
     <use xlink:href="#DejaVuSerif-61" transform="translate(332.080078 0)"/>
     <use xlink:href="#DejaVuSerif-6e" transform="translate(391.699219 0)"/>
     <use xlink:href="#DejaVuSerif-20" transform="translate(456.103516 0)"/>
     <use xlink:href="#DejaVuSerif-4e" transform="translate(487.890625 0)"/>
     <use xlink:href="#DejaVuSerif-65" transform="translate(575.390625 0)"/>
     <use xlink:href="#DejaVuSerif-73" transform="translate(634.570312 0)"/>
     <use xlink:href="#DejaVuSerif-74" transform="translate(685.888672 0)"/>
     <use xlink:href="#DejaVuSerif-65" transform="translate(726.074219 0)"/>
     <use xlink:href="#DejaVuSerif-64" transform="translate(785.253906 0)"/>
     <use xlink:href="#DejaVuSerif-20" transform="translate(849.267578 0)"/>
     <use xlink:href="#DejaVuSerif-4d" transform="translate(881.054688 0)"/>
     <use xlink:href="#DejaVuSerif-6f" transform="translate(983.447266 0)"/>
     <use xlink:href="#DejaVuSerif-6e" transform="translate(1043.652344 0)"/>
     <use xlink:href="#DejaVuSerif-74" transform="translate(1108.056641 0)"/>
     <use xlink:href="#DejaVuSerif-65" transform="translate(1148.242188 0)"/>
     <use xlink:href="#DejaVuSerif-20" transform="translate(1207.421875 0)"/>
     <use xlink:href="#DejaVuSerif-43" transform="translate(1239.208984 0)"/>
     <use xlink:href="#DejaVuSerif-61" transform="translate(1315.722656 0)"/>
     <use xlink:href="#DejaVuSerif-72" transform="translate(1375.341797 0)"/>
     <use xlink:href="#DejaVuSerif-6c" transform="translate(1423.144531 0)"/>
     <use xlink:href="#DejaVuSerif-6f" transform="translate(1455.126953 0)"/>
     <use xlink:href="#DejaVuSerif-20" transform="translate(1515.332031 0)"/>
     <use xlink:href="#DejaVuSerif-43" transform="translate(1547.119141 0)"/>
     <use xlink:href="#DejaVuSerif-6f" transform="translate(1623.632812 0)"/>
     <use xlink:href="#DejaVuSerif-6e" transform="translate(1683.837891 0)"/>
     <use xlink:href="#DejaVuSerif-76" transform="translate(1748.242188 0)"/>
     <use xlink:href="#DejaVuSerif-65" transform="translate(1804.736328 0)"/>
     <use xlink:href="#DejaVuSerif-72" transform="translate(1863.916016 0)"/>
     <use xlink:href="#DejaVuSerif-67" transform="translate(1911.71875 0)"/>
     <use xlink:href="#DejaVuSerif-65" transform="translate(1975.732422 0)"/>
     <use xlink:href="#DejaVuSerif-6e" transform="translate(2034.912109 0)"/>
     <use xlink:href="#DejaVuSerif-63" transform="translate(2099.316406 0)"/>
     <use xlink:href="#DejaVuSerif-65" transform="translate(2155.322266 0)"/>
     <use xlink:href="#DejaVuSerif-20" transform="translate(2214.501953 0)"/>
     <use xlink:href="#DejaVuSerif-46" transform="translate(2246.289062 0)"/>
     <use xlink:href="#DejaVuSerif-75" transform="translate(2315.673828 0)"/>
     <use xlink:href="#DejaVuSerif-6e" transform="translate(2380.078125 0)"/>
     <use xlink:href="#DejaVuSerif-6e" transform="translate(2444.482422 0)"/>
     <use xlink:href="#DejaVuSerif-65" transform="translate(2508.886719 0)"/>
     <use xlink:href="#DejaVuSerif-6c" transform="translate(2568.066406 0)"/>
    </g>
   </g>
   <g id="legend_1">
    <g id="patch_8">
     <path d="M 112.636719 60.424062 
L 234.86 60.424062 
Q 236.26 60.424062 236.26 59.024062 
L 236.26 28.9 
Q 236.26 27.5 234.86 27.5 
L 112.636719 27.5 
Q 111.236719 27.5 111.236719 28.9 
L 111.236719 59.024062 
Q 111.236719 60.424062 112.636719 60.424062 
z
" style="fill: #ffffff; opacity: 0.8; stroke: #cccccc; stroke-linejoin: miter"/>
    </g>
    <g id="line2d_39">
     <path d="M 114.036719 33.168906 
L 121.036719 33.168906 
L 128.036719 33.168906 
" style="fill: none; stroke-dasharray: 2,3.3; stroke-dashoffset: 0; stroke: #7f7f7f; stroke-width: 2"/>
    </g>
    <g id="text_22">
     <!-- Initial Prior (Wide Variance) -->
     <g transform="translate(133.636719 35.618906) scale(0.07 -0.07)">
      <defs>
       <path id="DejaVuSerif-49" d="M 1581 331 
L 2175 331 
L 2175 0 
L 353 0 
L 353 331 
L 947 331 
L 947 4331 
L 353 4331 
L 353 4666 
L 2175 4666 
L 2175 4331 
L 1581 4331 
L 1581 331 
z
" transform="scale(0.015625)"/>
       <path id="DejaVuSerif-57" d="M 4878 0 
L 4366 0 
L 3297 3794 
L 2228 0 
L 1716 0 
L 494 4331 
L 31 4331 
L 31 4666 
L 1734 4666 
L 1734 4331 
L 1153 4331 
L 2125 884 
L 3188 4666 
L 3694 4666 
L 4775 844 
L 5753 4331 
L 5216 4331 
L 5216 4666 
L 6559 4666 
L 6559 4331 
L 6100 4331 
L 4878 0 
z
" transform="scale(0.015625)"/>
       <path id="DejaVuSerif-56" d="M 1119 4331 
L 2497 750 
L 3872 4331 
L 3347 4331 
L 3347 4666 
L 4716 4666 
L 4716 4331 
L 4263 4331 
L 2597 0 
L 2059 0 
L 403 4331 
L -63 4331 
L -63 4666 
L 1638 4666 
L 1638 4331 
L 1119 4331 
z
" transform="scale(0.015625)"/>
      </defs>
      <use xlink:href="#DejaVuSerif-49"/>
      <use xlink:href="#DejaVuSerif-6e" transform="translate(39.501953 0)"/>
      <use xlink:href="#DejaVuSerif-69" transform="translate(103.90625 0)"/>
      <use xlink:href="#DejaVuSerif-74" transform="translate(135.888672 0)"/>
      <use xlink:href="#DejaVuSerif-69" transform="translate(176.074219 0)"/>
      <use xlink:href="#DejaVuSerif-61" transform="translate(208.056641 0)"/>
      <use xlink:href="#DejaVuSerif-6c" transform="translate(267.675781 0)"/>
      <use xlink:href="#DejaVuSerif-20" transform="translate(299.658203 0)"/>
      <use xlink:href="#DejaVuSerif-50" transform="translate(331.445312 0)"/>
      <use xlink:href="#DejaVuSerif-72" transform="translate(398.730469 0)"/>
      <use xlink:href="#DejaVuSerif-69" transform="translate(446.533203 0)"/>
      <use xlink:href="#DejaVuSerif-6f" transform="translate(478.515625 0)"/>
      <use xlink:href="#DejaVuSerif-72" transform="translate(538.720703 0)"/>
      <use xlink:href="#DejaVuSerif-20" transform="translate(586.523438 0)"/>
      <use xlink:href="#DejaVuSerif-28" transform="translate(618.310547 0)"/>
      <use xlink:href="#DejaVuSerif-57" transform="translate(657.324219 0)"/>
      <use xlink:href="#DejaVuSerif-69" transform="translate(758.357422 0)"/>
      <use xlink:href="#DejaVuSerif-64" transform="translate(790.339844 0)"/>
      <use xlink:href="#DejaVuSerif-65" transform="translate(854.353516 0)"/>
      <use xlink:href="#DejaVuSerif-20" transform="translate(913.533203 0)"/>
      <use xlink:href="#DejaVuSerif-56" transform="translate(945.320312 0)"/>
      <use xlink:href="#DejaVuSerif-61" transform="translate(1008.412109 0)"/>
      <use xlink:href="#DejaVuSerif-72" transform="translate(1068.03125 0)"/>
      <use xlink:href="#DejaVuSerif-69" transform="translate(1115.833984 0)"/>
      <use xlink:href="#DejaVuSerif-61" transform="translate(1147.816406 0)"/>
      <use xlink:href="#DejaVuSerif-6e" transform="translate(1207.435547 0)"/>
      <use xlink:href="#DejaVuSerif-63" transform="translate(1271.839844 0)"/>
      <use xlink:href="#DejaVuSerif-65" transform="translate(1327.845703 0)"/>
      <use xlink:href="#DejaVuSerif-29" transform="translate(1387.025391 0)"/>
     </g>
    </g>
    <g id="line2d_40">
     <path d="M 114.036719 43.443594 
L 121.036719 43.443594 
L 128.036719 43.443594 
" style="fill: none; stroke-dasharray: 7.4,3.2; stroke-dashoffset: 0; stroke: #1f77b4; stroke-width: 2"/>
    </g>
    <g id="text_23">
     <!-- 1st Update (Partial Conv.) -->
     <g transform="translate(133.636719 45.893594) scale(0.07 -0.07)">
      <defs>
       <path id="DejaVuSerif-70" d="M 1313 1825 
L 1313 1497 
Q 1313 897 1542 583 
Q 1772 269 2209 269 
Q 2650 269 2876 622 
Q 3103 975 3103 1663 
Q 3103 2353 2876 2703 
Q 2650 3053 2209 3053 
Q 1772 3053 1542 2737 
Q 1313 2422 1313 1825 
z
M 738 2988 
L 184 2988 
L 184 3322 
L 1313 3322 
L 1313 2803 
Q 1481 3116 1742 3264 
Q 2003 3413 2388 3413 
Q 3000 3413 3387 2928 
Q 3775 2444 3775 1663 
Q 3775 881 3387 395 
Q 3000 -91 2388 -91 
Q 2003 -91 1742 57 
Q 1481 206 1313 519 
L 1313 -997 
L 1856 -997 
L 1856 -1331 
L 184 -1331 
L 184 -997 
L 738 -997 
L 738 2988 
z
" transform="scale(0.015625)"/>
      </defs>
      <use xlink:href="#DejaVuSerif-31"/>
      <use xlink:href="#DejaVuSerif-73" transform="translate(63.623047 0)"/>
      <use xlink:href="#DejaVuSerif-74" transform="translate(114.941406 0)"/>
      <use xlink:href="#DejaVuSerif-20" transform="translate(155.126953 0)"/>
      <use xlink:href="#DejaVuSerif-55" transform="translate(186.914062 0)"/>
      <use xlink:href="#DejaVuSerif-70" transform="translate(271.191406 0)"/>
      <use xlink:href="#DejaVuSerif-64" transform="translate(335.205078 0)"/>
      <use xlink:href="#DejaVuSerif-61" transform="translate(399.21875 0)"/>
      <use xlink:href="#DejaVuSerif-74" transform="translate(458.837891 0)"/>
      <use xlink:href="#DejaVuSerif-65" transform="translate(499.023438 0)"/>
      <use xlink:href="#DejaVuSerif-20" transform="translate(558.203125 0)"/>
      <use xlink:href="#DejaVuSerif-28" transform="translate(589.990234 0)"/>
      <use xlink:href="#DejaVuSerif-50" transform="translate(629.003906 0)"/>
      <use xlink:href="#DejaVuSerif-61" transform="translate(691.789062 0)"/>
      <use xlink:href="#DejaVuSerif-72" transform="translate(751.408203 0)"/>
      <use xlink:href="#DejaVuSerif-74" transform="translate(799.210938 0)"/>
      <use xlink:href="#DejaVuSerif-69" transform="translate(839.396484 0)"/>
      <use xlink:href="#DejaVuSerif-61" transform="translate(871.378906 0)"/>
      <use xlink:href="#DejaVuSerif-6c" transform="translate(930.998047 0)"/>
      <use xlink:href="#DejaVuSerif-20" transform="translate(962.980469 0)"/>
      <use xlink:href="#DejaVuSerif-43" transform="translate(994.767578 0)"/>
      <use xlink:href="#DejaVuSerif-6f" transform="translate(1071.28125 0)"/>
      <use xlink:href="#DejaVuSerif-6e" transform="translate(1131.486328 0)"/>
      <use xlink:href="#DejaVuSerif-76" transform="translate(1195.890625 0)"/>
      <use xlink:href="#DejaVuSerif-2e" transform="translate(1240.509766 0)"/>
      <use xlink:href="#DejaVuSerif-29" transform="translate(1272.296875 0)"/>
     </g>
    </g>
    <g id="line2d_41">
     <path d="M 114.036719 53.718281 
L 121.036719 53.718281 
L 128.036719 53.718281 
" style="fill: none; stroke: #d62728; stroke-width: 2.5; stroke-linecap: square"/>
    </g>
    <g id="text_24">
     <!-- Final Posterior (Funnel Tip) -->
     <g transform="translate(133.636719 56.168281) scale(0.07 -0.07)">
      <use xlink:href="#DejaVuSerif-46"/>
      <use xlink:href="#DejaVuSerif-69" transform="translate(69.384766 0)"/>
      <use xlink:href="#DejaVuSerif-6e" transform="translate(101.367188 0)"/>
      <use xlink:href="#DejaVuSerif-61" transform="translate(165.771484 0)"/>
      <use xlink:href="#DejaVuSerif-6c" transform="translate(225.390625 0)"/>
      <use xlink:href="#DejaVuSerif-20" transform="translate(257.373047 0)"/>
      <use xlink:href="#DejaVuSerif-50" transform="translate(289.160156 0)"/>
      <use xlink:href="#DejaVuSerif-6f" transform="translate(352.445312 0)"/>
      <use xlink:href="#DejaVuSerif-73" transform="translate(412.650391 0)"/>
      <use xlink:href="#DejaVuSerif-74" transform="translate(463.96875 0)"/>
      <use xlink:href="#DejaVuSerif-65" transform="translate(504.154297 0)"/>
      <use xlink:href="#DejaVuSerif-72" transform="translate(563.333984 0)"/>
      <use xlink:href="#DejaVuSerif-69" transform="translate(611.136719 0)"/>
      <use xlink:href="#DejaVuSerif-6f" transform="translate(643.119141 0)"/>
      <use xlink:href="#DejaVuSerif-72" transform="translate(703.324219 0)"/>
      <use xlink:href="#DejaVuSerif-20" transform="translate(751.126953 0)"/>
      <use xlink:href="#DejaVuSerif-28" transform="translate(782.914062 0)"/>
      <use xlink:href="#DejaVuSerif-46" transform="translate(821.927734 0)"/>
      <use xlink:href="#DejaVuSerif-75" transform="translate(891.3125 0)"/>
      <use xlink:href="#DejaVuSerif-6e" transform="translate(955.716797 0)"/>
      <use xlink:href="#DejaVuSerif-6e" transform="translate(1020.121094 0)"/>
      <use xlink:href="#DejaVuSerif-65" transform="translate(1084.525391 0)"/>
      <use xlink:href="#DejaVuSerif-6c" transform="translate(1143.705078 0)"/>
      <use xlink:href="#DejaVuSerif-20" transform="translate(1175.6875 0)"/>
      <use xlink:href="#DejaVuSerif-54" transform="translate(1207.474609 0)"/>
      <use xlink:href="#DejaVuSerif-69" transform="translate(1274.173828 0)"/>
      <use xlink:href="#DejaVuSerif-70" transform="translate(1306.15625 0)"/>
      <use xlink:href="#DejaVuSerif-29" transform="translate(1370.169922 0)"/>
     </g>
    </g>
   </g>
  </g>
 </g>
 <defs>
  <clipPath id="p78a78130e8">
   <rect x="40.565" y="24" width="199.195" height="192.115"/>
  </clipPath>
 </defs>
</svg>
