<?xml version="1.0" encoding="utf-8" standalone="no"?>
<!DOCTYPE svg PUBLIC "-//W3C//DTD SVG 1.1//EN"
  "http://www.w3.org/Graphics/SVG/1.1/DTD/svg11.dtd">
<svg xmlns:xlink="http://www.w3.org/1999/xlink" width="250.56pt" height="201.6pt" viewBox="0 0 250.56 201.6" xmlns="http://www.w3.org/2000/svg" version="1.1">
 <metadata>
  <rdf:RDF xmlns:dc="http://purl.org/dc/elements/1.1/" xmlns:cc="http://creativecommons.org/ns#" xmlns:rdf="http://www.w3.org/1999/02/22-rdf-syntax-ns#">
   <cc:Work>
    <dc:type rdf:resource="http://purl.org/dc/dcmitype/StillImage"/>
    <dc:date>2026-06-19T23:42:59.819701</dc:date>
    <dc:format>image/svg+xml</dc:format>
    <dc:creator>
     <cc:Agent>
      <dc:title>Matplotlib v3.10.8, https://matplotlib.org/</dc:title>
     </cc:Agent>
    </dc:creator>
   </cc:Work>
  </rdf:RDF>
 </metadata>
 <defs>
  <style type="text/css">*{stroke-linejoin: round; stroke-linecap: butt}</style>
 </defs>
 <g id="figure_1">
  <g id="patch_1">
   <path d="M 0 201.6 
L 250.56 201.6 
L 250.56 0 
L 0 0 
z
" style="fill: #ffffff"/>
  </g>
  <g id="axes_1">
   <g id="patch_2">
    <path d="M 45.83 163.24 
L 234.63 163.24 
L 234.63 10.8 
L 45.83 10.8 
z
" style="fill: #ffffff"/>
   </g>
   <g id="patch_3">
    <path d="M 221.176898 163.24 
L 234.63 163.24 
L 234.63 10.8 
L 221.176898 10.8 
z
" clip-path="url(#pc13c09e5b5)" style="fill: #ff0000; opacity: 0.1; stroke: #ff0000; stroke-linejoin: miter"/>
   </g>
   <g id="matplotlib.axis_1">
    <g id="xtick_1">
     <g id="line2d_1">
      <path d="M 45.83 163.24 
L 45.83 10.8 
" clip-path="url(#pc13c09e5b5)" style="fill: none; stroke-dasharray: 2.96,1.28; stroke-dashoffset: 0; stroke: #b0b0b0; stroke-opacity: 0.5; stroke-width: 0.8"/>
     </g>
     <g id="line2d_2">
      <defs>
       <path id="m5d4ae1f997" d="M 0 0 
L 0 3.5 
" style="stroke: #000000; stroke-width: 0.8"/>
      </defs>
      <g>
       <use xlink:href="#m5d4ae1f997" x="45.83" y="163.24" style="stroke: #000000; stroke-width: 0.8"/>
      </g>
     </g>
     <g id="text_1">
      <!-- 20.0 -->
      <g transform="translate(36.92375 176.31875) scale(0.08 -0.08)">
       <defs>
        <path id="DejaVuSerif-32" d="M 819 3553 
L 469 3553 
L 469 4384 
Q 803 4563 1142 4656 
Q 1481 4750 1806 4750 
Q 2534 4750 2956 4397 
Q 3378 4044 3378 3438 
Q 3378 2753 2422 1800 
Q 2347 1728 2309 1691 
L 1131 513 
L 3078 513 
L 3078 1088 
L 3444 1088 
L 3444 0 
L 434 0 
L 434 341 
L 1850 1753 
Q 2319 2222 2519 2614 
Q 2719 3006 2719 3438 
Q 2719 3909 2473 4175 
Q 2228 4441 1797 4441 
Q 1350 4441 1106 4219 
Q 863 3997 819 3553 
z
" transform="scale(0.015625)"/>
        <path id="DejaVuSerif-30" d="M 2034 219 
Q 2513 219 2750 744 
Q 2988 1269 2988 2328 
Q 2988 3391 2750 3916 
Q 2513 4441 2034 4441 
Q 1556 4441 1318 3916 
Q 1081 3391 1081 2328 
Q 1081 1269 1318 744 
Q 1556 219 2034 219 
z
M 2034 -91 
Q 1275 -91 848 546 
Q 422 1184 422 2328 
Q 422 3475 848 4112 
Q 1275 4750 2034 4750 
Q 2797 4750 3222 4112 
Q 3647 3475 3647 2328 
Q 3647 1184 3222 546 
Q 2797 -91 2034 -91 
z
" transform="scale(0.015625)"/>
        <path id="DejaVuSerif-2e" d="M 603 325 
Q 603 500 722 622 
Q 841 744 1019 744 
Q 1191 744 1312 622 
Q 1434 500 1434 325 
Q 1434 153 1312 31 
Q 1191 -91 1019 -91 
Q 841 -91 722 29 
Q 603 150 603 325 
z
" transform="scale(0.015625)"/>
       </defs>
       <use xlink:href="#DejaVuSerif-32"/>
       <use xlink:href="#DejaVuSerif-30" transform="translate(63.623047 0)"/>
       <use xlink:href="#DejaVuSerif-2e" transform="translate(127.246094 0)"/>
       <use xlink:href="#DejaVuSerif-30" transform="translate(159.033203 0)"/>
      </g>
     </g>
    </g>
    <g id="xtick_2">
     <g id="line2d_3">
      <path d="M 75.33 163.24 
L 75.33 10.8 
" clip-path="url(#pc13c09e5b5)" style="fill: none; stroke-dasharray: 2.96,1.28; stroke-dashoffset: 0; stroke: #b0b0b0; stroke-opacity: 0.5; stroke-width: 0.8"/>
     </g>
     <g id="line2d_4">
      <g>
       <use xlink:href="#m5d4ae1f997" x="75.33" y="163.24" style="stroke: #000000; stroke-width: 0.8"/>
      </g>
     </g>
     <g id="text_2">
      <!-- 22.5 -->
      <g transform="translate(66.42375 176.31875) scale(0.08 -0.08)">
       <defs>
        <path id="DejaVuSerif-35" d="M 3219 4666 
L 3219 4153 
L 1081 4153 
L 1081 2816 
Q 1244 2928 1461 2984 
Q 1678 3041 1947 3041 
Q 2703 3041 3140 2622 
Q 3578 2203 3578 1478 
Q 3578 738 3136 323 
Q 2694 -91 1894 -91 
Q 1572 -91 1234 -12 
Q 897 66 544 225 
L 544 1131 
L 897 1131 
Q 925 688 1179 453 
Q 1434 219 1894 219 
Q 2388 219 2653 544 
Q 2919 869 2919 1478 
Q 2919 2084 2655 2407 
Q 2391 2731 1894 2731 
Q 1613 2731 1398 2631 
Q 1184 2531 1019 2322 
L 750 2322 
L 750 4666 
L 3219 4666 
z
" transform="scale(0.015625)"/>
       </defs>
       <use xlink:href="#DejaVuSerif-32"/>
       <use xlink:href="#DejaVuSerif-32" transform="translate(63.623047 0)"/>
       <use xlink:href="#DejaVuSerif-2e" transform="translate(127.246094 0)"/>
       <use xlink:href="#DejaVuSerif-35" transform="translate(159.033203 0)"/>
      </g>
     </g>
    </g>
    <g id="xtick_3">
     <g id="line2d_5">
      <path d="M 104.83 163.24 
L 104.83 10.8 
" clip-path="url(#pc13c09e5b5)" style="fill: none; stroke-dasharray: 2.96,1.28; stroke-dashoffset: 0; stroke: #b0b0b0; stroke-opacity: 0.5; stroke-width: 0.8"/>
     </g>
     <g id="line2d_6">
      <g>
       <use xlink:href="#m5d4ae1f997" x="104.83" y="163.24" style="stroke: #000000; stroke-width: 0.8"/>
      </g>
     </g>
     <g id="text_3">
      <!-- 25.0 -->
      <g transform="translate(95.92375 176.31875) scale(0.08 -0.08)">
       <use xlink:href="#DejaVuSerif-32"/>
       <use xlink:href="#DejaVuSerif-35" transform="translate(63.623047 0)"/>
       <use xlink:href="#DejaVuSerif-2e" transform="translate(127.246094 0)"/>
       <use xlink:href="#DejaVuSerif-30" transform="translate(159.033203 0)"/>
      </g>
     </g>
    </g>
    <g id="xtick_4">
     <g id="line2d_7">
      <path d="M 134.33 163.24 
L 134.33 10.8 
" clip-path="url(#pc13c09e5b5)" style="fill: none; stroke-dasharray: 2.96,1.28; stroke-dashoffset: 0; stroke: #b0b0b0; stroke-opacity: 0.5; stroke-width: 0.8"/>
     </g>
     <g id="line2d_8">
      <g>
       <use xlink:href="#m5d4ae1f997" x="134.33" y="163.24" style="stroke: #000000; stroke-width: 0.8"/>
      </g>
     </g>
     <g id="text_4">
      <!-- 27.5 -->
      <g transform="translate(125.42375 176.31875) scale(0.08 -0.08)">
       <defs>
        <path id="DejaVuSerif-37" d="M 3609 4347 
L 1784 0 
L 1319 0 
L 3059 4153 
L 903 4153 
L 903 3578 
L 538 3578 
L 538 4666 
L 3609 4666 
L 3609 4347 
z
" transform="scale(0.015625)"/>
       </defs>
       <use xlink:href="#DejaVuSerif-32"/>
       <use xlink:href="#DejaVuSerif-37" transform="translate(63.623047 0)"/>
       <use xlink:href="#DejaVuSerif-2e" transform="translate(127.246094 0)"/>
       <use xlink:href="#DejaVuSerif-35" transform="translate(159.033203 0)"/>
      </g>
     </g>
    </g>
    <g id="xtick_5">
     <g id="line2d_9">
      <path d="M 163.83 163.24 
L 163.83 10.8 
" clip-path="url(#pc13c09e5b5)" style="fill: none; stroke-dasharray: 2.96,1.28; stroke-dashoffset: 0; stroke: #b0b0b0; stroke-opacity: 0.5; stroke-width: 0.8"/>
     </g>
     <g id="line2d_10">
      <g>
       <use xlink:href="#m5d4ae1f997" x="163.83" y="163.24" style="stroke: #000000; stroke-width: 0.8"/>
      </g>
     </g>
     <g id="text_5">
      <!-- 30.0 -->
      <g transform="translate(154.92375 176.31875) scale(0.08 -0.08)">
       <defs>
        <path id="DejaVuSerif-33" d="M 622 4469 
Q 988 4606 1323 4678 
Q 1659 4750 1953 4750 
Q 2638 4750 3022 4454 
Q 3406 4159 3406 3634 
Q 3406 3213 3140 2930 
Q 2875 2647 2388 2547 
Q 2963 2466 3280 2130 
Q 3597 1794 3597 1259 
Q 3597 606 3158 257 
Q 2719 -91 1894 -91 
Q 1528 -91 1179 -12 
Q 831 66 488 225 
L 488 1131 
L 838 1131 
Q 869 681 1141 450 
Q 1413 219 1906 219 
Q 2384 219 2661 495 
Q 2938 772 2938 1253 
Q 2938 1803 2653 2086 
Q 2369 2369 1819 2369 
L 1522 2369 
L 1522 2688 
L 1678 2688 
Q 2225 2688 2498 2914 
Q 2772 3141 2772 3597 
Q 2772 4006 2547 4223 
Q 2322 4441 1900 4441 
Q 1478 4441 1245 4241 
Q 1013 4041 972 3647 
L 622 3647 
L 622 4469 
z
" transform="scale(0.015625)"/>
       </defs>
       <use xlink:href="#DejaVuSerif-33"/>
       <use xlink:href="#DejaVuSerif-30" transform="translate(63.623047 0)"/>
       <use xlink:href="#DejaVuSerif-2e" transform="translate(127.246094 0)"/>
       <use xlink:href="#DejaVuSerif-30" transform="translate(159.033203 0)"/>
      </g>
     </g>
    </g>
    <g id="xtick_6">
     <g id="line2d_11">
      <path d="M 193.33 163.24 
L 193.33 10.8 
" clip-path="url(#pc13c09e5b5)" style="fill: none; stroke-dasharray: 2.96,1.28; stroke-dashoffset: 0; stroke: #b0b0b0; stroke-opacity: 0.5; stroke-width: 0.8"/>
     </g>
     <g id="line2d_12">
      <g>
       <use xlink:href="#m5d4ae1f997" x="193.33" y="163.24" style="stroke: #000000; stroke-width: 0.8"/>
      </g>
     </g>
     <g id="text_6">
      <!-- 32.5 -->
      <g transform="translate(184.42375 176.31875) scale(0.08 -0.08)">
       <use xlink:href="#DejaVuSerif-33"/>
       <use xlink:href="#DejaVuSerif-32" transform="translate(63.623047 0)"/>
       <use xlink:href="#DejaVuSerif-2e" transform="translate(127.246094 0)"/>
       <use xlink:href="#DejaVuSerif-35" transform="translate(159.033203 0)"/>
      </g>
     </g>
    </g>
    <g id="xtick_7">
     <g id="line2d_13">
      <path d="M 222.83 163.24 
L 222.83 10.8 
" clip-path="url(#pc13c09e5b5)" style="fill: none; stroke-dasharray: 2.96,1.28; stroke-dashoffset: 0; stroke: #b0b0b0; stroke-opacity: 0.5; stroke-width: 0.8"/>
     </g>
     <g id="line2d_14">
      <g>
       <use xlink:href="#m5d4ae1f997" x="222.83" y="163.24" style="stroke: #000000; stroke-width: 0.8"/>
      </g>
     </g>
     <g id="text_7">
      <!-- 35.0 -->
      <g transform="translate(213.92375 176.31875) scale(0.08 -0.08)">
       <use xlink:href="#DejaVuSerif-33"/>
       <use xlink:href="#DejaVuSerif-35" transform="translate(63.623047 0)"/>
       <use xlink:href="#DejaVuSerif-2e" transform="translate(127.246094 0)"/>
       <use xlink:href="#DejaVuSerif-30" transform="translate(159.033203 0)"/>
      </g>
     </g>
    </g>
    <g id="text_8">
     <!-- Operational Time (Years) -->
     <g transform="translate(83.058203 188.821094) scale(0.09 -0.09)">
      <defs>
       <path id="DejaVuSerif-4f" d="M 2625 244 
Q 3391 244 3781 770 
Q 4172 1297 4172 2328 
Q 4172 3363 3781 3889 
Q 3391 4416 2625 4416 
Q 1856 4416 1465 3889 
Q 1075 3363 1075 2328 
Q 1075 1297 1465 770 
Q 1856 244 2625 244 
z
M 2625 -91 
Q 2150 -91 1751 65 
Q 1353 222 1050 525 
Q 700 875 529 1319 
Q 359 1763 359 2328 
Q 359 2894 529 3339 
Q 700 3784 1050 4134 
Q 1356 4441 1750 4595 
Q 2144 4750 2625 4750 
Q 3641 4750 4266 4084 
Q 4891 3419 4891 2328 
Q 4891 1769 4719 1320 
Q 4547 872 4197 525 
Q 3891 219 3497 64 
Q 3103 -91 2625 -91 
z
" transform="scale(0.015625)"/>
       <path id="DejaVuSerif-70" d="M 1313 1825 
L 1313 1497 
Q 1313 897 1542 583 
Q 1772 269 2209 269 
Q 2650 269 2876 622 
Q 3103 975 3103 1663 
Q 3103 2353 2876 2703 
Q 2650 3053 2209 3053 
Q 1772 3053 1542 2737 
Q 1313 2422 1313 1825 
z
M 738 2988 
L 184 2988 
L 184 3322 
L 1313 3322 
L 1313 2803 
Q 1481 3116 1742 3264 
Q 2003 3413 2388 3413 
Q 3000 3413 3387 2928 
Q 3775 2444 3775 1663 
Q 3775 881 3387 395 
Q 3000 -91 2388 -91 
Q 2003 -91 1742 57 
Q 1481 206 1313 519 
L 1313 -997 
L 1856 -997 
L 1856 -1331 
L 184 -1331 
L 184 -997 
L 738 -997 
L 738 2988 
z
" transform="scale(0.015625)"/>
       <path id="DejaVuSerif-65" d="M 3469 1600 
L 991 1600 
L 991 1575 
Q 991 903 1244 561 
Q 1497 219 1991 219 
Q 2369 219 2611 417 
Q 2853 616 2950 1006 
L 3413 1006 
Q 3275 459 2904 184 
Q 2534 -91 1931 -91 
Q 1203 -91 761 389 
Q 319 869 319 1663 
Q 319 2450 753 2931 
Q 1188 3413 1894 3413 
Q 2647 3413 3050 2948 
Q 3453 2484 3469 1600 
z
M 2791 1931 
Q 2772 2513 2545 2808 
Q 2319 3103 1894 3103 
Q 1497 3103 1269 2806 
Q 1041 2509 991 1931 
L 2791 1931 
z
" transform="scale(0.015625)"/>
       <path id="DejaVuSerif-72" d="M 3059 3328 
L 3059 2497 
L 2728 2497 
Q 2713 2744 2591 2866 
Q 2469 2988 2234 2988 
Q 1809 2988 1582 2694 
Q 1356 2400 1356 1850 
L 1356 331 
L 2022 331 
L 2022 0 
L 263 0 
L 263 331 
L 781 331 
L 781 2994 
L 231 2994 
L 231 3322 
L 1356 3322 
L 1356 2731 
Q 1525 3078 1790 3245 
Q 2056 3413 2438 3413 
Q 2578 3413 2733 3391 
Q 2888 3369 3059 3328 
z
" transform="scale(0.015625)"/>
       <path id="DejaVuSerif-61" d="M 2547 1044 
L 2547 1747 
L 1806 1747 
Q 1378 1747 1168 1562 
Q 959 1378 959 997 
Q 959 650 1171 447 
Q 1384 244 1747 244 
Q 2106 244 2326 466 
Q 2547 688 2547 1044 
z
M 3122 2075 
L 3122 331 
L 3634 331 
L 3634 0 
L 2547 0 
L 2547 359 
Q 2356 128 2106 18 
Q 1856 -91 1522 -91 
Q 969 -91 644 203 
Q 319 497 319 997 
Q 319 1513 691 1797 
Q 1063 2081 1741 2081 
L 2547 2081 
L 2547 2309 
Q 2547 2688 2317 2895 
Q 2088 3103 1672 3103 
Q 1328 3103 1125 2947 
Q 922 2791 872 2484 
L 575 2484 
L 575 3156 
Q 875 3284 1158 3348 
Q 1441 3413 1709 3413 
Q 2400 3413 2761 3070 
Q 3122 2728 3122 2075 
z
" transform="scale(0.015625)"/>
       <path id="DejaVuSerif-74" d="M 691 2988 
L 184 2988 
L 184 3322 
L 691 3322 
L 691 4353 
L 1269 4353 
L 1269 3322 
L 2350 3322 
L 2350 2988 
L 1269 2988 
L 1269 878 
Q 1269 456 1350 337 
Q 1431 219 1650 219 
Q 1875 219 1978 351 
Q 2081 484 2088 781 
L 2522 781 
Q 2497 328 2275 118 
Q 2053 -91 1600 -91 
Q 1103 -91 897 129 
Q 691 350 691 878 
L 691 2988 
z
" transform="scale(0.015625)"/>
       <path id="DejaVuSerif-69" d="M 622 4353 
Q 622 4497 726 4603 
Q 831 4709 978 4709 
Q 1122 4709 1226 4603 
Q 1331 4497 1331 4353 
Q 1331 4206 1228 4103 
Q 1125 4000 978 4000 
Q 831 4000 726 4103 
Q 622 4206 622 4353 
z
M 1356 331 
L 1900 331 
L 1900 0 
L 231 0 
L 231 331 
L 781 331 
L 781 2988 
L 231 2988 
L 231 3322 
L 1356 3322 
L 1356 331 
z
" transform="scale(0.015625)"/>
       <path id="DejaVuSerif-6f" d="M 1925 219 
Q 2388 219 2623 584 
Q 2859 950 2859 1663 
Q 2859 2375 2623 2739 
Q 2388 3103 1925 3103 
Q 1463 3103 1227 2739 
Q 991 2375 991 1663 
Q 991 950 1228 584 
Q 1466 219 1925 219 
z
M 1925 -91 
Q 1200 -91 759 389 
Q 319 869 319 1663 
Q 319 2456 758 2934 
Q 1197 3413 1925 3413 
Q 2653 3413 3092 2934 
Q 3531 2456 3531 1663 
Q 3531 869 3092 389 
Q 2653 -91 1925 -91 
z
" transform="scale(0.015625)"/>
       <path id="DejaVuSerif-6e" d="M 263 0 
L 263 331 
L 781 331 
L 781 2988 
L 231 2988 
L 231 3322 
L 1356 3322 
L 1356 2731 
Q 1516 3069 1770 3241 
Q 2025 3413 2363 3413 
Q 2913 3413 3172 3097 
Q 3431 2781 3431 2113 
L 3431 331 
L 3944 331 
L 3944 0 
L 2356 0 
L 2356 331 
L 2853 331 
L 2853 1931 
Q 2853 2541 2703 2767 
Q 2553 2994 2175 2994 
Q 1775 2994 1565 2701 
Q 1356 2409 1356 1850 
L 1356 331 
L 1856 331 
L 1856 0 
L 263 0 
z
" transform="scale(0.015625)"/>
       <path id="DejaVuSerif-6c" d="M 1313 331 
L 1856 331 
L 1856 0 
L 184 0 
L 184 331 
L 738 331 
L 738 4531 
L 184 4531 
L 184 4863 
L 1313 4863 
L 1313 331 
z
" transform="scale(0.015625)"/>
       <path id="DejaVuSerif-20" transform="scale(0.015625)"/>
       <path id="DejaVuSerif-54" d="M 1222 0 
L 1222 331 
L 1819 331 
L 1819 4294 
L 447 4294 
L 447 3566 
L 63 3566 
L 63 4666 
L 4206 4666 
L 4206 3566 
L 3822 3566 
L 3822 4294 
L 2450 4294 
L 2450 331 
L 3047 331 
L 3047 0 
L 1222 0 
z
" transform="scale(0.015625)"/>
       <path id="DejaVuSerif-6d" d="M 3316 2675 
Q 3481 3041 3739 3227 
Q 3997 3413 4341 3413 
Q 4863 3413 5119 3089 
Q 5375 2766 5375 2113 
L 5375 331 
L 5894 331 
L 5894 0 
L 4300 0 
L 4300 331 
L 4800 331 
L 4800 2047 
Q 4800 2556 4650 2772 
Q 4500 2988 4153 2988 
Q 3769 2988 3567 2697 
Q 3366 2406 3366 1850 
L 3366 331 
L 3866 331 
L 3866 0 
L 2291 0 
L 2291 331 
L 2791 331 
L 2791 2069 
Q 2791 2566 2641 2777 
Q 2491 2988 2144 2988 
Q 1759 2988 1557 2697 
Q 1356 2406 1356 1850 
L 1356 331 
L 1856 331 
L 1856 0 
L 263 0 
L 263 331 
L 781 331 
L 781 2994 
L 231 2994 
L 231 3322 
L 1356 3322 
L 1356 2731 
Q 1516 3063 1762 3238 
Q 2009 3413 2322 3413 
Q 2709 3413 2968 3220 
Q 3228 3028 3316 2675 
z
" transform="scale(0.015625)"/>
       <path id="DejaVuSerif-28" d="M 2041 -997 
Q 1281 -656 893 83 
Q 506 822 506 1931 
Q 506 3044 893 3783 
Q 1281 4522 2041 4863 
L 2041 4556 
Q 1559 4225 1350 3623 
Q 1141 3022 1141 1931 
Q 1141 844 1350 242 
Q 1559 -359 2041 -691 
L 2041 -997 
z
" transform="scale(0.015625)"/>
       <path id="DejaVuSerif-59" d="M 1209 0 
L 1209 331 
L 1806 331 
L 1806 2009 
L 366 4331 
L -72 4331 
L -72 4666 
L 1663 4666 
L 1663 4331 
L 1119 4331 
L 2284 2444 
L 3450 4331 
L 2925 4331 
L 2925 4666 
L 4281 4666 
L 4281 4331 
L 3841 4331 
L 2438 2069 
L 2438 331 
L 3034 331 
L 3034 0 
L 1209 0 
z
" transform="scale(0.015625)"/>
       <path id="DejaVuSerif-73" d="M 359 184 
L 359 959 
L 691 959 
Q 703 588 923 403 
Q 1144 219 1575 219 
Q 1963 219 2166 364 
Q 2369 509 2369 788 
Q 2369 1006 2220 1140 
Q 2072 1275 1594 1428 
L 1178 1569 
Q 750 1706 558 1912 
Q 366 2119 366 2438 
Q 366 2894 700 3153 
Q 1034 3413 1625 3413 
Q 1888 3413 2178 3344 
Q 2469 3275 2778 3144 
L 2778 2419 
L 2447 2419 
Q 2434 2741 2221 2922 
Q 2009 3103 1644 3103 
Q 1281 3103 1095 2975 
Q 909 2847 909 2591 
Q 909 2381 1050 2254 
Q 1191 2128 1613 1997 
L 2069 1856 
Q 2541 1709 2748 1489 
Q 2956 1269 2956 922 
Q 2956 450 2595 179 
Q 2234 -91 1600 -91 
Q 1278 -91 972 -22 
Q 666 47 359 184 
z
" transform="scale(0.015625)"/>
       <path id="DejaVuSerif-29" d="M 453 -997 
L 453 -691 
Q 934 -359 1145 242 
Q 1356 844 1356 1931 
Q 1356 3022 1145 3623 
Q 934 4225 453 4556 
L 453 4863 
Q 1216 4522 1603 3783 
Q 1991 3044 1991 1931 
Q 1991 822 1603 83 
Q 1216 -656 453 -997 
z
" transform="scale(0.015625)"/>
      </defs>
      <use xlink:href="#DejaVuSerif-4f"/>
      <use xlink:href="#DejaVuSerif-70" transform="translate(81.982422 0)"/>
      <use xlink:href="#DejaVuSerif-65" transform="translate(145.996094 0)"/>
      <use xlink:href="#DejaVuSerif-72" transform="translate(205.175781 0)"/>
      <use xlink:href="#DejaVuSerif-61" transform="translate(252.978516 0)"/>
      <use xlink:href="#DejaVuSerif-74" transform="translate(312.597656 0)"/>
      <use xlink:href="#DejaVuSerif-69" transform="translate(352.783203 0)"/>
      <use xlink:href="#DejaVuSerif-6f" transform="translate(384.765625 0)"/>
      <use xlink:href="#DejaVuSerif-6e" transform="translate(444.970703 0)"/>
      <use xlink:href="#DejaVuSerif-61" transform="translate(509.375 0)"/>
      <use xlink:href="#DejaVuSerif-6c" transform="translate(568.994141 0)"/>
      <use xlink:href="#DejaVuSerif-20" transform="translate(600.976562 0)"/>
      <use xlink:href="#DejaVuSerif-54" transform="translate(632.763672 0)"/>
      <use xlink:href="#DejaVuSerif-69" transform="translate(699.462891 0)"/>
      <use xlink:href="#DejaVuSerif-6d" transform="translate(731.445312 0)"/>
      <use xlink:href="#DejaVuSerif-65" transform="translate(826.269531 0)"/>
      <use xlink:href="#DejaVuSerif-20" transform="translate(885.449219 0)"/>
      <use xlink:href="#DejaVuSerif-28" transform="translate(917.236328 0)"/>
      <use xlink:href="#DejaVuSerif-59" transform="translate(956.25 0)"/>
      <use xlink:href="#DejaVuSerif-65" transform="translate(1013.515625 0)"/>
      <use xlink:href="#DejaVuSerif-61" transform="translate(1072.695312 0)"/>
      <use xlink:href="#DejaVuSerif-72" transform="translate(1132.314453 0)"/>
      <use xlink:href="#DejaVuSerif-73" transform="translate(1180.117188 0)"/>
      <use xlink:href="#DejaVuSerif-29" transform="translate(1231.435547 0)"/>
     </g>
    </g>
   </g>
   <g id="matplotlib.axis_2">
    <g id="ytick_1">
     <g id="line2d_15">
      <path d="M 45.83 156.148982 
L 234.63 156.148982 
" clip-path="url(#pc13c09e5b5)" style="fill: none; stroke-dasharray: 2.96,1.28; stroke-dashoffset: 0; stroke: #b0b0b0; stroke-opacity: 0.5; stroke-width: 0.8"/>
     </g>
     <g id="line2d_16">
      <defs>
       <path id="m6394be32cd" d="M 0 0 
L -3.5 0 
" style="stroke: #000000; stroke-width: 0.8"/>
      </defs>
      <g>
       <use xlink:href="#m6394be32cd" x="45.83" y="156.148982" style="stroke: #000000; stroke-width: 0.8"/>
      </g>
     </g>
     <g id="text_9">
      <!-- 0.0 -->
      <g transform="translate(26.1075 159.188357) scale(0.08 -0.08)">
       <use xlink:href="#DejaVuSerif-30"/>
       <use xlink:href="#DejaVuSerif-2e" transform="translate(63.623047 0)"/>
       <use xlink:href="#DejaVuSerif-30" transform="translate(95.410156 0)"/>
      </g>
     </g>
    </g>
    <g id="ytick_2">
     <g id="line2d_17">
      <path d="M 45.83 126.30267 
L 234.63 126.30267 
" clip-path="url(#pc13c09e5b5)" style="fill: none; stroke-dasharray: 2.96,1.28; stroke-dashoffset: 0; stroke: #b0b0b0; stroke-opacity: 0.5; stroke-width: 0.8"/>
     </g>
     <g id="line2d_18">
      <g>
       <use xlink:href="#m6394be32cd" x="45.83" y="126.30267" style="stroke: #000000; stroke-width: 0.8"/>
      </g>
     </g>
     <g id="text_10">
      <!-- 0.5 -->
      <g transform="translate(26.1075 129.342045) scale(0.08 -0.08)">
       <use xlink:href="#DejaVuSerif-30"/>
       <use xlink:href="#DejaVuSerif-2e" transform="translate(63.623047 0)"/>
       <use xlink:href="#DejaVuSerif-35" transform="translate(95.410156 0)"/>
      </g>
     </g>
    </g>
    <g id="ytick_3">
     <g id="line2d_19">
      <path d="M 45.83 96.456358 
L 234.63 96.456358 
" clip-path="url(#pc13c09e5b5)" style="fill: none; stroke-dasharray: 2.96,1.28; stroke-dashoffset: 0; stroke: #b0b0b0; stroke-opacity: 0.5; stroke-width: 0.8"/>
     </g>
     <g id="line2d_20">
      <g>
       <use xlink:href="#m6394be32cd" x="45.83" y="96.456358" style="stroke: #000000; stroke-width: 0.8"/>
      </g>
     </g>
     <g id="text_11">
      <!-- 1.0 -->
      <g transform="translate(26.1075 99.495733) scale(0.08 -0.08)">
       <defs>
        <path id="DejaVuSerif-31" d="M 909 0 
L 909 331 
L 1722 331 
L 1722 4213 
L 781 3603 
L 781 4013 
L 1919 4750 
L 2350 4750 
L 2350 331 
L 3163 331 
L 3163 0 
L 909 0 
z
" transform="scale(0.015625)"/>
       </defs>
       <use xlink:href="#DejaVuSerif-31"/>
       <use xlink:href="#DejaVuSerif-2e" transform="translate(63.623047 0)"/>
       <use xlink:href="#DejaVuSerif-30" transform="translate(95.410156 0)"/>
      </g>
     </g>
    </g>
    <g id="ytick_4">
     <g id="line2d_21">
      <path d="M 45.83 66.610046 
L 234.63 66.610046 
" clip-path="url(#pc13c09e5b5)" style="fill: none; stroke-dasharray: 2.96,1.28; stroke-dashoffset: 0; stroke: #b0b0b0; stroke-opacity: 0.5; stroke-width: 0.8"/>
     </g>
     <g id="line2d_22">
      <g>
       <use xlink:href="#m6394be32cd" x="45.83" y="66.610046" style="stroke: #000000; stroke-width: 0.8"/>
      </g>
     </g>
     <g id="text_12">
      <!-- 1.5 -->
      <g transform="translate(26.1075 69.649421) scale(0.08 -0.08)">
       <use xlink:href="#DejaVuSerif-31"/>
       <use xlink:href="#DejaVuSerif-2e" transform="translate(63.623047 0)"/>
       <use xlink:href="#DejaVuSerif-35" transform="translate(95.410156 0)"/>
      </g>
     </g>
    </g>
    <g id="ytick_5">
     <g id="line2d_23">
      <path d="M 45.83 36.763734 
L 234.63 36.763734 
" clip-path="url(#pc13c09e5b5)" style="fill: none; stroke-dasharray: 2.96,1.28; stroke-dashoffset: 0; stroke: #b0b0b0; stroke-opacity: 0.5; stroke-width: 0.8"/>
     </g>
     <g id="line2d_24">
      <g>
       <use xlink:href="#m6394be32cd" x="45.83" y="36.763734" style="stroke: #000000; stroke-width: 0.8"/>
      </g>
     </g>
     <g id="text_13">
      <!-- 2.0 -->
      <g transform="translate(26.1075 39.803109) scale(0.08 -0.08)">
       <use xlink:href="#DejaVuSerif-32"/>
       <use xlink:href="#DejaVuSerif-2e" transform="translate(63.623047 0)"/>
       <use xlink:href="#DejaVuSerif-30" transform="translate(95.410156 0)"/>
      </g>
     </g>
    </g>
    <g id="text_14">
     <!-- Hazard Rate $\lambda(t)$ -->
     <g transform="translate(20.235781 123.425) rotate(-90) scale(0.09 -0.09)">
      <defs>
       <path id="DejaVuSerif-48" d="M 353 0 
L 353 331 
L 947 331 
L 947 4331 
L 353 4331 
L 353 4666 
L 2175 4666 
L 2175 4331 
L 1581 4331 
L 1581 2719 
L 4000 2719 
L 4000 4331 
L 3406 4331 
L 3406 4666 
L 5228 4666 
L 5228 4331 
L 4634 4331 
L 4634 331 
L 5228 331 
L 5228 0 
L 3406 0 
L 3406 331 
L 4000 331 
L 4000 2338 
L 1581 2338 
L 1581 331 
L 2175 331 
L 2175 0 
L 353 0 
z
" transform="scale(0.015625)"/>
       <path id="DejaVuSerif-7a" d="M 256 0 
L 256 269 
L 2338 2988 
L 691 2988 
L 691 2413 
L 359 2413 
L 359 3322 
L 3078 3322 
L 3078 3053 
L 997 331 
L 2803 331 
L 2803 934 
L 3138 934 
L 3138 0 
L 256 0 
z
" transform="scale(0.015625)"/>
       <path id="DejaVuSerif-64" d="M 3359 331 
L 3909 331 
L 3909 0 
L 2784 0 
L 2784 519 
Q 2616 206 2355 57 
Q 2094 -91 1709 -91 
Q 1097 -91 708 395 
Q 319 881 319 1663 
Q 319 2444 706 2928 
Q 1094 3413 1709 3413 
Q 2094 3413 2355 3264 
Q 2616 3116 2784 2803 
L 2784 4531 
L 2241 4531 
L 2241 4863 
L 3359 4863 
L 3359 331 
z
M 2784 1497 
L 2784 1825 
Q 2784 2422 2554 2737 
Q 2325 3053 1888 3053 
Q 1444 3053 1217 2703 
Q 991 2353 991 1663 
Q 991 975 1217 622 
Q 1444 269 1888 269 
Q 2325 269 2554 583 
Q 2784 897 2784 1497 
z
" transform="scale(0.015625)"/>
       <path id="DejaVuSerif-52" d="M 3066 2316 
Q 3284 2256 3442 2114 
Q 3600 1972 3725 1716 
L 4403 331 
L 4972 331 
L 4972 0 
L 3872 0 
L 3144 1484 
Q 2934 1916 2759 2042 
Q 2584 2169 2278 2169 
L 1581 2169 
L 1581 331 
L 2241 331 
L 2241 0 
L 353 0 
L 353 331 
L 947 331 
L 947 4331 
L 353 4331 
L 353 4666 
L 2719 4666 
Q 3400 4666 3770 4341 
Q 4141 4016 4141 3419 
Q 4141 2938 3870 2661 
Q 3600 2384 3066 2316 
z
M 1581 2503 
L 2503 2503 
Q 2975 2503 3200 2726 
Q 3425 2950 3425 3419 
Q 3425 3888 3200 4109 
Q 2975 4331 2503 4331 
L 1581 4331 
L 1581 2503 
z
" transform="scale(0.015625)"/>
       <path id="STIXGeneral-Italic-3bb" d="M 2656 787 
L 2758 787 
Q 2560 -102 2112 -102 
Q 1965 -102 1869 48 
Q 1773 198 1773 499 
Q 1773 672 1789 889 
Q 1805 1107 1833 1446 
Q 1862 1786 1875 2016 
L 538 0 
L -77 0 
L 1907 2739 
Q 1933 2970 1933 3245 
Q 1933 3936 1619 3936 
Q 1530 3936 1408 3821 
Q 1286 3706 1203 3462 
L 1101 3462 
Q 1312 4339 1747 4339 
Q 1926 4339 2041 4115 
Q 2157 3891 2157 3475 
Q 2157 3040 2093 2192 
Q 2029 1344 2029 941 
Q 2029 602 2089 451 
Q 2150 301 2291 301 
Q 2483 301 2656 787 
z
" transform="scale(0.015625)"/>
       <path id="STIXGeneral-Regular-28" d="M 1946 -1030 
L 1869 -1133 
Q 1126 -710 716 32 
Q 307 774 307 1613 
Q 307 3386 1888 4326 
L 1946 4224 
Q 1293 3667 1075 3126 
Q 858 2586 858 1632 
Q 858 685 1082 96 
Q 1306 -493 1946 -1030 
z
" transform="scale(0.015625)"/>
       <path id="STIXGeneral-Italic-74" d="M 1894 2739 
L 1862 2534 
L 1325 2534 
L 768 435 
Q 755 384 755 346 
Q 755 243 851 243 
Q 928 243 1030 342 
Q 1133 442 1370 749 
L 1453 704 
Q 1158 256 969 93 
Q 781 -70 538 -70 
Q 243 -70 243 166 
Q 243 230 346 640 
L 845 2534 
L 365 2534 
L 358 2573 
Q 358 2688 570 2733 
Q 730 2771 992 2979 
Q 1254 3187 1421 3437 
Q 1459 3494 1510 3494 
Q 1568 3494 1568 3443 
Q 1568 3411 1562 3398 
L 1382 2739 
L 1894 2739 
z
" transform="scale(0.015625)"/>
       <path id="STIXGeneral-Regular-29" d="M 186 4224 
L 262 4326 
Q 992 3891 1408 3148 
Q 1824 2406 1824 1581 
Q 1824 -166 243 -1133 
L 186 -1030 
Q 845 -486 1059 54 
Q 1274 595 1274 1562 
Q 1274 2534 1059 3120 
Q 845 3706 186 4224 
z
" transform="scale(0.015625)"/>
      </defs>
      <use xlink:href="#DejaVuSerif-48" transform="translate(0 0.015625)"/>
      <use xlink:href="#DejaVuSerif-61" transform="translate(87.207031 0.015625)"/>
      <use xlink:href="#DejaVuSerif-7a" transform="translate(146.826172 0.015625)"/>
      <use xlink:href="#DejaVuSerif-61" transform="translate(199.511719 0.015625)"/>
      <use xlink:href="#DejaVuSerif-72" transform="translate(259.130859 0.015625)"/>
      <use xlink:href="#DejaVuSerif-64" transform="translate(306.933594 0.015625)"/>
      <use xlink:href="#DejaVuSerif-20" transform="translate(370.947266 0.015625)"/>
      <use xlink:href="#DejaVuSerif-52" transform="translate(402.734375 0.015625)"/>
      <use xlink:href="#DejaVuSerif-61" transform="translate(478.027344 0.015625)"/>
      <use xlink:href="#DejaVuSerif-74" transform="translate(537.646484 0.015625)"/>
      <use xlink:href="#DejaVuSerif-65" transform="translate(577.832031 0.015625)"/>
      <use xlink:href="#DejaVuSerif-20" transform="translate(637.011719 0.015625)"/>
      <use xlink:href="#STIXGeneral-Italic-3bb" transform="translate(668.798828 0.015625)"/>
      <use xlink:href="#STIXGeneral-Regular-28" transform="translate(714.598816 0.015625)"/>
      <use xlink:href="#STIXGeneral-Italic-74" transform="translate(747.898804 0.015625)"/>
      <use xlink:href="#STIXGeneral-Regular-29" transform="translate(775.698792 0.015625)"/>
     </g>
    </g>
   </g>
   <g id="line2d_25">
    <path d="M 45.672562 154.721076 
L 222.83 153.351978 
L 222.83 153.351978 
" clip-path="url(#pc13c09e5b5)" style="fill: none; stroke-dasharray: 5.55,2.4; stroke-dashoffset: 0; stroke: #808080; stroke-width: 1.5"/>
   </g>
   <g id="line2d_26">
    <path d="M 45.672562 154.795604 
L 45.948079 154.676864 
L 46.223596 154.766517 
L 46.499113 154.658396 
L 46.77463 154.694896 
L 47.050147 154.846779 
L 47.325664 154.570495 
L 47.601181 154.546251 
L 47.876698 154.759915 
L 48.978766 154.638056 
L 49.254283 154.515022 
L 49.5298 154.708849 
L 50.080834 154.812491 
L 50.907385 154.522276 
L 51.182902 154.727294 
L 52.28497 154.446642 
L 52.560487 154.718421 
L 52.836004 154.712698 
L 53.111521 154.573367 
L 53.387038 154.60379 
L 53.662555 154.497478 
L 54.213589 154.69097 
L 54.764623 154.555494 
L 55.866691 154.541997 
L 56.417725 154.584572 
L 56.968759 154.62548 
L 57.244276 154.528566 
L 57.519793 154.707722 
L 57.79531 154.599542 
L 58.346344 154.625934 
L 58.621861 154.512014 
L 59.448412 154.742173 
L 59.723929 154.55157 
L 59.999446 154.558567 
L 60.274963 154.420642 
L 60.55048 154.639869 
L 61.377031 154.464987 
L 61.652548 154.612735 
L 62.479099 154.581407 
L 62.754616 154.636059 
L 63.30565 154.495893 
L 63.581167 154.681907 
L 63.856684 154.576057 
L 64.132201 154.648619 
L 64.407718 154.476895 
L 64.683235 154.71825 
L 65.509787 154.435589 
L 66.060821 154.621407 
L 66.336338 154.401223 
L 66.611855 154.697277 
L 66.887372 154.762466 
L 67.162889 154.524152 
L 67.713923 154.650916 
L 67.98944 154.494012 
L 68.815991 154.665958 
L 69.091508 154.471162 
L 69.642542 154.554081 
L 69.918059 154.377814 
L 70.193576 154.636932 
L 70.469093 154.67567 
L 71.295644 154.511159 
L 72.122195 154.638877 
L 72.397712 154.395497 
L 72.673229 154.530081 
L 72.948746 154.420638 
L 73.49978 154.475689 
L 75.152882 154.440814 
L 75.428399 154.510282 
L 75.703916 154.371251 
L 75.979433 154.55871 
L 76.25495 154.334842 
L 76.805984 154.620103 
L 77.081501 154.47847 
L 77.357018 154.548869 
L 77.632535 154.410565 
L 77.908052 154.542217 
L 78.183569 154.521678 
L 78.459086 154.648861 
L 78.734603 154.518117 
L 79.01012 154.692595 
L 79.285637 154.615329 
L 79.561154 154.403365 
L 80.112188 154.429243 
L 80.387705 154.551863 
L 80.938739 154.461488 
L 81.214256 154.562826 
L 81.489773 154.322435 
L 82.867358 154.629562 
L 83.142875 154.466817 
L 83.693909 154.530245 
L 83.969426 154.463668 
L 84.244943 154.275473 
L 84.795977 154.483451 
L 85.347011 154.302882 
L 86.449079 154.357398 
L 87.27563 154.356842 
L 87.551147 154.31767 
L 87.826664 154.457502 
L 88.102181 154.289551 
L 88.377698 154.387747 
L 88.653215 154.217553 
L 88.928732 154.463009 
L 89.204249 154.243793 
L 89.755284 154.453414 
L 91.408386 154.384831 
L 91.683903 154.18876 
L 93.888039 154.513372 
L 94.163556 154.326144 
L 94.439073 154.301863 
L 94.71459 154.400998 
L 94.990107 154.214722 
L 95.265624 154.463329 
L 95.541141 154.482614 
L 96.092175 154.253579 
L 96.367692 154.194476 
L 96.643209 154.38426 
L 96.918726 154.244506 
L 97.46976 154.352382 
L 98.020794 154.274351 
L 98.296311 154.471824 
L 98.571828 154.196383 
L 98.847345 154.202934 
L 99.122862 154.380434 
L 99.673896 154.276015 
L 100.775964 154.314191 
L 101.051481 154.20481 
L 101.602515 154.338823 
L 101.878032 154.234452 
L 102.153549 154.556516 
L 102.429066 154.196511 
L 102.704583 154.453052 
L 102.9801 154.327642 
L 103.531134 154.406932 
L 103.806651 154.184976 
L 104.082168 154.328701 
L 104.633202 154.286839 
L 105.184236 154.271573 
L 105.459753 154.391235 
L 105.73527 154.185058 
L 106.286304 154.409447 
L 107.112855 154.187656 
L 107.663889 154.290863 
L 107.939406 154.286292 
L 108.214923 154.069445 
L 108.49044 154.219098 
L 111.796644 154.221045 
L 112.072161 154.4049 
L 112.347678 154.141832 
L 112.898712 154.13031 
L 113.174229 154.476893 
L 113.449746 154.028469 
L 113.725264 154.225853 
L 114.000781 154.112023 
L 114.276298 154.302254 
L 114.551815 154.152168 
L 114.827332 154.29925 
L 115.102849 154.258672 
L 115.378366 154.029332 
L 115.653883 154.215678 
L 116.480434 154.147894 
L 117.031468 154.155379 
L 117.306985 153.970747 
L 117.582502 154.188995 
L 118.960087 154.116084 
L 119.235604 154.273505 
L 119.511121 154.022792 
L 119.786638 154.269577 
L 120.062155 154.137722 
L 120.337672 154.230242 
L 121.164223 154.127584 
L 122.817325 154.037151 
L 123.092842 154.251455 
L 123.368359 154.085927 
L 124.745944 154.117574 
L 125.848012 154.249272 
L 126.123529 153.975439 
L 126.399046 154.191922 
L 127.501114 154.226059 
L 127.776631 153.958441 
L 128.327665 154.162831 
L 128.603182 153.897408 
L 129.429733 154.316503 
L 129.70525 153.885453 
L 129.980767 154.212875 
L 130.256284 154.233653 
L 130.807318 153.863616 
L 131.358352 154.027318 
L 133.011454 154.07063 
L 133.838005 154.210213 
L 134.113522 154.0653 
L 134.664556 154.151041 
L 135.21559 153.92332 
L 135.491107 153.963598 
L 135.766624 154.184309 
L 136.042141 154.130162 
L 136.317658 153.95518 
L 136.593175 154.12525 
L 137.144209 153.983754 
L 137.419726 154.117572 
L 137.695243 154.019295 
L 137.970761 154.146039 
L 138.521795 153.993681 
L 138.797312 154.16281 
L 139.072829 153.978595 
L 139.89938 153.991565 
L 140.174897 153.887329 
L 140.725931 154.043638 
L 141.552482 153.994387 
L 142.379033 154.051687 
L 142.65455 154.115775 
L 142.930067 153.831387 
L 143.205584 154.097271 
L 144.583169 153.863445 
L 144.858686 154.033323 
L 145.134203 153.945891 
L 145.40972 154.04352 
L 145.685237 153.774501 
L 145.960754 154.070764 
L 146.511788 153.903381 
L 147.889373 153.96254 
L 148.16489 153.860921 
L 148.440407 154.760944 
L 148.715924 153.220719 
L 148.991441 153.290546 
L 149.266958 153.172894 
L 149.542475 152.931098 
L 149.817992 153.231136 
L 150.093509 153.009503 
L 150.369026 153.00314 
L 150.644543 153.200019 
L 151.195577 152.998828 
L 151.471094 153.175669 
L 152.573162 153.188213 
L 152.848679 153.236756 
L 153.124196 153.121201 
L 153.399713 153.190282 
L 153.67523 153.097493 
L 153.950747 153.254825 
L 154.226264 153.08297 
L 154.501781 154.433126 
L 154.777298 152.220507 
L 155.328332 151.924192 
L 155.603849 152.138488 
L 155.879366 151.876479 
L 156.4304 152.081486 
L 157.256951 151.999732 
L 157.532468 151.954355 
L 157.807985 152.081088 
L 158.083502 151.979544 
L 158.359019 152.117346 
L 158.634536 151.996778 
L 159.18557 152.044786 
L 159.461087 151.864302 
L 160.012121 151.912544 
L 160.287638 152.060941 
L 160.563155 153.914824 
L 160.838672 150.378808 
L 161.114189 150.469405 
L 161.389706 150.26909 
L 161.665223 150.436208 
L 162.767292 150.46373 
L 163.318326 150.353737 
L 163.86936 150.547914 
L 164.144877 150.587787 
L 164.420394 150.372547 
L 164.971428 150.60011 
L 165.522462 150.17343 
L 165.797979 150.391847 
L 166.073496 150.310878 
L 166.349013 150.37328 
L 166.62453 153.040025 
L 166.900047 148.264937 
L 167.175564 148.365996 
L 167.726598 148.296749 
L 168.002115 148.378146 
L 168.277632 148.22227 
L 168.828666 148.364304 
L 169.104183 148.241365 
L 169.3797 148.362618 
L 170.206251 148.163234 
L 170.757285 148.248228 
L 171.308319 148.107028 
L 172.410387 148.2979 
L 172.685904 151.881315 
L 172.961421 145.456281 
L 174.339006 145.309201 
L 174.614523 145.337196 
L 174.89004 145.510055 
L 175.441074 145.326482 
L 175.716591 145.412096 
L 176.267625 145.147116 
L 178.471761 145.240465 
L 178.747278 150.219055 
L 179.022795 141.334682 
L 179.573829 141.283425 
L 180.124863 141.211007 
L 180.675897 141.498177 
L 180.951414 141.172577 
L 181.226931 141.365356 
L 181.502448 141.249822 
L 182.053482 141.364497 
L 182.328999 141.141391 
L 182.604516 141.108621 
L 183.15555 141.382032 
L 183.706584 141.088381 
L 183.982101 141.242594 
L 184.257618 141.080466 
L 184.533135 141.084963 
L 184.808652 147.954623 
L 185.084169 135.764102 
L 185.359686 135.843985 
L 185.635203 135.631763 
L 185.91072 135.73514 
L 186.737272 135.706748 
L 187.288306 135.646604 
L 187.563823 135.459881 
L 187.83934 135.718008 
L 188.114857 135.721668 
L 188.390374 135.427483 
L 188.941408 135.583149 
L 189.216925 135.41214 
L 189.492442 135.541486 
L 189.767959 135.305767 
L 190.318993 135.476957 
L 190.59451 135.222105 
L 190.870027 144.997289 
L 191.145544 128.043406 
L 191.421061 128.058741 
L 191.972095 127.897087 
L 192.523129 128.055712 
L 192.798646 127.922736 
L 193.074163 128.000269 
L 193.34968 127.734973 
L 193.900714 127.899274 
L 194.176231 127.825679 
L 194.451748 127.938484 
L 194.727265 127.880506 
L 195.002782 127.661666 
L 195.278299 127.803605 
L 195.553816 127.814162 
L 196.10485 127.565514 
L 196.655884 127.53374 
L 196.931401 140.799507 
L 197.206918 117.700274 
L 197.482435 117.405612 
L 197.757952 117.536001 
L 198.033469 117.496633 
L 198.308986 117.322308 
L 198.86002 117.334518 
L 199.135537 117.148532 
L 199.411054 117.367044 
L 199.686571 117.193383 
L 200.237605 117.18647 
L 200.513122 117.040684 
L 201.064156 117.063374 
L 201.339673 116.982549 
L 201.890707 117.087725 
L 202.441741 117.122633 
L 202.717258 116.729442 
L 202.992775 135.042799 
L 203.268292 103.111804 
L 204.094843 102.885168 
L 204.37036 102.836555 
L 204.645877 102.921195 
L 206.298979 102.535373 
L 207.12553 102.450974 
L 207.401047 102.538624 
L 207.676564 102.342037 
L 208.227598 102.335774 
L 208.778632 102.08816 
L 209.054149 126.989961 
L 209.329666 83.168167 
L 209.605183 82.983026 
L 209.8807 83.053497 
L 210.156217 82.781706 
L 210.707252 83.051498 
L 210.982769 82.765967 
L 211.258286 82.738863 
L 211.533803 82.597071 
L 212.911388 82.486397 
L 213.462422 82.23656 
L 213.737939 82.079235 
L 214.288973 82.214803 
L 214.840007 81.879515 
L 215.115524 116.123233 
L 215.391041 55.878365 
L 216.768626 55.419901 
L 217.044143 55.455118 
L 218.146211 54.893659 
L 218.421728 55.002204 
L 218.972762 54.719148 
L 219.248279 54.847749 
L 219.799313 54.693519 
L 220.07483 54.361929 
L 220.350347 54.442446 
L 220.625864 54.082018 
L 220.901381 54.279631 
L 221.176898 101.051458 
L 221.452415 18.197718 
L 222.003449 17.929796 
L 222.83 17.729091 
L 222.83 17.729091 
" clip-path="url(#pc13c09e5b5)" style="fill: none; stroke: #000000; stroke-width: 1.2; stroke-linecap: square"/>
   </g>
   <g id="line2d_27">
    <path d="M 148.440407 163.24 
L 148.440407 10.8 
" clip-path="url(#pc13c09e5b5)" style="fill: none; stroke-dasharray: 1,1.65; stroke-dashoffset: 0; stroke: #0000ff; stroke-opacity: 0.5"/>
   </g>
   <g id="line2d_28">
    <path d="M 154.501781 163.24 
L 154.501781 10.8 
" clip-path="url(#pc13c09e5b5)" style="fill: none; stroke-dasharray: 1,1.65; stroke-dashoffset: 0; stroke: #0000ff; stroke-opacity: 0.5"/>
   </g>
   <g id="line2d_29">
    <path d="M 160.563155 163.24 
L 160.563155 10.8 
" clip-path="url(#pc13c09e5b5)" style="fill: none; stroke-dasharray: 1,1.65; stroke-dashoffset: 0; stroke: #0000ff; stroke-opacity: 0.5"/>
   </g>
   <g id="line2d_30">
    <path d="M 166.62453 163.24 
L 166.62453 10.8 
" clip-path="url(#pc13c09e5b5)" style="fill: none; stroke-dasharray: 1,1.65; stroke-dashoffset: 0; stroke: #0000ff; stroke-opacity: 0.5"/>
   </g>
   <g id="line2d_31">
    <path d="M 172.685904 163.24 
L 172.685904 10.8 
" clip-path="url(#pc13c09e5b5)" style="fill: none; stroke-dasharray: 1,1.65; stroke-dashoffset: 0; stroke: #0000ff; stroke-opacity: 0.5"/>
   </g>
   <g id="line2d_32">
    <path d="M 178.747278 163.24 
L 178.747278 10.8 
" clip-path="url(#pc13c09e5b5)" style="fill: none; stroke-dasharray: 1,1.65; stroke-dashoffset: 0; stroke: #0000ff; stroke-opacity: 0.5"/>
   </g>
   <g id="line2d_33">
    <path d="M 184.808652 163.24 
L 184.808652 10.8 
" clip-path="url(#pc13c09e5b5)" style="fill: none; stroke-dasharray: 1,1.65; stroke-dashoffset: 0; stroke: #0000ff; stroke-opacity: 0.5"/>
   </g>
   <g id="line2d_34">
    <path d="M 190.870027 163.24 
L 190.870027 10.8 
" clip-path="url(#pc13c09e5b5)" style="fill: none; stroke-dasharray: 1,1.65; stroke-dashoffset: 0; stroke: #0000ff; stroke-opacity: 0.5"/>
   </g>
   <g id="line2d_35">
    <path d="M 196.931401 163.24 
L 196.931401 10.8 
" clip-path="url(#pc13c09e5b5)" style="fill: none; stroke-dasharray: 1,1.65; stroke-dashoffset: 0; stroke: #0000ff; stroke-opacity: 0.5"/>
   </g>
   <g id="line2d_36">
    <path d="M 202.992775 163.24 
L 202.992775 10.8 
" clip-path="url(#pc13c09e5b5)" style="fill: none; stroke-dasharray: 1,1.65; stroke-dashoffset: 0; stroke: #0000ff; stroke-opacity: 0.5"/>
   </g>
   <g id="line2d_37">
    <path d="M 209.054149 163.24 
L 209.054149 10.8 
" clip-path="url(#pc13c09e5b5)" style="fill: none; stroke-dasharray: 1,1.65; stroke-dashoffset: 0; stroke: #0000ff; stroke-opacity: 0.5"/>
   </g>
   <g id="line2d_38">
    <path d="M 215.115524 163.24 
L 215.115524 10.8 
" clip-path="url(#pc13c09e5b5)" style="fill: none; stroke-dasharray: 1,1.65; stroke-dashoffset: 0; stroke: #0000ff; stroke-opacity: 0.5"/>
   </g>
   <g id="line2d_39">
    <path d="M 221.176898 163.24 
L 221.176898 10.8 
" clip-path="url(#pc13c09e5b5)" style="fill: none; stroke-dasharray: 1,1.65; stroke-dashoffset: 0; stroke: #0000ff; stroke-opacity: 0.5"/>
   </g>
   <g id="patch_4">
    <path d="M 45.83 163.24 
L 45.83 10.8 
" style="fill: none; stroke: #000000; stroke-width: 0.8; stroke-linejoin: miter; stroke-linecap: square"/>
   </g>
   <g id="patch_5">
    <path d="M 234.63 163.24 
L 234.63 10.8 
" style="fill: none; stroke: #000000; stroke-width: 0.8; stroke-linejoin: miter; stroke-linecap: square"/>
   </g>
   <g id="patch_6">
    <path d="M 45.83 163.24 
L 234.63 163.24 
" style="fill: none; stroke: #000000; stroke-width: 0.8; stroke-linejoin: miter; stroke-linecap: square"/>
   </g>
   <g id="patch_7">
    <path d="M 45.83 10.8 
L 234.63 10.8 
" style="fill: none; stroke: #000000; stroke-width: 0.8; stroke-linejoin: miter; stroke-linecap: square"/>
   </g>
   <g id="patch_8">
    <path d="M 124.050674 90.17925 
Q 171.77644 121.422109 218.753867 152.175081 
" style="fill: none; stroke: #000000; stroke-width: 0.8; stroke-linecap: round"/>
    <path d="M 216.952866 149.083739 
L 218.753867 152.175081 
L 215.200193 151.761076 
" style="fill: none; stroke: #000000; stroke-width: 0.8; stroke-linecap: round"/>
   </g>
   <g id="text_15">
    <g id="patch_9">
     <path d="M 69.43 88.581583 
L 140.7725 88.581583 
Q 143.1725 88.581583 143.1725 86.181583 
L 143.1725 69.253333 
Q 143.1725 66.853333 140.7725 66.853333 
L 69.43 66.853333 
Q 67.03 66.853333 67.03 69.253333 
L 67.03 86.181583 
Q 67.03 88.581583 69.43 88.581583 
z
" style="fill: #ffffff; opacity: 0.9; stroke: #808080; stroke-linejoin: miter"/>
    </g>
    <!-- Hayflick Limit -->
    <g transform="translate(69.43 75.445833) scale(0.08 -0.08)">
     <defs>
      <path id="DejaVuSerif-79" d="M 1381 -609 
L 1600 -56 
L 359 2988 
L -19 2988 
L -19 3322 
L 1509 3322 
L 1509 2988 
L 978 2988 
L 1913 703 
L 2847 2988 
L 2350 2988 
L 2350 3322 
L 3597 3322 
L 3597 2988 
L 3225 2988 
L 1703 -750 
Q 1547 -1138 1356 -1280 
Q 1166 -1422 819 -1422 
Q 672 -1422 517 -1397 
Q 363 -1372 206 -1325 
L 206 -691 
L 500 -691 
Q 519 -903 608 -995 
Q 697 -1088 884 -1088 
Q 1056 -1088 1161 -992 
Q 1266 -897 1381 -609 
z
" transform="scale(0.015625)"/>
      <path id="DejaVuSerif-66" d="M 2753 4078 
L 2450 4078 
Q 2447 4313 2317 4434 
Q 2188 4556 1941 4556 
Q 1619 4556 1487 4379 
Q 1356 4203 1356 3750 
L 1356 3322 
L 2284 3322 
L 2284 2988 
L 1356 2988 
L 1356 331 
L 2094 331 
L 2094 0 
L 231 0 
L 231 331 
L 781 331 
L 781 2988 
L 231 2988 
L 231 3322 
L 781 3322 
L 781 3738 
Q 781 4294 1070 4578 
Q 1359 4863 1919 4863 
Q 2128 4863 2337 4825 
Q 2547 4788 2753 4709 
L 2753 4078 
z
" transform="scale(0.015625)"/>
      <path id="DejaVuSerif-63" d="M 3291 997 
Q 3169 466 2822 187 
Q 2475 -91 1925 -91 
Q 1200 -91 759 389 
Q 319 869 319 1663 
Q 319 2459 759 2936 
Q 1200 3413 1925 3413 
Q 2241 3413 2553 3339 
Q 2866 3266 3181 3116 
L 3181 2266 
L 2847 2266 
Q 2781 2703 2561 2903 
Q 2341 3103 1931 3103 
Q 1466 3103 1228 2742 
Q 991 2381 991 1663 
Q 991 944 1227 581 
Q 1463 219 1931 219 
Q 2303 219 2525 412 
Q 2747 606 2828 997 
L 3291 997 
z
" transform="scale(0.015625)"/>
      <path id="DejaVuSerif-6b" d="M 1831 0 
L 219 0 
L 219 331 
L 738 331 
L 738 4531 
L 184 4531 
L 184 4863 
L 1313 4863 
L 1313 1697 
L 2713 2988 
L 2234 2988 
L 2234 3322 
L 3738 3322 
L 3738 2988 
L 3169 2988 
L 2181 2075 
L 3444 331 
L 3922 331 
L 3922 0 
L 2284 0 
L 2284 331 
L 2759 331 
L 1766 1697 
L 1313 1275 
L 1313 331 
L 1831 331 
L 1831 0 
z
" transform="scale(0.015625)"/>
      <path id="DejaVuSerif-4c" d="M 353 0 
L 353 331 
L 947 331 
L 947 4331 
L 353 4331 
L 353 4666 
L 2175 4666 
L 2175 4331 
L 1581 4331 
L 1581 384 
L 3713 384 
L 3713 1166 
L 4097 1166 
L 4097 0 
L 353 0 
z
" transform="scale(0.015625)"/>
     </defs>
     <use xlink:href="#DejaVuSerif-48"/>
     <use xlink:href="#DejaVuSerif-61" transform="translate(87.207031 0)"/>
     <use xlink:href="#DejaVuSerif-79" transform="translate(146.826172 0)"/>
     <use xlink:href="#DejaVuSerif-66" transform="translate(203.320312 0)"/>
     <use xlink:href="#DejaVuSerif-6c" transform="translate(240.332031 0)"/>
     <use xlink:href="#DejaVuSerif-69" transform="translate(272.314453 0)"/>
     <use xlink:href="#DejaVuSerif-63" transform="translate(304.296875 0)"/>
     <use xlink:href="#DejaVuSerif-6b" transform="translate(360.302734 0)"/>
     <use xlink:href="#DejaVuSerif-20" transform="translate(420.898438 0)"/>
     <use xlink:href="#DejaVuSerif-4c" transform="translate(452.685547 0)"/>
     <use xlink:href="#DejaVuSerif-69" transform="translate(519.091797 0)"/>
     <use xlink:href="#DejaVuSerif-6d" transform="translate(551.074219 0)"/>
     <use xlink:href="#DejaVuSerif-69" transform="translate(645.898438 0)"/>
     <use xlink:href="#DejaVuSerif-74" transform="translate(677.880859 0)"/>
    </g>
    <!-- (Cost &gt; Revenue) -->
    <g transform="translate(69.43 84.517833) scale(0.08 -0.08)">
     <defs>
      <path id="DejaVuSerif-43" d="M 4513 1234 
Q 4306 581 3820 245 
Q 3334 -91 2591 -91 
Q 2134 -91 1743 65 
Q 1353 222 1050 525 
Q 700 875 529 1320 
Q 359 1766 359 2328 
Q 359 3416 987 4083 
Q 1616 4750 2644 4750 
Q 3025 4750 3456 4650 
Q 3888 4550 4384 4347 
L 4384 3272 
L 4031 3272 
Q 3916 3859 3567 4137 
Q 3219 4416 2591 4416 
Q 1844 4416 1459 3886 
Q 1075 3356 1075 2328 
Q 1075 1303 1459 773 
Q 1844 244 2591 244 
Q 3113 244 3450 492 
Q 3788 741 3938 1234 
L 4513 1234 
z
" transform="scale(0.015625)"/>
      <path id="DejaVuSerif-3e" d="M 678 3188 
L 678 3719 
L 4684 2266 
L 4684 1747 
L 678 294 
L 678 825 
L 3922 2003 
L 678 3188 
z
" transform="scale(0.015625)"/>
      <path id="DejaVuSerif-76" d="M 1581 0 
L 359 2988 
L -19 2988 
L -19 3322 
L 1509 3322 
L 1509 2988 
L 978 2988 
L 1913 703 
L 2847 2988 
L 2350 2988 
L 2350 3322 
L 3597 3322 
L 3597 2988 
L 3225 2988 
L 2003 0 
L 1581 0 
z
" transform="scale(0.015625)"/>
      <path id="DejaVuSerif-75" d="M 2266 3322 
L 3341 3322 
L 3341 331 
L 3884 331 
L 3884 0 
L 2766 0 
L 2766 588 
Q 2606 256 2353 82 
Q 2100 -91 1766 -91 
Q 1213 -91 952 223 
Q 691 538 691 1209 
L 691 2988 
L 172 2988 
L 172 3322 
L 1269 3322 
L 1269 1388 
Q 1269 781 1417 556 
Q 1566 331 1947 331 
Q 2347 331 2556 625 
Q 2766 919 2766 1478 
L 2766 2988 
L 2266 2988 
L 2266 3322 
z
" transform="scale(0.015625)"/>
     </defs>
     <use xlink:href="#DejaVuSerif-28"/>
     <use xlink:href="#DejaVuSerif-43" transform="translate(39.013672 0)"/>
     <use xlink:href="#DejaVuSerif-6f" transform="translate(115.527344 0)"/>
     <use xlink:href="#DejaVuSerif-73" transform="translate(175.732422 0)"/>
     <use xlink:href="#DejaVuSerif-74" transform="translate(227.050781 0)"/>
     <use xlink:href="#DejaVuSerif-20" transform="translate(267.236328 0)"/>
     <use xlink:href="#DejaVuSerif-3e" transform="translate(299.023438 0)"/>
     <use xlink:href="#DejaVuSerif-20" transform="translate(382.8125 0)"/>
     <use xlink:href="#DejaVuSerif-52" transform="translate(414.599609 0)"/>
     <use xlink:href="#DejaVuSerif-65" transform="translate(489.892578 0)"/>
     <use xlink:href="#DejaVuSerif-76" transform="translate(549.072266 0)"/>
     <use xlink:href="#DejaVuSerif-65" transform="translate(605.566406 0)"/>
     <use xlink:href="#DejaVuSerif-6e" transform="translate(664.746094 0)"/>
     <use xlink:href="#DejaVuSerif-75" transform="translate(729.150391 0)"/>
     <use xlink:href="#DejaVuSerif-65" transform="translate(793.554688 0)"/>
     <use xlink:href="#DejaVuSerif-29" transform="translate(852.734375 0)"/>
    </g>
   </g>
   <g id="PathCollection_1">
    <defs>
     <path id="m0ff4c615b9" d="M -1.369306 2.738613 
L 0 1.369306 
L 1.369306 2.738613 
L 2.738613 1.369306 
L 1.369306 0 
L 2.738613 -1.369306 
L 1.369306 -2.738613 
L 0 -1.369306 
L -1.369306 -2.738613 
L -2.738613 -1.369306 
L -1.369306 0 
L -2.738613 1.369306 
z
" style="stroke: #ff0000"/>
    </defs>
    <g clip-path="url(#pc13c09e5b5)">
     <use xlink:href="#m0ff4c615b9" x="148.440407" y="153.761277" style="fill: #ff0000; stroke: #ff0000"/>
    </g>
   </g>
   <g id="PathCollection_2">
    <g clip-path="url(#pc13c09e5b5)">
     <use xlink:href="#m0ff4c615b9" x="154.501781" y="153.761277" style="fill: #ff0000; stroke: #ff0000"/>
    </g>
   </g>
   <g id="PathCollection_3">
    <g clip-path="url(#pc13c09e5b5)">
     <use xlink:href="#m0ff4c615b9" x="160.563155" y="153.761277" style="fill: #ff0000; stroke: #ff0000"/>
    </g>
   </g>
   <g id="PathCollection_4">
    <g clip-path="url(#pc13c09e5b5)">
     <use xlink:href="#m0ff4c615b9" x="166.62453" y="153.761277" style="fill: #ff0000; stroke: #ff0000"/>
    </g>
   </g>
   <g id="PathCollection_5">
    <g clip-path="url(#pc13c09e5b5)">
     <use xlink:href="#m0ff4c615b9" x="172.685904" y="153.761277" style="fill: #ff0000; stroke: #ff0000"/>
    </g>
   </g>
   <g id="PathCollection_6">
    <g clip-path="url(#pc13c09e5b5)">
     <use xlink:href="#m0ff4c615b9" x="178.747278" y="153.761277" style="fill: #ff0000; stroke: #ff0000"/>
    </g>
   </g>
   <g id="PathCollection_7">
    <g clip-path="url(#pc13c09e5b5)">
     <use xlink:href="#m0ff4c615b9" x="184.808652" y="153.761277" style="fill: #ff0000; stroke: #ff0000"/>
    </g>
   </g>
   <g id="PathCollection_8">
    <g clip-path="url(#pc13c09e5b5)">
     <use xlink:href="#m0ff4c615b9" x="190.870027" y="153.761277" style="fill: #ff0000; stroke: #ff0000"/>
    </g>
   </g>
   <g id="PathCollection_9">
    <g clip-path="url(#pc13c09e5b5)">
     <use xlink:href="#m0ff4c615b9" x="196.931401" y="153.761277" style="fill: #ff0000; stroke: #ff0000"/>
    </g>
   </g>
   <g id="PathCollection_10">
    <g clip-path="url(#pc13c09e5b5)">
     <use xlink:href="#m0ff4c615b9" x="202.992775" y="153.761277" style="fill: #ff0000; stroke: #ff0000"/>
    </g>
   </g>
   <g id="PathCollection_11">
    <g clip-path="url(#pc13c09e5b5)">
     <use xlink:href="#m0ff4c615b9" x="209.054149" y="153.761277" style="fill: #ff0000; stroke: #ff0000"/>
    </g>
   </g>
   <g id="PathCollection_12">
    <g clip-path="url(#pc13c09e5b5)">
     <use xlink:href="#m0ff4c615b9" x="215.115524" y="153.761277" style="fill: #ff0000; stroke: #ff0000"/>
    </g>
   </g>
   <g id="PathCollection_13">
    <g clip-path="url(#pc13c09e5b5)">
     <use xlink:href="#m0ff4c615b9" x="221.176898" y="153.761277" style="fill: #ff0000; stroke: #ff0000"/>
    </g>
   </g>
   <g id="legend_1">
    <g id="patch_10">
     <path d="M 50.73 57.598281 
L 146.739375 57.598281 
Q 148.139375 57.598281 148.139375 56.198281 
L 148.139375 15.7 
Q 148.139375 14.3 146.739375 14.3 
L 50.73 14.3 
Q 49.33 14.3 49.33 15.7 
L 49.33 56.198281 
Q 49.33 57.598281 50.73 57.598281 
z
" style="fill: #ffffff; opacity: 0.9; stroke: #cccccc; stroke-linejoin: miter"/>
    </g>
    <g id="line2d_40">
     <path d="M 52.13 19.968906 
L 59.13 19.968906 
L 66.13 19.968906 
" style="fill: none; stroke-dasharray: 5.55,2.4; stroke-dashoffset: 0; stroke: #808080; stroke-width: 1.5"/>
    </g>
    <g id="text_16">
     <!-- Baseline $\lambda_0(t)$ -->
     <g transform="translate(71.73 22.418906) scale(0.07 -0.07)">
      <defs>
       <path id="DejaVuSerif-42" d="M 1581 331 
L 2516 331 
Q 3078 331 3337 575 
Q 3597 819 3597 1350 
Q 3597 1878 3339 2120 
Q 3081 2363 2516 2363 
L 1581 2363 
L 1581 331 
z
M 1581 2694 
L 2375 2694 
Q 2888 2694 3123 2891 
Q 3359 3088 3359 3513 
Q 3359 3941 3123 4136 
Q 2888 4331 2375 4331 
L 1581 4331 
L 1581 2694 
z
M 353 0 
L 353 331 
L 947 331 
L 947 4331 
L 353 4331 
L 353 4666 
L 2656 4666 
Q 3363 4666 3720 4377 
Q 4078 4088 4078 3513 
Q 4078 3097 3829 2850 
Q 3581 2603 3103 2547 
Q 3697 2472 4005 2167 
Q 4313 1863 4313 1350 
Q 4313 656 3875 328 
Q 3438 0 2509 0 
L 353 0 
z
" transform="scale(0.015625)"/>
       <path id="STIXGeneral-Regular-30" d="M 3046 2112 
Q 3046 1683 2963 1302 
Q 2880 922 2717 602 
Q 2554 282 2266 96 
Q 1978 -90 1600 -90 
Q 1210 -90 915 108 
Q 621 307 461 640 
Q 301 973 227 1350 
Q 154 1728 154 2150 
Q 154 2746 301 3222 
Q 448 3699 790 4012 
Q 1133 4326 1626 4326 
Q 2253 4326 2649 3712 
Q 3046 3098 3046 2112 
z
M 2432 2080 
Q 2432 3091 2217 3625 
Q 2003 4160 1587 4160 
Q 1190 4160 979 3622 
Q 768 3085 768 2106 
Q 768 1120 979 598 
Q 1190 77 1600 77 
Q 2003 77 2217 598 
Q 2432 1120 2432 2080 
z
" transform="scale(0.015625)"/>
      </defs>
      <use xlink:href="#DejaVuSerif-42" transform="translate(0 0.015625)"/>
      <use xlink:href="#DejaVuSerif-61" transform="translate(73.486328 0.015625)"/>
      <use xlink:href="#DejaVuSerif-73" transform="translate(133.105469 0.015625)"/>
      <use xlink:href="#DejaVuSerif-65" transform="translate(184.423828 0.015625)"/>
      <use xlink:href="#DejaVuSerif-6c" transform="translate(243.603516 0.015625)"/>
      <use xlink:href="#DejaVuSerif-69" transform="translate(275.585938 0.015625)"/>
      <use xlink:href="#DejaVuSerif-6e" transform="translate(307.568359 0.015625)"/>
      <use xlink:href="#DejaVuSerif-65" transform="translate(371.972656 0.015625)"/>
      <use xlink:href="#DejaVuSerif-20" transform="translate(431.152344 0.015625)"/>
      <use xlink:href="#STIXGeneral-Italic-3bb" transform="translate(462.939453 0.015625)"/>
      <use xlink:href="#STIXGeneral-Regular-30" transform="translate(508.739441 -13.2125) scale(0.7)"/>
      <use xlink:href="#STIXGeneral-Regular-28" transform="translate(548.148805 0.015625)"/>
      <use xlink:href="#STIXGeneral-Italic-74" transform="translate(581.448793 0.015625)"/>
      <use xlink:href="#STIXGeneral-Regular-29" transform="translate(609.248781 0.015625)"/>
     </g>
    </g>
    <g id="line2d_41">
     <path d="M 52.13 30.243594 
L 59.13 30.243594 
L 66.13 30.243594 
" style="fill: none; stroke: #000000; stroke-width: 1.2; stroke-linecap: square"/>
    </g>
    <g id="text_17">
     <!-- Effective $\lambda_k(t)$ -->
     <g transform="translate(71.73 32.693594) scale(0.07 -0.07)">
      <defs>
       <path id="DejaVuSerif-45" d="M 353 0 
L 353 331 
L 947 331 
L 947 4331 
L 353 4331 
L 353 4666 
L 4109 4666 
L 4109 3628 
L 3725 3628 
L 3725 4281 
L 1581 4281 
L 1581 2719 
L 3109 2719 
L 3109 3303 
L 3494 3303 
L 3494 1753 
L 3109 1753 
L 3109 2338 
L 1581 2338 
L 1581 384 
L 3775 384 
L 3775 1038 
L 4159 1038 
L 4159 0 
L 353 0 
z
" transform="scale(0.015625)"/>
       <path id="STIXGeneral-Italic-6b" d="M 2950 2739 
L 2950 2637 
Q 2720 2624 2464 2448 
Q 2208 2272 1510 1651 
L 1747 1088 
Q 2099 262 2266 262 
Q 2400 262 2554 531 
Q 2586 582 2650 698 
L 2746 627 
Q 2522 224 2374 77 
Q 2227 -70 2035 -70 
Q 1894 -70 1782 42 
Q 1670 154 1517 454 
Q 1325 826 1133 1357 
L 877 1152 
L 570 0 
L 90 0 
L 992 3379 
Q 1082 3699 1107 3942 
Q 1088 4096 781 4096 
L 666 4096 
L 666 4198 
Q 1146 4256 1670 4371 
L 1709 4333 
L 941 1414 
L 1216 1626 
Q 2131 2330 2131 2522 
Q 2131 2637 1894 2637 
L 1805 2637 
L 1805 2739 
L 2950 2739 
z
" transform="scale(0.015625)"/>
      </defs>
      <use xlink:href="#DejaVuSerif-45" transform="translate(0 0.015625)"/>
      <use xlink:href="#DejaVuSerif-66" transform="translate(72.998047 0.015625)"/>
      <use xlink:href="#DejaVuSerif-66" transform="translate(110.009766 0.015625)"/>
      <use xlink:href="#DejaVuSerif-65" transform="translate(147.021484 0.015625)"/>
      <use xlink:href="#DejaVuSerif-63" transform="translate(206.201172 0.015625)"/>
      <use xlink:href="#DejaVuSerif-74" transform="translate(262.207031 0.015625)"/>
      <use xlink:href="#DejaVuSerif-69" transform="translate(302.392578 0.015625)"/>
      <use xlink:href="#DejaVuSerif-76" transform="translate(334.375 0.015625)"/>
      <use xlink:href="#DejaVuSerif-65" transform="translate(390.869141 0.015625)"/>
      <use xlink:href="#DejaVuSerif-20" transform="translate(450.048828 0.015625)"/>
      <use xlink:href="#STIXGeneral-Italic-3bb" transform="translate(481.835938 0.015625)"/>
      <use xlink:href="#STIXGeneral-Italic-6b" transform="translate(527.635925 -13.2125) scale(0.7)"/>
      <use xlink:href="#STIXGeneral-Regular-28" transform="translate(563.125296 0.015625)"/>
      <use xlink:href="#STIXGeneral-Italic-74" transform="translate(596.425284 0.015625)"/>
      <use xlink:href="#STIXGeneral-Regular-29" transform="translate(624.225272 0.015625)"/>
     </g>
    </g>
    <g id="PathCollection_14">
     <g>
      <use xlink:href="#m0ff4c615b9" x="59.13" y="41.130781" style="fill: #ff0000; stroke: #ff0000"/>
     </g>
    </g>
    <g id="text_18">
     <!-- Filtration Trigger -->
     <g transform="translate(71.73 42.968281) scale(0.07 -0.07)">
      <defs>
       <path id="DejaVuSerif-46" d="M 353 0 
L 353 331 
L 947 331 
L 947 4331 
L 353 4331 
L 353 4666 
L 4172 4666 
L 4172 3628 
L 3788 3628 
L 3788 4281 
L 1581 4281 
L 1581 2719 
L 3175 2719 
L 3175 3303 
L 3559 3303 
L 3559 1753 
L 3175 1753 
L 3175 2338 
L 1581 2338 
L 1581 331 
L 2328 331 
L 2328 0 
L 353 0 
z
" transform="scale(0.015625)"/>
       <path id="DejaVuSerif-67" d="M 3359 2988 
L 3359 72 
Q 3359 -644 2965 -1033 
Q 2572 -1422 1844 -1422 
Q 1516 -1422 1216 -1362 
Q 916 -1303 641 -1184 
L 641 -488 
L 941 -488 
Q 997 -813 1206 -963 
Q 1416 -1113 1806 -1113 
Q 2313 -1113 2548 -827 
Q 2784 -541 2784 72 
L 2784 519 
Q 2616 206 2355 57 
Q 2094 -91 1709 -91 
Q 1097 -91 708 395 
Q 319 881 319 1663 
Q 319 2444 706 2928 
Q 1094 3413 1709 3413 
Q 2094 3413 2355 3264 
Q 2616 3116 2784 2803 
L 2784 3322 
L 3909 3322 
L 3909 2988 
L 3359 2988 
z
M 2784 1825 
Q 2784 2422 2554 2737 
Q 2325 3053 1888 3053 
Q 1444 3053 1217 2703 
Q 991 2353 991 1663 
Q 991 975 1217 622 
Q 1444 269 1888 269 
Q 2325 269 2554 583 
Q 2784 897 2784 1497 
L 2784 1825 
z
" transform="scale(0.015625)"/>
      </defs>
      <use xlink:href="#DejaVuSerif-46"/>
      <use xlink:href="#DejaVuSerif-69" transform="translate(69.384766 0)"/>
      <use xlink:href="#DejaVuSerif-6c" transform="translate(101.367188 0)"/>
      <use xlink:href="#DejaVuSerif-74" transform="translate(133.349609 0)"/>
      <use xlink:href="#DejaVuSerif-72" transform="translate(173.535156 0)"/>
      <use xlink:href="#DejaVuSerif-61" transform="translate(221.337891 0)"/>
      <use xlink:href="#DejaVuSerif-74" transform="translate(280.957031 0)"/>
      <use xlink:href="#DejaVuSerif-69" transform="translate(321.142578 0)"/>
      <use xlink:href="#DejaVuSerif-6f" transform="translate(353.125 0)"/>
      <use xlink:href="#DejaVuSerif-6e" transform="translate(413.330078 0)"/>
      <use xlink:href="#DejaVuSerif-20" transform="translate(477.734375 0)"/>
      <use xlink:href="#DejaVuSerif-54" transform="translate(509.521484 0)"/>
      <use xlink:href="#DejaVuSerif-72" transform="translate(576.220703 0)"/>
      <use xlink:href="#DejaVuSerif-69" transform="translate(624.023438 0)"/>
      <use xlink:href="#DejaVuSerif-67" transform="translate(656.005859 0)"/>
      <use xlink:href="#DejaVuSerif-67" transform="translate(720.019531 0)"/>
      <use xlink:href="#DejaVuSerif-65" transform="translate(784.033203 0)"/>
      <use xlink:href="#DejaVuSerif-72" transform="translate(843.212891 0)"/>
     </g>
    </g>
    <g id="patch_11">
     <path d="M 52.13 53.3425 
L 66.13 53.3425 
L 66.13 48.4425 
L 52.13 48.4425 
z
" style="fill: #ff0000; opacity: 0.1; stroke: #ff0000; stroke-linejoin: miter"/>
    </g>
    <g id="text_19">
     <!-- Economic RUL Limit -->
     <g transform="translate(71.73 53.3425) scale(0.07 -0.07)">
      <defs>
       <path id="DejaVuSerif-55" d="M 897 4331 
L 300 4331 
L 300 4666 
L 2125 4666 
L 2125 4331 
L 1528 4331 
L 1528 1919 
Q 1528 1025 1820 672 
Q 2113 319 2828 319 
Q 3544 319 3836 672 
Q 4128 1025 4128 1919 
L 4128 4331 
L 3531 4331 
L 3531 4666 
L 5106 4666 
L 5106 4331 
L 4513 4331 
L 4513 1856 
Q 4513 791 4103 350 
Q 3694 -91 2713 -91 
Q 1731 -91 1314 353 
Q 897 797 897 1856 
L 897 4331 
z
" transform="scale(0.015625)"/>
      </defs>
      <use xlink:href="#DejaVuSerif-45"/>
      <use xlink:href="#DejaVuSerif-63" transform="translate(72.998047 0)"/>
      <use xlink:href="#DejaVuSerif-6f" transform="translate(129.003906 0)"/>
      <use xlink:href="#DejaVuSerif-6e" transform="translate(189.208984 0)"/>
      <use xlink:href="#DejaVuSerif-6f" transform="translate(253.613281 0)"/>
      <use xlink:href="#DejaVuSerif-6d" transform="translate(313.818359 0)"/>
      <use xlink:href="#DejaVuSerif-69" transform="translate(408.642578 0)"/>
      <use xlink:href="#DejaVuSerif-63" transform="translate(440.625 0)"/>
      <use xlink:href="#DejaVuSerif-20" transform="translate(496.630859 0)"/>
      <use xlink:href="#DejaVuSerif-52" transform="translate(528.417969 0)"/>
      <use xlink:href="#DejaVuSerif-55" transform="translate(603.710938 0)"/>
      <use xlink:href="#DejaVuSerif-4c" transform="translate(687.988281 0)"/>
      <use xlink:href="#DejaVuSerif-20" transform="translate(754.394531 0)"/>
      <use xlink:href="#DejaVuSerif-4c" transform="translate(786.181641 0)"/>
      <use xlink:href="#DejaVuSerif-69" transform="translate(852.587891 0)"/>
      <use xlink:href="#DejaVuSerif-6d" transform="translate(884.570312 0)"/>
      <use xlink:href="#DejaVuSerif-69" transform="translate(979.394531 0)"/>
      <use xlink:href="#DejaVuSerif-74" transform="translate(1011.376953 0)"/>
     </g>
    </g>
   </g>
  </g>
 </g>
 <defs>
  <clipPath id="pc13c09e5b5">
   <rect x="45.83" y="10.8" width="188.8" height="152.44"/>
  </clipPath>
 </defs>
</svg>
