<?xml version="1.0" encoding="utf-8" standalone="no"?>
<!DOCTYPE svg PUBLIC "-//W3C//DTD SVG 1.1//EN"
  "http://www.w3.org/Graphics/SVG/1.1/DTD/svg11.dtd">
<svg xmlns:xlink="http://www.w3.org/1999/xlink" width="240.163125pt" height="387.034375pt" viewBox="0 0 240.163125 387.034375" xmlns="http://www.w3.org/2000/svg" version="1.1">
 <metadata>
  <rdf:RDF xmlns:dc="http://purl.org/dc/elements/1.1/" xmlns:cc="http://creativecommons.org/ns#" xmlns:rdf="http://www.w3.org/1999/02/22-rdf-syntax-ns#">
   <cc:Work>
    <dc:type rdf:resource="http://purl.org/dc/dcmitype/StillImage"/>
    <dc:date>2026-06-18T20:04:58.381925</dc:date>
    <dc:format>image/svg+xml</dc:format>
    <dc:creator>
     <cc:Agent>
      <dc:title>Matplotlib v3.10.8, https://matplotlib.org/</dc:title>
     </cc:Agent>
    </dc:creator>
   </cc:Work>
  </rdf:RDF>
 </metadata>
 <defs>
  <style type="text/css">*{stroke-linejoin: round; stroke-linecap: butt}</style>
 </defs>
 <g id="figure_1">
  <g id="patch_1">
   <path d="M 0 387.034375 
L 240.163125 387.034375 
L 240.163125 0 
L 0 0 
z
" style="fill: #ffffff"/>
  </g>
  <g id="axes_1">
   <g id="patch_2">
    <path d="M 43.803125 163.918125 
L 232.963125 163.918125 
L 232.963125 22.318125 
L 43.803125 22.318125 
z
" style="fill: #ffffff"/>
   </g>
   <g id="matplotlib.axis_1">
    <g id="xtick_1">
     <g id="line2d_1">
      <path d="M 52.401307 163.918125 
L 52.401307 22.318125 
" clip-path="url(#pf5c7827a04)" style="fill: none; stroke-dasharray: 2.96,1.28; stroke-dashoffset: 0; stroke: #b0b0b0; stroke-opacity: 0.5; stroke-width: 0.8"/>
     </g>
     <g id="line2d_2">
      <defs>
       <path id="mde144b0c70" d="M 0 0 
L 0 3.5 
" style="stroke: #000000; stroke-width: 0.8"/>
      </defs>
      <g>
       <use xlink:href="#mde144b0c70" x="52.401307" y="163.918125" style="stroke: #000000; stroke-width: 0.8"/>
      </g>
     </g>
     <g id="text_1">
      <!-- 0 -->
      <g transform="translate(49.220057 178.516562) scale(0.1 -0.1)">
       <defs>
        <path id="DejaVuSans-30" d="M 2034 4250 
Q 1547 4250 1301 3770 
Q 1056 3291 1056 2328 
Q 1056 1369 1301 889 
Q 1547 409 2034 409 
Q 2525 409 2770 889 
Q 3016 1369 3016 2328 
Q 3016 3291 2770 3770 
Q 2525 4250 2034 4250 
z
M 2034 4750 
Q 2819 4750 3233 4129 
Q 3647 3509 3647 2328 
Q 3647 1150 3233 529 
Q 2819 -91 2034 -91 
Q 1250 -91 836 529 
Q 422 1150 422 2328 
Q 422 3509 836 4129 
Q 1250 4750 2034 4750 
z
" transform="scale(0.015625)"/>
       </defs>
       <use xlink:href="#DejaVuSans-30"/>
      </g>
     </g>
    </g>
    <g id="xtick_2">
     <g id="line2d_3">
      <path d="M 109.722519 163.918125 
L 109.722519 22.318125 
" clip-path="url(#pf5c7827a04)" style="fill: none; stroke-dasharray: 2.96,1.28; stroke-dashoffset: 0; stroke: #b0b0b0; stroke-opacity: 0.5; stroke-width: 0.8"/>
     </g>
     <g id="line2d_4">
      <g>
       <use xlink:href="#mde144b0c70" x="109.722519" y="163.918125" style="stroke: #000000; stroke-width: 0.8"/>
      </g>
     </g>
     <g id="text_2">
      <!-- 10 -->
      <g transform="translate(103.360019 178.516562) scale(0.1 -0.1)">
       <defs>
        <path id="DejaVuSans-31" d="M 794 531 
L 1825 531 
L 1825 4091 
L 703 3866 
L 703 4441 
L 1819 4666 
L 2450 4666 
L 2450 531 
L 3481 531 
L 3481 0 
L 794 0 
L 794 531 
z
" transform="scale(0.015625)"/>
       </defs>
       <use xlink:href="#DejaVuSans-31"/>
       <use xlink:href="#DejaVuSans-30" transform="translate(63.623047 0)"/>
      </g>
     </g>
    </g>
    <g id="xtick_3">
     <g id="line2d_5">
      <path d="M 167.043731 163.918125 
L 167.043731 22.318125 
" clip-path="url(#pf5c7827a04)" style="fill: none; stroke-dasharray: 2.96,1.28; stroke-dashoffset: 0; stroke: #b0b0b0; stroke-opacity: 0.5; stroke-width: 0.8"/>
     </g>
     <g id="line2d_6">
      <g>
       <use xlink:href="#mde144b0c70" x="167.043731" y="163.918125" style="stroke: #000000; stroke-width: 0.8"/>
      </g>
     </g>
     <g id="text_3">
      <!-- 20 -->
      <g transform="translate(160.681231 178.516562) scale(0.1 -0.1)">
       <defs>
        <path id="DejaVuSans-32" d="M 1228 531 
L 3431 531 
L 3431 0 
L 469 0 
L 469 531 
Q 828 903 1448 1529 
Q 2069 2156 2228 2338 
Q 2531 2678 2651 2914 
Q 2772 3150 2772 3378 
Q 2772 3750 2511 3984 
Q 2250 4219 1831 4219 
Q 1534 4219 1204 4116 
Q 875 4013 500 3803 
L 500 4441 
Q 881 4594 1212 4672 
Q 1544 4750 1819 4750 
Q 2544 4750 2975 4387 
Q 3406 4025 3406 3419 
Q 3406 3131 3298 2873 
Q 3191 2616 2906 2266 
Q 2828 2175 2409 1742 
Q 1991 1309 1228 531 
z
" transform="scale(0.015625)"/>
       </defs>
       <use xlink:href="#DejaVuSans-32"/>
       <use xlink:href="#DejaVuSans-30" transform="translate(63.623047 0)"/>
      </g>
     </g>
    </g>
    <g id="xtick_4">
     <g id="line2d_7">
      <path d="M 224.364943 163.918125 
L 224.364943 22.318125 
" clip-path="url(#pf5c7827a04)" style="fill: none; stroke-dasharray: 2.96,1.28; stroke-dashoffset: 0; stroke: #b0b0b0; stroke-opacity: 0.5; stroke-width: 0.8"/>
     </g>
     <g id="line2d_8">
      <g>
       <use xlink:href="#mde144b0c70" x="224.364943" y="163.918125" style="stroke: #000000; stroke-width: 0.8"/>
      </g>
     </g>
     <g id="text_4">
      <!-- 30 -->
      <g transform="translate(218.002443 178.516562) scale(0.1 -0.1)">
       <defs>
        <path id="DejaVuSans-33" d="M 2597 2516 
Q 3050 2419 3304 2112 
Q 3559 1806 3559 1356 
Q 3559 666 3084 287 
Q 2609 -91 1734 -91 
Q 1441 -91 1130 -33 
Q 819 25 488 141 
L 488 750 
Q 750 597 1062 519 
Q 1375 441 1716 441 
Q 2309 441 2620 675 
Q 2931 909 2931 1356 
Q 2931 1769 2642 2001 
Q 2353 2234 1838 2234 
L 1294 2234 
L 1294 2753 
L 1863 2753 
Q 2328 2753 2575 2939 
Q 2822 3125 2822 3475 
Q 2822 3834 2567 4026 
Q 2313 4219 1838 4219 
Q 1578 4219 1281 4162 
Q 984 4106 628 3988 
L 628 4550 
Q 988 4650 1302 4700 
Q 1616 4750 1894 4750 
Q 2613 4750 3031 4423 
Q 3450 4097 3450 3541 
Q 3450 3153 3228 2886 
Q 3006 2619 2597 2516 
z
" transform="scale(0.015625)"/>
       </defs>
       <use xlink:href="#DejaVuSans-33"/>
       <use xlink:href="#DejaVuSans-30" transform="translate(63.623047 0)"/>
      </g>
     </g>
    </g>
   </g>
   <g id="matplotlib.axis_2">
    <g id="ytick_1">
     <g id="line2d_9">
      <path d="M 43.803125 163.918125 
L 232.963125 163.918125 
" clip-path="url(#pf5c7827a04)" style="fill: none; stroke-dasharray: 2.96,1.28; stroke-dashoffset: 0; stroke: #b0b0b0; stroke-opacity: 0.5; stroke-width: 0.8"/>
     </g>
     <g id="line2d_10">
      <defs>
       <path id="mc0e6b39803" d="M 0 0 
L -3.5 0 
" style="stroke: #000000; stroke-width: 0.8"/>
      </defs>
      <g>
       <use xlink:href="#mc0e6b39803" x="43.803125" y="163.918125" style="stroke: #000000; stroke-width: 0.8"/>
      </g>
     </g>
     <g id="text_5">
      <!-- 0.0 -->
      <g transform="translate(20.9 167.717344) scale(0.1 -0.1)">
       <defs>
        <path id="DejaVuSans-2e" d="M 684 794 
L 1344 794 
L 1344 0 
L 684 0 
L 684 794 
z
" transform="scale(0.015625)"/>
       </defs>
       <use xlink:href="#DejaVuSans-30"/>
       <use xlink:href="#DejaVuSans-2e" transform="translate(63.623047 0)"/>
       <use xlink:href="#DejaVuSans-30" transform="translate(95.410156 0)"/>
      </g>
     </g>
    </g>
    <g id="ytick_2">
     <g id="line2d_11">
      <path d="M 43.803125 136.946696 
L 232.963125 136.946696 
" clip-path="url(#pf5c7827a04)" style="fill: none; stroke-dasharray: 2.96,1.28; stroke-dashoffset: 0; stroke: #b0b0b0; stroke-opacity: 0.5; stroke-width: 0.8"/>
     </g>
     <g id="line2d_12">
      <g>
       <use xlink:href="#mc0e6b39803" x="43.803125" y="136.946696" style="stroke: #000000; stroke-width: 0.8"/>
      </g>
     </g>
     <g id="text_6">
      <!-- 0.2 -->
      <g transform="translate(20.9 140.745915) scale(0.1 -0.1)">
       <use xlink:href="#DejaVuSans-30"/>
       <use xlink:href="#DejaVuSans-2e" transform="translate(63.623047 0)"/>
       <use xlink:href="#DejaVuSans-32" transform="translate(95.410156 0)"/>
      </g>
     </g>
    </g>
    <g id="ytick_3">
     <g id="line2d_13">
      <path d="M 43.803125 109.975268 
L 232.963125 109.975268 
" clip-path="url(#pf5c7827a04)" style="fill: none; stroke-dasharray: 2.96,1.28; stroke-dashoffset: 0; stroke: #b0b0b0; stroke-opacity: 0.5; stroke-width: 0.8"/>
     </g>
     <g id="line2d_14">
      <g>
       <use xlink:href="#mc0e6b39803" x="43.803125" y="109.975268" style="stroke: #000000; stroke-width: 0.8"/>
      </g>
     </g>
     <g id="text_7">
      <!-- 0.4 -->
      <g transform="translate(20.9 113.774487) scale(0.1 -0.1)">
       <defs>
        <path id="DejaVuSans-34" d="M 2419 4116 
L 825 1625 
L 2419 1625 
L 2419 4116 
z
M 2253 4666 
L 3047 4666 
L 3047 1625 
L 3713 1625 
L 3713 1100 
L 3047 1100 
L 3047 0 
L 2419 0 
L 2419 1100 
L 313 1100 
L 313 1709 
L 2253 4666 
z
" transform="scale(0.015625)"/>
       </defs>
       <use xlink:href="#DejaVuSans-30"/>
       <use xlink:href="#DejaVuSans-2e" transform="translate(63.623047 0)"/>
       <use xlink:href="#DejaVuSans-34" transform="translate(95.410156 0)"/>
      </g>
     </g>
    </g>
    <g id="ytick_4">
     <g id="line2d_15">
      <path d="M 43.803125 83.003839 
L 232.963125 83.003839 
" clip-path="url(#pf5c7827a04)" style="fill: none; stroke-dasharray: 2.96,1.28; stroke-dashoffset: 0; stroke: #b0b0b0; stroke-opacity: 0.5; stroke-width: 0.8"/>
     </g>
     <g id="line2d_16">
      <g>
       <use xlink:href="#mc0e6b39803" x="43.803125" y="83.003839" style="stroke: #000000; stroke-width: 0.8"/>
      </g>
     </g>
     <g id="text_8">
      <!-- 0.6 -->
      <g transform="translate(20.9 86.803058) scale(0.1 -0.1)">
       <defs>
        <path id="DejaVuSans-36" d="M 2113 2584 
Q 1688 2584 1439 2293 
Q 1191 2003 1191 1497 
Q 1191 994 1439 701 
Q 1688 409 2113 409 
Q 2538 409 2786 701 
Q 3034 994 3034 1497 
Q 3034 2003 2786 2293 
Q 2538 2584 2113 2584 
z
M 3366 4563 
L 3366 3988 
Q 3128 4100 2886 4159 
Q 2644 4219 2406 4219 
Q 1781 4219 1451 3797 
Q 1122 3375 1075 2522 
Q 1259 2794 1537 2939 
Q 1816 3084 2150 3084 
Q 2853 3084 3261 2657 
Q 3669 2231 3669 1497 
Q 3669 778 3244 343 
Q 2819 -91 2113 -91 
Q 1303 -91 875 529 
Q 447 1150 447 2328 
Q 447 3434 972 4092 
Q 1497 4750 2381 4750 
Q 2619 4750 2861 4703 
Q 3103 4656 3366 4563 
z
" transform="scale(0.015625)"/>
       </defs>
       <use xlink:href="#DejaVuSans-30"/>
       <use xlink:href="#DejaVuSans-2e" transform="translate(63.623047 0)"/>
       <use xlink:href="#DejaVuSans-36" transform="translate(95.410156 0)"/>
      </g>
     </g>
    </g>
    <g id="ytick_5">
     <g id="line2d_17">
      <path d="M 43.803125 56.032411 
L 232.963125 56.032411 
" clip-path="url(#pf5c7827a04)" style="fill: none; stroke-dasharray: 2.96,1.28; stroke-dashoffset: 0; stroke: #b0b0b0; stroke-opacity: 0.5; stroke-width: 0.8"/>
     </g>
     <g id="line2d_18">
      <g>
       <use xlink:href="#mc0e6b39803" x="43.803125" y="56.032411" style="stroke: #000000; stroke-width: 0.8"/>
      </g>
     </g>
     <g id="text_9">
      <!-- 0.8 -->
      <g transform="translate(20.9 59.831629) scale(0.1 -0.1)">
       <defs>
        <path id="DejaVuSans-38" d="M 2034 2216 
Q 1584 2216 1326 1975 
Q 1069 1734 1069 1313 
Q 1069 891 1326 650 
Q 1584 409 2034 409 
Q 2484 409 2743 651 
Q 3003 894 3003 1313 
Q 3003 1734 2745 1975 
Q 2488 2216 2034 2216 
z
M 1403 2484 
Q 997 2584 770 2862 
Q 544 3141 544 3541 
Q 544 4100 942 4425 
Q 1341 4750 2034 4750 
Q 2731 4750 3128 4425 
Q 3525 4100 3525 3541 
Q 3525 3141 3298 2862 
Q 3072 2584 2669 2484 
Q 3125 2378 3379 2068 
Q 3634 1759 3634 1313 
Q 3634 634 3220 271 
Q 2806 -91 2034 -91 
Q 1263 -91 848 271 
Q 434 634 434 1313 
Q 434 1759 690 2068 
Q 947 2378 1403 2484 
z
M 1172 3481 
Q 1172 3119 1398 2916 
Q 1625 2713 2034 2713 
Q 2441 2713 2670 2916 
Q 2900 3119 2900 3481 
Q 2900 3844 2670 4047 
Q 2441 4250 2034 4250 
Q 1625 4250 1398 4047 
Q 1172 3844 1172 3481 
z
" transform="scale(0.015625)"/>
       </defs>
       <use xlink:href="#DejaVuSans-30"/>
       <use xlink:href="#DejaVuSans-2e" transform="translate(63.623047 0)"/>
       <use xlink:href="#DejaVuSans-38" transform="translate(95.410156 0)"/>
      </g>
     </g>
    </g>
    <g id="ytick_6">
     <g id="line2d_19">
      <path d="M 43.803125 29.060982 
L 232.963125 29.060982 
" clip-path="url(#pf5c7827a04)" style="fill: none; stroke-dasharray: 2.96,1.28; stroke-dashoffset: 0; stroke: #b0b0b0; stroke-opacity: 0.5; stroke-width: 0.8"/>
     </g>
     <g id="line2d_20">
      <g>
       <use xlink:href="#mc0e6b39803" x="43.803125" y="29.060982" style="stroke: #000000; stroke-width: 0.8"/>
      </g>
     </g>
     <g id="text_10">
      <!-- 1.0 -->
      <g transform="translate(20.9 32.860201) scale(0.1 -0.1)">
       <use xlink:href="#DejaVuSans-31"/>
       <use xlink:href="#DejaVuSans-2e" transform="translate(63.623047 0)"/>
       <use xlink:href="#DejaVuSans-30" transform="translate(95.410156 0)"/>
      </g>
     </g>
    </g>
    <g id="text_11">
     <!-- Survival Probability $S(t)$ -->
     <g transform="translate(14.8 152.168125) rotate(-90) scale(0.1 -0.1)">
      <defs>
       <path id="DejaVuSans-53" d="M 3425 4513 
L 3425 3897 
Q 3066 4069 2747 4153 
Q 2428 4238 2131 4238 
Q 1616 4238 1336 4038 
Q 1056 3838 1056 3469 
Q 1056 3159 1242 3001 
Q 1428 2844 1947 2747 
L 2328 2669 
Q 3034 2534 3370 2195 
Q 3706 1856 3706 1288 
Q 3706 609 3251 259 
Q 2797 -91 1919 -91 
Q 1588 -91 1214 -16 
Q 841 59 441 206 
L 441 856 
Q 825 641 1194 531 
Q 1563 422 1919 422 
Q 2459 422 2753 634 
Q 3047 847 3047 1241 
Q 3047 1584 2836 1778 
Q 2625 1972 2144 2069 
L 1759 2144 
Q 1053 2284 737 2584 
Q 422 2884 422 3419 
Q 422 4038 858 4394 
Q 1294 4750 2059 4750 
Q 2388 4750 2728 4690 
Q 3069 4631 3425 4513 
z
" transform="scale(0.015625)"/>
       <path id="DejaVuSans-75" d="M 544 1381 
L 544 3500 
L 1119 3500 
L 1119 1403 
Q 1119 906 1312 657 
Q 1506 409 1894 409 
Q 2359 409 2629 706 
Q 2900 1003 2900 1516 
L 2900 3500 
L 3475 3500 
L 3475 0 
L 2900 0 
L 2900 538 
Q 2691 219 2414 64 
Q 2138 -91 1772 -91 
Q 1169 -91 856 284 
Q 544 659 544 1381 
z
M 1991 3584 
L 1991 3584 
z
" transform="scale(0.015625)"/>
       <path id="DejaVuSans-72" d="M 2631 2963 
Q 2534 3019 2420 3045 
Q 2306 3072 2169 3072 
Q 1681 3072 1420 2755 
Q 1159 2438 1159 1844 
L 1159 0 
L 581 0 
L 581 3500 
L 1159 3500 
L 1159 2956 
Q 1341 3275 1631 3429 
Q 1922 3584 2338 3584 
Q 2397 3584 2469 3576 
Q 2541 3569 2628 3553 
L 2631 2963 
z
" transform="scale(0.015625)"/>
       <path id="DejaVuSans-76" d="M 191 3500 
L 800 3500 
L 1894 563 
L 2988 3500 
L 3597 3500 
L 2284 0 
L 1503 0 
L 191 3500 
z
" transform="scale(0.015625)"/>
       <path id="DejaVuSans-69" d="M 603 3500 
L 1178 3500 
L 1178 0 
L 603 0 
L 603 3500 
z
M 603 4863 
L 1178 4863 
L 1178 4134 
L 603 4134 
L 603 4863 
z
" transform="scale(0.015625)"/>
       <path id="DejaVuSans-61" d="M 2194 1759 
Q 1497 1759 1228 1600 
Q 959 1441 959 1056 
Q 959 750 1161 570 
Q 1363 391 1709 391 
Q 2188 391 2477 730 
Q 2766 1069 2766 1631 
L 2766 1759 
L 2194 1759 
z
M 3341 1997 
L 3341 0 
L 2766 0 
L 2766 531 
Q 2569 213 2275 61 
Q 1981 -91 1556 -91 
Q 1019 -91 701 211 
Q 384 513 384 1019 
Q 384 1609 779 1909 
Q 1175 2209 1959 2209 
L 2766 2209 
L 2766 2266 
Q 2766 2663 2505 2880 
Q 2244 3097 1772 3097 
Q 1472 3097 1187 3025 
Q 903 2953 641 2809 
L 641 3341 
Q 956 3463 1253 3523 
Q 1550 3584 1831 3584 
Q 2591 3584 2966 3190 
Q 3341 2797 3341 1997 
z
" transform="scale(0.015625)"/>
       <path id="DejaVuSans-6c" d="M 603 4863 
L 1178 4863 
L 1178 0 
L 603 0 
L 603 4863 
z
" transform="scale(0.015625)"/>
       <path id="DejaVuSans-20" transform="scale(0.015625)"/>
       <path id="DejaVuSans-50" d="M 1259 4147 
L 1259 2394 
L 2053 2394 
Q 2494 2394 2734 2622 
Q 2975 2850 2975 3272 
Q 2975 3691 2734 3919 
Q 2494 4147 2053 4147 
L 1259 4147 
z
M 628 4666 
L 2053 4666 
Q 2838 4666 3239 4311 
Q 3641 3956 3641 3272 
Q 3641 2581 3239 2228 
Q 2838 1875 2053 1875 
L 1259 1875 
L 1259 0 
L 628 0 
L 628 4666 
z
" transform="scale(0.015625)"/>
       <path id="DejaVuSans-6f" d="M 1959 3097 
Q 1497 3097 1228 2736 
Q 959 2375 959 1747 
Q 959 1119 1226 758 
Q 1494 397 1959 397 
Q 2419 397 2687 759 
Q 2956 1122 2956 1747 
Q 2956 2369 2687 2733 
Q 2419 3097 1959 3097 
z
M 1959 3584 
Q 2709 3584 3137 3096 
Q 3566 2609 3566 1747 
Q 3566 888 3137 398 
Q 2709 -91 1959 -91 
Q 1206 -91 779 398 
Q 353 888 353 1747 
Q 353 2609 779 3096 
Q 1206 3584 1959 3584 
z
" transform="scale(0.015625)"/>
       <path id="DejaVuSans-62" d="M 3116 1747 
Q 3116 2381 2855 2742 
Q 2594 3103 2138 3103 
Q 1681 3103 1420 2742 
Q 1159 2381 1159 1747 
Q 1159 1113 1420 752 
Q 1681 391 2138 391 
Q 2594 391 2855 752 
Q 3116 1113 3116 1747 
z
M 1159 2969 
Q 1341 3281 1617 3432 
Q 1894 3584 2278 3584 
Q 2916 3584 3314 3078 
Q 3713 2572 3713 1747 
Q 3713 922 3314 415 
Q 2916 -91 2278 -91 
Q 1894 -91 1617 61 
Q 1341 213 1159 525 
L 1159 0 
L 581 0 
L 581 4863 
L 1159 4863 
L 1159 2969 
z
" transform="scale(0.015625)"/>
       <path id="DejaVuSans-74" d="M 1172 4494 
L 1172 3500 
L 2356 3500 
L 2356 3053 
L 1172 3053 
L 1172 1153 
Q 1172 725 1289 603 
Q 1406 481 1766 481 
L 2356 481 
L 2356 0 
L 1766 0 
Q 1100 0 847 248 
Q 594 497 594 1153 
L 594 3053 
L 172 3053 
L 172 3500 
L 594 3500 
L 594 4494 
L 1172 4494 
z
" transform="scale(0.015625)"/>
       <path id="DejaVuSans-79" d="M 2059 -325 
Q 1816 -950 1584 -1140 
Q 1353 -1331 966 -1331 
L 506 -1331 
L 506 -850 
L 844 -850 
Q 1081 -850 1212 -737 
Q 1344 -625 1503 -206 
L 1606 56 
L 191 3500 
L 800 3500 
L 1894 763 
L 2988 3500 
L 3597 3500 
L 2059 -325 
z
" transform="scale(0.015625)"/>
       <path id="DejaVuSans-Oblique-53" d="M 3859 4513 
L 3738 3897 
Q 3422 4066 3111 4152 
Q 2800 4238 2509 4238 
Q 1944 4238 1609 3991 
Q 1275 3744 1275 3334 
Q 1275 3109 1398 2989 
Q 1522 2869 2034 2731 
L 2413 2638 
Q 3053 2472 3303 2217 
Q 3553 1963 3553 1503 
Q 3553 797 2998 353 
Q 2444 -91 1538 -91 
Q 1166 -91 791 -17 
Q 416 56 38 206 
L 166 856 
Q 513 641 861 531 
Q 1209 422 1556 422 
Q 2147 422 2503 684 
Q 2859 947 2859 1369 
Q 2859 1650 2717 1795 
Q 2575 1941 2106 2059 
L 1728 2156 
Q 1081 2325 845 2545 
Q 609 2766 609 3163 
Q 609 3859 1145 4304 
Q 1681 4750 2541 4750 
Q 2875 4750 3203 4690 
Q 3531 4631 3859 4513 
z
" transform="scale(0.015625)"/>
       <path id="DejaVuSans-28" d="M 1984 4856 
Q 1566 4138 1362 3434 
Q 1159 2731 1159 2009 
Q 1159 1288 1364 580 
Q 1569 -128 1984 -844 
L 1484 -844 
Q 1016 -109 783 600 
Q 550 1309 550 2009 
Q 550 2706 781 3412 
Q 1013 4119 1484 4856 
L 1984 4856 
z
" transform="scale(0.015625)"/>
       <path id="DejaVuSans-Oblique-74" d="M 2706 3500 
L 2619 3053 
L 1472 3053 
L 1100 1153 
Q 1081 1047 1072 975 
Q 1063 903 1063 863 
Q 1063 663 1183 572 
Q 1303 481 1569 481 
L 2150 481 
L 2053 0 
L 1503 0 
Q 991 0 739 200 
Q 488 400 488 806 
Q 488 878 497 964 
Q 506 1050 525 1153 
L 897 3053 
L 409 3053 
L 500 3500 
L 978 3500 
L 1172 4494 
L 1747 4494 
L 1556 3500 
L 2706 3500 
z
" transform="scale(0.015625)"/>
       <path id="DejaVuSans-29" d="M 513 4856 
L 1013 4856 
Q 1481 4119 1714 3412 
Q 1947 2706 1947 2009 
Q 1947 1309 1714 600 
Q 1481 -109 1013 -844 
L 513 -844 
Q 928 -128 1133 580 
Q 1338 1288 1338 2009 
Q 1338 2731 1133 3434 
Q 928 4138 513 4856 
z
" transform="scale(0.015625)"/>
      </defs>
      <use xlink:href="#DejaVuSans-53" transform="translate(0 0.015625)"/>
      <use xlink:href="#DejaVuSans-75" transform="translate(63.476562 0.015625)"/>
      <use xlink:href="#DejaVuSans-72" transform="translate(126.855469 0.015625)"/>
      <use xlink:href="#DejaVuSans-76" transform="translate(167.96875 0.015625)"/>
      <use xlink:href="#DejaVuSans-69" transform="translate(227.148438 0.015625)"/>
      <use xlink:href="#DejaVuSans-76" transform="translate(254.931641 0.015625)"/>
      <use xlink:href="#DejaVuSans-61" transform="translate(314.111328 0.015625)"/>
      <use xlink:href="#DejaVuSans-6c" transform="translate(375.390625 0.015625)"/>
      <use xlink:href="#DejaVuSans-20" transform="translate(403.173828 0.015625)"/>
      <use xlink:href="#DejaVuSans-50" transform="translate(434.960938 0.015625)"/>
      <use xlink:href="#DejaVuSans-72" transform="translate(495.263672 0.015625)"/>
      <use xlink:href="#DejaVuSans-6f" transform="translate(536.376953 0.015625)"/>
      <use xlink:href="#DejaVuSans-62" transform="translate(597.558594 0.015625)"/>
      <use xlink:href="#DejaVuSans-61" transform="translate(661.035156 0.015625)"/>
      <use xlink:href="#DejaVuSans-62" transform="translate(722.314453 0.015625)"/>
      <use xlink:href="#DejaVuSans-69" transform="translate(785.791016 0.015625)"/>
      <use xlink:href="#DejaVuSans-6c" transform="translate(813.574219 0.015625)"/>
      <use xlink:href="#DejaVuSans-69" transform="translate(841.357422 0.015625)"/>
      <use xlink:href="#DejaVuSans-74" transform="translate(869.140625 0.015625)"/>
      <use xlink:href="#DejaVuSans-79" transform="translate(908.349609 0.015625)"/>
      <use xlink:href="#DejaVuSans-20" transform="translate(967.529297 0.015625)"/>
      <use xlink:href="#DejaVuSans-Oblique-53" transform="translate(999.316406 0.015625)"/>
      <use xlink:href="#DejaVuSans-28" transform="translate(1062.792969 0.015625)"/>
      <use xlink:href="#DejaVuSans-Oblique-74" transform="translate(1101.806641 0.015625)"/>
      <use xlink:href="#DejaVuSans-29" transform="translate(1141.015625 0.015625)"/>
     </g>
    </g>
   </g>
   <g id="line2d_21">
    <path d="M 52.401307 29.060982 
L 66.297358 29.060982 
L 66.297358 29.433923 
L 68.034365 29.433923 
L 68.034365 29.698277 
L 71.508378 29.70652 
L 71.508378 30.06374 
L 73.245384 30.06374 
L 73.245384 30.419164 
L 74.98239 30.419164 
L 74.98239 30.535135 
L 78.456403 30.645192 
L 78.456403 31.705195 
L 80.19341 31.705195 
L 80.19341 33.248922 
L 81.930416 33.248922 
L 81.930416 33.827528 
L 85.404429 33.901343 
L 85.404429 33.943163 
L 87.141435 33.943163 
L 87.141435 34.570755 
L 88.878442 34.570755 
L 88.878442 34.859879 
L 90.615448 34.859879 
L 90.615448 35.735277 
L 92.352455 35.735277 
L 92.352455 37.000108 
L 94.089461 37.000108 
L 94.089461 37.591427 
L 95.826468 37.591427 
L 95.826468 38.909646 
L 99.30048 39.014281 
L 99.30048 41.704044 
L 101.037487 41.704044 
L 101.037487 42.043899 
L 102.774493 42.043899 
L 102.774493 43.205315 
L 104.5115 43.205315 
L 104.5115 44.060478 
L 106.248506 44.060478 
L 106.248506 46.715379 
L 107.985513 46.715379 
L 107.985513 49.148709 
L 109.722519 49.148709 
L 109.722519 51.394635 
L 111.459525 51.394635 
L 111.459525 54.158257 
L 113.196532 54.158257 
L 113.196532 57.978079 
L 114.933538 57.978079 
L 114.933538 59.320797 
L 116.670545 59.320797 
L 116.670545 66.040878 
L 118.407551 66.040878 
L 118.407551 66.429211 
L 120.144558 66.429211 
L 120.144558 67.382797 
L 123.61857 67.406587 
L 123.61857 71.758034 
L 125.355577 71.758034 
L 125.355577 75.408563 
L 127.092583 75.408563 
L 127.092583 78.803689 
L 128.82959 78.803689 
L 128.82959 84.880883 
L 130.566596 84.880883 
L 130.566596 85.731267 
L 132.303603 85.731267 
L 132.303603 86.674285 
L 134.040609 86.674285 
L 134.040609 87.913017 
L 135.777615 87.913017 
L 135.777615 91.418219 
L 137.514622 91.418219 
L 137.514622 96.97063 
L 139.251628 96.97063 
L 139.251628 99.875793 
L 140.988635 99.875793 
L 140.988635 101.549284 
L 142.725641 101.549284 
L 142.725641 103.9962 
L 144.462647 103.9962 
L 144.462647 104.938438 
L 146.199654 104.938438 
L 146.199654 105.325872 
L 147.93666 105.325872 
L 147.93666 107.979742 
L 149.673667 107.979742 
L 149.673667 115.061908 
L 151.410673 115.061908 
L 151.410673 115.859687 
L 153.14768 115.859687 
L 153.14768 116.278998 
L 154.884686 116.278998 
L 154.884686 116.607212 
L 156.621692 116.607212 
L 156.621692 122.516108 
L 158.358699 122.516108 
L 158.358699 123.62981 
L 160.095705 123.62981 
L 160.095705 126.186163 
L 161.832712 126.186163 
L 161.832712 126.318954 
L 163.569718 126.318954 
L 163.569718 127.939468 
L 165.306725 127.939468 
L 165.306725 129.930838 
L 167.043731 129.930838 
L 167.043731 130.255614 
L 168.780737 130.255614 
L 168.780737 131.698612 
L 170.517744 131.698612 
L 170.517744 133.37757 
L 172.25475 133.37757 
L 172.25475 133.997586 
L 173.991757 133.997586 
L 173.991757 135.967557 
L 175.728763 135.967557 
L 175.728763 136.163205 
L 177.46577 136.163205 
L 177.46577 137.418785 
L 179.202776 137.418785 
L 179.202776 139.388695 
L 180.939782 139.388695 
L 180.939782 140.193588 
L 182.676789 140.193588 
L 182.676789 143.116176 
L 184.413795 143.116176 
L 184.413795 144.12356 
L 186.150802 144.12356 
L 186.150802 144.849895 
L 187.887808 144.849895 
L 187.887808 145.052364 
L 189.624815 145.052364 
L 189.624815 146.448563 
L 191.361821 146.448563 
L 191.361821 147.270812 
L 193.098827 147.270812 
L 193.098827 148.111681 
L 194.835834 148.111681 
L 194.835834 148.487746 
L 196.57284 148.487746 
L 196.57284 150.171675 
L 200.046853 150.239516 
L 200.046853 150.449296 
L 201.78386 150.449296 
L 201.78386 150.756421 
L 203.520866 150.756421 
L 203.520866 151.268278 
L 206.994879 151.361045 
L 206.994879 151.5866 
L 208.731885 151.5866 
L 208.731885 152.350566 
L 210.468892 152.350566 
L 210.468892 153.07464 
L 212.205898 153.07464 
L 212.205898 154.216218 
L 213.942905 154.216218 
L 213.942905 154.649339 
L 215.679911 154.649339 
L 215.679911 154.782622 
L 217.416917 154.782622 
L 217.416917 155.346076 
L 220.89093 155.383871 
L 220.89093 155.662876 
L 222.627937 155.662876 
L 222.627937 156.618067 
L 224.364943 156.618067 
L 224.364943 158.607516 
L 224.364943 158.607516 
" clip-path="url(#pf5c7827a04)" style="fill: none; stroke: #808080; stroke-width: 1.5; stroke-linecap: square"/>
   </g>
   <g id="line2d_22">
    <path d="M 52.401307 29.060982 
L 54.138313 29.061005 
L 55.87532 29.061342 
L 57.612326 29.062802 
L 59.349333 29.066732 
L 61.086339 29.07502 
L 62.823345 29.090087 
L 64.560352 29.114892 
L 66.297358 29.152925 
L 68.034365 29.208196 
L 69.771371 29.285231 
L 71.508378 29.389052 
L 73.245384 29.525156 
L 74.98239 29.699489 
L 76.719397 29.918405 
L 78.456403 30.188625 
L 80.19341 30.517172 
L 81.930416 30.91131 
L 83.667423 31.378457 
L 85.404429 31.926092 
L 87.141435 32.561648 
L 88.878442 33.292392 
L 90.615448 34.125296 
L 92.352455 35.066896 
L 94.089461 36.123149 
L 95.826468 37.299282 
L 97.563474 38.599649 
L 99.30048 40.027592 
L 101.037487 41.585307 
L 102.774493 43.273739 
L 104.5115 45.09249 
L 106.248506 47.039758 
L 107.985513 49.112305 
L 109.722519 51.305459 
L 111.459525 53.613156 
L 113.196532 56.028008 
L 114.933538 58.541414 
L 116.670545 61.1437 
L 118.407551 63.82428 
L 120.144558 66.571841 
L 121.881564 69.374547 
L 123.61857 72.220239 
L 125.355577 75.096643 
L 127.092583 77.99157 
L 128.82959 80.893098 
L 130.566596 83.789744 
L 132.303603 86.670608 
L 134.040609 89.525494 
L 135.777615 92.345007 
L 137.514622 95.120622 
L 139.251628 97.844731 
L 140.988635 100.510662 
L 142.725641 103.112682 
L 144.462647 105.645979 
L 146.199654 108.106625 
L 147.93666 110.491538 
L 149.673667 112.798419 
L 151.410673 115.025697 
L 153.14768 117.172462 
L 154.884686 119.238396 
L 156.621692 121.223707 
L 158.358699 123.129062 
L 160.095705 124.955525 
L 161.832712 126.704498 
L 163.569718 128.377661 
L 165.306725 129.976927 
L 167.043731 131.50439 
L 168.780737 132.962286 
L 170.517744 134.352954 
L 172.25475 135.678805 
L 173.991757 136.942293 
L 175.728763 138.145891 
L 177.46577 139.292067 
L 179.202776 140.383272 
L 180.939782 141.42192 
L 182.676789 142.410377 
L 184.413795 143.350954 
L 186.150802 144.245899 
L 187.887808 145.097387 
L 189.624815 145.907521 
L 191.361821 146.678325 
L 193.098827 147.411747 
L 194.835834 148.109652 
L 196.57284 148.773826 
L 198.309847 149.405977 
L 200.046853 150.007735 
L 201.78386 150.580651 
L 203.520866 151.126205 
L 205.257872 151.645801 
L 206.994879 152.140776 
L 208.731885 152.612398 
L 210.468892 153.06187 
L 212.205898 153.490334 
L 213.942905 153.89887 
L 215.679911 154.288505 
L 217.416917 154.660207 
L 219.153924 155.014896 
L 220.89093 155.353442 
L 222.627937 155.676668 
L 224.364943 155.985352 
" clip-path="url(#pf5c7827a04)" style="fill: none; stroke: #4682b4; stroke-width: 2; stroke-linecap: square"/>
   </g>
   <g id="patch_3">
    <path d="M 43.803125 163.918125 
L 43.803125 22.318125 
" style="fill: none; stroke: #000000; stroke-width: 0.8; stroke-linejoin: miter; stroke-linecap: square"/>
   </g>
   <g id="patch_4">
    <path d="M 232.963125 163.918125 
L 232.963125 22.318125 
" style="fill: none; stroke: #000000; stroke-width: 0.8; stroke-linejoin: miter; stroke-linecap: square"/>
   </g>
   <g id="patch_5">
    <path d="M 43.803125 163.918125 
L 232.963125 163.918125 
" style="fill: none; stroke: #000000; stroke-width: 0.8; stroke-linejoin: miter; stroke-linecap: square"/>
   </g>
   <g id="patch_6">
    <path d="M 43.803125 22.318125 
L 232.963125 22.318125 
" style="fill: none; stroke: #000000; stroke-width: 0.8; stroke-linejoin: miter; stroke-linecap: square"/>
   </g>
   <g id="text_12">
    <!-- (a) AIS Survival Probability -->
    <g transform="translate(58.714375 16.318125) scale(0.12 -0.12)">
     <defs>
      <path id="DejaVuSans-41" d="M 2188 4044 
L 1331 1722 
L 3047 1722 
L 2188 4044 
z
M 1831 4666 
L 2547 4666 
L 4325 0 
L 3669 0 
L 3244 1197 
L 1141 1197 
L 716 0 
L 50 0 
L 1831 4666 
z
" transform="scale(0.015625)"/>
      <path id="DejaVuSans-49" d="M 628 4666 
L 1259 4666 
L 1259 0 
L 628 0 
L 628 4666 
z
" transform="scale(0.015625)"/>
     </defs>
     <use xlink:href="#DejaVuSans-28"/>
     <use xlink:href="#DejaVuSans-61" transform="translate(39.013672 0)"/>
     <use xlink:href="#DejaVuSans-29" transform="translate(100.292969 0)"/>
     <use xlink:href="#DejaVuSans-20" transform="translate(139.306641 0)"/>
     <use xlink:href="#DejaVuSans-41" transform="translate(171.09375 0)"/>
     <use xlink:href="#DejaVuSans-49" transform="translate(239.501953 0)"/>
     <use xlink:href="#DejaVuSans-53" transform="translate(268.994141 0)"/>
     <use xlink:href="#DejaVuSans-20" transform="translate(332.470703 0)"/>
     <use xlink:href="#DejaVuSans-53" transform="translate(364.257812 0)"/>
     <use xlink:href="#DejaVuSans-75" transform="translate(427.734375 0)"/>
     <use xlink:href="#DejaVuSans-72" transform="translate(491.113281 0)"/>
     <use xlink:href="#DejaVuSans-76" transform="translate(532.226562 0)"/>
     <use xlink:href="#DejaVuSans-69" transform="translate(591.40625 0)"/>
     <use xlink:href="#DejaVuSans-76" transform="translate(619.189453 0)"/>
     <use xlink:href="#DejaVuSans-61" transform="translate(678.369141 0)"/>
     <use xlink:href="#DejaVuSans-6c" transform="translate(739.648438 0)"/>
     <use xlink:href="#DejaVuSans-20" transform="translate(767.431641 0)"/>
     <use xlink:href="#DejaVuSans-50" transform="translate(799.21875 0)"/>
     <use xlink:href="#DejaVuSans-72" transform="translate(857.771484 0)"/>
     <use xlink:href="#DejaVuSans-6f" transform="translate(896.634766 0)"/>
     <use xlink:href="#DejaVuSans-62" transform="translate(957.816406 0)"/>
     <use xlink:href="#DejaVuSans-61" transform="translate(1021.292969 0)"/>
     <use xlink:href="#DejaVuSans-62" transform="translate(1082.572266 0)"/>
     <use xlink:href="#DejaVuSans-69" transform="translate(1146.048828 0)"/>
     <use xlink:href="#DejaVuSans-6c" transform="translate(1173.832031 0)"/>
     <use xlink:href="#DejaVuSans-69" transform="translate(1201.615234 0)"/>
     <use xlink:href="#DejaVuSans-74" transform="translate(1229.398438 0)"/>
     <use xlink:href="#DejaVuSans-79" transform="translate(1268.607422 0)"/>
    </g>
   </g>
   <g id="legend_1">
    <g id="patch_7">
     <path d="M 49.403125 159.918125 
L 173.399375 159.918125 
Q 174.999375 159.918125 174.999375 158.318125 
L 174.999375 135.633125 
Q 174.999375 134.033125 173.399375 134.033125 
L 49.403125 134.033125 
Q 47.803125 134.033125 47.803125 135.633125 
L 47.803125 158.318125 
Q 47.803125 159.918125 49.403125 159.918125 
z
" style="fill: #ffffff; opacity: 0.8; stroke: #cccccc; stroke-linejoin: miter"/>
    </g>
    <g id="line2d_23">
     <path d="M 51.003125 140.511875 
L 59.003125 140.511875 
L 59.003125 140.511875 
L 67.003125 140.511875 
L 67.003125 140.511875 
" style="fill: none; stroke: #808080; stroke-width: 1.5; stroke-linecap: square"/>
    </g>
    <g id="text_13">
     <!-- Kaplan-Meier (Empirical) -->
     <g transform="translate(73.403125 143.311875) scale(0.08 -0.08)">
      <defs>
       <path id="DejaVuSans-4b" d="M 628 4666 
L 1259 4666 
L 1259 2694 
L 3353 4666 
L 4166 4666 
L 1850 2491 
L 4331 0 
L 3500 0 
L 1259 2247 
L 1259 0 
L 628 0 
L 628 4666 
z
" transform="scale(0.015625)"/>
       <path id="DejaVuSans-70" d="M 1159 525 
L 1159 -1331 
L 581 -1331 
L 581 3500 
L 1159 3500 
L 1159 2969 
Q 1341 3281 1617 3432 
Q 1894 3584 2278 3584 
Q 2916 3584 3314 3078 
Q 3713 2572 3713 1747 
Q 3713 922 3314 415 
Q 2916 -91 2278 -91 
Q 1894 -91 1617 61 
Q 1341 213 1159 525 
z
M 3116 1747 
Q 3116 2381 2855 2742 
Q 2594 3103 2138 3103 
Q 1681 3103 1420 2742 
Q 1159 2381 1159 1747 
Q 1159 1113 1420 752 
Q 1681 391 2138 391 
Q 2594 391 2855 752 
Q 3116 1113 3116 1747 
z
" transform="scale(0.015625)"/>
       <path id="DejaVuSans-6e" d="M 3513 2113 
L 3513 0 
L 2938 0 
L 2938 2094 
Q 2938 2591 2744 2837 
Q 2550 3084 2163 3084 
Q 1697 3084 1428 2787 
Q 1159 2491 1159 1978 
L 1159 0 
L 581 0 
L 581 3500 
L 1159 3500 
L 1159 2956 
Q 1366 3272 1645 3428 
Q 1925 3584 2291 3584 
Q 2894 3584 3203 3211 
Q 3513 2838 3513 2113 
z
" transform="scale(0.015625)"/>
       <path id="DejaVuSans-2d" d="M 313 2009 
L 1997 2009 
L 1997 1497 
L 313 1497 
L 313 2009 
z
" transform="scale(0.015625)"/>
       <path id="DejaVuSans-4d" d="M 628 4666 
L 1569 4666 
L 2759 1491 
L 3956 4666 
L 4897 4666 
L 4897 0 
L 4281 0 
L 4281 4097 
L 3078 897 
L 2444 897 
L 1241 4097 
L 1241 0 
L 628 0 
L 628 4666 
z
" transform="scale(0.015625)"/>
       <path id="DejaVuSans-65" d="M 3597 1894 
L 3597 1613 
L 953 1613 
Q 991 1019 1311 708 
Q 1631 397 2203 397 
Q 2534 397 2845 478 
Q 3156 559 3463 722 
L 3463 178 
Q 3153 47 2828 -22 
Q 2503 -91 2169 -91 
Q 1331 -91 842 396 
Q 353 884 353 1716 
Q 353 2575 817 3079 
Q 1281 3584 2069 3584 
Q 2775 3584 3186 3129 
Q 3597 2675 3597 1894 
z
M 3022 2063 
Q 3016 2534 2758 2815 
Q 2500 3097 2075 3097 
Q 1594 3097 1305 2825 
Q 1016 2553 972 2059 
L 3022 2063 
z
" transform="scale(0.015625)"/>
       <path id="DejaVuSans-45" d="M 628 4666 
L 3578 4666 
L 3578 4134 
L 1259 4134 
L 1259 2753 
L 3481 2753 
L 3481 2222 
L 1259 2222 
L 1259 531 
L 3634 531 
L 3634 0 
L 628 0 
L 628 4666 
z
" transform="scale(0.015625)"/>
       <path id="DejaVuSans-6d" d="M 3328 2828 
Q 3544 3216 3844 3400 
Q 4144 3584 4550 3584 
Q 5097 3584 5394 3201 
Q 5691 2819 5691 2113 
L 5691 0 
L 5113 0 
L 5113 2094 
Q 5113 2597 4934 2840 
Q 4756 3084 4391 3084 
Q 3944 3084 3684 2787 
Q 3425 2491 3425 1978 
L 3425 0 
L 2847 0 
L 2847 2094 
Q 2847 2600 2669 2842 
Q 2491 3084 2119 3084 
Q 1678 3084 1418 2786 
Q 1159 2488 1159 1978 
L 1159 0 
L 581 0 
L 581 3500 
L 1159 3500 
L 1159 2956 
Q 1356 3278 1631 3431 
Q 1906 3584 2284 3584 
Q 2666 3584 2933 3390 
Q 3200 3197 3328 2828 
z
" transform="scale(0.015625)"/>
       <path id="DejaVuSans-63" d="M 3122 3366 
L 3122 2828 
Q 2878 2963 2633 3030 
Q 2388 3097 2138 3097 
Q 1578 3097 1268 2742 
Q 959 2388 959 1747 
Q 959 1106 1268 751 
Q 1578 397 2138 397 
Q 2388 397 2633 464 
Q 2878 531 3122 666 
L 3122 134 
Q 2881 22 2623 -34 
Q 2366 -91 2075 -91 
Q 1284 -91 818 406 
Q 353 903 353 1747 
Q 353 2603 823 3093 
Q 1294 3584 2113 3584 
Q 2378 3584 2631 3529 
Q 2884 3475 3122 3366 
z
" transform="scale(0.015625)"/>
      </defs>
      <use xlink:href="#DejaVuSans-4b"/>
      <use xlink:href="#DejaVuSans-61" transform="translate(63.826172 0)"/>
      <use xlink:href="#DejaVuSans-70" transform="translate(125.105469 0)"/>
      <use xlink:href="#DejaVuSans-6c" transform="translate(188.582031 0)"/>
      <use xlink:href="#DejaVuSans-61" transform="translate(216.365234 0)"/>
      <use xlink:href="#DejaVuSans-6e" transform="translate(277.644531 0)"/>
      <use xlink:href="#DejaVuSans-2d" transform="translate(341.023438 0)"/>
      <use xlink:href="#DejaVuSans-4d" transform="translate(377.107422 0)"/>
      <use xlink:href="#DejaVuSans-65" transform="translate(463.386719 0)"/>
      <use xlink:href="#DejaVuSans-69" transform="translate(524.910156 0)"/>
      <use xlink:href="#DejaVuSans-65" transform="translate(552.693359 0)"/>
      <use xlink:href="#DejaVuSans-72" transform="translate(614.216797 0)"/>
      <use xlink:href="#DejaVuSans-20" transform="translate(655.330078 0)"/>
      <use xlink:href="#DejaVuSans-28" transform="translate(687.117188 0)"/>
      <use xlink:href="#DejaVuSans-45" transform="translate(726.130859 0)"/>
      <use xlink:href="#DejaVuSans-6d" transform="translate(789.314453 0)"/>
      <use xlink:href="#DejaVuSans-70" transform="translate(886.726562 0)"/>
      <use xlink:href="#DejaVuSans-69" transform="translate(950.203125 0)"/>
      <use xlink:href="#DejaVuSans-72" transform="translate(977.986328 0)"/>
      <use xlink:href="#DejaVuSans-69" transform="translate(1019.099609 0)"/>
      <use xlink:href="#DejaVuSans-63" transform="translate(1046.882812 0)"/>
      <use xlink:href="#DejaVuSans-61" transform="translate(1101.863281 0)"/>
      <use xlink:href="#DejaVuSans-6c" transform="translate(1163.142578 0)"/>
      <use xlink:href="#DejaVuSans-29" transform="translate(1190.925781 0)"/>
     </g>
    </g>
    <g id="line2d_24">
     <path d="M 51.003125 152.254375 
L 59.003125 152.254375 
L 67.003125 152.254375 
" style="fill: none; stroke: #4682b4; stroke-width: 2; stroke-linecap: square"/>
    </g>
    <g id="text_14">
     <!-- Log-logistic Fit -->
     <g transform="translate(73.403125 155.054375) scale(0.08 -0.08)">
      <defs>
       <path id="DejaVuSans-4c" d="M 628 4666 
L 1259 4666 
L 1259 531 
L 3531 531 
L 3531 0 
L 628 0 
L 628 4666 
z
" transform="scale(0.015625)"/>
       <path id="DejaVuSans-67" d="M 2906 1791 
Q 2906 2416 2648 2759 
Q 2391 3103 1925 3103 
Q 1463 3103 1205 2759 
Q 947 2416 947 1791 
Q 947 1169 1205 825 
Q 1463 481 1925 481 
Q 2391 481 2648 825 
Q 2906 1169 2906 1791 
z
M 3481 434 
Q 3481 -459 3084 -895 
Q 2688 -1331 1869 -1331 
Q 1566 -1331 1297 -1286 
Q 1028 -1241 775 -1147 
L 775 -588 
Q 1028 -725 1275 -790 
Q 1522 -856 1778 -856 
Q 2344 -856 2625 -561 
Q 2906 -266 2906 331 
L 2906 616 
Q 2728 306 2450 153 
Q 2172 0 1784 0 
Q 1141 0 747 490 
Q 353 981 353 1791 
Q 353 2603 747 3093 
Q 1141 3584 1784 3584 
Q 2172 3584 2450 3431 
Q 2728 3278 2906 2969 
L 2906 3500 
L 3481 3500 
L 3481 434 
z
" transform="scale(0.015625)"/>
       <path id="DejaVuSans-73" d="M 2834 3397 
L 2834 2853 
Q 2591 2978 2328 3040 
Q 2066 3103 1784 3103 
Q 1356 3103 1142 2972 
Q 928 2841 928 2578 
Q 928 2378 1081 2264 
Q 1234 2150 1697 2047 
L 1894 2003 
Q 2506 1872 2764 1633 
Q 3022 1394 3022 966 
Q 3022 478 2636 193 
Q 2250 -91 1575 -91 
Q 1294 -91 989 -36 
Q 684 19 347 128 
L 347 722 
Q 666 556 975 473 
Q 1284 391 1588 391 
Q 1994 391 2212 530 
Q 2431 669 2431 922 
Q 2431 1156 2273 1281 
Q 2116 1406 1581 1522 
L 1381 1569 
Q 847 1681 609 1914 
Q 372 2147 372 2553 
Q 372 3047 722 3315 
Q 1072 3584 1716 3584 
Q 2034 3584 2315 3537 
Q 2597 3491 2834 3397 
z
" transform="scale(0.015625)"/>
       <path id="DejaVuSans-46" d="M 628 4666 
L 3309 4666 
L 3309 4134 
L 1259 4134 
L 1259 2759 
L 3109 2759 
L 3109 2228 
L 1259 2228 
L 1259 0 
L 628 0 
L 628 4666 
z
" transform="scale(0.015625)"/>
      </defs>
      <use xlink:href="#DejaVuSans-4c"/>
      <use xlink:href="#DejaVuSans-6f" transform="translate(53.962891 0)"/>
      <use xlink:href="#DejaVuSans-67" transform="translate(115.144531 0)"/>
      <use xlink:href="#DejaVuSans-2d" transform="translate(178.621094 0)"/>
      <use xlink:href="#DejaVuSans-6c" transform="translate(214.705078 0)"/>
      <use xlink:href="#DejaVuSans-6f" transform="translate(242.488281 0)"/>
      <use xlink:href="#DejaVuSans-67" transform="translate(303.669922 0)"/>
      <use xlink:href="#DejaVuSans-69" transform="translate(367.146484 0)"/>
      <use xlink:href="#DejaVuSans-73" transform="translate(394.929688 0)"/>
      <use xlink:href="#DejaVuSans-74" transform="translate(447.029297 0)"/>
      <use xlink:href="#DejaVuSans-69" transform="translate(486.238281 0)"/>
      <use xlink:href="#DejaVuSans-63" transform="translate(514.021484 0)"/>
      <use xlink:href="#DejaVuSans-20" transform="translate(569.001953 0)"/>
      <use xlink:href="#DejaVuSans-46" transform="translate(600.789062 0)"/>
      <use xlink:href="#DejaVuSans-69" transform="translate(651.058594 0)"/>
      <use xlink:href="#DejaVuSans-74" transform="translate(678.841797 0)"/>
     </g>
    </g>
   </g>
  </g>
  <g id="axes_2">
   <g id="patch_8">
    <path d="M 43.803125 349.478125 
L 232.963125 349.478125 
L 232.963125 207.878125 
L 43.803125 207.878125 
z
" style="fill: #ffffff"/>
   </g>
   <g id="matplotlib.axis_3">
    <g id="xtick_5">
     <g id="line2d_25">
      <path d="M 52.401307 349.478125 
L 52.401307 207.878125 
" clip-path="url(#p4b7ce513ae)" style="fill: none; stroke-dasharray: 2.96,1.28; stroke-dashoffset: 0; stroke: #b0b0b0; stroke-opacity: 0.5; stroke-width: 0.8"/>
     </g>
     <g id="line2d_26">
      <g>
       <use xlink:href="#mde144b0c70" x="52.401307" y="349.478125" style="stroke: #000000; stroke-width: 0.8"/>
      </g>
     </g>
     <g id="text_15">
      <!-- 0 -->
      <g transform="translate(49.220057 364.076562) scale(0.1 -0.1)">
       <use xlink:href="#DejaVuSans-30"/>
      </g>
     </g>
    </g>
    <g id="xtick_6">
     <g id="line2d_27">
      <path d="M 109.722519 349.478125 
L 109.722519 207.878125 
" clip-path="url(#p4b7ce513ae)" style="fill: none; stroke-dasharray: 2.96,1.28; stroke-dashoffset: 0; stroke: #b0b0b0; stroke-opacity: 0.5; stroke-width: 0.8"/>
     </g>
     <g id="line2d_28">
      <g>
       <use xlink:href="#mde144b0c70" x="109.722519" y="349.478125" style="stroke: #000000; stroke-width: 0.8"/>
      </g>
     </g>
     <g id="text_16">
      <!-- 10 -->
      <g transform="translate(103.360019 364.076562) scale(0.1 -0.1)">
       <use xlink:href="#DejaVuSans-31"/>
       <use xlink:href="#DejaVuSans-30" transform="translate(63.623047 0)"/>
      </g>
     </g>
    </g>
    <g id="xtick_7">
     <g id="line2d_29">
      <path d="M 167.043731 349.478125 
L 167.043731 207.878125 
" clip-path="url(#p4b7ce513ae)" style="fill: none; stroke-dasharray: 2.96,1.28; stroke-dashoffset: 0; stroke: #b0b0b0; stroke-opacity: 0.5; stroke-width: 0.8"/>
     </g>
     <g id="line2d_30">
      <g>
       <use xlink:href="#mde144b0c70" x="167.043731" y="349.478125" style="stroke: #000000; stroke-width: 0.8"/>
      </g>
     </g>
     <g id="text_17">
      <!-- 20 -->
      <g transform="translate(160.681231 364.076562) scale(0.1 -0.1)">
       <use xlink:href="#DejaVuSans-32"/>
       <use xlink:href="#DejaVuSans-30" transform="translate(63.623047 0)"/>
      </g>
     </g>
    </g>
    <g id="xtick_8">
     <g id="line2d_31">
      <path d="M 224.364943 349.478125 
L 224.364943 207.878125 
" clip-path="url(#p4b7ce513ae)" style="fill: none; stroke-dasharray: 2.96,1.28; stroke-dashoffset: 0; stroke: #b0b0b0; stroke-opacity: 0.5; stroke-width: 0.8"/>
     </g>
     <g id="line2d_32">
      <g>
       <use xlink:href="#mde144b0c70" x="224.364943" y="349.478125" style="stroke: #000000; stroke-width: 0.8"/>
      </g>
     </g>
     <g id="text_18">
      <!-- 30 -->
      <g transform="translate(218.002443 364.076562) scale(0.1 -0.1)">
       <use xlink:href="#DejaVuSans-33"/>
       <use xlink:href="#DejaVuSans-30" transform="translate(63.623047 0)"/>
      </g>
     </g>
    </g>
    <g id="text_19">
     <!-- Operation Time (Years) -->
     <g transform="translate(80.994063 377.754687) scale(0.1 -0.1)">
      <defs>
       <path id="DejaVuSans-4f" d="M 2522 4238 
Q 1834 4238 1429 3725 
Q 1025 3213 1025 2328 
Q 1025 1447 1429 934 
Q 1834 422 2522 422 
Q 3209 422 3611 934 
Q 4013 1447 4013 2328 
Q 4013 3213 3611 3725 
Q 3209 4238 2522 4238 
z
M 2522 4750 
Q 3503 4750 4090 4092 
Q 4678 3434 4678 2328 
Q 4678 1225 4090 567 
Q 3503 -91 2522 -91 
Q 1538 -91 948 565 
Q 359 1222 359 2328 
Q 359 3434 948 4092 
Q 1538 4750 2522 4750 
z
" transform="scale(0.015625)"/>
       <path id="DejaVuSans-54" d="M -19 4666 
L 3928 4666 
L 3928 4134 
L 2272 4134 
L 2272 0 
L 1638 0 
L 1638 4134 
L -19 4134 
L -19 4666 
z
" transform="scale(0.015625)"/>
       <path id="DejaVuSans-59" d="M -13 4666 
L 666 4666 
L 1959 2747 
L 3244 4666 
L 3922 4666 
L 2272 2222 
L 2272 0 
L 1638 0 
L 1638 2222 
L -13 4666 
z
" transform="scale(0.015625)"/>
      </defs>
      <use xlink:href="#DejaVuSans-4f"/>
      <use xlink:href="#DejaVuSans-70" transform="translate(78.710938 0)"/>
      <use xlink:href="#DejaVuSans-65" transform="translate(142.1875 0)"/>
      <use xlink:href="#DejaVuSans-72" transform="translate(203.710938 0)"/>
      <use xlink:href="#DejaVuSans-61" transform="translate(244.824219 0)"/>
      <use xlink:href="#DejaVuSans-74" transform="translate(306.103516 0)"/>
      <use xlink:href="#DejaVuSans-69" transform="translate(345.3125 0)"/>
      <use xlink:href="#DejaVuSans-6f" transform="translate(373.095703 0)"/>
      <use xlink:href="#DejaVuSans-6e" transform="translate(434.277344 0)"/>
      <use xlink:href="#DejaVuSans-20" transform="translate(497.65625 0)"/>
      <use xlink:href="#DejaVuSans-54" transform="translate(529.443359 0)"/>
      <use xlink:href="#DejaVuSans-69" transform="translate(587.402344 0)"/>
      <use xlink:href="#DejaVuSans-6d" transform="translate(615.185547 0)"/>
      <use xlink:href="#DejaVuSans-65" transform="translate(712.597656 0)"/>
      <use xlink:href="#DejaVuSans-20" transform="translate(774.121094 0)"/>
      <use xlink:href="#DejaVuSans-28" transform="translate(805.908203 0)"/>
      <use xlink:href="#DejaVuSans-59" transform="translate(844.921875 0)"/>
      <use xlink:href="#DejaVuSans-65" transform="translate(892.755859 0)"/>
      <use xlink:href="#DejaVuSans-61" transform="translate(954.279297 0)"/>
      <use xlink:href="#DejaVuSans-72" transform="translate(1015.558594 0)"/>
      <use xlink:href="#DejaVuSans-73" transform="translate(1056.671875 0)"/>
      <use xlink:href="#DejaVuSans-29" transform="translate(1108.771484 0)"/>
     </g>
    </g>
   </g>
   <g id="matplotlib.axis_4">
    <g id="ytick_7">
     <g id="line2d_33">
      <path d="M 43.803125 349.478125 
L 232.963125 349.478125 
" clip-path="url(#p4b7ce513ae)" style="fill: none; stroke-dasharray: 2.96,1.28; stroke-dashoffset: 0; stroke: #b0b0b0; stroke-opacity: 0.5; stroke-width: 0.8"/>
     </g>
     <g id="line2d_34">
      <g>
       <use xlink:href="#mc0e6b39803" x="43.803125" y="349.478125" style="stroke: #000000; stroke-width: 0.8"/>
      </g>
     </g>
     <g id="text_20">
      <!-- 0.0 -->
      <g transform="translate(20.9 353.277344) scale(0.1 -0.1)">
       <use xlink:href="#DejaVuSans-30"/>
       <use xlink:href="#DejaVuSans-2e" transform="translate(63.623047 0)"/>
       <use xlink:href="#DejaVuSans-30" transform="translate(95.410156 0)"/>
      </g>
     </g>
    </g>
    <g id="ytick_8">
     <g id="line2d_35">
      <path d="M 43.803125 322.506696 
L 232.963125 322.506696 
" clip-path="url(#p4b7ce513ae)" style="fill: none; stroke-dasharray: 2.96,1.28; stroke-dashoffset: 0; stroke: #b0b0b0; stroke-opacity: 0.5; stroke-width: 0.8"/>
     </g>
     <g id="line2d_36">
      <g>
       <use xlink:href="#mc0e6b39803" x="43.803125" y="322.506696" style="stroke: #000000; stroke-width: 0.8"/>
      </g>
     </g>
     <g id="text_21">
      <!-- 0.2 -->
      <g transform="translate(20.9 326.305915) scale(0.1 -0.1)">
       <use xlink:href="#DejaVuSans-30"/>
       <use xlink:href="#DejaVuSans-2e" transform="translate(63.623047 0)"/>
       <use xlink:href="#DejaVuSans-32" transform="translate(95.410156 0)"/>
      </g>
     </g>
    </g>
    <g id="ytick_9">
     <g id="line2d_37">
      <path d="M 43.803125 295.535268 
L 232.963125 295.535268 
" clip-path="url(#p4b7ce513ae)" style="fill: none; stroke-dasharray: 2.96,1.28; stroke-dashoffset: 0; stroke: #b0b0b0; stroke-opacity: 0.5; stroke-width: 0.8"/>
     </g>
     <g id="line2d_38">
      <g>
       <use xlink:href="#mc0e6b39803" x="43.803125" y="295.535268" style="stroke: #000000; stroke-width: 0.8"/>
      </g>
     </g>
     <g id="text_22">
      <!-- 0.4 -->
      <g transform="translate(20.9 299.334487) scale(0.1 -0.1)">
       <use xlink:href="#DejaVuSans-30"/>
       <use xlink:href="#DejaVuSans-2e" transform="translate(63.623047 0)"/>
       <use xlink:href="#DejaVuSans-34" transform="translate(95.410156 0)"/>
      </g>
     </g>
    </g>
    <g id="ytick_10">
     <g id="line2d_39">
      <path d="M 43.803125 268.563839 
L 232.963125 268.563839 
" clip-path="url(#p4b7ce513ae)" style="fill: none; stroke-dasharray: 2.96,1.28; stroke-dashoffset: 0; stroke: #b0b0b0; stroke-opacity: 0.5; stroke-width: 0.8"/>
     </g>
     <g id="line2d_40">
      <g>
       <use xlink:href="#mc0e6b39803" x="43.803125" y="268.563839" style="stroke: #000000; stroke-width: 0.8"/>
      </g>
     </g>
     <g id="text_23">
      <!-- 0.6 -->
      <g transform="translate(20.9 272.363058) scale(0.1 -0.1)">
       <use xlink:href="#DejaVuSans-30"/>
       <use xlink:href="#DejaVuSans-2e" transform="translate(63.623047 0)"/>
       <use xlink:href="#DejaVuSans-36" transform="translate(95.410156 0)"/>
      </g>
     </g>
    </g>
    <g id="ytick_11">
     <g id="line2d_41">
      <path d="M 43.803125 241.592411 
L 232.963125 241.592411 
" clip-path="url(#p4b7ce513ae)" style="fill: none; stroke-dasharray: 2.96,1.28; stroke-dashoffset: 0; stroke: #b0b0b0; stroke-opacity: 0.5; stroke-width: 0.8"/>
     </g>
     <g id="line2d_42">
      <g>
       <use xlink:href="#mc0e6b39803" x="43.803125" y="241.592411" style="stroke: #000000; stroke-width: 0.8"/>
      </g>
     </g>
     <g id="text_24">
      <!-- 0.8 -->
      <g transform="translate(20.9 245.391629) scale(0.1 -0.1)">
       <use xlink:href="#DejaVuSans-30"/>
       <use xlink:href="#DejaVuSans-2e" transform="translate(63.623047 0)"/>
       <use xlink:href="#DejaVuSans-38" transform="translate(95.410156 0)"/>
      </g>
     </g>
    </g>
    <g id="ytick_12">
     <g id="line2d_43">
      <path d="M 43.803125 214.620982 
L 232.963125 214.620982 
" clip-path="url(#p4b7ce513ae)" style="fill: none; stroke-dasharray: 2.96,1.28; stroke-dashoffset: 0; stroke: #b0b0b0; stroke-opacity: 0.5; stroke-width: 0.8"/>
     </g>
     <g id="line2d_44">
      <g>
       <use xlink:href="#mc0e6b39803" x="43.803125" y="214.620982" style="stroke: #000000; stroke-width: 0.8"/>
      </g>
     </g>
     <g id="text_25">
      <!-- 1.0 -->
      <g transform="translate(20.9 218.420201) scale(0.1 -0.1)">
       <use xlink:href="#DejaVuSans-31"/>
       <use xlink:href="#DejaVuSans-2e" transform="translate(63.623047 0)"/>
       <use xlink:href="#DejaVuSans-30" transform="translate(95.410156 0)"/>
      </g>
     </g>
    </g>
    <g id="text_26">
     <!-- Survival Probability $S(t)$ -->
     <g transform="translate(14.8 337.728125) rotate(-90) scale(0.1 -0.1)">
      <use xlink:href="#DejaVuSans-53" transform="translate(0 0.015625)"/>
      <use xlink:href="#DejaVuSans-75" transform="translate(63.476562 0.015625)"/>
      <use xlink:href="#DejaVuSans-72" transform="translate(126.855469 0.015625)"/>
      <use xlink:href="#DejaVuSans-76" transform="translate(167.96875 0.015625)"/>
      <use xlink:href="#DejaVuSans-69" transform="translate(227.148438 0.015625)"/>
      <use xlink:href="#DejaVuSans-76" transform="translate(254.931641 0.015625)"/>
      <use xlink:href="#DejaVuSans-61" transform="translate(314.111328 0.015625)"/>
      <use xlink:href="#DejaVuSans-6c" transform="translate(375.390625 0.015625)"/>
      <use xlink:href="#DejaVuSans-20" transform="translate(403.173828 0.015625)"/>
      <use xlink:href="#DejaVuSans-50" transform="translate(434.960938 0.015625)"/>
      <use xlink:href="#DejaVuSans-72" transform="translate(495.263672 0.015625)"/>
      <use xlink:href="#DejaVuSans-6f" transform="translate(536.376953 0.015625)"/>
      <use xlink:href="#DejaVuSans-62" transform="translate(597.558594 0.015625)"/>
      <use xlink:href="#DejaVuSans-61" transform="translate(661.035156 0.015625)"/>
      <use xlink:href="#DejaVuSans-62" transform="translate(722.314453 0.015625)"/>
      <use xlink:href="#DejaVuSans-69" transform="translate(785.791016 0.015625)"/>
      <use xlink:href="#DejaVuSans-6c" transform="translate(813.574219 0.015625)"/>
      <use xlink:href="#DejaVuSans-69" transform="translate(841.357422 0.015625)"/>
      <use xlink:href="#DejaVuSans-74" transform="translate(869.140625 0.015625)"/>
      <use xlink:href="#DejaVuSans-79" transform="translate(908.349609 0.015625)"/>
      <use xlink:href="#DejaVuSans-20" transform="translate(967.529297 0.015625)"/>
      <use xlink:href="#DejaVuSans-Oblique-53" transform="translate(999.316406 0.015625)"/>
      <use xlink:href="#DejaVuSans-28" transform="translate(1062.792969 0.015625)"/>
      <use xlink:href="#DejaVuSans-Oblique-74" transform="translate(1101.806641 0.015625)"/>
      <use xlink:href="#DejaVuSans-29" transform="translate(1141.015625 0.015625)"/>
     </g>
    </g>
   </g>
   <g id="line2d_45">
    <path d="M 52.401307 214.620982 
L 61.086339 214.620982 
L 61.086339 215.097167 
L 62.823345 215.097167 
L 62.823345 215.239495 
L 66.297358 215.290033 
L 66.297358 215.546212 
L 71.508378 215.565843 
L 71.508378 215.756166 
L 73.245384 215.756166 
L 73.245384 215.961917 
L 74.98239 215.961917 
L 74.98239 216.802211 
L 78.456403 216.893925 
L 78.456403 216.934896 
L 80.19341 216.934896 
L 80.19341 217.324588 
L 81.930416 217.324588 
L 81.930416 217.517764 
L 85.404429 217.538048 
L 85.404429 218.401284 
L 88.878442 218.438439 
L 88.878442 220.438099 
L 90.615448 220.438099 
L 90.615448 220.897577 
L 92.352455 220.897577 
L 92.352455 221.646184 
L 94.089461 221.646184 
L 94.089461 222.90298 
L 95.826468 222.90298 
L 95.826468 226.007918 
L 97.563474 226.007918 
L 97.563474 227.76265 
L 99.30048 227.76265 
L 99.30048 228.140651 
L 102.774493 228.236864 
L 102.774493 230.793345 
L 104.5115 230.793345 
L 104.5115 232.305018 
L 106.248506 232.305018 
L 106.248506 234.593423 
L 107.985513 234.593423 
L 107.985513 235.103973 
L 109.722519 235.103973 
L 109.722519 235.389618 
L 111.459525 235.389618 
L 111.459525 237.005115 
L 113.196532 237.005115 
L 113.196532 240.161121 
L 114.933538 240.161121 
L 114.933538 243.490503 
L 116.670545 243.490503 
L 116.670545 243.647572 
L 118.407551 243.647572 
L 118.407551 244.442756 
L 120.144558 244.442756 
L 120.144558 248.888602 
L 121.881564 248.888602 
L 121.881564 249.494654 
L 123.61857 249.494654 
L 123.61857 251.183598 
L 125.355577 251.183598 
L 125.355577 256.69706 
L 127.092583 256.69706 
L 127.092583 258.960216 
L 128.82959 258.960216 
L 128.82959 259.113478 
L 130.566596 259.113478 
L 130.566596 260.062724 
L 132.303603 260.062724 
L 132.303603 268.057001 
L 134.040609 268.057001 
L 134.040609 268.507815 
L 135.777615 268.507815 
L 135.777615 270.86543 
L 137.514622 270.86543 
L 137.514622 271.748936 
L 139.251628 271.748936 
L 139.251628 274.525751 
L 140.988635 274.525751 
L 140.988635 276.929563 
L 142.725641 276.929563 
L 142.725641 282.366015 
L 144.462647 282.366015 
L 144.462647 282.572728 
L 146.199654 282.572728 
L 146.199654 285.069363 
L 147.93666 285.069363 
L 147.93666 286.105641 
L 149.673667 286.105641 
L 149.673667 290.434721 
L 151.410673 290.434721 
L 151.410673 292.465781 
L 153.14768 292.465781 
L 153.14768 297.090569 
L 154.884686 297.090569 
L 154.884686 299.533184 
L 156.621692 299.533184 
L 156.621692 301.695743 
L 158.358699 301.695743 
L 158.358699 303.100023 
L 160.095705 303.100023 
L 160.095705 303.991409 
L 161.832712 303.991409 
L 161.832712 308.272631 
L 163.569718 308.272631 
L 163.569718 310.790564 
L 165.306725 310.790564 
L 165.306725 311.989645 
L 167.043731 311.989645 
L 167.043731 312.252043 
L 168.780737 312.252043 
L 168.780737 313.05242 
L 170.517744 313.05242 
L 170.517744 320.057189 
L 172.25475 320.057189 
L 172.25475 323.382461 
L 173.991757 323.382461 
L 173.991757 325.627816 
L 175.728763 325.627816 
L 175.728763 326.964351 
L 177.46577 326.964351 
L 177.46577 327.231671 
L 179.202776 327.231671 
L 179.202776 327.483098 
L 180.939782 327.483098 
L 180.939782 329.225244 
L 186.150802 329.311806 
L 186.150802 330.286969 
L 187.887808 330.286969 
L 187.887808 332.837941 
L 189.624815 332.837941 
L 189.624815 336.070711 
L 193.098827 336.179222 
L 193.098827 339.365625 
L 194.835834 339.365625 
L 194.835834 340.35284 
L 196.57284 340.35284 
L 196.57284 341.108338 
L 198.309847 341.108338 
L 198.309847 341.717496 
L 200.046853 341.717496 
L 200.046853 342.106553 
L 201.78386 342.106553 
L 201.78386 342.653623 
L 203.520866 342.653623 
L 203.520866 343.467047 
L 205.257872 343.467047 
L 205.257872 343.848896 
L 206.994879 343.848896 
L 206.994879 345.617452 
L 208.731885 345.617452 
L 208.731885 346.183338 
L 210.468892 346.183338 
L 210.468892 346.447939 
L 215.679911 346.5411 
L 215.679911 347.331051 
L 217.416917 347.331051 
L 217.416917 347.809078 
L 219.153924 347.809078 
L 219.153924 348.896649 
L 220.89093 348.896649 
L 220.89093 349.478125 
L 224.364943 349.478125 
L 224.364943 349.478125 
" clip-path="url(#p4b7ce513ae)" style="fill: none; stroke: #808080; stroke-width: 1.5; stroke-linecap: square"/>
   </g>
   <g id="line2d_46">
    <path d="M 52.401307 214.620982 
L 54.138313 214.621626 
L 55.87532 214.62613 
L 57.612326 214.638354 
L 59.349333 214.662157 
L 61.086339 214.701389 
L 62.823345 214.759896 
L 64.560352 214.841505 
L 66.297358 214.950026 
L 68.034365 215.089242 
L 69.771371 215.262899 
L 71.508378 215.4747 
L 73.245384 215.728292 
L 74.98239 216.027258 
L 76.719397 216.3751 
L 78.456403 216.775233 
L 80.19341 217.230965 
L 81.930416 217.745486 
L 83.667423 218.321851 
L 85.404429 218.962967 
L 87.141435 219.671574 
L 88.878442 220.450232 
L 90.615448 221.3013 
L 92.352455 222.226925 
L 94.089461 223.229021 
L 95.826468 224.309256 
L 97.563474 225.469033 
L 99.30048 226.709478 
L 101.037487 228.031424 
L 102.774493 229.435399 
L 104.5115 230.921612 
L 106.248506 232.489942 
L 107.985513 234.13993 
L 109.722519 235.87077 
L 111.459525 237.681302 
L 113.196532 239.570013 
L 114.933538 241.535026 
L 116.670545 243.57411 
L 118.407551 245.684675 
L 120.144558 247.863781 
L 121.881564 250.108146 
L 123.61857 252.414153 
L 125.355577 254.777866 
L 127.092583 257.195044 
L 128.82959 259.661157 
L 130.566596 262.171412 
L 132.303603 264.720768 
L 134.040609 267.30397 
L 135.777615 269.915566 
L 137.514622 272.549946 
L 139.251628 275.201366 
L 140.988635 277.863984 
L 142.725641 280.531891 
L 144.462647 283.199149 
L 146.199654 285.859822 
L 147.93666 288.508013 
L 149.673667 291.137902 
L 151.410673 293.743776 
L 153.14768 296.320068 
L 154.884686 298.861388 
L 156.621692 301.362553 
L 158.358699 303.818623 
L 160.095705 306.224921 
L 161.832712 308.577067 
L 163.569718 310.870994 
L 165.306725 313.102974 
L 167.043731 315.269633 
L 168.780737 317.367965 
L 170.517744 319.395342 
L 172.25475 321.349526 
L 173.991757 323.228669 
L 175.728763 325.031314 
L 177.46577 326.756396 
L 179.202776 328.403233 
L 180.939782 329.971519 
L 182.676789 331.461309 
L 184.413795 332.873009 
L 186.150802 334.207358 
L 187.887808 335.465405 
L 189.624815 336.648491 
L 191.361821 337.758225 
L 193.098827 338.796462 
L 194.835834 339.765273 
L 196.57284 340.666922 
L 198.309847 341.503842 
L 200.046853 342.278602 
L 201.78386 342.993886 
L 203.520866 343.652466 
L 205.257872 344.257176 
L 206.994879 344.81089 
L 208.731885 345.316495 
L 210.468892 345.776877 
L 212.205898 346.194893 
L 213.942905 346.57336 
L 215.679911 346.915032 
L 217.416917 347.222594 
L 219.153924 347.49864 
L 220.89093 347.745669 
L 222.627937 347.966076 
L 224.364943 348.162139 
" clip-path="url(#p4b7ce513ae)" style="fill: none; stroke: #cd5c5c; stroke-width: 2; stroke-linecap: square"/>
   </g>
   <g id="patch_9">
    <path d="M 43.803125 349.478125 
L 43.803125 207.878125 
" style="fill: none; stroke: #000000; stroke-width: 0.8; stroke-linejoin: miter; stroke-linecap: square"/>
   </g>
   <g id="patch_10">
    <path d="M 232.963125 349.478125 
L 232.963125 207.878125 
" style="fill: none; stroke: #000000; stroke-width: 0.8; stroke-linejoin: miter; stroke-linecap: square"/>
   </g>
   <g id="patch_11">
    <path d="M 43.803125 349.478125 
L 232.963125 349.478125 
" style="fill: none; stroke: #000000; stroke-width: 0.8; stroke-linejoin: miter; stroke-linecap: square"/>
   </g>
   <g id="patch_12">
    <path d="M 43.803125 207.878125 
L 232.963125 207.878125 
" style="fill: none; stroke: #000000; stroke-width: 0.8; stroke-linejoin: miter; stroke-linecap: square"/>
   </g>
   <g id="text_27">
    <!-- (b) GIS Survival Probability -->
    <g transform="translate(58.0375 201.878125) scale(0.12 -0.12)">
     <defs>
      <path id="DejaVuSans-47" d="M 3809 666 
L 3809 1919 
L 2778 1919 
L 2778 2438 
L 4434 2438 
L 4434 434 
Q 4069 175 3628 42 
Q 3188 -91 2688 -91 
Q 1594 -91 976 548 
Q 359 1188 359 2328 
Q 359 3472 976 4111 
Q 1594 4750 2688 4750 
Q 3144 4750 3555 4637 
Q 3966 4525 4313 4306 
L 4313 3634 
Q 3963 3931 3569 4081 
Q 3175 4231 2741 4231 
Q 1884 4231 1454 3753 
Q 1025 3275 1025 2328 
Q 1025 1384 1454 906 
Q 1884 428 2741 428 
Q 3075 428 3337 486 
Q 3600 544 3809 666 
z
" transform="scale(0.015625)"/>
     </defs>
     <use xlink:href="#DejaVuSans-28"/>
     <use xlink:href="#DejaVuSans-62" transform="translate(39.013672 0)"/>
     <use xlink:href="#DejaVuSans-29" transform="translate(102.490234 0)"/>
     <use xlink:href="#DejaVuSans-20" transform="translate(141.503906 0)"/>
     <use xlink:href="#DejaVuSans-47" transform="translate(173.291016 0)"/>
     <use xlink:href="#DejaVuSans-49" transform="translate(250.78125 0)"/>
     <use xlink:href="#DejaVuSans-53" transform="translate(280.273438 0)"/>
     <use xlink:href="#DejaVuSans-20" transform="translate(343.75 0)"/>
     <use xlink:href="#DejaVuSans-53" transform="translate(375.537109 0)"/>
     <use xlink:href="#DejaVuSans-75" transform="translate(439.013672 0)"/>
     <use xlink:href="#DejaVuSans-72" transform="translate(502.392578 0)"/>
     <use xlink:href="#DejaVuSans-76" transform="translate(543.505859 0)"/>
     <use xlink:href="#DejaVuSans-69" transform="translate(602.685547 0)"/>
     <use xlink:href="#DejaVuSans-76" transform="translate(630.46875 0)"/>
     <use xlink:href="#DejaVuSans-61" transform="translate(689.648438 0)"/>
     <use xlink:href="#DejaVuSans-6c" transform="translate(750.927734 0)"/>
     <use xlink:href="#DejaVuSans-20" transform="translate(778.710938 0)"/>
     <use xlink:href="#DejaVuSans-50" transform="translate(810.498047 0)"/>
     <use xlink:href="#DejaVuSans-72" transform="translate(869.050781 0)"/>
     <use xlink:href="#DejaVuSans-6f" transform="translate(907.914062 0)"/>
     <use xlink:href="#DejaVuSans-62" transform="translate(969.095703 0)"/>
     <use xlink:href="#DejaVuSans-61" transform="translate(1032.572266 0)"/>
     <use xlink:href="#DejaVuSans-62" transform="translate(1093.851562 0)"/>
     <use xlink:href="#DejaVuSans-69" transform="translate(1157.328125 0)"/>
     <use xlink:href="#DejaVuSans-6c" transform="translate(1185.111328 0)"/>
     <use xlink:href="#DejaVuSans-69" transform="translate(1212.894531 0)"/>
     <use xlink:href="#DejaVuSans-74" transform="translate(1240.677734 0)"/>
     <use xlink:href="#DejaVuSans-79" transform="translate(1279.886719 0)"/>
    </g>
   </g>
   <g id="legend_2">
    <g id="patch_13">
     <path d="M 49.403125 345.478125 
L 173.399375 345.478125 
Q 174.999375 345.478125 174.999375 343.878125 
L 174.999375 321.193125 
Q 174.999375 319.593125 173.399375 319.593125 
L 49.403125 319.593125 
Q 47.803125 319.593125 47.803125 321.193125 
L 47.803125 343.878125 
Q 47.803125 345.478125 49.403125 345.478125 
z
" style="fill: #ffffff; opacity: 0.8; stroke: #cccccc; stroke-linejoin: miter"/>
    </g>
    <g id="line2d_47">
     <path d="M 51.003125 326.071875 
L 59.003125 326.071875 
L 59.003125 326.071875 
L 67.003125 326.071875 
L 67.003125 326.071875 
" style="fill: none; stroke: #808080; stroke-width: 1.5; stroke-linecap: square"/>
    </g>
    <g id="text_28">
     <!-- Kaplan-Meier (Empirical) -->
     <g transform="translate(73.403125 328.871875) scale(0.08 -0.08)">
      <use xlink:href="#DejaVuSans-4b"/>
      <use xlink:href="#DejaVuSans-61" transform="translate(63.826172 0)"/>
      <use xlink:href="#DejaVuSans-70" transform="translate(125.105469 0)"/>
      <use xlink:href="#DejaVuSans-6c" transform="translate(188.582031 0)"/>
      <use xlink:href="#DejaVuSans-61" transform="translate(216.365234 0)"/>
      <use xlink:href="#DejaVuSans-6e" transform="translate(277.644531 0)"/>
      <use xlink:href="#DejaVuSans-2d" transform="translate(341.023438 0)"/>
      <use xlink:href="#DejaVuSans-4d" transform="translate(377.107422 0)"/>
      <use xlink:href="#DejaVuSans-65" transform="translate(463.386719 0)"/>
      <use xlink:href="#DejaVuSans-69" transform="translate(524.910156 0)"/>
      <use xlink:href="#DejaVuSans-65" transform="translate(552.693359 0)"/>
      <use xlink:href="#DejaVuSans-72" transform="translate(614.216797 0)"/>
      <use xlink:href="#DejaVuSans-20" transform="translate(655.330078 0)"/>
      <use xlink:href="#DejaVuSans-28" transform="translate(687.117188 0)"/>
      <use xlink:href="#DejaVuSans-45" transform="translate(726.130859 0)"/>
      <use xlink:href="#DejaVuSans-6d" transform="translate(789.314453 0)"/>
      <use xlink:href="#DejaVuSans-70" transform="translate(886.726562 0)"/>
      <use xlink:href="#DejaVuSans-69" transform="translate(950.203125 0)"/>
      <use xlink:href="#DejaVuSans-72" transform="translate(977.986328 0)"/>
      <use xlink:href="#DejaVuSans-69" transform="translate(1019.099609 0)"/>
      <use xlink:href="#DejaVuSans-63" transform="translate(1046.882812 0)"/>
      <use xlink:href="#DejaVuSans-61" transform="translate(1101.863281 0)"/>
      <use xlink:href="#DejaVuSans-6c" transform="translate(1163.142578 0)"/>
      <use xlink:href="#DejaVuSans-29" transform="translate(1190.925781 0)"/>
     </g>
    </g>
    <g id="line2d_48">
     <path d="M 51.003125 337.814375 
L 59.003125 337.814375 
L 67.003125 337.814375 
" style="fill: none; stroke: #cd5c5c; stroke-width: 2; stroke-linecap: square"/>
    </g>
    <g id="text_29">
     <!-- Weibull Fit -->
     <g transform="translate(73.403125 340.614375) scale(0.08 -0.08)">
      <defs>
       <path id="DejaVuSans-57" d="M 213 4666 
L 850 4666 
L 1831 722 
L 2809 4666 
L 3519 4666 
L 4500 722 
L 5478 4666 
L 6119 4666 
L 4947 0 
L 4153 0 
L 3169 4050 
L 2175 0 
L 1381 0 
L 213 4666 
z
" transform="scale(0.015625)"/>
      </defs>
      <use xlink:href="#DejaVuSans-57"/>
      <use xlink:href="#DejaVuSans-65" transform="translate(93.001953 0)"/>
      <use xlink:href="#DejaVuSans-69" transform="translate(154.525391 0)"/>
      <use xlink:href="#DejaVuSans-62" transform="translate(182.308594 0)"/>
      <use xlink:href="#DejaVuSans-75" transform="translate(245.785156 0)"/>
      <use xlink:href="#DejaVuSans-6c" transform="translate(309.164062 0)"/>
      <use xlink:href="#DejaVuSans-6c" transform="translate(336.947266 0)"/>
      <use xlink:href="#DejaVuSans-20" transform="translate(364.730469 0)"/>
      <use xlink:href="#DejaVuSans-46" transform="translate(396.517578 0)"/>
      <use xlink:href="#DejaVuSans-69" transform="translate(446.787109 0)"/>
      <use xlink:href="#DejaVuSans-74" transform="translate(474.570312 0)"/>
     </g>
    </g>
   </g>
  </g>
 </g>
 <defs>
  <clipPath id="pf5c7827a04">
   <rect x="43.803125" y="22.318125" width="189.16" height="141.6"/>
  </clipPath>
  <clipPath id="p4b7ce513ae">
   <rect x="43.803125" y="207.878125" width="189.16" height="141.6"/>
  </clipPath>
 </defs>
</svg>
