<?xml version="1.0" encoding="utf-8" standalone="no"?>
<!DOCTYPE svg PUBLIC "-//W3C//DTD SVG 1.1//EN"
  "http://www.w3.org/Graphics/SVG/1.1/DTD/svg11.dtd">
<svg xmlns:xlink="http://www.w3.org/1999/xlink" width="535.5675pt" height="291.202125pt" viewBox="0 0 535.5675 291.202125" xmlns="http://www.w3.org/2000/svg" version="1.1">
 <metadata>
  <rdf:RDF xmlns:dc="http://purl.org/dc/elements/1.1/" xmlns:cc="http://creativecommons.org/ns#" xmlns:rdf="http://www.w3.org/1999/02/22-rdf-syntax-ns#">
   <cc:Work>
    <dc:type rdf:resource="http://purl.org/dc/dcmitype/StillImage"/>
    <dc:date>2026-06-18T17:05:51.479084</dc:date>
    <dc:format>image/svg+xml</dc:format>
    <dc:creator>
     <cc:Agent>
      <dc:title>Matplotlib v3.10.8, https://matplotlib.org/</dc:title>
     </cc:Agent>
    </dc:creator>
   </cc:Work>
  </rdf:RDF>
 </metadata>
 <defs>
  <style type="text/css">*{stroke-linejoin: round; stroke-linecap: butt}</style>
 </defs>
 <g id="figure_1">
  <g id="patch_1">
   <path d="M 0 291.202125 
L 535.5675 291.202125 
L 535.5675 0 
L 0 0 
z
" style="fill: #ffffff"/>
  </g>
  <g id="axes_1">
   <g id="patch_2">
    <path d="M 50.14375 182.638125 
L 246.18875 182.638125 
L 246.18875 22.318125 
L 50.14375 22.318125 
z
" style="fill: #ffffff"/>
   </g>
   <g id="FillBetweenPolyCollection_1">
    <defs>
     <path id="m5faab0edb4" d="M 99.155 -261.596727 
L 99.155 -184.149517 
L 100.145126 -184.321701 
L 101.135253 -184.448344 
L 102.125379 -184.531251 
L 103.115505 -184.572151 
L 104.105631 -184.57271 
L 105.095758 -184.534525 
L 106.085884 -184.459129 
L 107.07601 -184.347997 
L 108.066136 -184.202542 
L 109.056263 -184.024126 
L 110.046389 -183.814052 
L 111.036515 -183.573574 
L 112.026641 -183.303897 
L 113.016768 -183.006176 
L 114.006894 -182.681523 
L 114.99702 -182.331003 
L 115.987146 -181.95564 
L 116.977273 -181.556419 
L 117.967399 -181.134285 
L 118.957525 -180.690144 
L 119.947652 -180.224868 
L 120.937778 -179.739295 
L 121.927904 -179.234227 
L 122.91803 -178.710436 
L 123.908157 -178.168665 
L 124.898283 -177.609625 
L 125.888409 -177.034 
L 126.878535 -176.442446 
L 127.868662 -175.835595 
L 128.858788 -175.214053 
L 129.848914 -174.5784 
L 130.83904 -173.929195 
L 131.829167 -173.266977 
L 132.819293 -172.592258 
L 133.809419 -171.905536 
L 134.799545 -171.207284 
L 135.789672 -170.49796 
L 136.779798 -169.778002 
L 137.769924 -169.047831 
L 138.760051 -168.307852 
L 139.750177 -167.558452 
L 140.740303 -166.800005 
L 141.730429 -166.03287 
L 142.720556 -165.25739 
L 143.710682 -164.473895 
L 144.700808 -163.682703 
L 145.690934 -162.88412 
L 146.681061 -162.078436 
L 147.671187 -161.265935 
L 148.661313 -160.446885 
L 149.651439 -159.621546 
L 150.641566 -158.790167 
L 151.631692 -157.952988 
L 152.621818 -157.110237 
L 153.611944 -156.262136 
L 154.602071 -155.408896 
L 155.592197 -154.550721 
L 156.582323 -153.687806 
L 157.572449 -152.820339 
L 158.562576 -151.948501 
L 159.552702 -151.072464 
L 160.542828 -150.192394 
L 161.532955 -149.308452 
L 162.523081 -148.42079 
L 163.513207 -147.529556 
L 164.503333 -146.634892 
L 165.49346 -145.736933 
L 166.483586 -144.835809 
L 167.473712 -143.931647 
L 168.463838 -143.024566 
L 169.453965 -142.114681 
L 170.444091 -141.202105 
L 171.434217 -140.286943 
L 172.424343 -139.369298 
L 173.41447 -138.449268 
L 174.404596 -137.526948 
L 175.394722 -136.602428 
L 176.384848 -135.675796 
L 177.374975 -134.747135 
L 178.365101 -133.816525 
L 179.355227 -132.884044 
L 180.345354 -131.949765 
L 181.33548 -131.013761 
L 182.325606 -130.076099 
L 183.315732 -129.136844 
L 184.305859 -128.196061 
L 185.295985 -127.253808 
L 186.286111 -126.310146 
L 187.276237 -125.365129 
L 188.266364 -124.418811 
L 189.25649 -123.471244 
L 190.246616 -122.522477 
L 191.236742 -121.572557 
L 192.226869 -120.621531 
L 193.216995 -119.669442 
L 194.207121 -118.716332 
L 195.197247 -117.762241 
L 196.187374 -116.807209 
L 197.1775 -115.851273 
L 197.1775 -117.269768 
L 197.1775 -117.269768 
L 196.187374 -118.284191 
L 195.197247 -119.300121 
L 194.207121 -120.31762 
L 193.216995 -121.336754 
L 192.226869 -122.357588 
L 191.236742 -123.380195 
L 190.246616 -124.404646 
L 189.25649 -125.431017 
L 188.266364 -126.459389 
L 187.276237 -127.489842 
L 186.286111 -128.522464 
L 185.295985 -129.557344 
L 184.305859 -130.594574 
L 183.315732 -131.634251 
L 182.325606 -132.676477 
L 181.33548 -133.721357 
L 180.345354 -134.769 
L 179.355227 -135.819519 
L 178.365101 -136.873034 
L 177.374975 -137.929668 
L 176.384848 -138.989549 
L 175.394722 -140.052812 
L 174.404596 -141.119596 
L 173.41447 -142.190046 
L 172.424343 -143.264313 
L 171.434217 -144.342555 
L 170.444091 -145.424935 
L 169.453965 -146.511625 
L 168.463838 -147.602801 
L 167.473712 -148.69865 
L 166.483586 -149.799362 
L 165.49346 -150.90514 
L 164.503333 -152.016191 
L 163.513207 -153.132734 
L 162.523081 -154.254995 
L 161.532955 -155.383209 
L 160.542828 -156.517622 
L 159.552702 -157.658489 
L 158.562576 -158.806078 
L 157.572449 -159.960663 
L 156.582323 -161.122536 
L 155.592197 -162.291995 
L 154.602071 -163.469353 
L 153.611944 -164.654937 
L 152.621818 -165.849085 
L 151.631692 -167.052151 
L 150.641566 -168.264501 
L 149.651439 -169.48652 
L 148.661313 -170.718606 
L 147.671187 -171.961173 
L 146.681061 -173.214654 
L 145.690934 -174.479499 
L 144.700808 -175.756176 
L 143.710682 -177.045173 
L 142.720556 -178.346999 
L 141.730429 -179.662182 
L 140.740303 -180.991273 
L 139.750177 -182.334846 
L 138.760051 -183.693497 
L 137.769924 -185.067848 
L 136.779798 -186.458546 
L 135.789672 -187.866266 
L 134.799545 -189.29171 
L 133.809419 -190.735607 
L 132.819293 -192.19872 
L 131.829167 -193.681839 
L 130.83904 -195.185791 
L 129.848914 -196.711435 
L 128.858788 -198.259663 
L 127.868662 -199.831409 
L 126.878535 -201.42764 
L 125.888409 -203.049368 
L 124.898283 -204.697643 
L 123.908157 -206.37356 
L 122.91803 -208.078258 
L 121.927904 -209.812924 
L 120.937778 -211.578795 
L 119.947652 -213.377155 
L 118.957525 -215.209346 
L 117.967399 -217.076761 
L 116.977273 -218.980854 
L 115.987146 -220.923136 
L 114.99702 -222.905182 
L 114.006894 -224.928632 
L 113.016768 -226.995193 
L 112.026641 -229.106642 
L 111.036515 -231.26483 
L 110.046389 -233.471684 
L 109.056263 -235.729211 
L 108.066136 -238.0395 
L 107.07601 -240.404727 
L 106.085884 -242.827156 
L 105.095758 -245.309147 
L 104.105631 -247.853154 
L 103.115505 -250.461736 
L 102.125379 -253.137554 
L 101.135253 -255.883381 
L 100.145126 -258.702104 
L 99.155 -261.596727 
z
" style="stroke: #add8e6; stroke-opacity: 0.5"/>
    </defs>
    <g clip-path="url(#pd5e2321e9c)">
     <use xlink:href="#m5faab0edb4" x="0" y="291.202125" style="fill: #add8e6; fill-opacity: 0.5; stroke: #add8e6; stroke-opacity: 0.5"/>
    </g>
   </g>
   <g id="matplotlib.axis_1">
    <g id="xtick_1">
     <g id="line2d_1">
      <path d="M 50.14375 182.638125 
L 50.14375 22.318125 
" clip-path="url(#pd5e2321e9c)" style="fill: none; stroke-dasharray: 2.96,1.28; stroke-dashoffset: 0; stroke: #b0b0b0; stroke-opacity: 0.5; stroke-width: 0.8"/>
     </g>
     <g id="line2d_2">
      <defs>
       <path id="m17ac87f4e3" d="M 0 0 
L 0 3.5 
" style="stroke: #000000; stroke-width: 0.8"/>
      </defs>
      <g>
       <use xlink:href="#m17ac87f4e3" x="50.14375" y="182.638125" style="stroke: #000000; stroke-width: 0.8"/>
      </g>
     </g>
     <g id="text_1">
      <!-- 10 -->
      <g transform="translate(43.78125 197.236562) scale(0.1 -0.1)">
       <defs>
        <path id="DejaVuSans-31" d="M 794 531 
L 1825 531 
L 1825 4091 
L 703 3866 
L 703 4441 
L 1819 4666 
L 2450 4666 
L 2450 531 
L 3481 531 
L 3481 0 
L 794 0 
L 794 531 
z
" transform="scale(0.015625)"/>
        <path id="DejaVuSans-30" d="M 2034 4250 
Q 1547 4250 1301 3770 
Q 1056 3291 1056 2328 
Q 1056 1369 1301 889 
Q 1547 409 2034 409 
Q 2525 409 2770 889 
Q 3016 1369 3016 2328 
Q 3016 3291 2770 3770 
Q 2525 4250 2034 4250 
z
M 2034 4750 
Q 2819 4750 3233 4129 
Q 3647 3509 3647 2328 
Q 3647 1150 3233 529 
Q 2819 -91 2034 -91 
Q 1250 -91 836 529 
Q 422 1150 422 2328 
Q 422 3509 836 4129 
Q 1250 4750 2034 4750 
z
" transform="scale(0.015625)"/>
       </defs>
       <use xlink:href="#DejaVuSans-31"/>
       <use xlink:href="#DejaVuSans-30" transform="translate(63.623047 0)"/>
      </g>
     </g>
    </g>
    <g id="xtick_2">
     <g id="line2d_3">
      <path d="M 99.155 182.638125 
L 99.155 22.318125 
" clip-path="url(#pd5e2321e9c)" style="fill: none; stroke-dasharray: 2.96,1.28; stroke-dashoffset: 0; stroke: #b0b0b0; stroke-opacity: 0.5; stroke-width: 0.8"/>
     </g>
     <g id="line2d_4">
      <g>
       <use xlink:href="#m17ac87f4e3" x="99.155" y="182.638125" style="stroke: #000000; stroke-width: 0.8"/>
      </g>
     </g>
     <g id="text_2">
      <!-- 15 -->
      <g transform="translate(92.7925 197.236562) scale(0.1 -0.1)">
       <defs>
        <path id="DejaVuSans-35" d="M 691 4666 
L 3169 4666 
L 3169 4134 
L 1269 4134 
L 1269 2991 
Q 1406 3038 1543 3061 
Q 1681 3084 1819 3084 
Q 2600 3084 3056 2656 
Q 3513 2228 3513 1497 
Q 3513 744 3044 326 
Q 2575 -91 1722 -91 
Q 1428 -91 1123 -41 
Q 819 9 494 109 
L 494 744 
Q 775 591 1075 516 
Q 1375 441 1709 441 
Q 2250 441 2565 725 
Q 2881 1009 2881 1497 
Q 2881 1984 2565 2268 
Q 2250 2553 1709 2553 
Q 1456 2553 1204 2497 
Q 953 2441 691 2322 
L 691 4666 
z
" transform="scale(0.015625)"/>
       </defs>
       <use xlink:href="#DejaVuSans-31"/>
       <use xlink:href="#DejaVuSans-35" transform="translate(63.623047 0)"/>
      </g>
     </g>
    </g>
    <g id="xtick_3">
     <g id="line2d_5">
      <path d="M 148.16625 182.638125 
L 148.16625 22.318125 
" clip-path="url(#pd5e2321e9c)" style="fill: none; stroke-dasharray: 2.96,1.28; stroke-dashoffset: 0; stroke: #b0b0b0; stroke-opacity: 0.5; stroke-width: 0.8"/>
     </g>
     <g id="line2d_6">
      <g>
       <use xlink:href="#m17ac87f4e3" x="148.16625" y="182.638125" style="stroke: #000000; stroke-width: 0.8"/>
      </g>
     </g>
     <g id="text_3">
      <!-- 20 -->
      <g transform="translate(141.80375 197.236562) scale(0.1 -0.1)">
       <defs>
        <path id="DejaVuSans-32" d="M 1228 531 
L 3431 531 
L 3431 0 
L 469 0 
L 469 531 
Q 828 903 1448 1529 
Q 2069 2156 2228 2338 
Q 2531 2678 2651 2914 
Q 2772 3150 2772 3378 
Q 2772 3750 2511 3984 
Q 2250 4219 1831 4219 
Q 1534 4219 1204 4116 
Q 875 4013 500 3803 
L 500 4441 
Q 881 4594 1212 4672 
Q 1544 4750 1819 4750 
Q 2544 4750 2975 4387 
Q 3406 4025 3406 3419 
Q 3406 3131 3298 2873 
Q 3191 2616 2906 2266 
Q 2828 2175 2409 1742 
Q 1991 1309 1228 531 
z
" transform="scale(0.015625)"/>
       </defs>
       <use xlink:href="#DejaVuSans-32"/>
       <use xlink:href="#DejaVuSans-30" transform="translate(63.623047 0)"/>
      </g>
     </g>
    </g>
    <g id="xtick_4">
     <g id="line2d_7">
      <path d="M 197.1775 182.638125 
L 197.1775 22.318125 
" clip-path="url(#pd5e2321e9c)" style="fill: none; stroke-dasharray: 2.96,1.28; stroke-dashoffset: 0; stroke: #b0b0b0; stroke-opacity: 0.5; stroke-width: 0.8"/>
     </g>
     <g id="line2d_8">
      <g>
       <use xlink:href="#m17ac87f4e3" x="197.1775" y="182.638125" style="stroke: #000000; stroke-width: 0.8"/>
      </g>
     </g>
     <g id="text_4">
      <!-- 25 -->
      <g transform="translate(190.815 197.236562) scale(0.1 -0.1)">
       <use xlink:href="#DejaVuSans-32"/>
       <use xlink:href="#DejaVuSans-35" transform="translate(63.623047 0)"/>
      </g>
     </g>
    </g>
    <g id="xtick_5">
     <g id="line2d_9">
      <path d="M 246.18875 182.638125 
L 246.18875 22.318125 
" clip-path="url(#pd5e2321e9c)" style="fill: none; stroke-dasharray: 2.96,1.28; stroke-dashoffset: 0; stroke: #b0b0b0; stroke-opacity: 0.5; stroke-width: 0.8"/>
     </g>
     <g id="line2d_10">
      <g>
       <use xlink:href="#m17ac87f4e3" x="246.18875" y="182.638125" style="stroke: #000000; stroke-width: 0.8"/>
      </g>
     </g>
     <g id="text_5">
      <!-- 30 -->
      <g transform="translate(239.82625 197.236562) scale(0.1 -0.1)">
       <defs>
        <path id="DejaVuSans-33" d="M 2597 2516 
Q 3050 2419 3304 2112 
Q 3559 1806 3559 1356 
Q 3559 666 3084 287 
Q 2609 -91 1734 -91 
Q 1441 -91 1130 -33 
Q 819 25 488 141 
L 488 750 
Q 750 597 1062 519 
Q 1375 441 1716 441 
Q 2309 441 2620 675 
Q 2931 909 2931 1356 
Q 2931 1769 2642 2001 
Q 2353 2234 1838 2234 
L 1294 2234 
L 1294 2753 
L 1863 2753 
Q 2328 2753 2575 2939 
Q 2822 3125 2822 3475 
Q 2822 3834 2567 4026 
Q 2313 4219 1838 4219 
Q 1578 4219 1281 4162 
Q 984 4106 628 3988 
L 628 4550 
Q 988 4650 1302 4700 
Q 1616 4750 1894 4750 
Q 2613 4750 3031 4423 
Q 3450 4097 3450 3541 
Q 3450 3153 3228 2886 
Q 3006 2619 2597 2516 
z
" transform="scale(0.015625)"/>
       </defs>
       <use xlink:href="#DejaVuSans-33"/>
       <use xlink:href="#DejaVuSans-30" transform="translate(63.623047 0)"/>
      </g>
     </g>
    </g>
    <g id="text_6">
     <!-- Operation Time (Years) -->
     <g transform="translate(90.777187 210.914688) scale(0.1 -0.1)">
      <defs>
       <path id="DejaVuSans-4f" d="M 2522 4238 
Q 1834 4238 1429 3725 
Q 1025 3213 1025 2328 
Q 1025 1447 1429 934 
Q 1834 422 2522 422 
Q 3209 422 3611 934 
Q 4013 1447 4013 2328 
Q 4013 3213 3611 3725 
Q 3209 4238 2522 4238 
z
M 2522 4750 
Q 3503 4750 4090 4092 
Q 4678 3434 4678 2328 
Q 4678 1225 4090 567 
Q 3503 -91 2522 -91 
Q 1538 -91 948 565 
Q 359 1222 359 2328 
Q 359 3434 948 4092 
Q 1538 4750 2522 4750 
z
" transform="scale(0.015625)"/>
       <path id="DejaVuSans-70" d="M 1159 525 
L 1159 -1331 
L 581 -1331 
L 581 3500 
L 1159 3500 
L 1159 2969 
Q 1341 3281 1617 3432 
Q 1894 3584 2278 3584 
Q 2916 3584 3314 3078 
Q 3713 2572 3713 1747 
Q 3713 922 3314 415 
Q 2916 -91 2278 -91 
Q 1894 -91 1617 61 
Q 1341 213 1159 525 
z
M 3116 1747 
Q 3116 2381 2855 2742 
Q 2594 3103 2138 3103 
Q 1681 3103 1420 2742 
Q 1159 2381 1159 1747 
Q 1159 1113 1420 752 
Q 1681 391 2138 391 
Q 2594 391 2855 752 
Q 3116 1113 3116 1747 
z
" transform="scale(0.015625)"/>
       <path id="DejaVuSans-65" d="M 3597 1894 
L 3597 1613 
L 953 1613 
Q 991 1019 1311 708 
Q 1631 397 2203 397 
Q 2534 397 2845 478 
Q 3156 559 3463 722 
L 3463 178 
Q 3153 47 2828 -22 
Q 2503 -91 2169 -91 
Q 1331 -91 842 396 
Q 353 884 353 1716 
Q 353 2575 817 3079 
Q 1281 3584 2069 3584 
Q 2775 3584 3186 3129 
Q 3597 2675 3597 1894 
z
M 3022 2063 
Q 3016 2534 2758 2815 
Q 2500 3097 2075 3097 
Q 1594 3097 1305 2825 
Q 1016 2553 972 2059 
L 3022 2063 
z
" transform="scale(0.015625)"/>
       <path id="DejaVuSans-72" d="M 2631 2963 
Q 2534 3019 2420 3045 
Q 2306 3072 2169 3072 
Q 1681 3072 1420 2755 
Q 1159 2438 1159 1844 
L 1159 0 
L 581 0 
L 581 3500 
L 1159 3500 
L 1159 2956 
Q 1341 3275 1631 3429 
Q 1922 3584 2338 3584 
Q 2397 3584 2469 3576 
Q 2541 3569 2628 3553 
L 2631 2963 
z
" transform="scale(0.015625)"/>
       <path id="DejaVuSans-61" d="M 2194 1759 
Q 1497 1759 1228 1600 
Q 959 1441 959 1056 
Q 959 750 1161 570 
Q 1363 391 1709 391 
Q 2188 391 2477 730 
Q 2766 1069 2766 1631 
L 2766 1759 
L 2194 1759 
z
M 3341 1997 
L 3341 0 
L 2766 0 
L 2766 531 
Q 2569 213 2275 61 
Q 1981 -91 1556 -91 
Q 1019 -91 701 211 
Q 384 513 384 1019 
Q 384 1609 779 1909 
Q 1175 2209 1959 2209 
L 2766 2209 
L 2766 2266 
Q 2766 2663 2505 2880 
Q 2244 3097 1772 3097 
Q 1472 3097 1187 3025 
Q 903 2953 641 2809 
L 641 3341 
Q 956 3463 1253 3523 
Q 1550 3584 1831 3584 
Q 2591 3584 2966 3190 
Q 3341 2797 3341 1997 
z
" transform="scale(0.015625)"/>
       <path id="DejaVuSans-74" d="M 1172 4494 
L 1172 3500 
L 2356 3500 
L 2356 3053 
L 1172 3053 
L 1172 1153 
Q 1172 725 1289 603 
Q 1406 481 1766 481 
L 2356 481 
L 2356 0 
L 1766 0 
Q 1100 0 847 248 
Q 594 497 594 1153 
L 594 3053 
L 172 3053 
L 172 3500 
L 594 3500 
L 594 4494 
L 1172 4494 
z
" transform="scale(0.015625)"/>
       <path id="DejaVuSans-69" d="M 603 3500 
L 1178 3500 
L 1178 0 
L 603 0 
L 603 3500 
z
M 603 4863 
L 1178 4863 
L 1178 4134 
L 603 4134 
L 603 4863 
z
" transform="scale(0.015625)"/>
       <path id="DejaVuSans-6f" d="M 1959 3097 
Q 1497 3097 1228 2736 
Q 959 2375 959 1747 
Q 959 1119 1226 758 
Q 1494 397 1959 397 
Q 2419 397 2687 759 
Q 2956 1122 2956 1747 
Q 2956 2369 2687 2733 
Q 2419 3097 1959 3097 
z
M 1959 3584 
Q 2709 3584 3137 3096 
Q 3566 2609 3566 1747 
Q 3566 888 3137 398 
Q 2709 -91 1959 -91 
Q 1206 -91 779 398 
Q 353 888 353 1747 
Q 353 2609 779 3096 
Q 1206 3584 1959 3584 
z
" transform="scale(0.015625)"/>
       <path id="DejaVuSans-6e" d="M 3513 2113 
L 3513 0 
L 2938 0 
L 2938 2094 
Q 2938 2591 2744 2837 
Q 2550 3084 2163 3084 
Q 1697 3084 1428 2787 
Q 1159 2491 1159 1978 
L 1159 0 
L 581 0 
L 581 3500 
L 1159 3500 
L 1159 2956 
Q 1366 3272 1645 3428 
Q 1925 3584 2291 3584 
Q 2894 3584 3203 3211 
Q 3513 2838 3513 2113 
z
" transform="scale(0.015625)"/>
       <path id="DejaVuSans-20" transform="scale(0.015625)"/>
       <path id="DejaVuSans-54" d="M -19 4666 
L 3928 4666 
L 3928 4134 
L 2272 4134 
L 2272 0 
L 1638 0 
L 1638 4134 
L -19 4134 
L -19 4666 
z
" transform="scale(0.015625)"/>
       <path id="DejaVuSans-6d" d="M 3328 2828 
Q 3544 3216 3844 3400 
Q 4144 3584 4550 3584 
Q 5097 3584 5394 3201 
Q 5691 2819 5691 2113 
L 5691 0 
L 5113 0 
L 5113 2094 
Q 5113 2597 4934 2840 
Q 4756 3084 4391 3084 
Q 3944 3084 3684 2787 
Q 3425 2491 3425 1978 
L 3425 0 
L 2847 0 
L 2847 2094 
Q 2847 2600 2669 2842 
Q 2491 3084 2119 3084 
Q 1678 3084 1418 2786 
Q 1159 2488 1159 1978 
L 1159 0 
L 581 0 
L 581 3500 
L 1159 3500 
L 1159 2956 
Q 1356 3278 1631 3431 
Q 1906 3584 2284 3584 
Q 2666 3584 2933 3390 
Q 3200 3197 3328 2828 
z
" transform="scale(0.015625)"/>
       <path id="DejaVuSans-28" d="M 1984 4856 
Q 1566 4138 1362 3434 
Q 1159 2731 1159 2009 
Q 1159 1288 1364 580 
Q 1569 -128 1984 -844 
L 1484 -844 
Q 1016 -109 783 600 
Q 550 1309 550 2009 
Q 550 2706 781 3412 
Q 1013 4119 1484 4856 
L 1984 4856 
z
" transform="scale(0.015625)"/>
       <path id="DejaVuSans-59" d="M -13 4666 
L 666 4666 
L 1959 2747 
L 3244 4666 
L 3922 4666 
L 2272 2222 
L 2272 0 
L 1638 0 
L 1638 2222 
L -13 4666 
z
" transform="scale(0.015625)"/>
       <path id="DejaVuSans-73" d="M 2834 3397 
L 2834 2853 
Q 2591 2978 2328 3040 
Q 2066 3103 1784 3103 
Q 1356 3103 1142 2972 
Q 928 2841 928 2578 
Q 928 2378 1081 2264 
Q 1234 2150 1697 2047 
L 1894 2003 
Q 2506 1872 2764 1633 
Q 3022 1394 3022 966 
Q 3022 478 2636 193 
Q 2250 -91 1575 -91 
Q 1294 -91 989 -36 
Q 684 19 347 128 
L 347 722 
Q 666 556 975 473 
Q 1284 391 1588 391 
Q 1994 391 2212 530 
Q 2431 669 2431 922 
Q 2431 1156 2273 1281 
Q 2116 1406 1581 1522 
L 1381 1569 
Q 847 1681 609 1914 
Q 372 2147 372 2553 
Q 372 3047 722 3315 
Q 1072 3584 1716 3584 
Q 2034 3584 2315 3537 
Q 2597 3491 2834 3397 
z
" transform="scale(0.015625)"/>
       <path id="DejaVuSans-29" d="M 513 4856 
L 1013 4856 
Q 1481 4119 1714 3412 
Q 1947 2706 1947 2009 
Q 1947 1309 1714 600 
Q 1481 -109 1013 -844 
L 513 -844 
Q 928 -128 1133 580 
Q 1338 1288 1338 2009 
Q 1338 2731 1133 3434 
Q 928 4138 513 4856 
z
" transform="scale(0.015625)"/>
      </defs>
      <use xlink:href="#DejaVuSans-4f"/>
      <use xlink:href="#DejaVuSans-70" transform="translate(78.710938 0)"/>
      <use xlink:href="#DejaVuSans-65" transform="translate(142.1875 0)"/>
      <use xlink:href="#DejaVuSans-72" transform="translate(203.710938 0)"/>
      <use xlink:href="#DejaVuSans-61" transform="translate(244.824219 0)"/>
      <use xlink:href="#DejaVuSans-74" transform="translate(306.103516 0)"/>
      <use xlink:href="#DejaVuSans-69" transform="translate(345.3125 0)"/>
      <use xlink:href="#DejaVuSans-6f" transform="translate(373.095703 0)"/>
      <use xlink:href="#DejaVuSans-6e" transform="translate(434.277344 0)"/>
      <use xlink:href="#DejaVuSans-20" transform="translate(497.65625 0)"/>
      <use xlink:href="#DejaVuSans-54" transform="translate(529.443359 0)"/>
      <use xlink:href="#DejaVuSans-69" transform="translate(587.402344 0)"/>
      <use xlink:href="#DejaVuSans-6d" transform="translate(615.185547 0)"/>
      <use xlink:href="#DejaVuSans-65" transform="translate(712.597656 0)"/>
      <use xlink:href="#DejaVuSans-20" transform="translate(774.121094 0)"/>
      <use xlink:href="#DejaVuSans-28" transform="translate(805.908203 0)"/>
      <use xlink:href="#DejaVuSans-59" transform="translate(844.921875 0)"/>
      <use xlink:href="#DejaVuSans-65" transform="translate(892.755859 0)"/>
      <use xlink:href="#DejaVuSans-61" transform="translate(954.279297 0)"/>
      <use xlink:href="#DejaVuSans-72" transform="translate(1015.558594 0)"/>
      <use xlink:href="#DejaVuSans-73" transform="translate(1056.671875 0)"/>
      <use xlink:href="#DejaVuSans-29" transform="translate(1108.771484 0)"/>
     </g>
    </g>
   </g>
   <g id="matplotlib.axis_2">
    <g id="ytick_1">
     <g id="line2d_11">
      <path d="M 50.14375 174.818917 
L 246.18875 174.818917 
" clip-path="url(#pd5e2321e9c)" style="fill: none; stroke-dasharray: 2.96,1.28; stroke-dashoffset: 0; stroke: #b0b0b0; stroke-opacity: 0.5; stroke-width: 0.8"/>
     </g>
     <g id="line2d_12">
      <defs>
       <path id="m6dbfc66230" d="M 0 0 
L -3.5 0 
" style="stroke: #000000; stroke-width: 0.8"/>
      </defs>
      <g>
       <use xlink:href="#m6dbfc66230" x="50.14375" y="174.818917" style="stroke: #000000; stroke-width: 0.8"/>
      </g>
     </g>
     <g id="text_7">
      <!-- 0.0 -->
      <g transform="translate(27.240625 178.618135) scale(0.1 -0.1)">
       <defs>
        <path id="DejaVuSans-2e" d="M 684 794 
L 1344 794 
L 1344 0 
L 684 0 
L 684 794 
z
" transform="scale(0.015625)"/>
       </defs>
       <use xlink:href="#DejaVuSans-30"/>
       <use xlink:href="#DejaVuSans-2e" transform="translate(63.623047 0)"/>
       <use xlink:href="#DejaVuSans-30" transform="translate(95.410156 0)"/>
      </g>
     </g>
    </g>
    <g id="ytick_2">
     <g id="line2d_13">
      <path d="M 50.14375 150.616663 
L 246.18875 150.616663 
" clip-path="url(#pd5e2321e9c)" style="fill: none; stroke-dasharray: 2.96,1.28; stroke-dashoffset: 0; stroke: #b0b0b0; stroke-opacity: 0.5; stroke-width: 0.8"/>
     </g>
     <g id="line2d_14">
      <g>
       <use xlink:href="#m6dbfc66230" x="50.14375" y="150.616663" style="stroke: #000000; stroke-width: 0.8"/>
      </g>
     </g>
     <g id="text_8">
      <!-- 2.5 -->
      <g transform="translate(27.240625 154.415882) scale(0.1 -0.1)">
       <use xlink:href="#DejaVuSans-32"/>
       <use xlink:href="#DejaVuSans-2e" transform="translate(63.623047 0)"/>
       <use xlink:href="#DejaVuSans-35" transform="translate(95.410156 0)"/>
      </g>
     </g>
    </g>
    <g id="ytick_3">
     <g id="line2d_15">
      <path d="M 50.14375 126.41441 
L 246.18875 126.41441 
" clip-path="url(#pd5e2321e9c)" style="fill: none; stroke-dasharray: 2.96,1.28; stroke-dashoffset: 0; stroke: #b0b0b0; stroke-opacity: 0.5; stroke-width: 0.8"/>
     </g>
     <g id="line2d_16">
      <g>
       <use xlink:href="#m6dbfc66230" x="50.14375" y="126.41441" style="stroke: #000000; stroke-width: 0.8"/>
      </g>
     </g>
     <g id="text_9">
      <!-- 5.0 -->
      <g transform="translate(27.240625 130.213629) scale(0.1 -0.1)">
       <use xlink:href="#DejaVuSans-35"/>
       <use xlink:href="#DejaVuSans-2e" transform="translate(63.623047 0)"/>
       <use xlink:href="#DejaVuSans-30" transform="translate(95.410156 0)"/>
      </g>
     </g>
    </g>
    <g id="ytick_4">
     <g id="line2d_17">
      <path d="M 50.14375 102.212157 
L 246.18875 102.212157 
" clip-path="url(#pd5e2321e9c)" style="fill: none; stroke-dasharray: 2.96,1.28; stroke-dashoffset: 0; stroke: #b0b0b0; stroke-opacity: 0.5; stroke-width: 0.8"/>
     </g>
     <g id="line2d_18">
      <g>
       <use xlink:href="#m6dbfc66230" x="50.14375" y="102.212157" style="stroke: #000000; stroke-width: 0.8"/>
      </g>
     </g>
     <g id="text_10">
      <!-- 7.5 -->
      <g transform="translate(27.240625 106.011376) scale(0.1 -0.1)">
       <defs>
        <path id="DejaVuSans-37" d="M 525 4666 
L 3525 4666 
L 3525 4397 
L 1831 0 
L 1172 0 
L 2766 4134 
L 525 4134 
L 525 4666 
z
" transform="scale(0.015625)"/>
       </defs>
       <use xlink:href="#DejaVuSans-37"/>
       <use xlink:href="#DejaVuSans-2e" transform="translate(63.623047 0)"/>
       <use xlink:href="#DejaVuSans-35" transform="translate(95.410156 0)"/>
      </g>
     </g>
    </g>
    <g id="ytick_5">
     <g id="line2d_19">
      <path d="M 50.14375 78.009904 
L 246.18875 78.009904 
" clip-path="url(#pd5e2321e9c)" style="fill: none; stroke-dasharray: 2.96,1.28; stroke-dashoffset: 0; stroke: #b0b0b0; stroke-opacity: 0.5; stroke-width: 0.8"/>
     </g>
     <g id="line2d_20">
      <g>
       <use xlink:href="#m6dbfc66230" x="50.14375" y="78.009904" style="stroke: #000000; stroke-width: 0.8"/>
      </g>
     </g>
     <g id="text_11">
      <!-- 10.0 -->
      <g transform="translate(20.878125 81.809123) scale(0.1 -0.1)">
       <use xlink:href="#DejaVuSans-31"/>
       <use xlink:href="#DejaVuSans-30" transform="translate(63.623047 0)"/>
       <use xlink:href="#DejaVuSans-2e" transform="translate(127.246094 0)"/>
       <use xlink:href="#DejaVuSans-30" transform="translate(159.033203 0)"/>
      </g>
     </g>
    </g>
    <g id="ytick_6">
     <g id="line2d_21">
      <path d="M 50.14375 53.807651 
L 246.18875 53.807651 
" clip-path="url(#pd5e2321e9c)" style="fill: none; stroke-dasharray: 2.96,1.28; stroke-dashoffset: 0; stroke: #b0b0b0; stroke-opacity: 0.5; stroke-width: 0.8"/>
     </g>
     <g id="line2d_22">
      <g>
       <use xlink:href="#m6dbfc66230" x="50.14375" y="53.807651" style="stroke: #000000; stroke-width: 0.8"/>
      </g>
     </g>
     <g id="text_12">
      <!-- 12.5 -->
      <g transform="translate(20.878125 57.60687) scale(0.1 -0.1)">
       <use xlink:href="#DejaVuSans-31"/>
       <use xlink:href="#DejaVuSans-32" transform="translate(63.623047 0)"/>
       <use xlink:href="#DejaVuSans-2e" transform="translate(127.246094 0)"/>
       <use xlink:href="#DejaVuSans-35" transform="translate(159.033203 0)"/>
      </g>
     </g>
    </g>
    <g id="ytick_7">
     <g id="line2d_23">
      <path d="M 50.14375 29.605398 
L 246.18875 29.605398 
" clip-path="url(#pd5e2321e9c)" style="fill: none; stroke-dasharray: 2.96,1.28; stroke-dashoffset: 0; stroke: #b0b0b0; stroke-opacity: 0.5; stroke-width: 0.8"/>
     </g>
     <g id="line2d_24">
      <g>
       <use xlink:href="#m6dbfc66230" x="50.14375" y="29.605398" style="stroke: #000000; stroke-width: 0.8"/>
      </g>
     </g>
     <g id="text_13">
      <!-- 15.0 -->
      <g transform="translate(20.878125 33.404616) scale(0.1 -0.1)">
       <use xlink:href="#DejaVuSans-31"/>
       <use xlink:href="#DejaVuSans-35" transform="translate(63.623047 0)"/>
       <use xlink:href="#DejaVuSans-2e" transform="translate(127.246094 0)"/>
       <use xlink:href="#DejaVuSans-30" transform="translate(159.033203 0)"/>
      </g>
     </g>
    </g>
    <g id="text_14">
     <!-- Remaining Useful Life (Years) -->
     <g transform="translate(14.798438 175.559375) rotate(-90) scale(0.1 -0.1)">
      <defs>
       <path id="DejaVuSans-52" d="M 2841 2188 
Q 3044 2119 3236 1894 
Q 3428 1669 3622 1275 
L 4263 0 
L 3584 0 
L 2988 1197 
Q 2756 1666 2539 1819 
Q 2322 1972 1947 1972 
L 1259 1972 
L 1259 0 
L 628 0 
L 628 4666 
L 2053 4666 
Q 2853 4666 3247 4331 
Q 3641 3997 3641 3322 
Q 3641 2881 3436 2590 
Q 3231 2300 2841 2188 
z
M 1259 4147 
L 1259 2491 
L 2053 2491 
Q 2509 2491 2742 2702 
Q 2975 2913 2975 3322 
Q 2975 3731 2742 3939 
Q 2509 4147 2053 4147 
L 1259 4147 
z
" transform="scale(0.015625)"/>
       <path id="DejaVuSans-67" d="M 2906 1791 
Q 2906 2416 2648 2759 
Q 2391 3103 1925 3103 
Q 1463 3103 1205 2759 
Q 947 2416 947 1791 
Q 947 1169 1205 825 
Q 1463 481 1925 481 
Q 2391 481 2648 825 
Q 2906 1169 2906 1791 
z
M 3481 434 
Q 3481 -459 3084 -895 
Q 2688 -1331 1869 -1331 
Q 1566 -1331 1297 -1286 
Q 1028 -1241 775 -1147 
L 775 -588 
Q 1028 -725 1275 -790 
Q 1522 -856 1778 -856 
Q 2344 -856 2625 -561 
Q 2906 -266 2906 331 
L 2906 616 
Q 2728 306 2450 153 
Q 2172 0 1784 0 
Q 1141 0 747 490 
Q 353 981 353 1791 
Q 353 2603 747 3093 
Q 1141 3584 1784 3584 
Q 2172 3584 2450 3431 
Q 2728 3278 2906 2969 
L 2906 3500 
L 3481 3500 
L 3481 434 
z
" transform="scale(0.015625)"/>
       <path id="DejaVuSans-55" d="M 556 4666 
L 1191 4666 
L 1191 1831 
Q 1191 1081 1462 751 
Q 1734 422 2344 422 
Q 2950 422 3222 751 
Q 3494 1081 3494 1831 
L 3494 4666 
L 4128 4666 
L 4128 1753 
Q 4128 841 3676 375 
Q 3225 -91 2344 -91 
Q 1459 -91 1007 375 
Q 556 841 556 1753 
L 556 4666 
z
" transform="scale(0.015625)"/>
       <path id="DejaVuSans-66" d="M 2375 4863 
L 2375 4384 
L 1825 4384 
Q 1516 4384 1395 4259 
Q 1275 4134 1275 3809 
L 1275 3500 
L 2222 3500 
L 2222 3053 
L 1275 3053 
L 1275 0 
L 697 0 
L 697 3053 
L 147 3053 
L 147 3500 
L 697 3500 
L 697 3744 
Q 697 4328 969 4595 
Q 1241 4863 1831 4863 
L 2375 4863 
z
" transform="scale(0.015625)"/>
       <path id="DejaVuSans-75" d="M 544 1381 
L 544 3500 
L 1119 3500 
L 1119 1403 
Q 1119 906 1312 657 
Q 1506 409 1894 409 
Q 2359 409 2629 706 
Q 2900 1003 2900 1516 
L 2900 3500 
L 3475 3500 
L 3475 0 
L 2900 0 
L 2900 538 
Q 2691 219 2414 64 
Q 2138 -91 1772 -91 
Q 1169 -91 856 284 
Q 544 659 544 1381 
z
M 1991 3584 
L 1991 3584 
z
" transform="scale(0.015625)"/>
       <path id="DejaVuSans-6c" d="M 603 4863 
L 1178 4863 
L 1178 0 
L 603 0 
L 603 4863 
z
" transform="scale(0.015625)"/>
       <path id="DejaVuSans-4c" d="M 628 4666 
L 1259 4666 
L 1259 531 
L 3531 531 
L 3531 0 
L 628 0 
L 628 4666 
z
" transform="scale(0.015625)"/>
      </defs>
      <use xlink:href="#DejaVuSans-52"/>
      <use xlink:href="#DejaVuSans-65" transform="translate(64.982422 0)"/>
      <use xlink:href="#DejaVuSans-6d" transform="translate(126.505859 0)"/>
      <use xlink:href="#DejaVuSans-61" transform="translate(223.917969 0)"/>
      <use xlink:href="#DejaVuSans-69" transform="translate(285.197266 0)"/>
      <use xlink:href="#DejaVuSans-6e" transform="translate(312.980469 0)"/>
      <use xlink:href="#DejaVuSans-69" transform="translate(376.359375 0)"/>
      <use xlink:href="#DejaVuSans-6e" transform="translate(404.142578 0)"/>
      <use xlink:href="#DejaVuSans-67" transform="translate(467.521484 0)"/>
      <use xlink:href="#DejaVuSans-20" transform="translate(530.998047 0)"/>
      <use xlink:href="#DejaVuSans-55" transform="translate(562.785156 0)"/>
      <use xlink:href="#DejaVuSans-73" transform="translate(635.978516 0)"/>
      <use xlink:href="#DejaVuSans-65" transform="translate(688.078125 0)"/>
      <use xlink:href="#DejaVuSans-66" transform="translate(749.601562 0)"/>
      <use xlink:href="#DejaVuSans-75" transform="translate(784.806641 0)"/>
      <use xlink:href="#DejaVuSans-6c" transform="translate(848.185547 0)"/>
      <use xlink:href="#DejaVuSans-20" transform="translate(875.96875 0)"/>
      <use xlink:href="#DejaVuSans-4c" transform="translate(907.755859 0)"/>
      <use xlink:href="#DejaVuSans-69" transform="translate(963.46875 0)"/>
      <use xlink:href="#DejaVuSans-66" transform="translate(991.251953 0)"/>
      <use xlink:href="#DejaVuSans-65" transform="translate(1026.457031 0)"/>
      <use xlink:href="#DejaVuSans-20" transform="translate(1087.980469 0)"/>
      <use xlink:href="#DejaVuSans-28" transform="translate(1119.767578 0)"/>
      <use xlink:href="#DejaVuSans-59" transform="translate(1158.78125 0)"/>
      <use xlink:href="#DejaVuSans-65" transform="translate(1206.615234 0)"/>
      <use xlink:href="#DejaVuSans-61" transform="translate(1268.138672 0)"/>
      <use xlink:href="#DejaVuSans-72" transform="translate(1329.417969 0)"/>
      <use xlink:href="#DejaVuSans-73" transform="translate(1370.53125 0)"/>
      <use xlink:href="#DejaVuSans-29" transform="translate(1422.630859 0)"/>
     </g>
    </g>
   </g>
   <g id="line2d_25">
    <path d="M 99.155 78.009904 
L 100.145126 78.987773 
L 101.135253 79.965642 
L 102.125379 80.94351 
L 103.115505 81.921379 
L 104.105631 82.899248 
L 105.095758 83.877117 
L 106.085884 84.854986 
L 107.07601 85.832855 
L 108.066136 86.810723 
L 109.056263 87.788592 
L 110.046389 88.766461 
L 111.036515 89.74433 
L 112.026641 90.722199 
L 113.016768 91.700067 
L 114.006894 92.677936 
L 114.99702 93.655805 
L 115.987146 94.633674 
L 116.977273 95.611543 
L 117.967399 96.589411 
L 118.957525 97.56728 
L 119.947652 98.545149 
L 120.937778 99.523018 
L 121.927904 100.500887 
L 122.91803 101.478756 
L 123.908157 102.456624 
L 124.898283 103.434493 
L 125.888409 104.412362 
L 126.878535 105.390231 
L 127.868662 106.3681 
L 128.858788 107.345968 
L 129.848914 108.323837 
L 130.83904 109.301706 
L 131.829167 110.279575 
L 132.819293 111.257444 
L 133.809419 112.235313 
L 134.799545 113.213181 
L 135.789672 114.19105 
L 136.779798 115.168919 
L 137.769924 116.146788 
L 138.760051 117.124657 
L 139.750177 118.102525 
L 140.740303 119.080394 
L 141.730429 120.058263 
L 142.720556 121.036132 
L 143.710682 122.014001 
L 144.700808 122.991869 
L 145.690934 123.969738 
L 146.681061 124.947607 
L 147.671187 125.925476 
L 148.661313 126.903345 
L 149.651439 127.881214 
L 150.641566 128.859082 
L 151.631692 129.836951 
L 152.621818 130.81482 
L 153.611944 131.792689 
L 154.602071 132.770558 
L 155.592197 133.748426 
L 156.582323 134.726295 
L 157.572449 135.704164 
L 158.562576 136.682033 
L 159.552702 137.659902 
L 160.542828 138.63777 
L 161.532955 139.615639 
L 162.523081 140.593508 
L 163.513207 141.571377 
L 164.503333 142.549246 
L 165.49346 143.527115 
L 166.483586 144.504983 
L 167.473712 145.482852 
L 168.463838 146.460721 
L 169.453965 147.43859 
L 170.444091 148.416459 
L 171.434217 149.394327 
L 172.424343 150.372196 
L 173.41447 151.350065 
L 174.404596 152.327934 
L 175.394722 153.305803 
L 176.384848 154.283672 
L 177.374975 155.26154 
L 178.365101 156.239409 
L 179.355227 157.217278 
L 180.345354 158.195147 
L 181.33548 159.173016 
L 182.325606 160.150884 
L 183.315732 161.128753 
L 184.305859 162.106622 
L 185.295985 163.084491 
L 186.286111 164.06236 
L 187.276237 165.040228 
L 188.266364 166.018097 
L 189.25649 166.995966 
L 190.246616 167.973835 
L 191.236742 168.951704 
L 192.226869 169.929573 
L 193.216995 170.907441 
L 194.207121 171.88531 
L 195.197247 172.863179 
L 196.187374 173.841048 
L 197.1775 174.818917 
" clip-path="url(#pd5e2321e9c)" style="fill: none; stroke: #00008b; stroke-width: 2; stroke-linecap: square"/>
   </g>
   <g id="patch_3">
    <path d="M 50.14375 182.638125 
L 50.14375 22.318125 
" style="fill: none; stroke: #000000; stroke-width: 0.8; stroke-linejoin: miter; stroke-linecap: square"/>
   </g>
   <g id="patch_4">
    <path d="M 246.18875 182.638125 
L 246.18875 22.318125 
" style="fill: none; stroke: #000000; stroke-width: 0.8; stroke-linejoin: miter; stroke-linecap: square"/>
   </g>
   <g id="patch_5">
    <path d="M 50.14375 182.638125 
L 246.18875 182.638125 
" style="fill: none; stroke: #000000; stroke-width: 0.8; stroke-linejoin: miter; stroke-linecap: square"/>
   </g>
   <g id="patch_6">
    <path d="M 50.14375 22.318125 
L 246.18875 22.318125 
" style="fill: none; stroke: #000000; stroke-width: 0.8; stroke-linejoin: miter; stroke-linecap: square"/>
   </g>
   <g id="text_15">
    <!-- (a) 10-Decile Bayesian Error Funnel -->
    <g transform="translate(41.925937 16.318125) scale(0.12 -0.12)">
     <defs>
      <path id="DejaVuSans-2d" d="M 313 2009 
L 1997 2009 
L 1997 1497 
L 313 1497 
L 313 2009 
z
" transform="scale(0.015625)"/>
      <path id="DejaVuSans-44" d="M 1259 4147 
L 1259 519 
L 2022 519 
Q 2988 519 3436 956 
Q 3884 1394 3884 2338 
Q 3884 3275 3436 3711 
Q 2988 4147 2022 4147 
L 1259 4147 
z
M 628 4666 
L 1925 4666 
Q 3281 4666 3915 4102 
Q 4550 3538 4550 2338 
Q 4550 1131 3912 565 
Q 3275 0 1925 0 
L 628 0 
L 628 4666 
z
" transform="scale(0.015625)"/>
      <path id="DejaVuSans-63" d="M 3122 3366 
L 3122 2828 
Q 2878 2963 2633 3030 
Q 2388 3097 2138 3097 
Q 1578 3097 1268 2742 
Q 959 2388 959 1747 
Q 959 1106 1268 751 
Q 1578 397 2138 397 
Q 2388 397 2633 464 
Q 2878 531 3122 666 
L 3122 134 
Q 2881 22 2623 -34 
Q 2366 -91 2075 -91 
Q 1284 -91 818 406 
Q 353 903 353 1747 
Q 353 2603 823 3093 
Q 1294 3584 2113 3584 
Q 2378 3584 2631 3529 
Q 2884 3475 3122 3366 
z
" transform="scale(0.015625)"/>
      <path id="DejaVuSans-42" d="M 1259 2228 
L 1259 519 
L 2272 519 
Q 2781 519 3026 730 
Q 3272 941 3272 1375 
Q 3272 1813 3026 2020 
Q 2781 2228 2272 2228 
L 1259 2228 
z
M 1259 4147 
L 1259 2741 
L 2194 2741 
Q 2656 2741 2882 2914 
Q 3109 3088 3109 3444 
Q 3109 3797 2882 3972 
Q 2656 4147 2194 4147 
L 1259 4147 
z
M 628 4666 
L 2241 4666 
Q 2963 4666 3353 4366 
Q 3744 4066 3744 3513 
Q 3744 3084 3544 2831 
Q 3344 2578 2956 2516 
Q 3422 2416 3680 2098 
Q 3938 1781 3938 1306 
Q 3938 681 3513 340 
Q 3088 0 2303 0 
L 628 0 
L 628 4666 
z
" transform="scale(0.015625)"/>
      <path id="DejaVuSans-79" d="M 2059 -325 
Q 1816 -950 1584 -1140 
Q 1353 -1331 966 -1331 
L 506 -1331 
L 506 -850 
L 844 -850 
Q 1081 -850 1212 -737 
Q 1344 -625 1503 -206 
L 1606 56 
L 191 3500 
L 800 3500 
L 1894 763 
L 2988 3500 
L 3597 3500 
L 2059 -325 
z
" transform="scale(0.015625)"/>
      <path id="DejaVuSans-45" d="M 628 4666 
L 3578 4666 
L 3578 4134 
L 1259 4134 
L 1259 2753 
L 3481 2753 
L 3481 2222 
L 1259 2222 
L 1259 531 
L 3634 531 
L 3634 0 
L 628 0 
L 628 4666 
z
" transform="scale(0.015625)"/>
      <path id="DejaVuSans-46" d="M 628 4666 
L 3309 4666 
L 3309 4134 
L 1259 4134 
L 1259 2759 
L 3109 2759 
L 3109 2228 
L 1259 2228 
L 1259 0 
L 628 0 
L 628 4666 
z
" transform="scale(0.015625)"/>
     </defs>
     <use xlink:href="#DejaVuSans-28"/>
     <use xlink:href="#DejaVuSans-61" transform="translate(39.013672 0)"/>
     <use xlink:href="#DejaVuSans-29" transform="translate(100.292969 0)"/>
     <use xlink:href="#DejaVuSans-20" transform="translate(139.306641 0)"/>
     <use xlink:href="#DejaVuSans-31" transform="translate(171.09375 0)"/>
     <use xlink:href="#DejaVuSans-30" transform="translate(234.716797 0)"/>
     <use xlink:href="#DejaVuSans-2d" transform="translate(298.339844 0)"/>
     <use xlink:href="#DejaVuSans-44" transform="translate(334.423828 0)"/>
     <use xlink:href="#DejaVuSans-65" transform="translate(411.425781 0)"/>
     <use xlink:href="#DejaVuSans-63" transform="translate(472.949219 0)"/>
     <use xlink:href="#DejaVuSans-69" transform="translate(527.929688 0)"/>
     <use xlink:href="#DejaVuSans-6c" transform="translate(555.712891 0)"/>
     <use xlink:href="#DejaVuSans-65" transform="translate(583.496094 0)"/>
     <use xlink:href="#DejaVuSans-20" transform="translate(645.019531 0)"/>
     <use xlink:href="#DejaVuSans-42" transform="translate(676.806641 0)"/>
     <use xlink:href="#DejaVuSans-61" transform="translate(745.410156 0)"/>
     <use xlink:href="#DejaVuSans-79" transform="translate(806.689453 0)"/>
     <use xlink:href="#DejaVuSans-65" transform="translate(865.869141 0)"/>
     <use xlink:href="#DejaVuSans-73" transform="translate(927.392578 0)"/>
     <use xlink:href="#DejaVuSans-69" transform="translate(979.492188 0)"/>
     <use xlink:href="#DejaVuSans-61" transform="translate(1007.275391 0)"/>
     <use xlink:href="#DejaVuSans-6e" transform="translate(1068.554688 0)"/>
     <use xlink:href="#DejaVuSans-20" transform="translate(1131.933594 0)"/>
     <use xlink:href="#DejaVuSans-45" transform="translate(1163.720703 0)"/>
     <use xlink:href="#DejaVuSans-72" transform="translate(1226.904297 0)"/>
     <use xlink:href="#DejaVuSans-72" transform="translate(1266.267578 0)"/>
     <use xlink:href="#DejaVuSans-6f" transform="translate(1305.130859 0)"/>
     <use xlink:href="#DejaVuSans-72" transform="translate(1366.3125 0)"/>
     <use xlink:href="#DejaVuSans-20" transform="translate(1407.425781 0)"/>
     <use xlink:href="#DejaVuSans-46" transform="translate(1439.212891 0)"/>
     <use xlink:href="#DejaVuSans-75" transform="translate(1491.232422 0)"/>
     <use xlink:href="#DejaVuSans-6e" transform="translate(1554.611328 0)"/>
     <use xlink:href="#DejaVuSans-6e" transform="translate(1617.990234 0)"/>
     <use xlink:href="#DejaVuSans-65" transform="translate(1681.369141 0)"/>
     <use xlink:href="#DejaVuSans-6c" transform="translate(1742.892578 0)"/>
    </g>
   </g>
   <g id="PathCollection_1">
    <defs>
     <path id="m2b4c212704" d="M 0 3 
C 0.795609 3 1.55874 2.683901 2.12132 2.12132 
C 2.683901 1.55874 3 0.795609 3 0 
C 3 -0.795609 2.683901 -1.55874 2.12132 -2.12132 
C 1.55874 -2.683901 0.795609 -3 0 -3 
C -0.795609 -3 -1.55874 -2.683901 -2.12132 -2.12132 
C -2.683901 -1.55874 -3 -0.795609 -3 0 
C -3 0.795609 -2.683901 1.55874 -2.12132 2.12132 
C -1.55874 2.683901 -0.795609 3 0 3 
z
" style="stroke: #ff0000"/>
    </defs>
    <g clip-path="url(#pd5e2321e9c)">
     <use xlink:href="#m2b4c212704" x="99.155" y="78.009904" style="fill: #ff0000; stroke: #ff0000"/>
     <use xlink:href="#m2b4c212704" x="108.95725" y="87.690805" style="fill: #ff0000; stroke: #ff0000"/>
     <use xlink:href="#m2b4c212704" x="118.7595" y="97.371707" style="fill: #ff0000; stroke: #ff0000"/>
     <use xlink:href="#m2b4c212704" x="128.56175" y="107.052608" style="fill: #ff0000; stroke: #ff0000"/>
     <use xlink:href="#m2b4c212704" x="138.364" y="116.733509" style="fill: #ff0000; stroke: #ff0000"/>
     <use xlink:href="#m2b4c212704" x="148.16625" y="126.41441" style="fill: #ff0000; stroke: #ff0000"/>
     <use xlink:href="#m2b4c212704" x="157.9685" y="136.095312" style="fill: #ff0000; stroke: #ff0000"/>
     <use xlink:href="#m2b4c212704" x="167.77075" y="145.776213" style="fill: #ff0000; stroke: #ff0000"/>
     <use xlink:href="#m2b4c212704" x="177.573" y="155.457114" style="fill: #ff0000; stroke: #ff0000"/>
     <use xlink:href="#m2b4c212704" x="187.37525" y="165.138015" style="fill: #ff0000; stroke: #ff0000"/>
    </g>
   </g>
   <g id="legend_1">
    <g id="patch_7">
     <path d="M 70.612344 266.7365 
L 225.720156 266.7365 
Q 227.720156 266.7365 227.720156 264.7365 
L 227.720156 221.702125 
Q 227.720156 219.702125 225.720156 219.702125 
L 70.612344 219.702125 
Q 68.612344 219.702125 68.612344 221.702125 
L 68.612344 264.7365 
Q 68.612344 266.7365 70.612344 266.7365 
z
" style="fill: #ffffff; opacity: 0.8; stroke: #cccccc; stroke-linejoin: miter"/>
    </g>
    <g id="line2d_26">
     <path d="M 72.612344 227.800563 
L 82.612344 227.800563 
L 92.612344 227.800563 
" style="fill: none; stroke: #00008b; stroke-width: 2; stroke-linecap: square"/>
    </g>
    <g id="text_16">
     <!-- True RUL -->
     <g transform="translate(100.612344 231.300563) scale(0.1 -0.1)">
      <use xlink:href="#DejaVuSans-54"/>
      <use xlink:href="#DejaVuSans-72" transform="translate(46.333984 0)"/>
      <use xlink:href="#DejaVuSans-75" transform="translate(87.447266 0)"/>
      <use xlink:href="#DejaVuSans-65" transform="translate(150.826172 0)"/>
      <use xlink:href="#DejaVuSans-20" transform="translate(212.349609 0)"/>
      <use xlink:href="#DejaVuSans-52" transform="translate(244.136719 0)"/>
      <use xlink:href="#DejaVuSans-55" transform="translate(313.619141 0)"/>
      <use xlink:href="#DejaVuSans-4c" transform="translate(386.8125 0)"/>
     </g>
    </g>
    <g id="patch_8">
     <path d="M 72.612344 245.978688 
L 92.612344 245.978688 
L 92.612344 238.978688 
L 72.612344 238.978688 
z
" style="fill: #add8e6; fill-opacity: 0.5; stroke: #add8e6; stroke-opacity: 0.5; stroke-linejoin: miter"/>
    </g>
    <g id="text_17">
     <!-- 95% Confidence Interval -->
     <g transform="translate(100.612344 245.978688) scale(0.1 -0.1)">
      <defs>
       <path id="DejaVuSans-39" d="M 703 97 
L 703 672 
Q 941 559 1184 500 
Q 1428 441 1663 441 
Q 2288 441 2617 861 
Q 2947 1281 2994 2138 
Q 2813 1869 2534 1725 
Q 2256 1581 1919 1581 
Q 1219 1581 811 2004 
Q 403 2428 403 3163 
Q 403 3881 828 4315 
Q 1253 4750 1959 4750 
Q 2769 4750 3195 4129 
Q 3622 3509 3622 2328 
Q 3622 1225 3098 567 
Q 2575 -91 1691 -91 
Q 1453 -91 1209 -44 
Q 966 3 703 97 
z
M 1959 2075 
Q 2384 2075 2632 2365 
Q 2881 2656 2881 3163 
Q 2881 3666 2632 3958 
Q 2384 4250 1959 4250 
Q 1534 4250 1286 3958 
Q 1038 3666 1038 3163 
Q 1038 2656 1286 2365 
Q 1534 2075 1959 2075 
z
" transform="scale(0.015625)"/>
       <path id="DejaVuSans-25" d="M 4653 2053 
Q 4381 2053 4226 1822 
Q 4072 1591 4072 1178 
Q 4072 772 4226 539 
Q 4381 306 4653 306 
Q 4919 306 5073 539 
Q 5228 772 5228 1178 
Q 5228 1588 5073 1820 
Q 4919 2053 4653 2053 
z
M 4653 2450 
Q 5147 2450 5437 2106 
Q 5728 1763 5728 1178 
Q 5728 594 5436 251 
Q 5144 -91 4653 -91 
Q 4153 -91 3862 251 
Q 3572 594 3572 1178 
Q 3572 1766 3864 2108 
Q 4156 2450 4653 2450 
z
M 1428 4353 
Q 1159 4353 1004 4120 
Q 850 3888 850 3481 
Q 850 3069 1003 2837 
Q 1156 2606 1428 2606 
Q 1700 2606 1854 2837 
Q 2009 3069 2009 3481 
Q 2009 3884 1853 4118 
Q 1697 4353 1428 4353 
z
M 4250 4750 
L 4750 4750 
L 1831 -91 
L 1331 -91 
L 4250 4750 
z
M 1428 4750 
Q 1922 4750 2215 4408 
Q 2509 4066 2509 3481 
Q 2509 2891 2217 2550 
Q 1925 2209 1428 2209 
Q 931 2209 642 2551 
Q 353 2894 353 3481 
Q 353 4063 643 4406 
Q 934 4750 1428 4750 
z
" transform="scale(0.015625)"/>
       <path id="DejaVuSans-43" d="M 4122 4306 
L 4122 3641 
Q 3803 3938 3442 4084 
Q 3081 4231 2675 4231 
Q 1875 4231 1450 3742 
Q 1025 3253 1025 2328 
Q 1025 1406 1450 917 
Q 1875 428 2675 428 
Q 3081 428 3442 575 
Q 3803 722 4122 1019 
L 4122 359 
Q 3791 134 3420 21 
Q 3050 -91 2638 -91 
Q 1578 -91 968 557 
Q 359 1206 359 2328 
Q 359 3453 968 4101 
Q 1578 4750 2638 4750 
Q 3056 4750 3426 4639 
Q 3797 4528 4122 4306 
z
" transform="scale(0.015625)"/>
       <path id="DejaVuSans-64" d="M 2906 2969 
L 2906 4863 
L 3481 4863 
L 3481 0 
L 2906 0 
L 2906 525 
Q 2725 213 2448 61 
Q 2172 -91 1784 -91 
Q 1150 -91 751 415 
Q 353 922 353 1747 
Q 353 2572 751 3078 
Q 1150 3584 1784 3584 
Q 2172 3584 2448 3432 
Q 2725 3281 2906 2969 
z
M 947 1747 
Q 947 1113 1208 752 
Q 1469 391 1925 391 
Q 2381 391 2643 752 
Q 2906 1113 2906 1747 
Q 2906 2381 2643 2742 
Q 2381 3103 1925 3103 
Q 1469 3103 1208 2742 
Q 947 2381 947 1747 
z
" transform="scale(0.015625)"/>
       <path id="DejaVuSans-49" d="M 628 4666 
L 1259 4666 
L 1259 0 
L 628 0 
L 628 4666 
z
" transform="scale(0.015625)"/>
       <path id="DejaVuSans-76" d="M 191 3500 
L 800 3500 
L 1894 563 
L 2988 3500 
L 3597 3500 
L 2284 0 
L 1503 0 
L 191 3500 
z
" transform="scale(0.015625)"/>
      </defs>
      <use xlink:href="#DejaVuSans-39"/>
      <use xlink:href="#DejaVuSans-35" transform="translate(63.623047 0)"/>
      <use xlink:href="#DejaVuSans-25" transform="translate(127.246094 0)"/>
      <use xlink:href="#DejaVuSans-20" transform="translate(222.265625 0)"/>
      <use xlink:href="#DejaVuSans-43" transform="translate(254.052734 0)"/>
      <use xlink:href="#DejaVuSans-6f" transform="translate(323.876953 0)"/>
      <use xlink:href="#DejaVuSans-6e" transform="translate(385.058594 0)"/>
      <use xlink:href="#DejaVuSans-66" transform="translate(448.4375 0)"/>
      <use xlink:href="#DejaVuSans-69" transform="translate(483.642578 0)"/>
      <use xlink:href="#DejaVuSans-64" transform="translate(511.425781 0)"/>
      <use xlink:href="#DejaVuSans-65" transform="translate(574.902344 0)"/>
      <use xlink:href="#DejaVuSans-6e" transform="translate(636.425781 0)"/>
      <use xlink:href="#DejaVuSans-63" transform="translate(699.804688 0)"/>
      <use xlink:href="#DejaVuSans-65" transform="translate(754.785156 0)"/>
      <use xlink:href="#DejaVuSans-20" transform="translate(816.308594 0)"/>
      <use xlink:href="#DejaVuSans-49" transform="translate(848.095703 0)"/>
      <use xlink:href="#DejaVuSans-6e" transform="translate(877.587891 0)"/>
      <use xlink:href="#DejaVuSans-74" transform="translate(940.966797 0)"/>
      <use xlink:href="#DejaVuSans-65" transform="translate(980.175781 0)"/>
      <use xlink:href="#DejaVuSans-72" transform="translate(1041.699219 0)"/>
      <use xlink:href="#DejaVuSans-76" transform="translate(1082.8125 0)"/>
      <use xlink:href="#DejaVuSans-61" transform="translate(1141.992188 0)"/>
      <use xlink:href="#DejaVuSans-6c" transform="translate(1203.271484 0)"/>
     </g>
    </g>
    <g id="PathCollection_2">
     <g>
      <use xlink:href="#m2b4c212704" x="82.612344" y="258.031813" style="fill: #ff0000; stroke: #ff0000"/>
     </g>
    </g>
    <g id="text_18">
     <!-- Decile Calibration Points -->
     <g transform="translate(100.612344 260.656813) scale(0.1 -0.1)">
      <defs>
       <path id="DejaVuSans-62" d="M 3116 1747 
Q 3116 2381 2855 2742 
Q 2594 3103 2138 3103 
Q 1681 3103 1420 2742 
Q 1159 2381 1159 1747 
Q 1159 1113 1420 752 
Q 1681 391 2138 391 
Q 2594 391 2855 752 
Q 3116 1113 3116 1747 
z
M 1159 2969 
Q 1341 3281 1617 3432 
Q 1894 3584 2278 3584 
Q 2916 3584 3314 3078 
Q 3713 2572 3713 1747 
Q 3713 922 3314 415 
Q 2916 -91 2278 -91 
Q 1894 -91 1617 61 
Q 1341 213 1159 525 
L 1159 0 
L 581 0 
L 581 4863 
L 1159 4863 
L 1159 2969 
z
" transform="scale(0.015625)"/>
       <path id="DejaVuSans-50" d="M 1259 4147 
L 1259 2394 
L 2053 2394 
Q 2494 2394 2734 2622 
Q 2975 2850 2975 3272 
Q 2975 3691 2734 3919 
Q 2494 4147 2053 4147 
L 1259 4147 
z
M 628 4666 
L 2053 4666 
Q 2838 4666 3239 4311 
Q 3641 3956 3641 3272 
Q 3641 2581 3239 2228 
Q 2838 1875 2053 1875 
L 1259 1875 
L 1259 0 
L 628 0 
L 628 4666 
z
" transform="scale(0.015625)"/>
      </defs>
      <use xlink:href="#DejaVuSans-44"/>
      <use xlink:href="#DejaVuSans-65" transform="translate(77.001953 0)"/>
      <use xlink:href="#DejaVuSans-63" transform="translate(138.525391 0)"/>
      <use xlink:href="#DejaVuSans-69" transform="translate(193.505859 0)"/>
      <use xlink:href="#DejaVuSans-6c" transform="translate(221.289062 0)"/>
      <use xlink:href="#DejaVuSans-65" transform="translate(249.072266 0)"/>
      <use xlink:href="#DejaVuSans-20" transform="translate(310.595703 0)"/>
      <use xlink:href="#DejaVuSans-43" transform="translate(342.382812 0)"/>
      <use xlink:href="#DejaVuSans-61" transform="translate(412.207031 0)"/>
      <use xlink:href="#DejaVuSans-6c" transform="translate(473.486328 0)"/>
      <use xlink:href="#DejaVuSans-69" transform="translate(501.269531 0)"/>
      <use xlink:href="#DejaVuSans-62" transform="translate(529.052734 0)"/>
      <use xlink:href="#DejaVuSans-72" transform="translate(592.529297 0)"/>
      <use xlink:href="#DejaVuSans-61" transform="translate(633.642578 0)"/>
      <use xlink:href="#DejaVuSans-74" transform="translate(694.921875 0)"/>
      <use xlink:href="#DejaVuSans-69" transform="translate(734.130859 0)"/>
      <use xlink:href="#DejaVuSans-6f" transform="translate(761.914062 0)"/>
      <use xlink:href="#DejaVuSans-6e" transform="translate(823.095703 0)"/>
      <use xlink:href="#DejaVuSans-20" transform="translate(886.474609 0)"/>
      <use xlink:href="#DejaVuSans-50" transform="translate(918.261719 0)"/>
      <use xlink:href="#DejaVuSans-6f" transform="translate(974.939453 0)"/>
      <use xlink:href="#DejaVuSans-69" transform="translate(1036.121094 0)"/>
      <use xlink:href="#DejaVuSans-6e" transform="translate(1063.904297 0)"/>
      <use xlink:href="#DejaVuSans-74" transform="translate(1127.283203 0)"/>
      <use xlink:href="#DejaVuSans-73" transform="translate(1166.492188 0)"/>
     </g>
    </g>
   </g>
  </g>
  <g id="axes_2">
   <g id="patch_9">
    <path d="M 306.50875 182.638125 
L 502.55375 182.638125 
L 502.55375 22.318125 
L 306.50875 22.318125 
z
" style="fill: #ffffff"/>
   </g>
   <g id="matplotlib.axis_3">
    <g id="xtick_6">
     <g id="line2d_27">
      <path d="M 306.50875 182.638125 
L 306.50875 22.318125 
" clip-path="url(#p53f7270f57)" style="fill: none; stroke-dasharray: 2.96,1.28; stroke-dashoffset: 0; stroke: #b0b0b0; stroke-opacity: 0.5; stroke-width: 0.8"/>
     </g>
     <g id="line2d_28">
      <g>
       <use xlink:href="#m17ac87f4e3" x="306.50875" y="182.638125" style="stroke: #000000; stroke-width: 0.8"/>
      </g>
     </g>
     <g id="text_19">
      <!-- 10 -->
      <g transform="translate(300.14625 197.236562) scale(0.1 -0.1)">
       <use xlink:href="#DejaVuSans-31"/>
       <use xlink:href="#DejaVuSans-30" transform="translate(63.623047 0)"/>
      </g>
     </g>
    </g>
    <g id="xtick_7">
     <g id="line2d_29">
      <path d="M 355.52 182.638125 
L 355.52 22.318125 
" clip-path="url(#p53f7270f57)" style="fill: none; stroke-dasharray: 2.96,1.28; stroke-dashoffset: 0; stroke: #b0b0b0; stroke-opacity: 0.5; stroke-width: 0.8"/>
     </g>
     <g id="line2d_30">
      <g>
       <use xlink:href="#m17ac87f4e3" x="355.52" y="182.638125" style="stroke: #000000; stroke-width: 0.8"/>
      </g>
     </g>
     <g id="text_20">
      <!-- 15 -->
      <g transform="translate(349.1575 197.236562) scale(0.1 -0.1)">
       <use xlink:href="#DejaVuSans-31"/>
       <use xlink:href="#DejaVuSans-35" transform="translate(63.623047 0)"/>
      </g>
     </g>
    </g>
    <g id="xtick_8">
     <g id="line2d_31">
      <path d="M 404.53125 182.638125 
L 404.53125 22.318125 
" clip-path="url(#p53f7270f57)" style="fill: none; stroke-dasharray: 2.96,1.28; stroke-dashoffset: 0; stroke: #b0b0b0; stroke-opacity: 0.5; stroke-width: 0.8"/>
     </g>
     <g id="line2d_32">
      <g>
       <use xlink:href="#m17ac87f4e3" x="404.53125" y="182.638125" style="stroke: #000000; stroke-width: 0.8"/>
      </g>
     </g>
     <g id="text_21">
      <!-- 20 -->
      <g transform="translate(398.16875 197.236562) scale(0.1 -0.1)">
       <use xlink:href="#DejaVuSans-32"/>
       <use xlink:href="#DejaVuSans-30" transform="translate(63.623047 0)"/>
      </g>
     </g>
    </g>
    <g id="xtick_9">
     <g id="line2d_33">
      <path d="M 453.5425 182.638125 
L 453.5425 22.318125 
" clip-path="url(#p53f7270f57)" style="fill: none; stroke-dasharray: 2.96,1.28; stroke-dashoffset: 0; stroke: #b0b0b0; stroke-opacity: 0.5; stroke-width: 0.8"/>
     </g>
     <g id="line2d_34">
      <g>
       <use xlink:href="#m17ac87f4e3" x="453.5425" y="182.638125" style="stroke: #000000; stroke-width: 0.8"/>
      </g>
     </g>
     <g id="text_22">
      <!-- 25 -->
      <g transform="translate(447.18 197.236562) scale(0.1 -0.1)">
       <use xlink:href="#DejaVuSans-32"/>
       <use xlink:href="#DejaVuSans-35" transform="translate(63.623047 0)"/>
      </g>
     </g>
    </g>
    <g id="xtick_10">
     <g id="line2d_35">
      <path d="M 502.55375 182.638125 
L 502.55375 22.318125 
" clip-path="url(#p53f7270f57)" style="fill: none; stroke-dasharray: 2.96,1.28; stroke-dashoffset: 0; stroke: #b0b0b0; stroke-opacity: 0.5; stroke-width: 0.8"/>
     </g>
     <g id="line2d_36">
      <g>
       <use xlink:href="#m17ac87f4e3" x="502.55375" y="182.638125" style="stroke: #000000; stroke-width: 0.8"/>
      </g>
     </g>
     <g id="text_23">
      <!-- 30 -->
      <g transform="translate(496.19125 197.236562) scale(0.1 -0.1)">
       <use xlink:href="#DejaVuSans-33"/>
       <use xlink:href="#DejaVuSans-30" transform="translate(63.623047 0)"/>
      </g>
     </g>
    </g>
    <g id="text_24">
     <!-- Replacement Time $\tau$ (Years) -->
     <g transform="translate(333.48125 210.91625) scale(0.1 -0.1)">
      <defs>
       <path id="DejaVuSans-Oblique-3c4" d="M 2103 638 
Q 2188 488 2525 488 
L 2800 488 
L 2706 0 
L 2363 0 
Q 1800 0 1600 300 
Q 1403 606 1534 1269 
L 1856 2925 
L 541 2925 
L 653 3500 
L 3881 3500 
L 3769 2925 
L 2444 2925 
L 2113 1234 
Q 2025 781 2103 638 
z
" transform="scale(0.015625)"/>
      </defs>
      <use xlink:href="#DejaVuSans-52" transform="translate(0 0.015625)"/>
      <use xlink:href="#DejaVuSans-65" transform="translate(69.482422 0.015625)"/>
      <use xlink:href="#DejaVuSans-70" transform="translate(131.005859 0.015625)"/>
      <use xlink:href="#DejaVuSans-6c" transform="translate(194.482422 0.015625)"/>
      <use xlink:href="#DejaVuSans-61" transform="translate(222.265625 0.015625)"/>
      <use xlink:href="#DejaVuSans-63" transform="translate(283.544922 0.015625)"/>
      <use xlink:href="#DejaVuSans-65" transform="translate(338.525391 0.015625)"/>
      <use xlink:href="#DejaVuSans-6d" transform="translate(400.048828 0.015625)"/>
      <use xlink:href="#DejaVuSans-65" transform="translate(497.460938 0.015625)"/>
      <use xlink:href="#DejaVuSans-6e" transform="translate(558.984375 0.015625)"/>
      <use xlink:href="#DejaVuSans-74" transform="translate(622.363281 0.015625)"/>
      <use xlink:href="#DejaVuSans-20" transform="translate(661.572266 0.015625)"/>
      <use xlink:href="#DejaVuSans-54" transform="translate(693.359375 0.015625)"/>
      <use xlink:href="#DejaVuSans-69" transform="translate(754.443359 0.015625)"/>
      <use xlink:href="#DejaVuSans-6d" transform="translate(782.226562 0.015625)"/>
      <use xlink:href="#DejaVuSans-65" transform="translate(879.638672 0.015625)"/>
      <use xlink:href="#DejaVuSans-20" transform="translate(941.162109 0.015625)"/>
      <use xlink:href="#DejaVuSans-Oblique-3c4" transform="translate(972.949219 0.015625)"/>
      <use xlink:href="#DejaVuSans-20" transform="translate(1033.154297 0.015625)"/>
      <use xlink:href="#DejaVuSans-28" transform="translate(1064.941406 0.015625)"/>
      <use xlink:href="#DejaVuSans-59" transform="translate(1103.955078 0.015625)"/>
      <use xlink:href="#DejaVuSans-65" transform="translate(1165.039062 0.015625)"/>
      <use xlink:href="#DejaVuSans-61" transform="translate(1226.5625 0.015625)"/>
      <use xlink:href="#DejaVuSans-72" transform="translate(1287.841797 0.015625)"/>
      <use xlink:href="#DejaVuSans-73" transform="translate(1328.955078 0.015625)"/>
      <use xlink:href="#DejaVuSans-29" transform="translate(1381.054688 0.015625)"/>
     </g>
    </g>
   </g>
   <g id="matplotlib.axis_4">
    <g id="ytick_8">
     <g id="line2d_37">
      <path d="M 306.50875 175.352679 
L 502.55375 175.352679 
" clip-path="url(#p53f7270f57)" style="fill: none; stroke-dasharray: 2.96,1.28; stroke-dashoffset: 0; stroke: #b0b0b0; stroke-opacity: 0.5; stroke-width: 0.8"/>
     </g>
     <g id="line2d_38">
      <g>
       <use xlink:href="#m6dbfc66230" x="306.50875" y="175.352679" style="stroke: #000000; stroke-width: 0.8"/>
      </g>
     </g>
     <g id="text_25">
      <!-- 0.0 -->
      <g transform="translate(283.605625 179.151898) scale(0.1 -0.1)">
       <use xlink:href="#DejaVuSans-30"/>
       <use xlink:href="#DejaVuSans-2e" transform="translate(63.623047 0)"/>
       <use xlink:href="#DejaVuSans-30" transform="translate(95.410156 0)"/>
      </g>
     </g>
    </g>
    <g id="ytick_9">
     <g id="line2d_39">
      <path d="M 306.50875 154.140239 
L 502.55375 154.140239 
" clip-path="url(#p53f7270f57)" style="fill: none; stroke-dasharray: 2.96,1.28; stroke-dashoffset: 0; stroke: #b0b0b0; stroke-opacity: 0.5; stroke-width: 0.8"/>
     </g>
     <g id="line2d_40">
      <g>
       <use xlink:href="#m6dbfc66230" x="306.50875" y="154.140239" style="stroke: #000000; stroke-width: 0.8"/>
      </g>
     </g>
     <g id="text_26">
      <!-- 2.5 -->
      <g transform="translate(283.605625 157.939458) scale(0.1 -0.1)">
       <use xlink:href="#DejaVuSans-32"/>
       <use xlink:href="#DejaVuSans-2e" transform="translate(63.623047 0)"/>
       <use xlink:href="#DejaVuSans-35" transform="translate(95.410156 0)"/>
      </g>
     </g>
    </g>
    <g id="ytick_10">
     <g id="line2d_41">
      <path d="M 306.50875 132.927799 
L 502.55375 132.927799 
" clip-path="url(#p53f7270f57)" style="fill: none; stroke-dasharray: 2.96,1.28; stroke-dashoffset: 0; stroke: #b0b0b0; stroke-opacity: 0.5; stroke-width: 0.8"/>
     </g>
     <g id="line2d_42">
      <g>
       <use xlink:href="#m6dbfc66230" x="306.50875" y="132.927799" style="stroke: #000000; stroke-width: 0.8"/>
      </g>
     </g>
     <g id="text_27">
      <!-- 5.0 -->
      <g transform="translate(283.605625 136.727018) scale(0.1 -0.1)">
       <use xlink:href="#DejaVuSans-35"/>
       <use xlink:href="#DejaVuSans-2e" transform="translate(63.623047 0)"/>
       <use xlink:href="#DejaVuSans-30" transform="translate(95.410156 0)"/>
      </g>
     </g>
    </g>
    <g id="ytick_11">
     <g id="line2d_43">
      <path d="M 306.50875 111.715359 
L 502.55375 111.715359 
" clip-path="url(#p53f7270f57)" style="fill: none; stroke-dasharray: 2.96,1.28; stroke-dashoffset: 0; stroke: #b0b0b0; stroke-opacity: 0.5; stroke-width: 0.8"/>
     </g>
     <g id="line2d_44">
      <g>
       <use xlink:href="#m6dbfc66230" x="306.50875" y="111.715359" style="stroke: #000000; stroke-width: 0.8"/>
      </g>
     </g>
     <g id="text_28">
      <!-- 7.5 -->
      <g transform="translate(283.605625 115.514578) scale(0.1 -0.1)">
       <use xlink:href="#DejaVuSans-37"/>
       <use xlink:href="#DejaVuSans-2e" transform="translate(63.623047 0)"/>
       <use xlink:href="#DejaVuSans-35" transform="translate(95.410156 0)"/>
      </g>
     </g>
    </g>
    <g id="ytick_12">
     <g id="line2d_45">
      <path d="M 306.50875 90.502919 
L 502.55375 90.502919 
" clip-path="url(#p53f7270f57)" style="fill: none; stroke-dasharray: 2.96,1.28; stroke-dashoffset: 0; stroke: #b0b0b0; stroke-opacity: 0.5; stroke-width: 0.8"/>
     </g>
     <g id="line2d_46">
      <g>
       <use xlink:href="#m6dbfc66230" x="306.50875" y="90.502919" style="stroke: #000000; stroke-width: 0.8"/>
      </g>
     </g>
     <g id="text_29">
      <!-- 10.0 -->
      <g transform="translate(277.243125 94.302137) scale(0.1 -0.1)">
       <use xlink:href="#DejaVuSans-31"/>
       <use xlink:href="#DejaVuSans-30" transform="translate(63.623047 0)"/>
       <use xlink:href="#DejaVuSans-2e" transform="translate(127.246094 0)"/>
       <use xlink:href="#DejaVuSans-30" transform="translate(159.033203 0)"/>
      </g>
     </g>
    </g>
    <g id="ytick_13">
     <g id="line2d_47">
      <path d="M 306.50875 69.290478 
L 502.55375 69.290478 
" clip-path="url(#p53f7270f57)" style="fill: none; stroke-dasharray: 2.96,1.28; stroke-dashoffset: 0; stroke: #b0b0b0; stroke-opacity: 0.5; stroke-width: 0.8"/>
     </g>
     <g id="line2d_48">
      <g>
       <use xlink:href="#m6dbfc66230" x="306.50875" y="69.290478" style="stroke: #000000; stroke-width: 0.8"/>
      </g>
     </g>
     <g id="text_30">
      <!-- 12.5 -->
      <g transform="translate(277.243125 73.089697) scale(0.1 -0.1)">
       <use xlink:href="#DejaVuSans-31"/>
       <use xlink:href="#DejaVuSans-32" transform="translate(63.623047 0)"/>
       <use xlink:href="#DejaVuSans-2e" transform="translate(127.246094 0)"/>
       <use xlink:href="#DejaVuSans-35" transform="translate(159.033203 0)"/>
      </g>
     </g>
    </g>
    <g id="ytick_14">
     <g id="line2d_49">
      <path d="M 306.50875 48.078038 
L 502.55375 48.078038 
" clip-path="url(#p53f7270f57)" style="fill: none; stroke-dasharray: 2.96,1.28; stroke-dashoffset: 0; stroke: #b0b0b0; stroke-opacity: 0.5; stroke-width: 0.8"/>
     </g>
     <g id="line2d_50">
      <g>
       <use xlink:href="#m6dbfc66230" x="306.50875" y="48.078038" style="stroke: #000000; stroke-width: 0.8"/>
      </g>
     </g>
     <g id="text_31">
      <!-- 15.0 -->
      <g transform="translate(277.243125 51.877257) scale(0.1 -0.1)">
       <use xlink:href="#DejaVuSans-31"/>
       <use xlink:href="#DejaVuSans-35" transform="translate(63.623047 0)"/>
       <use xlink:href="#DejaVuSans-2e" transform="translate(127.246094 0)"/>
       <use xlink:href="#DejaVuSans-30" transform="translate(159.033203 0)"/>
      </g>
     </g>
    </g>
    <g id="ytick_15">
     <g id="line2d_51">
      <path d="M 306.50875 26.865598 
L 502.55375 26.865598 
" clip-path="url(#p53f7270f57)" style="fill: none; stroke-dasharray: 2.96,1.28; stroke-dashoffset: 0; stroke: #b0b0b0; stroke-opacity: 0.5; stroke-width: 0.8"/>
     </g>
     <g id="line2d_52">
      <g>
       <use xlink:href="#m6dbfc66230" x="306.50875" y="26.865598" style="stroke: #000000; stroke-width: 0.8"/>
      </g>
     </g>
     <g id="text_32">
      <!-- 17.5 -->
      <g transform="translate(277.243125 30.664817) scale(0.1 -0.1)">
       <use xlink:href="#DejaVuSans-31"/>
       <use xlink:href="#DejaVuSans-37" transform="translate(63.623047 0)"/>
       <use xlink:href="#DejaVuSans-2e" transform="translate(127.246094 0)"/>
       <use xlink:href="#DejaVuSans-35" transform="translate(159.033203 0)"/>
      </g>
     </g>
    </g>
    <g id="text_33">
     <!-- Cost per Unit Time -->
     <g transform="translate(271.163437 149.078125) rotate(-90) scale(0.1 -0.1)">
      <use xlink:href="#DejaVuSans-43"/>
      <use xlink:href="#DejaVuSans-6f" transform="translate(69.824219 0)"/>
      <use xlink:href="#DejaVuSans-73" transform="translate(131.005859 0)"/>
      <use xlink:href="#DejaVuSans-74" transform="translate(183.105469 0)"/>
      <use xlink:href="#DejaVuSans-20" transform="translate(222.314453 0)"/>
      <use xlink:href="#DejaVuSans-70" transform="translate(254.101562 0)"/>
      <use xlink:href="#DejaVuSans-65" transform="translate(317.578125 0)"/>
      <use xlink:href="#DejaVuSans-72" transform="translate(379.101562 0)"/>
      <use xlink:href="#DejaVuSans-20" transform="translate(420.214844 0)"/>
      <use xlink:href="#DejaVuSans-55" transform="translate(452.001953 0)"/>
      <use xlink:href="#DejaVuSans-6e" transform="translate(525.195312 0)"/>
      <use xlink:href="#DejaVuSans-69" transform="translate(588.574219 0)"/>
      <use xlink:href="#DejaVuSans-74" transform="translate(616.357422 0)"/>
      <use xlink:href="#DejaVuSans-20" transform="translate(655.566406 0)"/>
      <use xlink:href="#DejaVuSans-54" transform="translate(687.353516 0)"/>
      <use xlink:href="#DejaVuSans-69" transform="translate(745.3125 0)"/>
      <use xlink:href="#DejaVuSans-6d" transform="translate(773.095703 0)"/>
      <use xlink:href="#DejaVuSans-65" transform="translate(870.507812 0)"/>
     </g>
    </g>
   </g>
   <g id="line2d_53">
    <path d="M 306.50875 90.503256 
L 310.449353 93.782657 
L 314.389956 96.818109 
L 319.31571 100.309082 
L 324.241464 103.50328 
L 329.167217 106.437216 
L 334.092971 109.14175 
L 340.003876 112.121149 
L 345.91478 114.846472 
L 351.825685 117.350317 
L 358.72174 120.028647 
L 365.617795 122.481861 
L 373.499001 125.053052 
L 382.365358 127.703723 
L 393.202016 130.683213 
L 408.964428 134.740254 
L 423.74169 138.599684 
L 432.608046 141.138948 
L 439.504102 143.325003 
L 446.400157 145.76041 
L 452.311062 148.086018 
L 458.221966 150.654517 
L 464.132871 153.467945 
L 471.028926 157.021144 
L 490.731941 167.459367 
L 495.657695 169.659511 
L 499.598298 171.169507 
L 502.55375 172.135492 
L 502.55375 172.135492 
" clip-path="url(#p53f7270f57)" style="fill: none; stroke-dasharray: 5.55,2.4; stroke-dashoffset: 0; stroke: #008000; stroke-width: 1.5"/>
   </g>
   <g id="line2d_54">
    <path d="M 306.50875 175.350852 
L 351.825685 175.233256 
L 367.588097 174.976579 
L 378.424755 174.576848 
L 386.305961 174.07649 
L 393.202016 173.415816 
L 399.112921 172.618368 
L 404.038675 171.739451 
L 408.964428 170.61411 
L 412.905031 169.497688 
L 416.845634 168.152086 
L 420.786237 166.538425 
L 423.74169 165.126356 
L 426.697142 163.519314 
L 429.652594 161.69613 
L 432.608046 159.634523 
L 435.563499 157.311352 
L 438.518951 154.702972 
L 441.474403 151.785706 
L 444.429856 148.536472 
L 447.385308 144.933566 
L 450.34076 140.957629 
L 453.296212 136.592814 
L 456.251665 131.828137 
L 459.207117 126.659013 
L 462.162569 121.088943 
L 465.118021 115.131283 
L 469.058624 106.629845 
L 472.999227 97.581606 
L 478.910132 83.309771 
L 487.776489 61.761789 
L 491.717092 52.806893 
L 494.672544 46.582747 
L 497.627996 40.895356 
L 500.583448 35.827636 
L 502.55375 32.822585 
L 502.55375 32.822585 
" clip-path="url(#p53f7270f57)" style="fill: none; stroke-dasharray: 5.55,2.4; stroke-dashoffset: 0; stroke: #ff0000; stroke-width: 1.5"/>
   </g>
   <g id="line2d_55">
    <path d="M 306.50875 90.501429 
L 310.449353 93.779838 
L 314.389956 96.813832 
L 319.31571 100.302029 
L 324.241464 103.491902 
L 329.167217 106.419221 
L 334.092971 109.113807 
L 340.003876 112.074811 
L 345.91478 114.77132 
L 351.825685 117.230894 
L 357.736589 119.474403 
L 364.632644 121.837823 
L 371.5287 123.938984 
L 378.424755 125.777728 
L 384.33566 127.134611 
L 390.246564 128.270133 
L 396.157469 129.155546 
L 401.083222 129.67328 
L 406.008976 129.958204 
L 409.949579 129.992845 
L 413.890182 129.830329 
L 417.830785 129.443406 
L 421.771388 128.801055 
L 424.72684 128.130868 
L 427.682293 127.281474 
L 430.637745 126.235798 
L 433.593197 124.975869 
L 436.548649 123.483051 
L 439.504102 121.738354 
L 442.459554 119.722858 
L 445.415006 117.418257 
L 448.370459 114.807538 
L 451.325911 111.875815 
L 454.281363 108.611317 
L 457.236815 105.006537 
L 460.192268 101.059512 
L 463.14772 96.775222 
L 466.103172 92.167028 
L 470.043775 85.560488 
L 473.984378 78.506327 
L 479.895283 67.367591 
L 487.776489 52.414813 
L 491.717092 45.377931 
L 494.672544 40.475295 
L 497.627996 35.987644 
L 500.583448 31.982853 
L 502.55375 29.605398 
L 502.55375 29.605398 
" clip-path="url(#p53f7270f57)" style="fill: none; stroke: #000000; stroke-width: 2; stroke-linecap: square"/>
   </g>
   <g id="patch_10">
    <path d="M 306.50875 182.638125 
L 306.50875 22.318125 
" style="fill: none; stroke: #000000; stroke-width: 0.8; stroke-linejoin: miter; stroke-linecap: square"/>
   </g>
   <g id="patch_11">
    <path d="M 502.55375 182.638125 
L 502.55375 22.318125 
" style="fill: none; stroke: #000000; stroke-width: 0.8; stroke-linejoin: miter; stroke-linecap: square"/>
   </g>
   <g id="patch_12">
    <path d="M 306.50875 182.638125 
L 502.55375 182.638125 
" style="fill: none; stroke: #000000; stroke-width: 0.8; stroke-linejoin: miter; stroke-linecap: square"/>
   </g>
   <g id="patch_13">
    <path d="M 306.50875 22.318125 
L 502.55375 22.318125 
" style="fill: none; stroke: #000000; stroke-width: 0.8; stroke-linejoin: miter; stroke-linecap: square"/>
   </g>
   <g id="text_34">
    <!-- (b) Age Replacement Optimal Cost Curve -->
    <g transform="translate(280.695 16.318125) scale(0.12 -0.12)">
     <defs>
      <path id="DejaVuSans-41" d="M 2188 4044 
L 1331 1722 
L 3047 1722 
L 2188 4044 
z
M 1831 4666 
L 2547 4666 
L 4325 0 
L 3669 0 
L 3244 1197 
L 1141 1197 
L 716 0 
L 50 0 
L 1831 4666 
z
" transform="scale(0.015625)"/>
     </defs>
     <use xlink:href="#DejaVuSans-28"/>
     <use xlink:href="#DejaVuSans-62" transform="translate(39.013672 0)"/>
     <use xlink:href="#DejaVuSans-29" transform="translate(102.490234 0)"/>
     <use xlink:href="#DejaVuSans-20" transform="translate(141.503906 0)"/>
     <use xlink:href="#DejaVuSans-41" transform="translate(173.291016 0)"/>
     <use xlink:href="#DejaVuSans-67" transform="translate(241.699219 0)"/>
     <use xlink:href="#DejaVuSans-65" transform="translate(305.175781 0)"/>
     <use xlink:href="#DejaVuSans-20" transform="translate(366.699219 0)"/>
     <use xlink:href="#DejaVuSans-52" transform="translate(398.486328 0)"/>
     <use xlink:href="#DejaVuSans-65" transform="translate(463.46875 0)"/>
     <use xlink:href="#DejaVuSans-70" transform="translate(524.992188 0)"/>
     <use xlink:href="#DejaVuSans-6c" transform="translate(588.46875 0)"/>
     <use xlink:href="#DejaVuSans-61" transform="translate(616.251953 0)"/>
     <use xlink:href="#DejaVuSans-63" transform="translate(677.53125 0)"/>
     <use xlink:href="#DejaVuSans-65" transform="translate(732.511719 0)"/>
     <use xlink:href="#DejaVuSans-6d" transform="translate(794.035156 0)"/>
     <use xlink:href="#DejaVuSans-65" transform="translate(891.447266 0)"/>
     <use xlink:href="#DejaVuSans-6e" transform="translate(952.970703 0)"/>
     <use xlink:href="#DejaVuSans-74" transform="translate(1016.349609 0)"/>
     <use xlink:href="#DejaVuSans-20" transform="translate(1055.558594 0)"/>
     <use xlink:href="#DejaVuSans-4f" transform="translate(1087.345703 0)"/>
     <use xlink:href="#DejaVuSans-70" transform="translate(1166.056641 0)"/>
     <use xlink:href="#DejaVuSans-74" transform="translate(1229.533203 0)"/>
     <use xlink:href="#DejaVuSans-69" transform="translate(1268.742188 0)"/>
     <use xlink:href="#DejaVuSans-6d" transform="translate(1296.525391 0)"/>
     <use xlink:href="#DejaVuSans-61" transform="translate(1393.9375 0)"/>
     <use xlink:href="#DejaVuSans-6c" transform="translate(1455.216797 0)"/>
     <use xlink:href="#DejaVuSans-20" transform="translate(1483 0)"/>
     <use xlink:href="#DejaVuSans-43" transform="translate(1514.787109 0)"/>
     <use xlink:href="#DejaVuSans-6f" transform="translate(1584.611328 0)"/>
     <use xlink:href="#DejaVuSans-73" transform="translate(1645.792969 0)"/>
     <use xlink:href="#DejaVuSans-74" transform="translate(1697.892578 0)"/>
     <use xlink:href="#DejaVuSans-20" transform="translate(1737.101562 0)"/>
     <use xlink:href="#DejaVuSans-43" transform="translate(1768.888672 0)"/>
     <use xlink:href="#DejaVuSans-75" transform="translate(1838.712891 0)"/>
     <use xlink:href="#DejaVuSans-72" transform="translate(1902.091797 0)"/>
     <use xlink:href="#DejaVuSans-76" transform="translate(1943.205078 0)"/>
     <use xlink:href="#DejaVuSans-65" transform="translate(2002.384766 0)"/>
    </g>
   </g>
   <g id="PathCollection_3">
    <defs>
     <path id="md1cfebbb8f" d="M 0 -7.071068 
L -1.587554 -2.18508 
L -6.724985 -2.18508 
L -2.568716 0.834626 
L -4.156269 5.720614 
L -0 2.700907 
L 4.156269 5.720614 
L 2.568716 0.834626 
L 6.724985 -2.18508 
L 1.587554 -2.18508 
z
" style="stroke: #000000"/>
    </defs>
    <g clip-path="url(#p53f7270f57)">
     <use xlink:href="#md1cfebbb8f" x="408.964428" y="130.001685" style="fill: #ffd700; stroke: #000000"/>
    </g>
   </g>
   <g id="legend_2">
    <g id="patch_14">
     <path d="M 312.83125 284.002125 
L 496.23125 284.002125 
Q 498.23125 284.002125 498.23125 282.002125 
L 498.23125 221.702125 
Q 498.23125 219.702125 496.23125 219.702125 
L 312.83125 219.702125 
Q 310.83125 219.702125 310.83125 221.702125 
L 310.83125 282.002125 
Q 310.83125 284.002125 312.83125 284.002125 
z
" style="fill: #ffffff; opacity: 0.8; stroke: #cccccc; stroke-linejoin: miter"/>
    </g>
    <g id="line2d_56">
     <path d="M 314.83125 227.802125 
L 324.83125 227.802125 
L 334.83125 227.802125 
" style="fill: none; stroke-dasharray: 5.55,2.4; stroke-dashoffset: 0; stroke: #008000; stroke-width: 1.5"/>
    </g>
    <g id="text_35">
     <!-- Expected Preventive Cost ($C_p$) -->
     <g transform="translate(342.83125 231.302125) scale(0.1 -0.1)">
      <defs>
       <path id="DejaVuSans-78" d="M 3513 3500 
L 2247 1797 
L 3578 0 
L 2900 0 
L 1881 1375 
L 863 0 
L 184 0 
L 1544 1831 
L 300 3500 
L 978 3500 
L 1906 2253 
L 2834 3500 
L 3513 3500 
z
" transform="scale(0.015625)"/>
       <path id="DejaVuSans-Oblique-43" d="M 4447 4306 
L 4319 3641 
Q 4019 3944 3683 4091 
Q 3347 4238 2956 4238 
Q 2422 4238 2017 3981 
Q 1613 3725 1319 3200 
Q 1131 2863 1032 2486 
Q 934 2109 934 1728 
Q 934 1091 1264 756 
Q 1594 422 2222 422 
Q 2656 422 3056 561 
Q 3456 700 3834 978 
L 3688 231 
Q 3316 72 2936 -9 
Q 2556 -91 2175 -91 
Q 1278 -91 773 396 
Q 269 884 269 1753 
Q 269 2309 461 2846 
Q 653 3384 1013 3828 
Q 1394 4300 1883 4525 
Q 2372 4750 3022 4750 
Q 3422 4750 3780 4639 
Q 4138 4528 4447 4306 
z
" transform="scale(0.015625)"/>
       <path id="DejaVuSans-Oblique-70" d="M 3175 2156 
Q 3175 2616 2975 2859 
Q 2775 3103 2400 3103 
Q 2144 3103 1911 2972 
Q 1678 2841 1497 2591 
Q 1319 2344 1212 1994 
Q 1106 1644 1106 1300 
Q 1106 863 1306 627 
Q 1506 391 1875 391 
Q 2147 391 2380 519 
Q 2613 647 2778 891 
Q 2956 1147 3065 1494 
Q 3175 1841 3175 2156 
z
M 1394 2969 
Q 1625 3272 1939 3428 
Q 2253 3584 2638 3584 
Q 3175 3584 3472 3232 
Q 3769 2881 3769 2247 
Q 3769 1728 3584 1258 
Q 3400 788 3053 416 
Q 2822 169 2531 39 
Q 2241 -91 1919 -91 
Q 1547 -91 1294 64 
Q 1041 219 916 525 
L 556 -1331 
L -19 -1331 
L 922 3500 
L 1497 3500 
L 1394 2969 
z
" transform="scale(0.015625)"/>
      </defs>
      <use xlink:href="#DejaVuSans-45" transform="translate(0 0.015625)"/>
      <use xlink:href="#DejaVuSans-78" transform="translate(63.183594 0.015625)"/>
      <use xlink:href="#DejaVuSans-70" transform="translate(122.363281 0.015625)"/>
      <use xlink:href="#DejaVuSans-65" transform="translate(185.839844 0.015625)"/>
      <use xlink:href="#DejaVuSans-63" transform="translate(247.363281 0.015625)"/>
      <use xlink:href="#DejaVuSans-74" transform="translate(302.34375 0.015625)"/>
      <use xlink:href="#DejaVuSans-65" transform="translate(341.552734 0.015625)"/>
      <use xlink:href="#DejaVuSans-64" transform="translate(403.076172 0.015625)"/>
      <use xlink:href="#DejaVuSans-20" transform="translate(466.552734 0.015625)"/>
      <use xlink:href="#DejaVuSans-50" transform="translate(498.339844 0.015625)"/>
      <use xlink:href="#DejaVuSans-72" transform="translate(558.642578 0.015625)"/>
      <use xlink:href="#DejaVuSans-65" transform="translate(599.755859 0.015625)"/>
      <use xlink:href="#DejaVuSans-76" transform="translate(661.279297 0.015625)"/>
      <use xlink:href="#DejaVuSans-65" transform="translate(720.458984 0.015625)"/>
      <use xlink:href="#DejaVuSans-6e" transform="translate(781.982422 0.015625)"/>
      <use xlink:href="#DejaVuSans-74" transform="translate(845.361328 0.015625)"/>
      <use xlink:href="#DejaVuSans-69" transform="translate(884.570312 0.015625)"/>
      <use xlink:href="#DejaVuSans-76" transform="translate(912.353516 0.015625)"/>
      <use xlink:href="#DejaVuSans-65" transform="translate(971.533203 0.015625)"/>
      <use xlink:href="#DejaVuSans-20" transform="translate(1033.056641 0.015625)"/>
      <use xlink:href="#DejaVuSans-43" transform="translate(1064.84375 0.015625)"/>
      <use xlink:href="#DejaVuSans-6f" transform="translate(1134.667969 0.015625)"/>
      <use xlink:href="#DejaVuSans-73" transform="translate(1195.849609 0.015625)"/>
      <use xlink:href="#DejaVuSans-74" transform="translate(1247.949219 0.015625)"/>
      <use xlink:href="#DejaVuSans-20" transform="translate(1287.158203 0.015625)"/>
      <use xlink:href="#DejaVuSans-28" transform="translate(1318.945312 0.015625)"/>
      <use xlink:href="#DejaVuSans-Oblique-43" transform="translate(1357.958984 0.015625)"/>
      <use xlink:href="#DejaVuSans-Oblique-70" transform="translate(1427.783203 -16.390625) scale(0.7)"/>
      <use xlink:href="#DejaVuSans-29" transform="translate(1474.951172 0.015625)"/>
     </g>
    </g>
    <g id="line2d_57">
     <path d="M 314.83125 243.502125 
L 324.83125 243.502125 
L 334.83125 243.502125 
" style="fill: none; stroke-dasharray: 5.55,2.4; stroke-dashoffset: 0; stroke: #ff0000; stroke-width: 1.5"/>
    </g>
    <g id="text_36">
     <!-- Expected Penalty Cost ($C_u$) -->
     <g transform="translate(342.83125 247.002125) scale(0.1 -0.1)">
      <defs>
       <path id="DejaVuSans-Oblique-75" d="M 428 1388 
L 838 3500 
L 1416 3500 
L 1006 1409 
Q 975 1256 961 1147 
Q 947 1038 947 966 
Q 947 700 1109 554 
Q 1272 409 1569 409 
Q 2031 409 2368 721 
Q 2706 1034 2809 1563 
L 3194 3500 
L 3769 3500 
L 3091 0 
L 2516 0 
L 2631 550 
Q 2388 244 2052 76 
Q 1716 -91 1338 -91 
Q 878 -91 622 161 
Q 366 413 366 863 
Q 366 956 381 1097 
Q 397 1238 428 1388 
z
" transform="scale(0.015625)"/>
      </defs>
      <use xlink:href="#DejaVuSans-45" transform="translate(0 0.015625)"/>
      <use xlink:href="#DejaVuSans-78" transform="translate(63.183594 0.015625)"/>
      <use xlink:href="#DejaVuSans-70" transform="translate(122.363281 0.015625)"/>
      <use xlink:href="#DejaVuSans-65" transform="translate(185.839844 0.015625)"/>
      <use xlink:href="#DejaVuSans-63" transform="translate(247.363281 0.015625)"/>
      <use xlink:href="#DejaVuSans-74" transform="translate(302.34375 0.015625)"/>
      <use xlink:href="#DejaVuSans-65" transform="translate(341.552734 0.015625)"/>
      <use xlink:href="#DejaVuSans-64" transform="translate(403.076172 0.015625)"/>
      <use xlink:href="#DejaVuSans-20" transform="translate(466.552734 0.015625)"/>
      <use xlink:href="#DejaVuSans-50" transform="translate(498.339844 0.015625)"/>
      <use xlink:href="#DejaVuSans-65" transform="translate(558.642578 0.015625)"/>
      <use xlink:href="#DejaVuSans-6e" transform="translate(620.166016 0.015625)"/>
      <use xlink:href="#DejaVuSans-61" transform="translate(683.544922 0.015625)"/>
      <use xlink:href="#DejaVuSans-6c" transform="translate(744.824219 0.015625)"/>
      <use xlink:href="#DejaVuSans-74" transform="translate(772.607422 0.015625)"/>
      <use xlink:href="#DejaVuSans-79" transform="translate(811.816406 0.015625)"/>
      <use xlink:href="#DejaVuSans-20" transform="translate(870.996094 0.015625)"/>
      <use xlink:href="#DejaVuSans-43" transform="translate(902.783203 0.015625)"/>
      <use xlink:href="#DejaVuSans-6f" transform="translate(972.607422 0.015625)"/>
      <use xlink:href="#DejaVuSans-73" transform="translate(1033.789062 0.015625)"/>
      <use xlink:href="#DejaVuSans-74" transform="translate(1085.888672 0.015625)"/>
      <use xlink:href="#DejaVuSans-20" transform="translate(1125.097656 0.015625)"/>
      <use xlink:href="#DejaVuSans-28" transform="translate(1156.884766 0.015625)"/>
      <use xlink:href="#DejaVuSans-Oblique-43" transform="translate(1195.898438 0.015625)"/>
      <use xlink:href="#DejaVuSans-Oblique-75" transform="translate(1265.722656 -16.390625) scale(0.7)"/>
      <use xlink:href="#DejaVuSans-29" transform="translate(1312.822266 0.015625)"/>
     </g>
    </g>
    <g id="line2d_58">
     <path d="M 314.83125 258.202125 
L 324.83125 258.202125 
L 334.83125 258.202125 
" style="fill: none; stroke: #000000; stroke-width: 2; stroke-linecap: square"/>
    </g>
    <g id="text_37">
     <!-- Total Expected Cost $C(\tau)$ -->
     <g transform="translate(342.83125 261.702125) scale(0.1 -0.1)">
      <use xlink:href="#DejaVuSans-54" transform="translate(0 0.015625)"/>
      <use xlink:href="#DejaVuSans-6f" transform="translate(61.083984 0.015625)"/>
      <use xlink:href="#DejaVuSans-74" transform="translate(122.265625 0.015625)"/>
      <use xlink:href="#DejaVuSans-61" transform="translate(161.474609 0.015625)"/>
      <use xlink:href="#DejaVuSans-6c" transform="translate(222.753906 0.015625)"/>
      <use xlink:href="#DejaVuSans-20" transform="translate(250.537109 0.015625)"/>
      <use xlink:href="#DejaVuSans-45" transform="translate(282.324219 0.015625)"/>
      <use xlink:href="#DejaVuSans-78" transform="translate(345.507812 0.015625)"/>
      <use xlink:href="#DejaVuSans-70" transform="translate(404.6875 0.015625)"/>
      <use xlink:href="#DejaVuSans-65" transform="translate(468.164062 0.015625)"/>
      <use xlink:href="#DejaVuSans-63" transform="translate(529.6875 0.015625)"/>
      <use xlink:href="#DejaVuSans-74" transform="translate(584.667969 0.015625)"/>
      <use xlink:href="#DejaVuSans-65" transform="translate(623.876953 0.015625)"/>
      <use xlink:href="#DejaVuSans-64" transform="translate(685.400391 0.015625)"/>
      <use xlink:href="#DejaVuSans-20" transform="translate(748.876953 0.015625)"/>
      <use xlink:href="#DejaVuSans-43" transform="translate(780.664062 0.015625)"/>
      <use xlink:href="#DejaVuSans-6f" transform="translate(850.488281 0.015625)"/>
      <use xlink:href="#DejaVuSans-73" transform="translate(911.669922 0.015625)"/>
      <use xlink:href="#DejaVuSans-74" transform="translate(963.769531 0.015625)"/>
      <use xlink:href="#DejaVuSans-20" transform="translate(1002.978516 0.015625)"/>
      <use xlink:href="#DejaVuSans-Oblique-43" transform="translate(1034.765625 0.015625)"/>
      <use xlink:href="#DejaVuSans-28" transform="translate(1104.589844 0.015625)"/>
      <use xlink:href="#DejaVuSans-Oblique-3c4" transform="translate(1143.603516 0.015625)"/>
      <use xlink:href="#DejaVuSans-29" transform="translate(1203.808594 0.015625)"/>
     </g>
    </g>
    <g id="PathCollection_4">
     <g>
      <use xlink:href="#md1cfebbb8f" x="324.83125" y="275.277125" style="fill: #ffd700; stroke: #000000"/>
     </g>
    </g>
    <g id="text_38">
     <!-- Optimal Stopping Point $\tau^*$ -->
     <g transform="translate(342.83125 277.902125) scale(0.1 -0.1)">
      <defs>
       <path id="DejaVuSans-53" d="M 3425 4513 
L 3425 3897 
Q 3066 4069 2747 4153 
Q 2428 4238 2131 4238 
Q 1616 4238 1336 4038 
Q 1056 3838 1056 3469 
Q 1056 3159 1242 3001 
Q 1428 2844 1947 2747 
L 2328 2669 
Q 3034 2534 3370 2195 
Q 3706 1856 3706 1288 
Q 3706 609 3251 259 
Q 2797 -91 1919 -91 
Q 1588 -91 1214 -16 
Q 841 59 441 206 
L 441 856 
Q 825 641 1194 531 
Q 1563 422 1919 422 
Q 2459 422 2753 634 
Q 3047 847 3047 1241 
Q 3047 1584 2836 1778 
Q 2625 1972 2144 2069 
L 1759 2144 
Q 1053 2284 737 2584 
Q 422 2884 422 3419 
Q 422 4038 858 4394 
Q 1294 4750 2059 4750 
Q 2388 4750 2728 4690 
Q 3069 4631 3425 4513 
z
" transform="scale(0.015625)"/>
       <path id="DejaVuSans-2a" d="M 3009 3897 
L 1888 3291 
L 3009 2681 
L 2828 2375 
L 1778 3009 
L 1778 1831 
L 1422 1831 
L 1422 3009 
L 372 2375 
L 191 2681 
L 1313 3291 
L 191 3897 
L 372 4206 
L 1422 3572 
L 1422 4750 
L 1778 4750 
L 1778 3572 
L 2828 4206 
L 3009 3897 
z
" transform="scale(0.015625)"/>
      </defs>
      <use xlink:href="#DejaVuSans-4f" transform="translate(0 0.765625)"/>
      <use xlink:href="#DejaVuSans-70" transform="translate(78.710938 0.765625)"/>
      <use xlink:href="#DejaVuSans-74" transform="translate(142.1875 0.765625)"/>
      <use xlink:href="#DejaVuSans-69" transform="translate(181.396484 0.765625)"/>
      <use xlink:href="#DejaVuSans-6d" transform="translate(209.179688 0.765625)"/>
      <use xlink:href="#DejaVuSans-61" transform="translate(306.591797 0.765625)"/>
      <use xlink:href="#DejaVuSans-6c" transform="translate(367.871094 0.765625)"/>
      <use xlink:href="#DejaVuSans-20" transform="translate(395.654297 0.765625)"/>
      <use xlink:href="#DejaVuSans-53" transform="translate(427.441406 0.765625)"/>
      <use xlink:href="#DejaVuSans-74" transform="translate(490.917969 0.765625)"/>
      <use xlink:href="#DejaVuSans-6f" transform="translate(530.126953 0.765625)"/>
      <use xlink:href="#DejaVuSans-70" transform="translate(591.308594 0.765625)"/>
      <use xlink:href="#DejaVuSans-70" transform="translate(654.785156 0.765625)"/>
      <use xlink:href="#DejaVuSans-69" transform="translate(718.261719 0.765625)"/>
      <use xlink:href="#DejaVuSans-6e" transform="translate(746.044922 0.765625)"/>
      <use xlink:href="#DejaVuSans-67" transform="translate(809.423828 0.765625)"/>
      <use xlink:href="#DejaVuSans-20" transform="translate(872.900391 0.765625)"/>
      <use xlink:href="#DejaVuSans-50" transform="translate(904.6875 0.765625)"/>
      <use xlink:href="#DejaVuSans-6f" transform="translate(964.990234 0.765625)"/>
      <use xlink:href="#DejaVuSans-69" transform="translate(1026.171875 0.765625)"/>
      <use xlink:href="#DejaVuSans-6e" transform="translate(1053.955078 0.765625)"/>
      <use xlink:href="#DejaVuSans-74" transform="translate(1117.333984 0.765625)"/>
      <use xlink:href="#DejaVuSans-20" transform="translate(1156.542969 0.765625)"/>
      <use xlink:href="#DejaVuSans-Oblique-3c4" transform="translate(1188.330078 0.765625)"/>
      <use xlink:href="#DejaVuSans-2a" transform="translate(1266.638997 39.046875) scale(0.7)"/>
     </g>
    </g>
   </g>
  </g>
 </g>
 <defs>
  <clipPath id="pd5e2321e9c">
   <rect x="50.14375" y="22.318125" width="196.045" height="160.32"/>
  </clipPath>
  <clipPath id="p53f7270f57">
   <rect x="306.50875" y="22.318125" width="196.045" height="160.32"/>
  </clipPath>
 </defs>
</svg>
