<?xml version="1.0" encoding="utf-8" standalone="no"?>
<!DOCTYPE svg PUBLIC "-//W3C//DTD SVG 1.1//EN"
  "http://www.w3.org/Graphics/SVG/1.1/DTD/svg11.dtd">
<svg xmlns:xlink="http://www.w3.org/1999/xlink" width="514.08pt" height="216pt" viewBox="0 0 514.08 216" xmlns="http://www.w3.org/2000/svg" version="1.1">
 <metadata>
  <rdf:RDF xmlns:dc="http://purl.org/dc/elements/1.1/" xmlns:cc="http://creativecommons.org/ns#" xmlns:rdf="http://www.w3.org/1999/02/22-rdf-syntax-ns#">
   <cc:Work>
    <dc:type rdf:resource="http://purl.org/dc/dcmitype/StillImage"/>
    <dc:date>2026-06-18T20:05:00.617463</dc:date>
    <dc:format>image/svg+xml</dc:format>
    <dc:creator>
     <cc:Agent>
      <dc:title>Matplotlib v3.10.8, https://matplotlib.org/</dc:title>
     </cc:Agent>
    </dc:creator>
   </cc:Work>
  </rdf:RDF>
 </metadata>
 <defs>
  <style type="text/css">*{stroke-linejoin: round; stroke-linecap: butt}</style>
 </defs>
 <g id="figure_1">
  <g id="patch_1">
   <path d="M 0 216 
L 514.08 216 
L 514.08 0 
L 0 0 
z
" style="fill: #ffffff"/>
  </g>
  <g id="axes_1">
   <g id="patch_2">
    <path d="M 35.205 174.509617 
L 255.04 174.509617 
L 255.04 17.2 
L 35.205 17.2 
z
" style="fill: #ffffff"/>
   </g>
   <g id="patch_3">
    <path d="M 45.1975 331.819234 
L 58.271799 331.819234 
L 58.271799 127.316732 
L 45.1975 127.316732 
z
" clip-path="url(#p0c55bdc240)" style="fill: #d3d3d3; stroke: #000000; stroke-linejoin: miter"/>
   </g>
   <g id="patch_4">
    <path d="M 82.55264 331.819234 
L 95.626939 331.819234 
L 95.626939 149.340078 
L 82.55264 149.340078 
z
" clip-path="url(#p0c55bdc240)" style="fill: #d3d3d3; stroke: #000000; stroke-linejoin: miter"/>
   </g>
   <g id="patch_5">
    <path d="M 119.90778 331.819234 
L 132.982079 331.819234 
L 132.982079 105.293386 
L 119.90778 105.293386 
z
" clip-path="url(#p0c55bdc240)" style="fill: #d3d3d3; stroke: #000000; stroke-linejoin: miter"/>
   </g>
   <g id="patch_6">
    <path d="M 157.262921 331.819234 
L 170.33722 331.819234 
L 170.33722 83.270039 
L 157.262921 83.270039 
z
" clip-path="url(#p0c55bdc240)" style="fill: #d3d3d3; stroke: #000000; stroke-linejoin: miter"/>
   </g>
   <g id="patch_7">
    <path d="M 194.618061 331.819234 
L 207.69236 331.819234 
L 207.69236 42.369539 
L 194.618061 42.369539 
z
" clip-path="url(#p0c55bdc240)" style="fill: #4682b4; stroke: #000000; stroke-linejoin: miter"/>
   </g>
   <g id="patch_8">
    <path d="M 231.973201 331.819234 
L 245.0475 331.819234 
L 245.0475 54.954308 
L 231.973201 54.954308 
z
" clip-path="url(#p0c55bdc240)" style="fill: #d3d3d3; stroke: #000000; stroke-linejoin: miter"/>
   </g>
   <g id="matplotlib.axis_1">
    <g id="xtick_1">
     <g id="line2d_1">
      <defs>
       <path id="mfc328755dc" d="M 0 0 
L 0 3.5 
" style="stroke: #000000; stroke-width: 0.8"/>
      </defs>
      <g>
       <use xlink:href="#mfc328755dc" x="51.73465" y="174.509617" style="stroke: #000000; stroke-width: 0.8"/>
      </g>
     </g>
     <g id="text_1">
      <!-- Cox-PH -->
      <g transform="translate(24.6005 201.959594) rotate(-30) scale(0.08 -0.08)">
       <defs>
        <path id="DejaVuSerif-43" d="M 4513 1234 
Q 4306 581 3820 245 
Q 3334 -91 2591 -91 
Q 2134 -91 1743 65 
Q 1353 222 1050 525 
Q 700 875 529 1320 
Q 359 1766 359 2328 
Q 359 3416 987 4083 
Q 1616 4750 2644 4750 
Q 3025 4750 3456 4650 
Q 3888 4550 4384 4347 
L 4384 3272 
L 4031 3272 
Q 3916 3859 3567 4137 
Q 3219 4416 2591 4416 
Q 1844 4416 1459 3886 
Q 1075 3356 1075 2328 
Q 1075 1303 1459 773 
Q 1844 244 2591 244 
Q 3113 244 3450 492 
Q 3788 741 3938 1234 
L 4513 1234 
z
" transform="scale(0.015625)"/>
        <path id="DejaVuSerif-6f" d="M 1925 219 
Q 2388 219 2623 584 
Q 2859 950 2859 1663 
Q 2859 2375 2623 2739 
Q 2388 3103 1925 3103 
Q 1463 3103 1227 2739 
Q 991 2375 991 1663 
Q 991 950 1228 584 
Q 1466 219 1925 219 
z
M 1925 -91 
Q 1200 -91 759 389 
Q 319 869 319 1663 
Q 319 2456 758 2934 
Q 1197 3413 1925 3413 
Q 2653 3413 3092 2934 
Q 3531 2456 3531 1663 
Q 3531 869 3092 389 
Q 2653 -91 1925 -91 
z
" transform="scale(0.015625)"/>
        <path id="DejaVuSerif-78" d="M 1863 2028 
L 2559 2988 
L 2113 2988 
L 2113 3322 
L 3391 3322 
L 3391 2988 
L 2950 2988 
L 2059 1759 
L 3097 331 
L 3531 331 
L 3531 0 
L 1997 0 
L 1997 331 
L 2419 331 
L 1697 1325 
L 972 331 
L 1403 331 
L 1403 0 
L 141 0 
L 141 331 
L 581 331 
L 1497 1594 
L 488 2988 
L 78 2988 
L 78 3322 
L 1563 3322 
L 1563 2988 
L 1166 2988 
L 1863 2028 
z
" transform="scale(0.015625)"/>
        <path id="DejaVuSerif-2d" d="M 281 1959 
L 1881 1959 
L 1881 1472 
L 281 1472 
L 281 1959 
z
" transform="scale(0.015625)"/>
        <path id="DejaVuSerif-50" d="M 1581 2375 
L 2406 2375 
Q 2872 2375 3115 2626 
Q 3359 2878 3359 3353 
Q 3359 3831 3115 4081 
Q 2872 4331 2406 4331 
L 1581 4331 
L 1581 2375 
z
M 353 0 
L 353 331 
L 947 331 
L 947 4331 
L 353 4331 
L 353 4666 
L 2559 4666 
Q 3259 4666 3668 4311 
Q 4078 3956 4078 3353 
Q 4078 2753 3668 2397 
Q 3259 2041 2559 2041 
L 1581 2041 
L 1581 331 
L 2303 331 
L 2303 0 
L 353 0 
z
" transform="scale(0.015625)"/>
        <path id="DejaVuSerif-48" d="M 353 0 
L 353 331 
L 947 331 
L 947 4331 
L 353 4331 
L 353 4666 
L 2175 4666 
L 2175 4331 
L 1581 4331 
L 1581 2719 
L 4000 2719 
L 4000 4331 
L 3406 4331 
L 3406 4666 
L 5228 4666 
L 5228 4331 
L 4634 4331 
L 4634 331 
L 5228 331 
L 5228 0 
L 3406 0 
L 3406 331 
L 4000 331 
L 4000 2338 
L 1581 2338 
L 1581 331 
L 2175 331 
L 2175 0 
L 353 0 
z
" transform="scale(0.015625)"/>
       </defs>
       <use xlink:href="#DejaVuSerif-43"/>
       <use xlink:href="#DejaVuSerif-6f" transform="translate(76.513672 0)"/>
       <use xlink:href="#DejaVuSerif-78" transform="translate(136.71875 0)"/>
       <use xlink:href="#DejaVuSerif-2d" transform="translate(191.365234 0)"/>
       <use xlink:href="#DejaVuSerif-50" transform="translate(225.154297 0)"/>
       <use xlink:href="#DejaVuSerif-48" transform="translate(292.439453 0)"/>
      </g>
     </g>
    </g>
    <g id="xtick_2">
     <g id="line2d_2">
      <g>
       <use xlink:href="#mfc328755dc" x="89.08979" y="174.509617" style="stroke: #000000; stroke-width: 0.8"/>
      </g>
     </g>
     <g id="text_2">
      <!-- Exponential -->
      <g transform="translate(46.315222 210.989594) rotate(-30) scale(0.08 -0.08)">
       <defs>
        <path id="DejaVuSerif-45" d="M 353 0 
L 353 331 
L 947 331 
L 947 4331 
L 353 4331 
L 353 4666 
L 4109 4666 
L 4109 3628 
L 3725 3628 
L 3725 4281 
L 1581 4281 
L 1581 2719 
L 3109 2719 
L 3109 3303 
L 3494 3303 
L 3494 1753 
L 3109 1753 
L 3109 2338 
L 1581 2338 
L 1581 384 
L 3775 384 
L 3775 1038 
L 4159 1038 
L 4159 0 
L 353 0 
z
" transform="scale(0.015625)"/>
        <path id="DejaVuSerif-70" d="M 1313 1825 
L 1313 1497 
Q 1313 897 1542 583 
Q 1772 269 2209 269 
Q 2650 269 2876 622 
Q 3103 975 3103 1663 
Q 3103 2353 2876 2703 
Q 2650 3053 2209 3053 
Q 1772 3053 1542 2737 
Q 1313 2422 1313 1825 
z
M 738 2988 
L 184 2988 
L 184 3322 
L 1313 3322 
L 1313 2803 
Q 1481 3116 1742 3264 
Q 2003 3413 2388 3413 
Q 3000 3413 3387 2928 
Q 3775 2444 3775 1663 
Q 3775 881 3387 395 
Q 3000 -91 2388 -91 
Q 2003 -91 1742 57 
Q 1481 206 1313 519 
L 1313 -997 
L 1856 -997 
L 1856 -1331 
L 184 -1331 
L 184 -997 
L 738 -997 
L 738 2988 
z
" transform="scale(0.015625)"/>
        <path id="DejaVuSerif-6e" d="M 263 0 
L 263 331 
L 781 331 
L 781 2988 
L 231 2988 
L 231 3322 
L 1356 3322 
L 1356 2731 
Q 1516 3069 1770 3241 
Q 2025 3413 2363 3413 
Q 2913 3413 3172 3097 
Q 3431 2781 3431 2113 
L 3431 331 
L 3944 331 
L 3944 0 
L 2356 0 
L 2356 331 
L 2853 331 
L 2853 1931 
Q 2853 2541 2703 2767 
Q 2553 2994 2175 2994 
Q 1775 2994 1565 2701 
Q 1356 2409 1356 1850 
L 1356 331 
L 1856 331 
L 1856 0 
L 263 0 
z
" transform="scale(0.015625)"/>
        <path id="DejaVuSerif-65" d="M 3469 1600 
L 991 1600 
L 991 1575 
Q 991 903 1244 561 
Q 1497 219 1991 219 
Q 2369 219 2611 417 
Q 2853 616 2950 1006 
L 3413 1006 
Q 3275 459 2904 184 
Q 2534 -91 1931 -91 
Q 1203 -91 761 389 
Q 319 869 319 1663 
Q 319 2450 753 2931 
Q 1188 3413 1894 3413 
Q 2647 3413 3050 2948 
Q 3453 2484 3469 1600 
z
M 2791 1931 
Q 2772 2513 2545 2808 
Q 2319 3103 1894 3103 
Q 1497 3103 1269 2806 
Q 1041 2509 991 1931 
L 2791 1931 
z
" transform="scale(0.015625)"/>
        <path id="DejaVuSerif-74" d="M 691 2988 
L 184 2988 
L 184 3322 
L 691 3322 
L 691 4353 
L 1269 4353 
L 1269 3322 
L 2350 3322 
L 2350 2988 
L 1269 2988 
L 1269 878 
Q 1269 456 1350 337 
Q 1431 219 1650 219 
Q 1875 219 1978 351 
Q 2081 484 2088 781 
L 2522 781 
Q 2497 328 2275 118 
Q 2053 -91 1600 -91 
Q 1103 -91 897 129 
Q 691 350 691 878 
L 691 2988 
z
" transform="scale(0.015625)"/>
        <path id="DejaVuSerif-69" d="M 622 4353 
Q 622 4497 726 4603 
Q 831 4709 978 4709 
Q 1122 4709 1226 4603 
Q 1331 4497 1331 4353 
Q 1331 4206 1228 4103 
Q 1125 4000 978 4000 
Q 831 4000 726 4103 
Q 622 4206 622 4353 
z
M 1356 331 
L 1900 331 
L 1900 0 
L 231 0 
L 231 331 
L 781 331 
L 781 2988 
L 231 2988 
L 231 3322 
L 1356 3322 
L 1356 331 
z
" transform="scale(0.015625)"/>
        <path id="DejaVuSerif-61" d="M 2547 1044 
L 2547 1747 
L 1806 1747 
Q 1378 1747 1168 1562 
Q 959 1378 959 997 
Q 959 650 1171 447 
Q 1384 244 1747 244 
Q 2106 244 2326 466 
Q 2547 688 2547 1044 
z
M 3122 2075 
L 3122 331 
L 3634 331 
L 3634 0 
L 2547 0 
L 2547 359 
Q 2356 128 2106 18 
Q 1856 -91 1522 -91 
Q 969 -91 644 203 
Q 319 497 319 997 
Q 319 1513 691 1797 
Q 1063 2081 1741 2081 
L 2547 2081 
L 2547 2309 
Q 2547 2688 2317 2895 
Q 2088 3103 1672 3103 
Q 1328 3103 1125 2947 
Q 922 2791 872 2484 
L 575 2484 
L 575 3156 
Q 875 3284 1158 3348 
Q 1441 3413 1709 3413 
Q 2400 3413 2761 3070 
Q 3122 2728 3122 2075 
z
" transform="scale(0.015625)"/>
        <path id="DejaVuSerif-6c" d="M 1313 331 
L 1856 331 
L 1856 0 
L 184 0 
L 184 331 
L 738 331 
L 738 4531 
L 184 4531 
L 184 4863 
L 1313 4863 
L 1313 331 
z
" transform="scale(0.015625)"/>
       </defs>
       <use xlink:href="#DejaVuSerif-45"/>
       <use xlink:href="#DejaVuSerif-78" transform="translate(72.998047 0)"/>
       <use xlink:href="#DejaVuSerif-70" transform="translate(129.394531 0)"/>
       <use xlink:href="#DejaVuSerif-6f" transform="translate(193.408203 0)"/>
       <use xlink:href="#DejaVuSerif-6e" transform="translate(253.613281 0)"/>
       <use xlink:href="#DejaVuSerif-65" transform="translate(318.017578 0)"/>
       <use xlink:href="#DejaVuSerif-6e" transform="translate(377.197266 0)"/>
       <use xlink:href="#DejaVuSerif-74" transform="translate(441.601562 0)"/>
       <use xlink:href="#DejaVuSerif-69" transform="translate(481.787109 0)"/>
       <use xlink:href="#DejaVuSerif-61" transform="translate(513.769531 0)"/>
       <use xlink:href="#DejaVuSerif-6c" transform="translate(573.388672 0)"/>
      </g>
     </g>
    </g>
    <g id="xtick_3">
     <g id="line2d_3">
      <g>
       <use xlink:href="#mfc328755dc" x="126.44493" y="174.509617" style="stroke: #000000; stroke-width: 0.8"/>
      </g>
     </g>
     <g id="text_3">
      <!-- Weibull -->
      <g transform="translate(99.409291 201.902719) rotate(-30) scale(0.08 -0.08)">
       <defs>
        <path id="DejaVuSerif-57" d="M 4878 0 
L 4366 0 
L 3297 3794 
L 2228 0 
L 1716 0 
L 494 4331 
L 31 4331 
L 31 4666 
L 1734 4666 
L 1734 4331 
L 1153 4331 
L 2125 884 
L 3188 4666 
L 3694 4666 
L 4775 844 
L 5753 4331 
L 5216 4331 
L 5216 4666 
L 6559 4666 
L 6559 4331 
L 6100 4331 
L 4878 0 
z
" transform="scale(0.015625)"/>
        <path id="DejaVuSerif-62" d="M 738 331 
L 738 4531 
L 184 4531 
L 184 4863 
L 1313 4863 
L 1313 2803 
Q 1481 3116 1742 3264 
Q 2003 3413 2388 3413 
Q 3000 3413 3387 2928 
Q 3775 2444 3775 1663 
Q 3775 881 3387 395 
Q 3000 -91 2388 -91 
Q 2003 -91 1742 57 
Q 1481 206 1313 519 
L 1313 0 
L 184 0 
L 184 331 
L 738 331 
z
M 1313 1497 
Q 1313 897 1542 583 
Q 1772 269 2209 269 
Q 2650 269 2876 622 
Q 3103 975 3103 1663 
Q 3103 2353 2876 2703 
Q 2650 3053 2209 3053 
Q 1772 3053 1542 2737 
Q 1313 2422 1313 1825 
L 1313 1497 
z
" transform="scale(0.015625)"/>
        <path id="DejaVuSerif-75" d="M 2266 3322 
L 3341 3322 
L 3341 331 
L 3884 331 
L 3884 0 
L 2766 0 
L 2766 588 
Q 2606 256 2353 82 
Q 2100 -91 1766 -91 
Q 1213 -91 952 223 
Q 691 538 691 1209 
L 691 2988 
L 172 2988 
L 172 3322 
L 1269 3322 
L 1269 1388 
Q 1269 781 1417 556 
Q 1566 331 1947 331 
Q 2347 331 2556 625 
Q 2766 919 2766 1478 
L 2766 2988 
L 2266 2988 
L 2266 3322 
z
" transform="scale(0.015625)"/>
       </defs>
       <use xlink:href="#DejaVuSerif-57"/>
       <use xlink:href="#DejaVuSerif-65" transform="translate(94.658203 0)"/>
       <use xlink:href="#DejaVuSerif-69" transform="translate(153.837891 0)"/>
       <use xlink:href="#DejaVuSerif-62" transform="translate(185.820312 0)"/>
       <use xlink:href="#DejaVuSerif-75" transform="translate(249.833984 0)"/>
       <use xlink:href="#DejaVuSerif-6c" transform="translate(314.238281 0)"/>
       <use xlink:href="#DejaVuSerif-6c" transform="translate(346.220703 0)"/>
      </g>
     </g>
    </g>
    <g id="xtick_4">
     <g id="line2d_4">
      <g>
       <use xlink:href="#mfc328755dc" x="163.80007" y="174.509617" style="stroke: #000000; stroke-width: 0.8"/>
      </g>
     </g>
     <g id="text_4">
      <!-- Lognormal -->
      <g transform="translate(124.843008 208.752719) rotate(-30) scale(0.08 -0.08)">
       <defs>
        <path id="DejaVuSerif-4c" d="M 353 0 
L 353 331 
L 947 331 
L 947 4331 
L 353 4331 
L 353 4666 
L 2175 4666 
L 2175 4331 
L 1581 4331 
L 1581 384 
L 3713 384 
L 3713 1166 
L 4097 1166 
L 4097 0 
L 353 0 
z
" transform="scale(0.015625)"/>
        <path id="DejaVuSerif-67" d="M 3359 2988 
L 3359 72 
Q 3359 -644 2965 -1033 
Q 2572 -1422 1844 -1422 
Q 1516 -1422 1216 -1362 
Q 916 -1303 641 -1184 
L 641 -488 
L 941 -488 
Q 997 -813 1206 -963 
Q 1416 -1113 1806 -1113 
Q 2313 -1113 2548 -827 
Q 2784 -541 2784 72 
L 2784 519 
Q 2616 206 2355 57 
Q 2094 -91 1709 -91 
Q 1097 -91 708 395 
Q 319 881 319 1663 
Q 319 2444 706 2928 
Q 1094 3413 1709 3413 
Q 2094 3413 2355 3264 
Q 2616 3116 2784 2803 
L 2784 3322 
L 3909 3322 
L 3909 2988 
L 3359 2988 
z
M 2784 1825 
Q 2784 2422 2554 2737 
Q 2325 3053 1888 3053 
Q 1444 3053 1217 2703 
Q 991 2353 991 1663 
Q 991 975 1217 622 
Q 1444 269 1888 269 
Q 2325 269 2554 583 
Q 2784 897 2784 1497 
L 2784 1825 
z
" transform="scale(0.015625)"/>
        <path id="DejaVuSerif-72" d="M 3059 3328 
L 3059 2497 
L 2728 2497 
Q 2713 2744 2591 2866 
Q 2469 2988 2234 2988 
Q 1809 2988 1582 2694 
Q 1356 2400 1356 1850 
L 1356 331 
L 2022 331 
L 2022 0 
L 263 0 
L 263 331 
L 781 331 
L 781 2994 
L 231 2994 
L 231 3322 
L 1356 3322 
L 1356 2731 
Q 1525 3078 1790 3245 
Q 2056 3413 2438 3413 
Q 2578 3413 2733 3391 
Q 2888 3369 3059 3328 
z
" transform="scale(0.015625)"/>
        <path id="DejaVuSerif-6d" d="M 3316 2675 
Q 3481 3041 3739 3227 
Q 3997 3413 4341 3413 
Q 4863 3413 5119 3089 
Q 5375 2766 5375 2113 
L 5375 331 
L 5894 331 
L 5894 0 
L 4300 0 
L 4300 331 
L 4800 331 
L 4800 2047 
Q 4800 2556 4650 2772 
Q 4500 2988 4153 2988 
Q 3769 2988 3567 2697 
Q 3366 2406 3366 1850 
L 3366 331 
L 3866 331 
L 3866 0 
L 2291 0 
L 2291 331 
L 2791 331 
L 2791 2069 
Q 2791 2566 2641 2777 
Q 2491 2988 2144 2988 
Q 1759 2988 1557 2697 
Q 1356 2406 1356 1850 
L 1356 331 
L 1856 331 
L 1856 0 
L 263 0 
L 263 331 
L 781 331 
L 781 2994 
L 231 2994 
L 231 3322 
L 1356 3322 
L 1356 2731 
Q 1516 3063 1762 3238 
Q 2009 3413 2322 3413 
Q 2709 3413 2968 3220 
Q 3228 3028 3316 2675 
z
" transform="scale(0.015625)"/>
       </defs>
       <use xlink:href="#DejaVuSerif-4c"/>
       <use xlink:href="#DejaVuSerif-6f" transform="translate(66.40625 0)"/>
       <use xlink:href="#DejaVuSerif-67" transform="translate(126.611328 0)"/>
       <use xlink:href="#DejaVuSerif-6e" transform="translate(190.625 0)"/>
       <use xlink:href="#DejaVuSerif-6f" transform="translate(255.029297 0)"/>
       <use xlink:href="#DejaVuSerif-72" transform="translate(315.234375 0)"/>
       <use xlink:href="#DejaVuSerif-6d" transform="translate(363.037109 0)"/>
       <use xlink:href="#DejaVuSerif-61" transform="translate(457.861328 0)"/>
       <use xlink:href="#DejaVuSerif-6c" transform="translate(517.480469 0)"/>
      </g>
     </g>
    </g>
    <g id="xtick_5">
     <g id="line2d_5">
      <g>
       <use xlink:href="#mfc328755dc" x="201.15521" y="174.509617" style="stroke: #000000; stroke-width: 0.8"/>
      </g>
     </g>
     <g id="text_5">
      <!-- Log-logistic -->
      <g transform="translate(159.245002 210.457719) rotate(-30) scale(0.08 -0.08)">
       <defs>
        <path id="DejaVuSerif-73" d="M 359 184 
L 359 959 
L 691 959 
Q 703 588 923 403 
Q 1144 219 1575 219 
Q 1963 219 2166 364 
Q 2369 509 2369 788 
Q 2369 1006 2220 1140 
Q 2072 1275 1594 1428 
L 1178 1569 
Q 750 1706 558 1912 
Q 366 2119 366 2438 
Q 366 2894 700 3153 
Q 1034 3413 1625 3413 
Q 1888 3413 2178 3344 
Q 2469 3275 2778 3144 
L 2778 2419 
L 2447 2419 
Q 2434 2741 2221 2922 
Q 2009 3103 1644 3103 
Q 1281 3103 1095 2975 
Q 909 2847 909 2591 
Q 909 2381 1050 2254 
Q 1191 2128 1613 1997 
L 2069 1856 
Q 2541 1709 2748 1489 
Q 2956 1269 2956 922 
Q 2956 450 2595 179 
Q 2234 -91 1600 -91 
Q 1278 -91 972 -22 
Q 666 47 359 184 
z
" transform="scale(0.015625)"/>
        <path id="DejaVuSerif-63" d="M 3291 997 
Q 3169 466 2822 187 
Q 2475 -91 1925 -91 
Q 1200 -91 759 389 
Q 319 869 319 1663 
Q 319 2459 759 2936 
Q 1200 3413 1925 3413 
Q 2241 3413 2553 3339 
Q 2866 3266 3181 3116 
L 3181 2266 
L 2847 2266 
Q 2781 2703 2561 2903 
Q 2341 3103 1931 3103 
Q 1466 3103 1228 2742 
Q 991 2381 991 1663 
Q 991 944 1227 581 
Q 1463 219 1931 219 
Q 2303 219 2525 412 
Q 2747 606 2828 997 
L 3291 997 
z
" transform="scale(0.015625)"/>
       </defs>
       <use xlink:href="#DejaVuSerif-4c"/>
       <use xlink:href="#DejaVuSerif-6f" transform="translate(66.40625 0)"/>
       <use xlink:href="#DejaVuSerif-67" transform="translate(126.611328 0)"/>
       <use xlink:href="#DejaVuSerif-2d" transform="translate(190.625 0)"/>
       <use xlink:href="#DejaVuSerif-6c" transform="translate(224.414062 0)"/>
       <use xlink:href="#DejaVuSerif-6f" transform="translate(256.396484 0)"/>
       <use xlink:href="#DejaVuSerif-67" transform="translate(316.601562 0)"/>
       <use xlink:href="#DejaVuSerif-69" transform="translate(380.615234 0)"/>
       <use xlink:href="#DejaVuSerif-73" transform="translate(412.597656 0)"/>
       <use xlink:href="#DejaVuSerif-74" transform="translate(463.916016 0)"/>
       <use xlink:href="#DejaVuSerif-69" transform="translate(504.101562 0)"/>
       <use xlink:href="#DejaVuSerif-63" transform="translate(536.083984 0)"/>
      </g>
     </g>
    </g>
    <g id="xtick_6">
     <g id="line2d_6">
      <g>
       <use xlink:href="#mfc328755dc" x="238.51035" y="174.509617" style="stroke: #000000; stroke-width: 0.8"/>
      </g>
     </g>
     <g id="text_6">
      <!-- RSF -->
      <g transform="translate(222.908412 195.301469) rotate(-30) scale(0.08 -0.08)">
       <defs>
        <path id="DejaVuSerif-52" d="M 3066 2316 
Q 3284 2256 3442 2114 
Q 3600 1972 3725 1716 
L 4403 331 
L 4972 331 
L 4972 0 
L 3872 0 
L 3144 1484 
Q 2934 1916 2759 2042 
Q 2584 2169 2278 2169 
L 1581 2169 
L 1581 331 
L 2241 331 
L 2241 0 
L 353 0 
L 353 331 
L 947 331 
L 947 4331 
L 353 4331 
L 353 4666 
L 2719 4666 
Q 3400 4666 3770 4341 
Q 4141 4016 4141 3419 
Q 4141 2938 3870 2661 
Q 3600 2384 3066 2316 
z
M 1581 2503 
L 2503 2503 
Q 2975 2503 3200 2726 
Q 3425 2950 3425 3419 
Q 3425 3888 3200 4109 
Q 2975 4331 2503 4331 
L 1581 4331 
L 1581 2503 
z
" transform="scale(0.015625)"/>
        <path id="DejaVuSerif-53" d="M 594 225 
L 594 1288 
L 953 1284 
Q 969 753 1261 498 
Q 1553 244 2150 244 
Q 2706 244 2998 464 
Q 3291 684 3291 1106 
Q 3291 1444 3114 1625 
Q 2938 1806 2369 1978 
L 1753 2163 
Q 1084 2366 811 2669 
Q 538 2972 538 3500 
Q 538 4094 959 4422 
Q 1381 4750 2144 4750 
Q 2469 4750 2856 4679 
Q 3244 4609 3681 4475 
L 3681 3481 
L 3328 3481 
Q 3275 3975 2998 4195 
Q 2722 4416 2156 4416 
Q 1663 4416 1405 4214 
Q 1147 4013 1147 3628 
Q 1147 3294 1340 3103 
Q 1534 2913 2163 2725 
L 2741 2553 
Q 3375 2363 3645 2067 
Q 3916 1772 3916 1275 
Q 3916 597 3481 253 
Q 3047 -91 2188 -91 
Q 1803 -91 1404 -12 
Q 1006 66 594 225 
z
" transform="scale(0.015625)"/>
        <path id="DejaVuSerif-46" d="M 353 0 
L 353 331 
L 947 331 
L 947 4331 
L 353 4331 
L 353 4666 
L 4172 4666 
L 4172 3628 
L 3788 3628 
L 3788 4281 
L 1581 4281 
L 1581 2719 
L 3175 2719 
L 3175 3303 
L 3559 3303 
L 3559 1753 
L 3175 1753 
L 3175 2338 
L 1581 2338 
L 1581 331 
L 2328 331 
L 2328 0 
L 353 0 
z
" transform="scale(0.015625)"/>
       </defs>
       <use xlink:href="#DejaVuSerif-52"/>
       <use xlink:href="#DejaVuSerif-53" transform="translate(75.292969 0)"/>
       <use xlink:href="#DejaVuSerif-46" transform="translate(143.798828 0)"/>
      </g>
     </g>
    </g>
   </g>
   <g id="matplotlib.axis_2">
    <g id="ytick_1">
     <g id="line2d_7">
      <path d="M 35.205 174.509617 
L 255.04 174.509617 
" clip-path="url(#p0c55bdc240)" style="fill: none; stroke-dasharray: 2.96,1.28; stroke-dashoffset: 0; stroke: #b0b0b0; stroke-opacity: 0.5; stroke-width: 0.8"/>
     </g>
     <g id="line2d_8">
      <defs>
       <path id="m0fcad22c19" d="M 0 0 
L -3.5 0 
" style="stroke: #000000; stroke-width: 0.8"/>
      </defs>
      <g>
       <use xlink:href="#m0fcad22c19" x="35.205" y="174.509617" style="stroke: #000000; stroke-width: 0.8"/>
      </g>
     </g>
     <g id="text_7">
      <!-- 0.5 -->
      <g transform="translate(15.4825 177.548992) scale(0.08 -0.08)">
       <defs>
        <path id="DejaVuSerif-30" d="M 2034 219 
Q 2513 219 2750 744 
Q 2988 1269 2988 2328 
Q 2988 3391 2750 3916 
Q 2513 4441 2034 4441 
Q 1556 4441 1318 3916 
Q 1081 3391 1081 2328 
Q 1081 1269 1318 744 
Q 1556 219 2034 219 
z
M 2034 -91 
Q 1275 -91 848 546 
Q 422 1184 422 2328 
Q 422 3475 848 4112 
Q 1275 4750 2034 4750 
Q 2797 4750 3222 4112 
Q 3647 3475 3647 2328 
Q 3647 1184 3222 546 
Q 2797 -91 2034 -91 
z
" transform="scale(0.015625)"/>
        <path id="DejaVuSerif-2e" d="M 603 325 
Q 603 500 722 622 
Q 841 744 1019 744 
Q 1191 744 1312 622 
Q 1434 500 1434 325 
Q 1434 153 1312 31 
Q 1191 -91 1019 -91 
Q 841 -91 722 29 
Q 603 150 603 325 
z
" transform="scale(0.015625)"/>
        <path id="DejaVuSerif-35" d="M 3219 4666 
L 3219 4153 
L 1081 4153 
L 1081 2816 
Q 1244 2928 1461 2984 
Q 1678 3041 1947 3041 
Q 2703 3041 3140 2622 
Q 3578 2203 3578 1478 
Q 3578 738 3136 323 
Q 2694 -91 1894 -91 
Q 1572 -91 1234 -12 
Q 897 66 544 225 
L 544 1131 
L 897 1131 
Q 925 688 1179 453 
Q 1434 219 1894 219 
Q 2388 219 2653 544 
Q 2919 869 2919 1478 
Q 2919 2084 2655 2407 
Q 2391 2731 1894 2731 
Q 1613 2731 1398 2631 
Q 1184 2531 1019 2322 
L 750 2322 
L 750 4666 
L 3219 4666 
z
" transform="scale(0.015625)"/>
       </defs>
       <use xlink:href="#DejaVuSerif-30"/>
       <use xlink:href="#DejaVuSerif-2e" transform="translate(63.623047 0)"/>
       <use xlink:href="#DejaVuSerif-35" transform="translate(95.410156 0)"/>
      </g>
     </g>
    </g>
    <g id="ytick_2">
     <g id="line2d_9">
      <path d="M 35.205 143.047694 
L 255.04 143.047694 
" clip-path="url(#p0c55bdc240)" style="fill: none; stroke-dasharray: 2.96,1.28; stroke-dashoffset: 0; stroke: #b0b0b0; stroke-opacity: 0.5; stroke-width: 0.8"/>
     </g>
     <g id="line2d_10">
      <g>
       <use xlink:href="#m0fcad22c19" x="35.205" y="143.047694" style="stroke: #000000; stroke-width: 0.8"/>
      </g>
     </g>
     <g id="text_8">
      <!-- 0.6 -->
      <g transform="translate(15.4825 146.087069) scale(0.08 -0.08)">
       <defs>
        <path id="DejaVuSerif-36" d="M 2094 219 
Q 2534 219 2771 542 
Q 3009 866 3009 1472 
Q 3009 2078 2771 2401 
Q 2534 2725 2094 2725 
Q 1647 2725 1412 2412 
Q 1178 2100 1178 1509 
Q 1178 888 1415 553 
Q 1653 219 2094 219 
z
M 1075 2569 
Q 1288 2803 1556 2918 
Q 1825 3034 2163 3034 
Q 2859 3034 3264 2615 
Q 3669 2197 3669 1472 
Q 3669 763 3233 336 
Q 2797 -91 2069 -91 
Q 1278 -91 853 498 
Q 428 1088 428 2181 
Q 428 3406 931 4078 
Q 1434 4750 2350 4750 
Q 2597 4750 2869 4703 
Q 3141 4656 3425 4563 
L 3425 3794 
L 3072 3794 
Q 3034 4109 2831 4275 
Q 2628 4441 2284 4441 
Q 1678 4441 1381 3981 
Q 1084 3522 1075 2569 
z
" transform="scale(0.015625)"/>
       </defs>
       <use xlink:href="#DejaVuSerif-30"/>
       <use xlink:href="#DejaVuSerif-2e" transform="translate(63.623047 0)"/>
       <use xlink:href="#DejaVuSerif-36" transform="translate(95.410156 0)"/>
      </g>
     </g>
    </g>
    <g id="ytick_3">
     <g id="line2d_11">
      <path d="M 35.205 111.58577 
L 255.04 111.58577 
" clip-path="url(#p0c55bdc240)" style="fill: none; stroke-dasharray: 2.96,1.28; stroke-dashoffset: 0; stroke: #b0b0b0; stroke-opacity: 0.5; stroke-width: 0.8"/>
     </g>
     <g id="line2d_12">
      <g>
       <use xlink:href="#m0fcad22c19" x="35.205" y="111.58577" style="stroke: #000000; stroke-width: 0.8"/>
      </g>
     </g>
     <g id="text_9">
      <!-- 0.7 -->
      <g transform="translate(15.4825 114.625145) scale(0.08 -0.08)">
       <defs>
        <path id="DejaVuSerif-37" d="M 3609 4347 
L 1784 0 
L 1319 0 
L 3059 4153 
L 903 4153 
L 903 3578 
L 538 3578 
L 538 4666 
L 3609 4666 
L 3609 4347 
z
" transform="scale(0.015625)"/>
       </defs>
       <use xlink:href="#DejaVuSerif-30"/>
       <use xlink:href="#DejaVuSerif-2e" transform="translate(63.623047 0)"/>
       <use xlink:href="#DejaVuSerif-37" transform="translate(95.410156 0)"/>
      </g>
     </g>
    </g>
    <g id="ytick_4">
     <g id="line2d_13">
      <path d="M 35.205 80.123847 
L 255.04 80.123847 
" clip-path="url(#p0c55bdc240)" style="fill: none; stroke-dasharray: 2.96,1.28; stroke-dashoffset: 0; stroke: #b0b0b0; stroke-opacity: 0.5; stroke-width: 0.8"/>
     </g>
     <g id="line2d_14">
      <g>
       <use xlink:href="#m0fcad22c19" x="35.205" y="80.123847" style="stroke: #000000; stroke-width: 0.8"/>
      </g>
     </g>
     <g id="text_10">
      <!-- 0.8 -->
      <g transform="translate(15.4825 83.163222) scale(0.08 -0.08)">
       <defs>
        <path id="DejaVuSerif-38" d="M 2981 1275 
Q 2981 1775 2732 2051 
Q 2484 2328 2034 2328 
Q 1584 2328 1336 2051 
Q 1088 1775 1088 1275 
Q 1088 772 1336 495 
Q 1584 219 2034 219 
Q 2484 219 2732 495 
Q 2981 772 2981 1275 
z
M 2853 3541 
Q 2853 3966 2637 4203 
Q 2422 4441 2034 4441 
Q 1650 4441 1433 4203 
Q 1216 3966 1216 3541 
Q 1216 3113 1433 2875 
Q 1650 2638 2034 2638 
Q 2422 2638 2637 2875 
Q 2853 3113 2853 3541 
z
M 2516 2484 
Q 3047 2413 3344 2092 
Q 3641 1772 3641 1275 
Q 3641 619 3225 264 
Q 2809 -91 2034 -91 
Q 1263 -91 845 264 
Q 428 619 428 1275 
Q 428 1772 725 2092 
Q 1022 2413 1556 2484 
Q 1084 2569 832 2842 
Q 581 3116 581 3541 
Q 581 4103 968 4426 
Q 1356 4750 2034 4750 
Q 2713 4750 3100 4426 
Q 3488 4103 3488 3541 
Q 3488 3116 3236 2842 
Q 2984 2569 2516 2484 
z
" transform="scale(0.015625)"/>
       </defs>
       <use xlink:href="#DejaVuSerif-30"/>
       <use xlink:href="#DejaVuSerif-2e" transform="translate(63.623047 0)"/>
       <use xlink:href="#DejaVuSerif-38" transform="translate(95.410156 0)"/>
      </g>
     </g>
    </g>
    <g id="ytick_5">
     <g id="line2d_15">
      <path d="M 35.205 48.661923 
L 255.04 48.661923 
" clip-path="url(#p0c55bdc240)" style="fill: none; stroke-dasharray: 2.96,1.28; stroke-dashoffset: 0; stroke: #b0b0b0; stroke-opacity: 0.5; stroke-width: 0.8"/>
     </g>
     <g id="line2d_16">
      <g>
       <use xlink:href="#m0fcad22c19" x="35.205" y="48.661923" style="stroke: #000000; stroke-width: 0.8"/>
      </g>
     </g>
     <g id="text_11">
      <!-- 0.9 -->
      <g transform="translate(15.4825 51.701298) scale(0.08 -0.08)">
       <defs>
        <path id="DejaVuSerif-39" d="M 2994 2091 
Q 2784 1856 2512 1740 
Q 2241 1625 1900 1625 
Q 1206 1625 804 2044 
Q 403 2463 403 3188 
Q 403 3897 839 4323 
Q 1275 4750 2003 4750 
Q 2794 4750 3217 4161 
Q 3641 3572 3641 2478 
Q 3641 1253 3137 581 
Q 2634 -91 1722 -91 
Q 1475 -91 1203 -44 
Q 931 3 647 97 
L 647 872 
L 997 872 
Q 1038 556 1241 387 
Q 1444 219 1784 219 
Q 2391 219 2687 676 
Q 2984 1134 2994 2091 
z
M 1978 4441 
Q 1534 4441 1298 4117 
Q 1063 3794 1063 3188 
Q 1063 2581 1298 2256 
Q 1534 1931 1978 1931 
Q 2422 1931 2658 2245 
Q 2894 2559 2894 3150 
Q 2894 3772 2656 4106 
Q 2419 4441 1978 4441 
z
" transform="scale(0.015625)"/>
       </defs>
       <use xlink:href="#DejaVuSerif-30"/>
       <use xlink:href="#DejaVuSerif-2e" transform="translate(63.623047 0)"/>
       <use xlink:href="#DejaVuSerif-39" transform="translate(95.410156 0)"/>
      </g>
     </g>
    </g>
    <g id="ytick_6">
     <g id="line2d_17">
      <path d="M 35.205 17.2 
L 255.04 17.2 
" clip-path="url(#p0c55bdc240)" style="fill: none; stroke-dasharray: 2.96,1.28; stroke-dashoffset: 0; stroke: #b0b0b0; stroke-opacity: 0.5; stroke-width: 0.8"/>
     </g>
     <g id="line2d_18">
      <g>
       <use xlink:href="#m0fcad22c19" x="35.205" y="17.2" style="stroke: #000000; stroke-width: 0.8"/>
      </g>
     </g>
     <g id="text_12">
      <!-- 1.0 -->
      <g transform="translate(15.4825 20.239375) scale(0.08 -0.08)">
       <defs>
        <path id="DejaVuSerif-31" d="M 909 0 
L 909 331 
L 1722 331 
L 1722 4213 
L 781 3603 
L 781 4013 
L 1919 4750 
L 2350 4750 
L 2350 331 
L 3163 331 
L 3163 0 
L 909 0 
z
" transform="scale(0.015625)"/>
       </defs>
       <use xlink:href="#DejaVuSerif-31"/>
       <use xlink:href="#DejaVuSerif-2e" transform="translate(63.623047 0)"/>
       <use xlink:href="#DejaVuSerif-30" transform="translate(95.410156 0)"/>
      </g>
     </g>
    </g>
    <g id="text_13">
     <!-- Concordance Index (C-index) -->
     <g transform="translate(9.81875 155.044809) rotate(-90) scale(0.08 -0.08)">
      <defs>
       <path id="DejaVuSerif-64" d="M 3359 331 
L 3909 331 
L 3909 0 
L 2784 0 
L 2784 519 
Q 2616 206 2355 57 
Q 2094 -91 1709 -91 
Q 1097 -91 708 395 
Q 319 881 319 1663 
Q 319 2444 706 2928 
Q 1094 3413 1709 3413 
Q 2094 3413 2355 3264 
Q 2616 3116 2784 2803 
L 2784 4531 
L 2241 4531 
L 2241 4863 
L 3359 4863 
L 3359 331 
z
M 2784 1497 
L 2784 1825 
Q 2784 2422 2554 2737 
Q 2325 3053 1888 3053 
Q 1444 3053 1217 2703 
Q 991 2353 991 1663 
Q 991 975 1217 622 
Q 1444 269 1888 269 
Q 2325 269 2554 583 
Q 2784 897 2784 1497 
z
" transform="scale(0.015625)"/>
       <path id="DejaVuSerif-20" transform="scale(0.015625)"/>
       <path id="DejaVuSerif-49" d="M 1581 331 
L 2175 331 
L 2175 0 
L 353 0 
L 353 331 
L 947 331 
L 947 4331 
L 353 4331 
L 353 4666 
L 2175 4666 
L 2175 4331 
L 1581 4331 
L 1581 331 
z
" transform="scale(0.015625)"/>
       <path id="DejaVuSerif-28" d="M 2041 -997 
Q 1281 -656 893 83 
Q 506 822 506 1931 
Q 506 3044 893 3783 
Q 1281 4522 2041 4863 
L 2041 4556 
Q 1559 4225 1350 3623 
Q 1141 3022 1141 1931 
Q 1141 844 1350 242 
Q 1559 -359 2041 -691 
L 2041 -997 
z
" transform="scale(0.015625)"/>
       <path id="DejaVuSerif-29" d="M 453 -997 
L 453 -691 
Q 934 -359 1145 242 
Q 1356 844 1356 1931 
Q 1356 3022 1145 3623 
Q 934 4225 453 4556 
L 453 4863 
Q 1216 4522 1603 3783 
Q 1991 3044 1991 1931 
Q 1991 822 1603 83 
Q 1216 -656 453 -997 
z
" transform="scale(0.015625)"/>
      </defs>
      <use xlink:href="#DejaVuSerif-43"/>
      <use xlink:href="#DejaVuSerif-6f" transform="translate(76.513672 0)"/>
      <use xlink:href="#DejaVuSerif-6e" transform="translate(136.71875 0)"/>
      <use xlink:href="#DejaVuSerif-63" transform="translate(201.123047 0)"/>
      <use xlink:href="#DejaVuSerif-6f" transform="translate(257.128906 0)"/>
      <use xlink:href="#DejaVuSerif-72" transform="translate(317.333984 0)"/>
      <use xlink:href="#DejaVuSerif-64" transform="translate(365.136719 0)"/>
      <use xlink:href="#DejaVuSerif-61" transform="translate(429.150391 0)"/>
      <use xlink:href="#DejaVuSerif-6e" transform="translate(488.769531 0)"/>
      <use xlink:href="#DejaVuSerif-63" transform="translate(553.173828 0)"/>
      <use xlink:href="#DejaVuSerif-65" transform="translate(609.179688 0)"/>
      <use xlink:href="#DejaVuSerif-20" transform="translate(668.359375 0)"/>
      <use xlink:href="#DejaVuSerif-49" transform="translate(700.146484 0)"/>
      <use xlink:href="#DejaVuSerif-6e" transform="translate(739.648438 0)"/>
      <use xlink:href="#DejaVuSerif-64" transform="translate(804.052734 0)"/>
      <use xlink:href="#DejaVuSerif-65" transform="translate(868.066406 0)"/>
      <use xlink:href="#DejaVuSerif-78" transform="translate(927.246094 0)"/>
      <use xlink:href="#DejaVuSerif-20" transform="translate(983.642578 0)"/>
      <use xlink:href="#DejaVuSerif-28" transform="translate(1015.429688 0)"/>
      <use xlink:href="#DejaVuSerif-43" transform="translate(1054.443359 0)"/>
      <use xlink:href="#DejaVuSerif-2d" transform="translate(1130.957031 0)"/>
      <use xlink:href="#DejaVuSerif-69" transform="translate(1164.746094 0)"/>
      <use xlink:href="#DejaVuSerif-6e" transform="translate(1196.728516 0)"/>
      <use xlink:href="#DejaVuSerif-64" transform="translate(1261.132812 0)"/>
      <use xlink:href="#DejaVuSerif-65" transform="translate(1325.146484 0)"/>
      <use xlink:href="#DejaVuSerif-78" transform="translate(1384.326172 0)"/>
      <use xlink:href="#DejaVuSerif-29" transform="translate(1440.722656 0)"/>
     </g>
    </g>
   </g>
   <g id="patch_9">
    <path d="M 35.205 174.509617 
L 35.205 17.2 
" style="fill: none; stroke: #000000; stroke-width: 0.8; stroke-linejoin: miter; stroke-linecap: square"/>
   </g>
   <g id="patch_10">
    <path d="M 255.04 174.509617 
L 255.04 17.2 
" style="fill: none; stroke: #000000; stroke-width: 0.8; stroke-linejoin: miter; stroke-linecap: square"/>
   </g>
   <g id="patch_11">
    <path d="M 35.205 174.509617 
L 255.04 174.509617 
" style="fill: none; stroke: #000000; stroke-width: 0.8; stroke-linejoin: miter; stroke-linecap: square"/>
   </g>
   <g id="patch_12">
    <path d="M 35.205 17.2 
L 255.04 17.2 
" style="fill: none; stroke: #000000; stroke-width: 0.8; stroke-linejoin: miter; stroke-linecap: square"/>
   </g>
   <g id="text_14">
    <!-- 0.65 -->
    <g transform="translate(43.941681 122.714758) scale(0.07 -0.07)">
     <use xlink:href="#DejaVuSerif-30"/>
     <use xlink:href="#DejaVuSerif-2e" transform="translate(63.623047 0)"/>
     <use xlink:href="#DejaVuSerif-36" transform="translate(95.410156 0)"/>
     <use xlink:href="#DejaVuSerif-35" transform="translate(159.033203 0)"/>
    </g>
   </g>
   <g id="text_15">
    <!-- 0.58 -->
    <g transform="translate(81.296821 144.738105) scale(0.07 -0.07)">
     <use xlink:href="#DejaVuSerif-30"/>
     <use xlink:href="#DejaVuSerif-2e" transform="translate(63.623047 0)"/>
     <use xlink:href="#DejaVuSerif-35" transform="translate(95.410156 0)"/>
     <use xlink:href="#DejaVuSerif-38" transform="translate(159.033203 0)"/>
    </g>
   </g>
   <g id="text_16">
    <!-- 0.72 -->
    <g transform="translate(118.651961 100.691412) scale(0.07 -0.07)">
     <defs>
      <path id="DejaVuSerif-32" d="M 819 3553 
L 469 3553 
L 469 4384 
Q 803 4563 1142 4656 
Q 1481 4750 1806 4750 
Q 2534 4750 2956 4397 
Q 3378 4044 3378 3438 
Q 3378 2753 2422 1800 
Q 2347 1728 2309 1691 
L 1131 513 
L 3078 513 
L 3078 1088 
L 3444 1088 
L 3444 0 
L 434 0 
L 434 341 
L 1850 1753 
Q 2319 2222 2519 2614 
Q 2719 3006 2719 3438 
Q 2719 3909 2473 4175 
Q 2228 4441 1797 4441 
Q 1350 4441 1106 4219 
Q 863 3997 819 3553 
z
" transform="scale(0.015625)"/>
     </defs>
     <use xlink:href="#DejaVuSerif-30"/>
     <use xlink:href="#DejaVuSerif-2e" transform="translate(63.623047 0)"/>
     <use xlink:href="#DejaVuSerif-37" transform="translate(95.410156 0)"/>
     <use xlink:href="#DejaVuSerif-32" transform="translate(159.033203 0)"/>
    </g>
   </g>
   <g id="text_17">
    <!-- 0.79 -->
    <g transform="translate(156.007101 78.668066) scale(0.07 -0.07)">
     <use xlink:href="#DejaVuSerif-30"/>
     <use xlink:href="#DejaVuSerif-2e" transform="translate(63.623047 0)"/>
     <use xlink:href="#DejaVuSerif-37" transform="translate(95.410156 0)"/>
     <use xlink:href="#DejaVuSerif-39" transform="translate(159.033203 0)"/>
    </g>
   </g>
   <g id="text_18">
    <!-- 0.92 -->
    <g transform="translate(193.362242 37.767565) scale(0.07 -0.07)">
     <use xlink:href="#DejaVuSerif-30"/>
     <use xlink:href="#DejaVuSerif-2e" transform="translate(63.623047 0)"/>
     <use xlink:href="#DejaVuSerif-39" transform="translate(95.410156 0)"/>
     <use xlink:href="#DejaVuSerif-32" transform="translate(159.033203 0)"/>
    </g>
   </g>
   <g id="text_19">
    <!-- 0.88 -->
    <g transform="translate(230.717382 50.352335) scale(0.07 -0.07)">
     <use xlink:href="#DejaVuSerif-30"/>
     <use xlink:href="#DejaVuSerif-2e" transform="translate(63.623047 0)"/>
     <use xlink:href="#DejaVuSerif-38" transform="translate(95.410156 0)"/>
     <use xlink:href="#DejaVuSerif-38" transform="translate(159.033203 0)"/>
    </g>
   </g>
   <g id="text_20">
    <!-- (a) AIS "6-Mirror" Evaluation (Log-logistic Wins) -->
    <g transform="translate(34.199609 11.2) scale(0.09 -0.09)">
     <defs>
      <path id="DejaVuSerif-41" d="M 1281 1691 
L 2994 1691 
L 2138 3909 
L 1281 1691 
z
M -38 0 
L -38 331 
L 372 331 
L 2034 4666 
L 2559 4666 
L 4225 331 
L 4684 331 
L 4684 0 
L 2988 0 
L 2988 331 
L 3506 331 
L 3116 1356 
L 1153 1356 
L 763 331 
L 1275 331 
L 1275 0 
L -38 0 
z
" transform="scale(0.015625)"/>
      <path id="DejaVuSerif-22" d="M 1125 4666 
L 1125 2931 
L 628 2931 
L 628 4666 
L 1125 4666 
z
M 2316 4666 
L 2316 2931 
L 1819 2931 
L 1819 4666 
L 2316 4666 
z
" transform="scale(0.015625)"/>
      <path id="DejaVuSerif-4d" d="M 353 0 
L 353 331 
L 947 331 
L 947 4331 
L 319 4331 
L 319 4666 
L 1678 4666 
L 3316 1344 
L 4953 4666 
L 6228 4666 
L 6228 4331 
L 5606 4331 
L 5606 331 
L 6203 331 
L 6203 0 
L 4378 0 
L 4378 331 
L 4972 331 
L 4972 3938 
L 3372 684 
L 2931 684 
L 1331 3938 
L 1331 331 
L 1925 331 
L 1925 0 
L 353 0 
z
" transform="scale(0.015625)"/>
      <path id="DejaVuSerif-76" d="M 1581 0 
L 359 2988 
L -19 2988 
L -19 3322 
L 1509 3322 
L 1509 2988 
L 978 2988 
L 1913 703 
L 2847 2988 
L 2350 2988 
L 2350 3322 
L 3597 3322 
L 3597 2988 
L 3225 2988 
L 2003 0 
L 1581 0 
z
" transform="scale(0.015625)"/>
     </defs>
     <use xlink:href="#DejaVuSerif-28"/>
     <use xlink:href="#DejaVuSerif-61" transform="translate(39.013672 0)"/>
     <use xlink:href="#DejaVuSerif-29" transform="translate(98.632812 0)"/>
     <use xlink:href="#DejaVuSerif-20" transform="translate(137.646484 0)"/>
     <use xlink:href="#DejaVuSerif-41" transform="translate(169.433594 0)"/>
     <use xlink:href="#DejaVuSerif-49" transform="translate(241.650391 0)"/>
     <use xlink:href="#DejaVuSerif-53" transform="translate(281.152344 0)"/>
     <use xlink:href="#DejaVuSerif-20" transform="translate(349.658203 0)"/>
     <use xlink:href="#DejaVuSerif-22" transform="translate(381.445312 0)"/>
     <use xlink:href="#DejaVuSerif-36" transform="translate(427.441406 0)"/>
     <use xlink:href="#DejaVuSerif-2d" transform="translate(491.064453 0)"/>
     <use xlink:href="#DejaVuSerif-4d" transform="translate(524.853516 0)"/>
     <use xlink:href="#DejaVuSerif-69" transform="translate(627.246094 0)"/>
     <use xlink:href="#DejaVuSerif-72" transform="translate(659.228516 0)"/>
     <use xlink:href="#DejaVuSerif-72" transform="translate(707.03125 0)"/>
     <use xlink:href="#DejaVuSerif-6f" transform="translate(754.833984 0)"/>
     <use xlink:href="#DejaVuSerif-72" transform="translate(815.039062 0)"/>
     <use xlink:href="#DejaVuSerif-22" transform="translate(862.841797 0)"/>
     <use xlink:href="#DejaVuSerif-20" transform="translate(908.837891 0)"/>
     <use xlink:href="#DejaVuSerif-45" transform="translate(940.625 0)"/>
     <use xlink:href="#DejaVuSerif-76" transform="translate(1013.623047 0)"/>
     <use xlink:href="#DejaVuSerif-61" transform="translate(1070.117188 0)"/>
     <use xlink:href="#DejaVuSerif-6c" transform="translate(1129.736328 0)"/>
     <use xlink:href="#DejaVuSerif-75" transform="translate(1161.71875 0)"/>
     <use xlink:href="#DejaVuSerif-61" transform="translate(1226.123047 0)"/>
     <use xlink:href="#DejaVuSerif-74" transform="translate(1285.742188 0)"/>
     <use xlink:href="#DejaVuSerif-69" transform="translate(1325.927734 0)"/>
     <use xlink:href="#DejaVuSerif-6f" transform="translate(1357.910156 0)"/>
     <use xlink:href="#DejaVuSerif-6e" transform="translate(1418.115234 0)"/>
     <use xlink:href="#DejaVuSerif-20" transform="translate(1482.519531 0)"/>
     <use xlink:href="#DejaVuSerif-28" transform="translate(1514.306641 0)"/>
     <use xlink:href="#DejaVuSerif-4c" transform="translate(1553.320312 0)"/>
     <use xlink:href="#DejaVuSerif-6f" transform="translate(1619.726562 0)"/>
     <use xlink:href="#DejaVuSerif-67" transform="translate(1679.931641 0)"/>
     <use xlink:href="#DejaVuSerif-2d" transform="translate(1743.945312 0)"/>
     <use xlink:href="#DejaVuSerif-6c" transform="translate(1777.734375 0)"/>
     <use xlink:href="#DejaVuSerif-6f" transform="translate(1809.716797 0)"/>
     <use xlink:href="#DejaVuSerif-67" transform="translate(1869.921875 0)"/>
     <use xlink:href="#DejaVuSerif-69" transform="translate(1933.935547 0)"/>
     <use xlink:href="#DejaVuSerif-73" transform="translate(1965.917969 0)"/>
     <use xlink:href="#DejaVuSerif-74" transform="translate(2017.236328 0)"/>
     <use xlink:href="#DejaVuSerif-69" transform="translate(2057.421875 0)"/>
     <use xlink:href="#DejaVuSerif-63" transform="translate(2089.404297 0)"/>
     <use xlink:href="#DejaVuSerif-20" transform="translate(2145.410156 0)"/>
     <use xlink:href="#DejaVuSerif-57" transform="translate(2177.197266 0)"/>
     <use xlink:href="#DejaVuSerif-69" transform="translate(2278.230469 0)"/>
     <use xlink:href="#DejaVuSerif-6e" transform="translate(2310.212891 0)"/>
     <use xlink:href="#DejaVuSerif-73" transform="translate(2374.617188 0)"/>
     <use xlink:href="#DejaVuSerif-29" transform="translate(2425.935547 0)"/>
    </g>
   </g>
  </g>
  <g id="axes_2">
   <g id="patch_13">
    <path d="M 290.245 174.509617 
L 510.08 174.509617 
L 510.08 17.2 
L 290.245 17.2 
z
" style="fill: #ffffff"/>
   </g>
   <g id="patch_14">
    <path d="M 300.2375 331.819234 
L 313.311799 331.819234 
L 313.311799 117.878155 
L 300.2375 117.878155 
z
" clip-path="url(#paf067fc0a4)" style="fill: #d3d3d3; stroke: #000000; stroke-linejoin: miter"/>
   </g>
   <g id="patch_15">
    <path d="M 337.59264 331.819234 
L 350.666939 331.819234 
L 350.666939 108.439578 
L 337.59264 108.439578 
z
" clip-path="url(#paf067fc0a4)" style="fill: #d3d3d3; stroke: #000000; stroke-linejoin: miter"/>
   </g>
   <g id="patch_16">
    <path d="M 374.94778 331.819234 
L 388.022079 331.819234 
L 388.022079 36.077154 
L 374.94778 36.077154 
z
" clip-path="url(#paf067fc0a4)" style="fill: #cd5c5c; stroke: #000000; stroke-linejoin: miter"/>
   </g>
   <g id="patch_17">
    <path d="M 412.302921 331.819234 
L 425.37722 331.819234 
L 425.37722 92.708616 
L 412.302921 92.708616 
z
" clip-path="url(#paf067fc0a4)" style="fill: #d3d3d3; stroke: #000000; stroke-linejoin: miter"/>
   </g>
   <g id="patch_18">
    <path d="M 449.658061 331.819234 
L 462.73236 331.819234 
L 462.73236 124.17054 
L 449.658061 124.17054 
z
" clip-path="url(#paf067fc0a4)" style="fill: #d3d3d3; stroke: #000000; stroke-linejoin: miter"/>
   </g>
   <g id="patch_19">
    <path d="M 487.013201 331.819234 
L 500.0875 331.819234 
L 500.0875 51.808116 
L 487.013201 51.808116 
z
" clip-path="url(#paf067fc0a4)" style="fill: #d3d3d3; stroke: #000000; stroke-linejoin: miter"/>
   </g>
   <g id="matplotlib.axis_3">
    <g id="xtick_7">
     <g id="line2d_19">
      <g>
       <use xlink:href="#mfc328755dc" x="306.77465" y="174.509617" style="stroke: #000000; stroke-width: 0.8"/>
      </g>
     </g>
     <g id="text_21">
      <!-- Cox-PH -->
      <g transform="translate(279.6405 201.959594) rotate(-30) scale(0.08 -0.08)">
       <use xlink:href="#DejaVuSerif-43"/>
       <use xlink:href="#DejaVuSerif-6f" transform="translate(76.513672 0)"/>
       <use xlink:href="#DejaVuSerif-78" transform="translate(136.71875 0)"/>
       <use xlink:href="#DejaVuSerif-2d" transform="translate(191.365234 0)"/>
       <use xlink:href="#DejaVuSerif-50" transform="translate(225.154297 0)"/>
       <use xlink:href="#DejaVuSerif-48" transform="translate(292.439453 0)"/>
      </g>
     </g>
    </g>
    <g id="xtick_8">
     <g id="line2d_20">
      <g>
       <use xlink:href="#mfc328755dc" x="344.12979" y="174.509617" style="stroke: #000000; stroke-width: 0.8"/>
      </g>
     </g>
     <g id="text_22">
      <!-- Exponential -->
      <g transform="translate(301.355222 210.989594) rotate(-30) scale(0.08 -0.08)">
       <use xlink:href="#DejaVuSerif-45"/>
       <use xlink:href="#DejaVuSerif-78" transform="translate(72.998047 0)"/>
       <use xlink:href="#DejaVuSerif-70" transform="translate(129.394531 0)"/>
       <use xlink:href="#DejaVuSerif-6f" transform="translate(193.408203 0)"/>
       <use xlink:href="#DejaVuSerif-6e" transform="translate(253.613281 0)"/>
       <use xlink:href="#DejaVuSerif-65" transform="translate(318.017578 0)"/>
       <use xlink:href="#DejaVuSerif-6e" transform="translate(377.197266 0)"/>
       <use xlink:href="#DejaVuSerif-74" transform="translate(441.601562 0)"/>
       <use xlink:href="#DejaVuSerif-69" transform="translate(481.787109 0)"/>
       <use xlink:href="#DejaVuSerif-61" transform="translate(513.769531 0)"/>
       <use xlink:href="#DejaVuSerif-6c" transform="translate(573.388672 0)"/>
      </g>
     </g>
    </g>
    <g id="xtick_9">
     <g id="line2d_21">
      <g>
       <use xlink:href="#mfc328755dc" x="381.48493" y="174.509617" style="stroke: #000000; stroke-width: 0.8"/>
      </g>
     </g>
     <g id="text_23">
      <!-- Weibull -->
      <g transform="translate(354.449291 201.902719) rotate(-30) scale(0.08 -0.08)">
       <use xlink:href="#DejaVuSerif-57"/>
       <use xlink:href="#DejaVuSerif-65" transform="translate(94.658203 0)"/>
       <use xlink:href="#DejaVuSerif-69" transform="translate(153.837891 0)"/>
       <use xlink:href="#DejaVuSerif-62" transform="translate(185.820312 0)"/>
       <use xlink:href="#DejaVuSerif-75" transform="translate(249.833984 0)"/>
       <use xlink:href="#DejaVuSerif-6c" transform="translate(314.238281 0)"/>
       <use xlink:href="#DejaVuSerif-6c" transform="translate(346.220703 0)"/>
      </g>
     </g>
    </g>
    <g id="xtick_10">
     <g id="line2d_22">
      <g>
       <use xlink:href="#mfc328755dc" x="418.84007" y="174.509617" style="stroke: #000000; stroke-width: 0.8"/>
      </g>
     </g>
     <g id="text_24">
      <!-- Lognormal -->
      <g transform="translate(379.883008 208.752719) rotate(-30) scale(0.08 -0.08)">
       <use xlink:href="#DejaVuSerif-4c"/>
       <use xlink:href="#DejaVuSerif-6f" transform="translate(66.40625 0)"/>
       <use xlink:href="#DejaVuSerif-67" transform="translate(126.611328 0)"/>
       <use xlink:href="#DejaVuSerif-6e" transform="translate(190.625 0)"/>
       <use xlink:href="#DejaVuSerif-6f" transform="translate(255.029297 0)"/>
       <use xlink:href="#DejaVuSerif-72" transform="translate(315.234375 0)"/>
       <use xlink:href="#DejaVuSerif-6d" transform="translate(363.037109 0)"/>
       <use xlink:href="#DejaVuSerif-61" transform="translate(457.861328 0)"/>
       <use xlink:href="#DejaVuSerif-6c" transform="translate(517.480469 0)"/>
      </g>
     </g>
    </g>
    <g id="xtick_11">
     <g id="line2d_23">
      <g>
       <use xlink:href="#mfc328755dc" x="456.19521" y="174.509617" style="stroke: #000000; stroke-width: 0.8"/>
      </g>
     </g>
     <g id="text_25">
      <!-- Log-logistic -->
      <g transform="translate(414.285002 210.457719) rotate(-30) scale(0.08 -0.08)">
       <use xlink:href="#DejaVuSerif-4c"/>
       <use xlink:href="#DejaVuSerif-6f" transform="translate(66.40625 0)"/>
       <use xlink:href="#DejaVuSerif-67" transform="translate(126.611328 0)"/>
       <use xlink:href="#DejaVuSerif-2d" transform="translate(190.625 0)"/>
       <use xlink:href="#DejaVuSerif-6c" transform="translate(224.414062 0)"/>
       <use xlink:href="#DejaVuSerif-6f" transform="translate(256.396484 0)"/>
       <use xlink:href="#DejaVuSerif-67" transform="translate(316.601562 0)"/>
       <use xlink:href="#DejaVuSerif-69" transform="translate(380.615234 0)"/>
       <use xlink:href="#DejaVuSerif-73" transform="translate(412.597656 0)"/>
       <use xlink:href="#DejaVuSerif-74" transform="translate(463.916016 0)"/>
       <use xlink:href="#DejaVuSerif-69" transform="translate(504.101562 0)"/>
       <use xlink:href="#DejaVuSerif-63" transform="translate(536.083984 0)"/>
      </g>
     </g>
    </g>
    <g id="xtick_12">
     <g id="line2d_24">
      <g>
       <use xlink:href="#mfc328755dc" x="493.55035" y="174.509617" style="stroke: #000000; stroke-width: 0.8"/>
      </g>
     </g>
     <g id="text_26">
      <!-- RSF -->
      <g transform="translate(477.948412 195.301469) rotate(-30) scale(0.08 -0.08)">
       <use xlink:href="#DejaVuSerif-52"/>
       <use xlink:href="#DejaVuSerif-53" transform="translate(75.292969 0)"/>
       <use xlink:href="#DejaVuSerif-46" transform="translate(143.798828 0)"/>
      </g>
     </g>
    </g>
   </g>
   <g id="matplotlib.axis_4">
    <g id="ytick_7">
     <g id="line2d_25">
      <path d="M 290.245 174.509617 
L 510.08 174.509617 
" clip-path="url(#paf067fc0a4)" style="fill: none; stroke-dasharray: 2.96,1.28; stroke-dashoffset: 0; stroke: #b0b0b0; stroke-opacity: 0.5; stroke-width: 0.8"/>
     </g>
     <g id="line2d_26">
      <g>
       <use xlink:href="#m0fcad22c19" x="290.245" y="174.509617" style="stroke: #000000; stroke-width: 0.8"/>
      </g>
     </g>
     <g id="text_27">
      <!-- 0.5 -->
      <g transform="translate(270.5225 177.548992) scale(0.08 -0.08)">
       <use xlink:href="#DejaVuSerif-30"/>
       <use xlink:href="#DejaVuSerif-2e" transform="translate(63.623047 0)"/>
       <use xlink:href="#DejaVuSerif-35" transform="translate(95.410156 0)"/>
      </g>
     </g>
    </g>
    <g id="ytick_8">
     <g id="line2d_27">
      <path d="M 290.245 143.047694 
L 510.08 143.047694 
" clip-path="url(#paf067fc0a4)" style="fill: none; stroke-dasharray: 2.96,1.28; stroke-dashoffset: 0; stroke: #b0b0b0; stroke-opacity: 0.5; stroke-width: 0.8"/>
     </g>
     <g id="line2d_28">
      <g>
       <use xlink:href="#m0fcad22c19" x="290.245" y="143.047694" style="stroke: #000000; stroke-width: 0.8"/>
      </g>
     </g>
     <g id="text_28">
      <!-- 0.6 -->
      <g transform="translate(270.5225 146.087069) scale(0.08 -0.08)">
       <use xlink:href="#DejaVuSerif-30"/>
       <use xlink:href="#DejaVuSerif-2e" transform="translate(63.623047 0)"/>
       <use xlink:href="#DejaVuSerif-36" transform="translate(95.410156 0)"/>
      </g>
     </g>
    </g>
    <g id="ytick_9">
     <g id="line2d_29">
      <path d="M 290.245 111.58577 
L 510.08 111.58577 
" clip-path="url(#paf067fc0a4)" style="fill: none; stroke-dasharray: 2.96,1.28; stroke-dashoffset: 0; stroke: #b0b0b0; stroke-opacity: 0.5; stroke-width: 0.8"/>
     </g>
     <g id="line2d_30">
      <g>
       <use xlink:href="#m0fcad22c19" x="290.245" y="111.58577" style="stroke: #000000; stroke-width: 0.8"/>
      </g>
     </g>
     <g id="text_29">
      <!-- 0.7 -->
      <g transform="translate(270.5225 114.625145) scale(0.08 -0.08)">
       <use xlink:href="#DejaVuSerif-30"/>
       <use xlink:href="#DejaVuSerif-2e" transform="translate(63.623047 0)"/>
       <use xlink:href="#DejaVuSerif-37" transform="translate(95.410156 0)"/>
      </g>
     </g>
    </g>
    <g id="ytick_10">
     <g id="line2d_31">
      <path d="M 290.245 80.123847 
L 510.08 80.123847 
" clip-path="url(#paf067fc0a4)" style="fill: none; stroke-dasharray: 2.96,1.28; stroke-dashoffset: 0; stroke: #b0b0b0; stroke-opacity: 0.5; stroke-width: 0.8"/>
     </g>
     <g id="line2d_32">
      <g>
       <use xlink:href="#m0fcad22c19" x="290.245" y="80.123847" style="stroke: #000000; stroke-width: 0.8"/>
      </g>
     </g>
     <g id="text_30">
      <!-- 0.8 -->
      <g transform="translate(270.5225 83.163222) scale(0.08 -0.08)">
       <use xlink:href="#DejaVuSerif-30"/>
       <use xlink:href="#DejaVuSerif-2e" transform="translate(63.623047 0)"/>
       <use xlink:href="#DejaVuSerif-38" transform="translate(95.410156 0)"/>
      </g>
     </g>
    </g>
    <g id="ytick_11">
     <g id="line2d_33">
      <path d="M 290.245 48.661923 
L 510.08 48.661923 
" clip-path="url(#paf067fc0a4)" style="fill: none; stroke-dasharray: 2.96,1.28; stroke-dashoffset: 0; stroke: #b0b0b0; stroke-opacity: 0.5; stroke-width: 0.8"/>
     </g>
     <g id="line2d_34">
      <g>
       <use xlink:href="#m0fcad22c19" x="290.245" y="48.661923" style="stroke: #000000; stroke-width: 0.8"/>
      </g>
     </g>
     <g id="text_31">
      <!-- 0.9 -->
      <g transform="translate(270.5225 51.701298) scale(0.08 -0.08)">
       <use xlink:href="#DejaVuSerif-30"/>
       <use xlink:href="#DejaVuSerif-2e" transform="translate(63.623047 0)"/>
       <use xlink:href="#DejaVuSerif-39" transform="translate(95.410156 0)"/>
      </g>
     </g>
    </g>
    <g id="ytick_12">
     <g id="line2d_35">
      <path d="M 290.245 17.2 
L 510.08 17.2 
" clip-path="url(#paf067fc0a4)" style="fill: none; stroke-dasharray: 2.96,1.28; stroke-dashoffset: 0; stroke: #b0b0b0; stroke-opacity: 0.5; stroke-width: 0.8"/>
     </g>
     <g id="line2d_36">
      <g>
       <use xlink:href="#m0fcad22c19" x="290.245" y="17.2" style="stroke: #000000; stroke-width: 0.8"/>
      </g>
     </g>
     <g id="text_32">
      <!-- 1.0 -->
      <g transform="translate(270.5225 20.239375) scale(0.08 -0.08)">
       <use xlink:href="#DejaVuSerif-31"/>
       <use xlink:href="#DejaVuSerif-2e" transform="translate(63.623047 0)"/>
       <use xlink:href="#DejaVuSerif-30" transform="translate(95.410156 0)"/>
      </g>
     </g>
    </g>
    <g id="text_33">
     <!-- Concordance Index (C-index) -->
     <g transform="translate(264.85875 155.044809) rotate(-90) scale(0.08 -0.08)">
      <use xlink:href="#DejaVuSerif-43"/>
      <use xlink:href="#DejaVuSerif-6f" transform="translate(76.513672 0)"/>
      <use xlink:href="#DejaVuSerif-6e" transform="translate(136.71875 0)"/>
      <use xlink:href="#DejaVuSerif-63" transform="translate(201.123047 0)"/>
      <use xlink:href="#DejaVuSerif-6f" transform="translate(257.128906 0)"/>
      <use xlink:href="#DejaVuSerif-72" transform="translate(317.333984 0)"/>
      <use xlink:href="#DejaVuSerif-64" transform="translate(365.136719 0)"/>
      <use xlink:href="#DejaVuSerif-61" transform="translate(429.150391 0)"/>
      <use xlink:href="#DejaVuSerif-6e" transform="translate(488.769531 0)"/>
      <use xlink:href="#DejaVuSerif-63" transform="translate(553.173828 0)"/>
      <use xlink:href="#DejaVuSerif-65" transform="translate(609.179688 0)"/>
      <use xlink:href="#DejaVuSerif-20" transform="translate(668.359375 0)"/>
      <use xlink:href="#DejaVuSerif-49" transform="translate(700.146484 0)"/>
      <use xlink:href="#DejaVuSerif-6e" transform="translate(739.648438 0)"/>
      <use xlink:href="#DejaVuSerif-64" transform="translate(804.052734 0)"/>
      <use xlink:href="#DejaVuSerif-65" transform="translate(868.066406 0)"/>
      <use xlink:href="#DejaVuSerif-78" transform="translate(927.246094 0)"/>
      <use xlink:href="#DejaVuSerif-20" transform="translate(983.642578 0)"/>
      <use xlink:href="#DejaVuSerif-28" transform="translate(1015.429688 0)"/>
      <use xlink:href="#DejaVuSerif-43" transform="translate(1054.443359 0)"/>
      <use xlink:href="#DejaVuSerif-2d" transform="translate(1130.957031 0)"/>
      <use xlink:href="#DejaVuSerif-69" transform="translate(1164.746094 0)"/>
      <use xlink:href="#DejaVuSerif-6e" transform="translate(1196.728516 0)"/>
      <use xlink:href="#DejaVuSerif-64" transform="translate(1261.132812 0)"/>
      <use xlink:href="#DejaVuSerif-65" transform="translate(1325.146484 0)"/>
      <use xlink:href="#DejaVuSerif-78" transform="translate(1384.326172 0)"/>
      <use xlink:href="#DejaVuSerif-29" transform="translate(1440.722656 0)"/>
     </g>
    </g>
   </g>
   <g id="patch_20">
    <path d="M 290.245 174.509617 
L 290.245 17.2 
" style="fill: none; stroke: #000000; stroke-width: 0.8; stroke-linejoin: miter; stroke-linecap: square"/>
   </g>
   <g id="patch_21">
    <path d="M 510.08 174.509617 
L 510.08 17.2 
" style="fill: none; stroke: #000000; stroke-width: 0.8; stroke-linejoin: miter; stroke-linecap: square"/>
   </g>
   <g id="patch_22">
    <path d="M 290.245 174.509617 
L 510.08 174.509617 
" style="fill: none; stroke: #000000; stroke-width: 0.8; stroke-linejoin: miter; stroke-linecap: square"/>
   </g>
   <g id="patch_23">
    <path d="M 290.245 17.2 
L 510.08 17.2 
" style="fill: none; stroke: #000000; stroke-width: 0.8; stroke-linejoin: miter; stroke-linecap: square"/>
   </g>
   <g id="text_34">
    <!-- 0.68 -->
    <g transform="translate(298.981681 113.276181) scale(0.07 -0.07)">
     <use xlink:href="#DejaVuSerif-30"/>
     <use xlink:href="#DejaVuSerif-2e" transform="translate(63.623047 0)"/>
     <use xlink:href="#DejaVuSerif-36" transform="translate(95.410156 0)"/>
     <use xlink:href="#DejaVuSerif-38" transform="translate(159.033203 0)"/>
    </g>
   </g>
   <g id="text_35">
    <!-- 0.71 -->
    <g transform="translate(336.336821 103.837604) scale(0.07 -0.07)">
     <use xlink:href="#DejaVuSerif-30"/>
     <use xlink:href="#DejaVuSerif-2e" transform="translate(63.623047 0)"/>
     <use xlink:href="#DejaVuSerif-37" transform="translate(95.410156 0)"/>
     <use xlink:href="#DejaVuSerif-31" transform="translate(159.033203 0)"/>
    </g>
   </g>
   <g id="text_36">
    <!-- 0.94 -->
    <g transform="translate(373.691961 31.47518) scale(0.07 -0.07)">
     <defs>
      <path id="DejaVuSerif-34" d="M 2234 1581 
L 2234 4063 
L 641 1581 
L 2234 1581 
z
M 3609 0 
L 1484 0 
L 1484 331 
L 2234 331 
L 2234 1247 
L 197 1247 
L 197 1588 
L 2241 4750 
L 2859 4750 
L 2859 1581 
L 3750 1581 
L 3750 1247 
L 2859 1247 
L 2859 331 
L 3609 331 
L 3609 0 
z
" transform="scale(0.015625)"/>
     </defs>
     <use xlink:href="#DejaVuSerif-30"/>
     <use xlink:href="#DejaVuSerif-2e" transform="translate(63.623047 0)"/>
     <use xlink:href="#DejaVuSerif-39" transform="translate(95.410156 0)"/>
     <use xlink:href="#DejaVuSerif-34" transform="translate(159.033203 0)"/>
    </g>
   </g>
   <g id="text_37">
    <!-- 0.76 -->
    <g transform="translate(411.047101 88.106643) scale(0.07 -0.07)">
     <use xlink:href="#DejaVuSerif-30"/>
     <use xlink:href="#DejaVuSerif-2e" transform="translate(63.623047 0)"/>
     <use xlink:href="#DejaVuSerif-37" transform="translate(95.410156 0)"/>
     <use xlink:href="#DejaVuSerif-36" transform="translate(159.033203 0)"/>
    </g>
   </g>
   <g id="text_38">
    <!-- 0.66 -->
    <g transform="translate(448.402242 119.568566) scale(0.07 -0.07)">
     <use xlink:href="#DejaVuSerif-30"/>
     <use xlink:href="#DejaVuSerif-2e" transform="translate(63.623047 0)"/>
     <use xlink:href="#DejaVuSerif-36" transform="translate(95.410156 0)"/>
     <use xlink:href="#DejaVuSerif-36" transform="translate(159.033203 0)"/>
    </g>
   </g>
   <g id="text_39">
    <!-- 0.89 -->
    <g transform="translate(485.757382 47.206142) scale(0.07 -0.07)">
     <use xlink:href="#DejaVuSerif-30"/>
     <use xlink:href="#DejaVuSerif-2e" transform="translate(63.623047 0)"/>
     <use xlink:href="#DejaVuSerif-38" transform="translate(95.410156 0)"/>
     <use xlink:href="#DejaVuSerif-39" transform="translate(159.033203 0)"/>
    </g>
   </g>
   <g id="text_40">
    <!-- (b) GIS "6-Mirror" Evaluation (Weibull Wins) -->
    <g transform="translate(298.321172 11.2) scale(0.09 -0.09)">
     <defs>
      <path id="DejaVuSerif-47" d="M 4097 3272 
Q 3988 3856 3641 4136 
Q 3294 4416 2675 4416 
Q 1869 4416 1472 3897 
Q 1075 3378 1075 2328 
Q 1075 1300 1484 772 
Q 1894 244 2688 244 
Q 3041 244 3362 331 
Q 3684 419 3975 594 
L 3975 1797 
L 3097 1797 
L 3097 2131 
L 4609 2131 
L 4609 391 
Q 4194 150 3714 29 
Q 3234 -91 2688 -91 
Q 1631 -91 995 570 
Q 359 1231 359 2328 
Q 359 3434 996 4092 
Q 1634 4750 2713 4750 
Q 3113 4750 3539 4658 
Q 3966 4566 4447 4378 
L 4447 3272 
L 4097 3272 
z
" transform="scale(0.015625)"/>
     </defs>
     <use xlink:href="#DejaVuSerif-28"/>
     <use xlink:href="#DejaVuSerif-62" transform="translate(39.013672 0)"/>
     <use xlink:href="#DejaVuSerif-29" transform="translate(103.027344 0)"/>
     <use xlink:href="#DejaVuSerif-20" transform="translate(142.041016 0)"/>
     <use xlink:href="#DejaVuSerif-47" transform="translate(173.828125 0)"/>
     <use xlink:href="#DejaVuSerif-49" transform="translate(253.710938 0)"/>
     <use xlink:href="#DejaVuSerif-53" transform="translate(293.212891 0)"/>
     <use xlink:href="#DejaVuSerif-20" transform="translate(361.71875 0)"/>
     <use xlink:href="#DejaVuSerif-22" transform="translate(393.505859 0)"/>
     <use xlink:href="#DejaVuSerif-36" transform="translate(439.501953 0)"/>
     <use xlink:href="#DejaVuSerif-2d" transform="translate(503.125 0)"/>
     <use xlink:href="#DejaVuSerif-4d" transform="translate(536.914062 0)"/>
     <use xlink:href="#DejaVuSerif-69" transform="translate(639.306641 0)"/>
     <use xlink:href="#DejaVuSerif-72" transform="translate(671.289062 0)"/>
     <use xlink:href="#DejaVuSerif-72" transform="translate(719.091797 0)"/>
     <use xlink:href="#DejaVuSerif-6f" transform="translate(766.894531 0)"/>
     <use xlink:href="#DejaVuSerif-72" transform="translate(827.099609 0)"/>
     <use xlink:href="#DejaVuSerif-22" transform="translate(874.902344 0)"/>
     <use xlink:href="#DejaVuSerif-20" transform="translate(920.898438 0)"/>
     <use xlink:href="#DejaVuSerif-45" transform="translate(952.685547 0)"/>
     <use xlink:href="#DejaVuSerif-76" transform="translate(1025.683594 0)"/>
     <use xlink:href="#DejaVuSerif-61" transform="translate(1082.177734 0)"/>
     <use xlink:href="#DejaVuSerif-6c" transform="translate(1141.796875 0)"/>
     <use xlink:href="#DejaVuSerif-75" transform="translate(1173.779297 0)"/>
     <use xlink:href="#DejaVuSerif-61" transform="translate(1238.183594 0)"/>
     <use xlink:href="#DejaVuSerif-74" transform="translate(1297.802734 0)"/>
     <use xlink:href="#DejaVuSerif-69" transform="translate(1337.988281 0)"/>
     <use xlink:href="#DejaVuSerif-6f" transform="translate(1369.970703 0)"/>
     <use xlink:href="#DejaVuSerif-6e" transform="translate(1430.175781 0)"/>
     <use xlink:href="#DejaVuSerif-20" transform="translate(1494.580078 0)"/>
     <use xlink:href="#DejaVuSerif-28" transform="translate(1526.367188 0)"/>
     <use xlink:href="#DejaVuSerif-57" transform="translate(1565.380859 0)"/>
     <use xlink:href="#DejaVuSerif-65" transform="translate(1660.039062 0)"/>
     <use xlink:href="#DejaVuSerif-69" transform="translate(1719.21875 0)"/>
     <use xlink:href="#DejaVuSerif-62" transform="translate(1751.201172 0)"/>
     <use xlink:href="#DejaVuSerif-75" transform="translate(1815.214844 0)"/>
     <use xlink:href="#DejaVuSerif-6c" transform="translate(1879.619141 0)"/>
     <use xlink:href="#DejaVuSerif-6c" transform="translate(1911.601562 0)"/>
     <use xlink:href="#DejaVuSerif-20" transform="translate(1943.583984 0)"/>
     <use xlink:href="#DejaVuSerif-57" transform="translate(1975.371094 0)"/>
     <use xlink:href="#DejaVuSerif-69" transform="translate(2076.404297 0)"/>
     <use xlink:href="#DejaVuSerif-6e" transform="translate(2108.386719 0)"/>
     <use xlink:href="#DejaVuSerif-73" transform="translate(2172.791016 0)"/>
     <use xlink:href="#DejaVuSerif-29" transform="translate(2224.109375 0)"/>
    </g>
   </g>
  </g>
 </g>
 <defs>
  <clipPath id="p0c55bdc240">
   <rect x="35.205" y="17.2" width="219.835" height="157.309617"/>
  </clipPath>
  <clipPath id="paf067fc0a4">
   <rect x="290.245" y="17.2" width="219.835" height="157.309617"/>
  </clipPath>
 </defs>
</svg>
